<svg xmlns="http://www.w3.org/2000/svg" viewBox="0 0 255.56 256" width="256" height="256"><defs><style>.cls-1{fill:#444;}</style></defs><path class="cls-1" d="M110.08,220.54C49.38,220.54,0,171.07,0,110.27S49.38,0,110.08,0,220.16,49.47,220.16,110.27,170.78,220.54,110.08,220.54Zm0-212.78c-56.42,0-102.32,46-102.32,102.51s45.9,102.51,102.32,102.51,102.32-46,102.32-102.51S166.5,7.76,110.08,7.76Z"/><path class="cls-1" d="M251.68,256a3.87,3.87,0,0,1-2.69-1.08l-65.14-62.56a3.88,3.88,0,1,1,5.38-5.6l65.13,62.56a3.88,3.88,0,0,1-2.68,6.68Z"/></svg>