<svg xmlns="http://www.w3.org/2000/svg" viewBox="0 0 256 174.93" width="256" height="175"><defs><style>.cls-1{fill:#444;}</style></defs><path class="cls-1" d="M251.73,0H4.27A4.27,4.27,0,0,0,0,4.27v166.4a4.27,4.27,0,0,0,4.27,4.26H251.73a4.27,4.27,0,0,0,4.27-4.26V4.27A4.27,4.27,0,0,0,251.73,0Zm-4.26,166.4H8.53V8.53H247.47Z"/><path class="cls-1" d="M234.67,17.07H204.8a4.27,4.27,0,0,0-4.27,4.26V55.47a4.27,4.27,0,0,0,4.27,4.26h29.87a4.26,4.26,0,0,0,4.26-4.26V21.33A4.26,4.26,0,0,0,234.67,17.07ZM230.4,51.2H209.07V25.6H230.4Z"/><path class="cls-1" d="M157.87,12.8a4.27,4.27,0,0,0-4.27,4.27v115.2a4.27,4.27,0,0,0,8.53,0V17.07A4.27,4.27,0,0,0,157.87,12.8Z"/><path class="cls-1" d="M234.67,85.33H174.93a4.27,4.27,0,0,0,0,8.54h59.74a4.27,4.27,0,0,0,0-8.54Z"/><path class="cls-1" d="M234.67,102.4H174.93a4.27,4.27,0,0,0,0,8.53h59.74a4.27,4.27,0,0,0,0-8.53Z"/><path class="cls-1" d="M200.53,119.47h-25.6a4.27,4.27,0,0,0,0,8.53h25.6a4.27,4.27,0,1,0,0-8.53Z"/><path class="cls-1" d="M157.87,145.07a4.27,4.27,0,0,0-4.27,4.26v4.27a4.27,4.27,0,1,0,8.53,0v-4.27A4.26,4.26,0,0,0,157.87,145.07Z"/><path class="cls-1" d="M38.4,85.33H34.13a4.27,4.27,0,0,0,0,8.54H38.4a4.27,4.27,0,0,0,0-8.54Z"/><path class="cls-1" d="M136.53,85.33H55.47a4.27,4.27,0,1,0,0,8.54h81.06a4.27,4.27,0,1,0,0-8.54Z"/><path class="cls-1" d="M110.93,102.4H34.13a4.27,4.27,0,0,0,0,8.53h76.8a4.27,4.27,0,1,0,0-8.53Z"/><path class="cls-1" d="M136.53,102.4H128a4.27,4.27,0,1,0,0,8.53h8.53a4.27,4.27,0,1,0,0-8.53Z"/><path class="cls-1" d="M119.47,119.47H34.13a4.27,4.27,0,0,0,0,8.53h85.34a4.27,4.27,0,0,0,0-8.53Z"/></svg>