<?xml version="1.0" encoding="utf-8"?>
<!-- Generator: Adobe Illustrator 28.2.0, SVG Export Plug-In . SVG Version: 6.00 Build 0)  -->
<svg version="1.1" id="レイヤー_1" xmlns="http://www.w3.org/2000/svg" xmlns:xlink="http://www.w3.org/1999/xlink" x="0px"
	 y="0px" viewBox="0 0 2400 440" style="enable-background:new 0 0 2400 440;" xml:space="preserve">
<style type="text/css">
	.st0{fill:#FFFFFF;}
	.st1{fill:#F7EE4D;}
	.st2{fill:#444444;}
	.st3{fill:none;stroke:#FFFFFF;stroke-width:3.0257;stroke-miterlimit:10;}
	.st4{fill:none;stroke:#231815;stroke-width:3.6009;stroke-linecap:round;stroke-linejoin:round;stroke-miterlimit:10;}
	.st5{fill:#202020;stroke:#FFFFFF;stroke-width:3.8326;stroke-miterlimit:10;}
	.st6{fill:none;stroke:#000000;stroke-width:3.6009;stroke-linecap:round;stroke-linejoin:round;stroke-miterlimit:10;}
	.st7{fill-rule:evenodd;clip-rule:evenodd;}
	.st8{fill:none;stroke:#F7EE4D;stroke-width:13;}
	.st9{fill:#040000;}
</style>
<g id="固定">
	<path class="st0" d="M2379,0H21C9.4,0,0,9.4,0,21v398c0,11.6,9.4,21,21,21h2358c11.6,0,21-9.4,21-21V21C2400,9.4,2390.6,0,2379,0z"
		/>
	<path class="st1" d="M2194.9,308.6h-482.6c-50.6,0-91.7-41-91.7-91.7l0,0c0-50.6,41-91.7,91.7-91.7h482.6c50.6,0,91.7,41,91.7,91.7
		l0,0C2286.6,267.6,2245.6,308.6,2194.9,308.6z"/>
	<g>
		<path class="st2" d="M1805.7,200.2c5.1,7.2,13.7,14.6,21.3,18.7c-0.9,0.8-1.8,2-2.4,3.1c-7.5-4.5-16-12-20.4-18.2
			c-3.9,6-11.8,13.5-19.9,18.5c-0.4-0.8-1.5-2-2.3-2.8c8.4-4.8,16.5-12.8,20.3-19.2h3.4V200.2z M1817.4,224.9l2.8,0.8
			c-2.3,5.4-6,13.2-9.1,19.2l-3.7-1c2.5-4.8,5.5-10.9,7.5-15.4h-27.3v-3.4h29.2L1817.4,224.9z M1815,215.6v3.3h-21.2v-3.3H1815z"/>
		<path class="st2" d="M1859.8,212.2c0,2.7,0,5.7,0.1,7.9c1,1.7,1.6,3.8,1.6,6.2c0,6.5-3.2,13.8-14.3,17.1l-3.4-3.3
			c6.3-1.5,10.8-4.1,12.8-8.4c-1.2,0.8-2.5,1.2-4.1,1.2c-4.1,0-8-2.9-8-8.1c0-4.8,3.9-8.4,8.5-8.4c1.2,0,2.2,0.2,3.2,0.5
			c0-1.4,0-3.1,0-4.8c-7.3,0-15.5,0.4-21.5,0.8l-0.1-3.8c5.3-0.1,14.4-0.4,21.5-0.5c0-1.4,0-2.5-0.1-3.2c0-1-0.2-2.4-0.3-3h4.4
			l-0.2,3c0,0.7,0,1.8,0,3.1h0.7c5.8,0,11.8,0,14.1,0v3.6c-2.7-0.1-7.1-0.2-14.2-0.2h-0.7V212.2z M1857.2,222.8
			c-0.8-2.1-2.4-3-4.3-3c-2.5,0-4.9,1.9-4.9,5.1c0,3,2.2,4.8,4.9,4.8C1855.8,229.6,1857.7,227.4,1857.2,222.8z"/>
		<path class="st2" d="M1912.8,205.3c-1,0.8-2.5,2-3.3,2.7c-3.3,2.9-10.2,8.4-13.8,11.3c-2.9,2.5-3,3.3,0.1,5.8
			c4.4,3.5,13.3,10.9,18,15.6l-3.5,3.2c-1-1.2-2.3-2.4-3.3-3.5c-2.6-2.8-10.7-9.7-15.2-13.4c-4.6-3.8-4-6,0.3-9.6
			c3.6-3.1,10.9-8.8,14.2-12.1c1-1,2.2-2.3,2.8-3.2L1912.8,205.3z M1914.6,220.5l-2.7,1.2c-1-2-2.8-5.3-4.1-7.2l2.6-1.1
			C1911.5,215.1,1913.5,218.6,1914.6,220.5z M1920.3,218.2l-2.6,1.2c-1.1-2-2.9-5.2-4.3-7l2.6-1.2
			C1917.3,212.9,1919.3,216.2,1920.3,218.2z"/>
		<path class="st2" d="M1974.2,208.3c-2.1,2-4.9,4.1-7.2,5.8c2.7,2.2,5.7,4,8.9,5.3c-0.8,0.7-1.8,2-2.4,3c-4.1-1.8-8-4.6-11.3-8v2.6
			h-17.9v-2.2c-3.5,3.5-7.7,6.4-11.7,8.2c-0.5-0.7-1.5-2-2.2-2.6c3.3-1.4,6.8-3.6,9.8-6.3c-1.5-1.6-4.1-3.6-6.3-5l2-2
			c2.3,1.4,5,3.3,6.5,5c1.9-2,3.6-4.3,4.9-6.7h-12.1v-3.1h13.8l0.7-0.1l2.3,1.2c-1.6,4-3.9,7.5-6.8,10.6h16.5
			c-3.4-3.6-6.2-7.8-8.2-12.4l3.1-1c0.9,2,2,4.1,3.4,6c2.2-1.8,4.7-4,6.3-5.7l2.7,1.9c-2.2,2.1-5,4.3-7.3,5.9c1,1.3,2.1,2.5,3.3,3.6
			c2.4-1.8,5.1-4,6.7-5.8L1974.2,208.3z M1964,233.9c-1.2,2.4-2.5,4.9-3.6,6.7h13.9v3.1h-42v-3.1h13.2c-0.5-1.9-1.7-4.6-2.8-6.6
			l2.7-0.7h-5.5v-12.4h26.7v12.4h-4.9L1964,233.9z M1943.3,230.2h19.6v-6.4h-19.6V230.2z M1946,233.2c1.3,2.1,2.5,4.8,3.1,6.6
			l-2.2,0.7h11.7l-1.6-0.4c1.2-1.8,2.6-4.8,3.5-6.9L1946,233.2L1946,233.2z"/>
		<path class="st2" d="M2009.1,234.6c-3.1,2.4-6.4,4.8-9.2,6.8l-1.1-1.9c-6.1,1.4-12.4,2.7-17.2,3.7l-0.7-3.4c2.2-0.3,5-0.9,8-1.5
			v-14.7h-7.6v-3.2h7.6v-5.2h-5V213c-0.6,0.6-1.3,1.3-2,1.9c-0.5-0.7-1.6-1.8-2.2-2.3c4.4-3.7,7.5-8.6,9.1-12.4h3.3
			c2.9,2.6,6.4,6.2,8.1,8.7l-2.4,2.7c-1.5-2.2-4.3-5.6-6.9-8.1c-1.5,2.6-3.5,5.7-6.1,8.6h12.9v3.1h-5.6v5.2h7v3.2h-7v14.1l6.7-1.4
			l0.1,1.5c2.5-1.5,5.8-3.8,9.1-6L2009.1,234.6z M1984.9,226.3c1,2.9,1.8,6.7,1.9,9.1l-2.7,0.7c-0.1-2.5-0.8-6.3-1.8-9.2
			L1984.9,226.3z M1993.8,234.6c0.7-2.3,1.6-6.2,2-8.8l2.8,0.7c-0.8,3-1.7,6.4-2.4,8.7L1993.8,234.6z M2013.4,220.9
			c1.6,6.3,5.2,14.2,12.4,17.9c-0.7,0.6-1.8,2-2.4,2.9c-4.9-3-8-7.8-10.1-12.5V241c0,1.7-0.3,2.7-1.5,3.2c-1.1,0.5-3,0.5-5.6,0.5
			c-0.1-0.9-0.6-2.2-1-3.2c1.8,0.1,3.5,0,4,0s0.7-0.1,0.7-0.7v-21.1h-10.8v-3.2h18.5v-4.2h-15v-2.9h15v-4.2h-16v-3.1h19.3v14.4h4
			v3.2h-11.6L2013.4,220.9L2013.4,220.9z M2005.4,230.5c-1-1.8-3.2-4.7-5.2-6.6l2.4-1.6c2.1,1.9,4.4,4.6,5.4,6.4L2005.4,230.5z
			 M2016.1,228.4c1.8-1.8,4.3-4.8,5.6-6.9l2.8,1.8c-1.9,2.4-4.3,5-6.2,6.7L2016.1,228.4z"/>
		<path class="st2" d="M2058.2,212.2c0,2.7,0,5.7,0.1,7.9c1,1.7,1.6,3.8,1.6,6.2c0,6.5-3.2,13.8-14.3,17.1l-3.4-3.3
			c6.3-1.5,10.8-4.1,12.8-8.4c-1.2,0.8-2.5,1.2-4.1,1.2c-4.1,0-8-2.9-8-8.1c0-4.8,3.9-8.4,8.5-8.4c1.2,0,2.2,0.2,3.2,0.5
			c0-1.4,0-3.1,0-4.8c-7.3,0-15.5,0.4-21.5,0.8l-0.1-3.8c5.3-0.1,14.4-0.4,21.5-0.5c0-1.4,0-2.5-0.1-3.2c0-1-0.2-2.4-0.3-3h4.4
			l-0.2,3c0,0.7,0,1.8,0,3.1h0.7c5.8,0,11.8,0,14.1,0v3.6c-2.7-0.1-7.1-0.2-14.2-0.2h-0.7V212.2z M2055.6,222.8
			c-0.8-2.1-2.4-3-4.3-3c-2.5,0-4.9,1.9-4.9,5.1c0,3,2.2,4.8,4.9,4.8C2054.2,229.6,2056.1,227.4,2055.6,222.8z"/>
		<path class="st2" d="M2114.1,207.3c-0.9,0.6-1.9,1.3-2.7,1.8c-2.4,1.8-8.9,7.5-12.5,10.6c2.2-0.7,4.4-1,6.5-1
			c8,0,13.8,4.9,13.8,11.4c0,7.8-6.5,12.8-16.6,12.8c-6.6,0-10.6-2.9-10.6-6.9c0-3.3,3-6.3,7.4-6.3c6,0,9.3,4,9.9,8.5
			c3.8-1.5,6-4.2,6-8.2c0-4.7-4.8-8.2-10.8-8.2c-7.9,0-12.3,3.4-18.4,9.6l-2.8-2.9c4-3.3,10.2-8.5,13-10.8c2.7-2.2,8.7-7.3,11-9.4
			c-2.5,0.1-12,0.5-14.5,0.7c-1.1,0-2.2,0.1-3.3,0.3l-0.1-4c1.1,0.1,2.4,0.1,3.4,0.1c2.5,0,13.9-0.3,16.4-0.6
			c1.4-0.1,2.1-0.2,2.6-0.4L2114.1,207.3z M2105.7,239.1c-0.4-3.8-2.7-6.4-6.4-6.4c-2.2,0-3.8,1.3-3.8,3c0,2.4,2.8,3.7,6.4,3.7
			C2103.3,239.4,2104.6,239.3,2105.7,239.1z"/>
	</g>
	<g>
		<path class="st0" d="M516.6,351.6H398.9c-9.2,0-16.6-7.4-16.6-16.6V96.6c0-9.2,7.4-16.6,16.6-16.6h117.6c9.2,0,16.6,7.4,16.6,16.6
			V335C533.2,344.2,525.7,351.6,516.6,351.6z"/>
		<g>
			<g>
				<path d="M480.7,190.4l-5.5-10.2c-0.6-1.1-1.8-1.9-3.1-1.9h-27.9c-1.3,0-2.5,0.7-3.1,1.8l-5.6,10.2h-4.9v-3
					c0-0.9-0.8-1.7-1.7-1.7h-2.8c-0.9,0-1.7,0.8-1.7,1.7v3h-5.3c-1.6,0-2.9,1.3-2.9,2.9v45.3c0,1.6,1.3,2.9,2.9,2.9h77.8
					c1.6,0,2.9-1.3,2.9-2.9v-45.3c0-1.6-1.3-2.9-2.9-2.9L480.7,190.4L480.7,190.4z"/>
				<circle class="st3" cx="458" cy="215.9" r="16.6"/>
				<circle class="st0" cx="490.8" cy="199.4" r="3"/>
			</g>
			<g>
				<polyline class="st4" points="403.3,135.4 403.3,113.6 425.7,113.6 				"/>
				<polyline class="st4" points="491,113.3 512.7,113.3 512.7,135.7 				"/>
			</g>
			<g>
				<polyline class="st4" points="512.7,295.3 512.7,317.1 490.4,317.1 				"/>
				<polyline class="st4" points="425.1,317.4 403.3,317.4 403.3,295.1 				"/>
			</g>
			<g id="Page-1_00000011730742250156605410000017484070055801961868_">
				<g id="_x30_33---Apps_00000131332292809918462840000010957192715152166051_">
					<path id="Shape_00000169550522252039498640000012897281738927010483_" class="st5" d="M520.4,71.3H395.6
						c-9.8,0-17.8,8-17.8,17.8v250c0,9.8,8,17.8,17.8,17.8h124.8c9.8,0,17.8-8,17.8-17.8v-250C538.3,79.3,530.3,71.3,520.4,71.3z
						 M386.7,89.1c0-4.9,4-8.9,8.9-8.9h15.9l11.4,6.4c4,3.1,10.3,5.6,13,5.6h42.3c4.9,0,10.4-2.1,15.1-5.6l11.2-6.4h15.9
						c4.9,0,8.9,4,8.9,8.9V338c0,4.9-4,8.9-8.9,8.9H395.6c-4.9,0-8.9-4-8.9-8.9V89.1z"/>
				</g>
			</g>
		</g>
	</g>
	<polyline class="st6" points="344.1,196 318.6,217 344.1,238.1 	"/>
	<g>
		<polyline class="st6" points="165.3,340.8 165.3,87.1 281.6,87.1 281.6,340.8 		"/>
		<g>
			<line class="st6" x1="182.4" y1="221" x2="267" y2="221"/>
			<line class="st6" x1="182.4" y1="236.2" x2="267" y2="236.2"/>
			<line class="st6" x1="182.4" y1="251.3" x2="267" y2="251.3"/>
			<line class="st6" x1="221.5" y1="266.4" x2="267" y2="266.4"/>
			<line class="st6" x1="221.5" y1="296.6" x2="267" y2="296.6"/>
			<line class="st6" x1="221.5" y1="281.5" x2="267" y2="281.5"/>
			<g>
				<path d="M206.9,280.1c1.5,0,1.6,1.1,1.6,1.5c0,1-0.5,1.6-1.6,1.6h-10.1v0.1v5.2h10.1c1.5,0,1.6,1.1,1.6,1.5c0,1-0.5,1.5-1.6,1.5
					h-10.1v7.5c0,2-1.5,2-2.1,2c-1.4,0-2.2-0.7-2.2-2v-7.5h-10.2c-1.4,0-1.6-1.1-1.6-1.5c0-1,0.6-1.6,1.6-1.6h10.2v-5.2l-0.1-0.1
					h-10.1c-1.4,0-1.6-1.1-1.6-1.5c0-1,0.6-1.5,1.6-1.5h8.2l-8.3-13c-0.5-0.7-0.7-1.1-0.7-1.6c0-1.1,1.3-1.8,2.3-1.8
					c0.9,0,1.2,0.5,1.8,1.3l9.1,14.6l9.2-14.6c0.5-0.8,0.8-1.3,1.7-1.3c1.1,0,2.3,0.8,2.3,1.8c0,0.6-0.3,1-0.7,1.6l-8.3,13H206.9z"
					/>
			</g>
		</g>
		<g>
			<g transform="matrix(0.671642,0,0,0.671642,115.455,159.263)">
				<g transform="matrix(0.495014,0,0,0.495007,23.1717,-121.44)">
					<path class="st7" d="M246.4,88h-96.8v96.8h96.8V88z M229.6,104.9V168h-63.1v-63.1H229.6L229.6,104.9z"/>
				</g>
				<g transform="matrix(0.166236,0,0,0.166234,168.971,209.019)">
					<rect x="-335.7" y="-1630.1" class="st7" width="96.8" height="96.8"/>
				</g>
			</g>
			<g transform="matrix(0.671642,0,0,0.671642,239.209,159.263)">
				<g transform="matrix(0.495014,0,0,0.495007,23.1717,-121.44)">
					<path class="st7" d="M35.5,88h-96.8v96.8h96.8V88z M18.6,104.9V168h-63.1v-63.1H18.6L18.6,104.9z"/>
				</g>
				<g transform="matrix(0.166236,0,0,0.166234,168.971,209.019)">
					<rect x="-963.9" y="-1630.1" class="st7" width="96.8" height="96.8"/>
				</g>
			</g>
			<g transform="matrix(0.671642,0,0,0.671642,115.455,283.014)">
				<g transform="matrix(0.495014,0,0,0.495007,23.1717,-121.44)">
					<path class="st7" d="M246.4-122.9h-96.8v96.8h96.8V-122.9z M229.6-106.1V-43h-63.1v-63.1H229.6L229.6-106.1z"/>
				</g>
				<g transform="matrix(0.166236,0,0,0.166234,168.971,209.019)">
					<rect x="-335.7" y="-2258.2" class="st7" width="96.8" height="96.8"/>
				</g>
			</g>
			<g transform="matrix(0.671642,0,0,0.671642,115.455,159.263)">
				<g transform="matrix(0.539818,0,0,0.539811,12.868,-175.392)">
					<rect x="156.3" y="269.4" class="st7" width="29.6" height="29.6"/>
				</g>
				<g transform="matrix(0.539818,0,0,0.539811,49.719,-138.542)">
					<rect x="117.6" y="230.7" class="st7" width="29.6" height="29.6"/>
				</g>
				<g transform="matrix(0.539818,0,0,0.539811,86.57,-175.392)">
					<rect x="78.9" y="269.4" class="st7" width="29.6" height="29.6"/>
				</g>
				<g transform="matrix(0.539818,0,0,0.539811,123.421,-138.542)">
					<rect x="40.3" y="230.7" class="st7" width="29.6" height="29.6"/>
				</g>
				<g transform="matrix(0.539818,0,0,0.539811,123.421,-285.944)">
					<rect x="40.3" y="385.5" class="st7" width="29.6" height="29.6"/>
				</g>
				<g transform="matrix(0.539818,0,0,0.539811,160.272,-175.392)">
					<rect x="1.6" y="269.4" class="st7" width="29.6" height="29.6"/>
				</g>
				<g transform="matrix(0.539818,0,0,0.539811,123.421,-212.243)">
					<rect x="40.3" y="308.1" class="st7" width="29.6" height="29.6"/>
				</g>
				<g transform="matrix(0.539818,0,0,0.539811,160.272,-249.094)">
					<rect x="1.6" y="346.8" class="st7" width="29.6" height="29.6"/>
				</g>
				<g transform="matrix(0.539818,0,0,0.539811,197.123,-138.542)">
					<rect x="-37.1" y="230.7" class="st7" width="29.6" height="29.6"/>
				</g>
				<g transform="matrix(0.539818,0,0,0.539811,233.974,-175.392)">
					<rect x="-75.8" y="269.4" class="st7" width="29.6" height="29.6"/>
				</g>
				<g transform="matrix(0.539818,0,0,0.539811,160.272,-27.9904)">
					<rect x="1.6" y="114.7" class="st7" width="29.6" height="29.6"/>
				</g>
				<g transform="matrix(0.539818,0,0,0.539811,233.974,-27.9904)">
					<rect x="-75.8" y="114.7" class="st7" width="29.6" height="29.6"/>
				</g>
				<g transform="matrix(0.539818,0,0,0.539811,160.272,-101.691)">
					<rect x="1.6" y="192" class="st7" width="29.6" height="29.6"/>
				</g>
				<g transform="matrix(0.539818,0,0,0.539811,233.974,-101.691)">
					<rect x="-75.8" y="192" class="st7" width="29.6" height="29.6"/>
				</g>
				<g transform="matrix(0.539818,0,0,0.539811,270.825,-138.542)">
					<rect x="-114.5" y="230.7" class="st7" width="29.6" height="29.6"/>
				</g>
				<g transform="matrix(0.539818,0,0,0.539811,123.421,-64.8409)">
					<rect x="40.3" y="153.4" class="st7" width="29.6" height="29.6"/>
				</g>
				<g transform="matrix(0.539818,0,0,0.539811,197.123,-64.8409)">
					<rect x="-37.1" y="153.4" class="st7" width="29.6" height="29.6"/>
				</g>
				<g transform="matrix(0.539818,0,0,0.539811,270.825,-64.8409)">
					<rect x="-114.5" y="153.4" class="st7" width="29.6" height="29.6"/>
				</g>
			</g>
		</g>
		<polyline class="st6" points="281.6,341.2 269.9,333.1 258.3,341.2 246.7,333.1 235.1,341.2 223.5,333.1 211.8,341.2 200.2,333.1 
			188.6,341.2 177,333.1 165.3,341.2 		"/>
	</g>
	<g>
		<path d="M640.1,277.6v-34.9c0-1.6-0.3-4.3-0.5-5.6h6c-0.2,1.5-0.4,3.8-0.4,5.6v34.6c11.7-2.9,25.8-11,33.4-20.8l2.7,4.3
			c-7.9,9.8-20.5,17.4-35.7,21.8c-0.7,0.2-1.6,0.5-2.6,1.1l-3.5-3C639.9,279.6,640.1,278.8,640.1,277.6z"/>
		<path d="M707.6,257.6l-2.8,4.3c-3-2.2-9.6-6.5-13.3-8.4l2.7-4.1C697.8,251.3,704.9,255.7,707.6,257.6z M714.7,272.1
			c10.1-5.8,18.2-13.7,23.1-22.3l2.9,5c-5.2,8.2-13.7,16.1-23.4,21.8c-6.2,3.5-14.6,6.4-20.3,7.6l-2.8-4.9
			C701,278.1,708.5,275.7,714.7,272.1z M716.7,244.2l-2.9,4.1c-2.9-2.2-9.5-6.6-13.1-8.7l2.7-4.1C707,237.7,714,242.3,716.7,244.2z"
			/>
		<path d="M761.4,256.4h33.4c3.1,0,5.2-0.2,6.6-0.3v6c-1.2-0.1-3.8-0.3-6.5-0.3h-33.5c-3.4,0-6.6,0.1-8.5,0.3v-6
			C754.7,256.2,758,256.4,761.4,256.4z"/>
		<path d="M821.6,241.6c0-1.7-0.1-4.5-0.5-6.3h6c-0.2,1.9-0.4,4.5-0.4,6.3c0,2.6,0,6.1,0,9.9c8.1,2.4,19.6,6.8,26,10.1l-2.1,5.2
			c-6.6-3.6-17.2-7.7-24-9.8c0.1,9.2,0.1,18.4,0.1,20.1c0,1.9,0.1,5.2,0.4,7.2h-5.9c0.3-2,0.4-4.9,0.4-7.2V241.6z"/>
		<path d="M886.8,241.3c6.2-0.3,12.9-0.9,18.6-1.9l-0.1,4.5c-6,1-13.6,1.5-20.3,1.7c-1.4,3.2-3.4,6.7-5.5,9.5
			c2.3-1.5,5.9-2.3,8.5-2.3c4,0,7.2,2,8.2,5.5c4.1-2,7.9-3.5,11-4.9c1.8-0.8,3.3-1.5,5-2.4l2,4.6c-1.6,0.4-3.8,1.3-5.4,2
			c-3.4,1.3-7.7,3.1-12.4,5.2c0.1,3.5,0.1,8.7,0.2,11.7H892c0.1-2.3,0.2-6.3,0.2-9.5c-5.7,3-9.6,6.2-9.6,10.2c0,4.8,4.8,5.5,11,5.5
			c4.8,0,11.3-0.5,16.7-1.5l-0.1,4.9c-4.6,0.6-11.4,1.1-16.7,1.1c-8.7,0-15.7-1.9-15.7-9.3c0-7.2,7.3-11.7,14.4-15.4
			c-0.6-2.6-2.8-3.8-5.6-3.8c-3.8,0-7.7,1.9-10.5,4.5c-1.8,1.6-3.5,3.9-5.6,6.3l-4.1-3.1c7.7-7.4,11.8-13.7,14.1-18.7
			c-0.9,0-1.8,0-2.7,0c-2.6,0-6.6-0.1-10-0.4v-4.6c3.2,0.4,7.5,0.7,10.3,0.7c1.3,0,2.7,0,4-0.1c0.9-2.6,1.4-5.4,1.5-7.6l5,0.4
			C888.2,236.1,887.8,238.5,886.8,241.3z"/>
		<path d="M959.1,258.5v28.8h-3.8v-6c-5.4,1-10.7,2-15.1,2.7l-1.2-3.8c1.5-0.2,3.2-0.4,5.1-0.7v-20.9h-3.3l0.4,2.9l-6.2,2.1V282
			c0,2.4-0.5,3.6-2,4.4c-1.4,0.6-3.7,0.8-7.5,0.7c-0.2-1-0.7-2.9-1.3-4.1c2.6,0.1,5,0.1,5.7,0.1s1-0.2,1-1.1v-17.2
			c-2.6,0.9-4.9,1.6-7.1,2.3l-1.2-4.4c2.3-0.6,5.2-1.5,8.3-2.4v-12.4h-7.4v-4.1h7.4v-12.2h4.1v12.2h5.6v4.1H935V259l5.2-1.6v-2.6
			h39.1v3.7H959.1z M975,251.4h-29.1v-18.1H975V251.4z M955.3,258.5h-7.4v4.4h7.4V258.5z M947.9,270.4h7.4v-4.3h-7.4V270.4z
			 M955.3,277.7v-4h-7.4v5.1L955.3,277.7z M970.7,236.6H950v4.3h20.6v-4.3H970.7z M970.7,243.9H950v4.3h20.6v-4.3H970.7z
			 M977.6,262.7c-1.1,6.4-3.1,11.5-5.8,15.6c2.3,2.4,5,4.5,8.1,5.7c-0.9,0.7-2,2.2-2.6,3.2c-2.9-1.5-5.5-3.5-7.7-6
			c-2.3,2.5-4.9,4.5-7.8,5.9c-0.4-1-1.5-2.4-2.3-3.2c2.9-1.3,5.4-3.3,7.6-5.9c-2.2-3.2-4-6.8-5.2-10.9l3.3-0.9c1,3.1,2.4,6,4.2,8.7
			c1.6-2.7,2.9-5.7,3.8-9.3h-12.6v-3.5h14l0.7-0.1L977.6,262.7z"/>
		<path d="M1001.3,237.8c3.2,0,17.7-0.5,20.9-0.8c1.8-0.1,2.7-0.3,3.3-0.5l2.8,3.5c-1.1,0.8-2.3,1.6-3.4,2.5
			c-3.1,2.3-11.3,9.4-16.1,13.4c2.8-1,5.7-1.3,8.5-1.3c10.1,0,17.4,6.1,17.4,14.3c0,9.8-8.1,16.2-21,16.2c-8.3,0-13.4-3.6-13.4-8.7
			c0-4.2,3.7-7.9,9.4-7.9c7.6,0,11.7,5,12.4,10.8c4.9-1.9,7.6-5.4,7.6-10.4c0-6-5.7-10.5-13.7-10.5c-10.2,0-15.6,4.3-23.4,12.2
			l-3.5-3.6c5.1-4.1,12.9-10.7,16.4-13.7c3.4-2.8,11-9.2,14.2-12c-3.2,0.1-15.4,0.7-18.7,0.9c-1.3,0.1-2.7,0.2-4,0.4l-0.2-5.1
			C998.4,237.7,1000.1,237.8,1001.3,237.8z M1012.9,280.9c1.8,0,3.4-0.1,4.9-0.4c-0.5-4.8-3.5-8.3-8.2-8.3c-2.7,0-4.9,1.8-4.9,3.9
			C1004.8,279,1008.1,280.9,1012.9,280.9z"/>
		<path d="M1064.3,240.2c-0.2,1.3-0.6,2.9-0.9,4.5c4-0.5,8-1.2,11.7-2.1v4.8c-4,0.9-8.4,1.6-12.7,2.1c-0.6,2.7-1.2,5.5-2,8.2
			c-2.2,8.7-6.3,21.3-9.5,27.9l-5.4-1.8c3.7-6.3,8-18.7,10.2-27.3c0.5-2,1.1-4.3,1.6-6.5c-2,0.1-3.9,0.2-5.6,0.2
			c-2.7,0-4.9-0.1-7.1-0.2l-0.2-4.8c2.9,0.4,5.1,0.4,7.3,0.4c2,0,4.2-0.1,6.6-0.3c0.4-2.1,0.7-4.1,0.9-5.3c0.2-1.7,0.3-3.8,0.2-5
			l5.9,0.5C1065.1,236.7,1064.6,239,1064.3,240.2z M1071.6,274.3c0,2.9,1.6,5.7,10.3,5.7c4,0,8.2-0.4,11.9-1.2l-0.2,4.9
			c-3.3,0.5-7.3,0.9-11.8,0.9c-9.6,0-14.9-3-14.9-9c0-2.3,0.4-4.6,0.9-7.2l4.6,0.4C1071.9,270.8,1071.6,272.7,1071.6,274.3z
			 M1082.3,253.4c3.6,0,7.3,0.2,10.6,0.5l-0.1,4.6c-3.1-0.4-6.7-0.7-10.2-0.7c-3.8,0-7.6,0.2-11.3,0.7V254
			C1074.4,253.6,1078.4,253.4,1082.3,253.4z M1091.3,245.7l-3.3,1.5c-1.2-2.5-3.3-6.2-4.9-8.5l3.2-1.4
			C1087.9,239.4,1090.1,243.2,1091.3,245.7z M1098.2,243.2l-3.3,1.5c-1.3-2.7-3.4-6.2-5.1-8.5l3.2-1.4
			C1094.7,237.1,1097,240.8,1098.2,243.2z"/>
		<path d="M1116.3,239.8c-2,8.8-4,22.2-1.7,32.2c0.9-2.6,2.1-6.3,3.3-9.3l2.6,1.6c-1.5,4.3-3.3,10.5-4,13.5
			c-0.2,0.9-0.4,2.1-0.3,2.7s0.1,1.5,0.2,2.1l-4.1,0.5c-1.2-3.7-3.2-11.7-3.2-19.3c0-9.9,1.6-19.3,2.3-24.3c0.2-1.4,0.3-3,0.3-4.1
			l5.7,0.5C1117.1,237,1116.6,238.6,1116.3,239.8z M1148,238.5c-0.1,1.3,0,5.4,0.1,9.2c3.6-0.3,7.1-0.7,9.9-1.4v5
			c-2.8,0.4-6.2,0.8-9.9,1c0,0.9,0,1.6,0,2.1c0,14,0,24-12.9,31.6l-4.5-3.5c2-0.8,4.5-2.3,5.9-3.8c6.5-5.7,6.9-12.6,6.9-24.3
			c0-0.5,0-1.2,0-1.9c-2.6,0.1-5.2,0.2-7.7,0.2c-2.9,0-7.3-0.2-9.9-0.4v-4.9c2.6,0.4,6.5,0.7,9.8,0.7c2.5,0,5.1-0.1,7.7-0.2
			c-0.1-3.8-0.2-7.9-0.4-9.5c-0.1-1.4-0.4-2.7-0.5-3.7h5.7C1148.1,236,1148,237.2,1148,238.5z"/>
		<path d="M1174.7,242.1c4-0.4,15.5-1.6,26.7-2.5c6.6-0.5,12.4-0.9,16.5-1.1v4.9c-3.5,0-8.8,0.1-12,1c-8.7,2.8-14,12.1-14,19.3
			c0,11.9,11.1,15.7,21,16l-1.8,5.1c-11.3-0.4-24.2-6.5-24.2-20.1c0-9.5,5.8-17.3,11.4-20.6c-6.5,0.7-22.1,2.2-28.7,3.6l-0.5-5.3
			C1171.6,242.3,1173.6,242.2,1174.7,242.1z M1214.1,259.3l-3.1,1.5c-1.4-2.9-3.2-6.1-5-8.6l3.1-1.3
			C1210.5,252.9,1212.8,256.6,1214.1,259.3z M1221.1,256.7l-3.2,1.5c-1.5-3-3.2-6-5.1-8.5l3-1.4
			C1217.2,250.3,1219.7,254,1221.1,256.7z"/>
		<path d="M1238.6,239.7c-1.6,2.5-3.5,4.7-5.3,6.5c-0.9-0.7-2.6-1.9-3.7-2.4c3.7-3.2,7-7.9,8.8-12.6l4.2,1.1
			c-0.5,1.3-1.2,2.6-1.8,3.8h16v3.6h-11.3c1,1.8,2,3.7,2.4,5l-3.9,1.2c-0.5-1.6-1.7-4.1-2.9-6.2L1238.6,239.7L1238.6,239.7z
			 M1237.9,262.5v24.6h-4.2v-40.2h21.3v15.6H1237.9z M1237.9,249.9v3.4h12.9v-3.4H1237.9z M1250.8,259.5v-3.4h-12.9v3.4H1250.8z
			 M1268.9,282.1h-18.4v2.2h-4.1v-18.7h22.5V282.1z M1250.5,268.5v3.9h14.4v-3.9H1250.5z M1264.9,279.3v-4.1h-14.4v4.1H1264.9z
			 M1284.6,236.1v3.6H1272c1.3,1.7,2.6,3.6,3.2,5l-4,1.3c-0.7-1.7-2.4-4.3-4-6.3h-4.8c-1.7,2.3-3.7,4.4-5.6,6
			c-0.9-0.7-2.9-1.8-3.9-2.3c4-3,7.6-7.5,9.5-12.3l4.3,1c-0.5,1.3-1.2,2.6-2,3.9h19.9V236.1z M1282.1,282c0,2.5-0.6,3.8-2.3,4.5
			c-1.8,0.7-4.8,0.7-9.3,0.7c-0.2-1.1-0.9-2.9-1.5-4c3.5,0.2,6.7,0.1,7.6,0.1c0.9-0.1,1.2-0.4,1.2-1.2v-19.5H1260V247h22v35H1282.1z
			 M1264.3,249.9v3.4h13.6v-3.4H1264.3z M1277.9,259.5v-3.4h-13.6v3.4H1277.9z"/>
		<path d="M1347.7,276.3h-25v10.9h-4.6v-10.9h-24.6v-4.2h24.6v-5.6h-18.9v-24.3h5.6c-1.2-2.4-3.6-5.9-5.7-8.4l3.8-1.7
			c2.3,2.6,5,6.2,6.2,8.5l-3.1,1.6h13.1c-0.8-2.6-2.7-6.4-4.7-9.3l4-1.5c2,2.9,4.2,6.8,5,9.4l-3.5,1.4h10.9
			c2.3-2.9,4.9-7.4,6.4-10.6l4.9,1.6c-1.9,3-4.1,6.4-6.2,9h6.4v24.3h-19.8v5.6h25v4.2H1347.7z M1303.7,252.5h14.4V246h-14.4V252.5z
			 M1318.1,262.7v-6.5h-14.4v6.5H1318.1z M1337.8,246h-15.1v6.5h15.1V246z M1337.8,256.1h-15.1v6.5h15.1V256.1z"/>
		<path d="M1365.4,243.6V255c0,9.3-0.9,22.9-6,32.1c-0.8-0.8-2.7-2.1-3.8-2.6c4.9-8.7,5.4-20.9,5.4-29.6v-15.7h22.4v-7.8h4.6v7.8
			h23.2v4.3h-45.8V243.6z M1365.5,279.5c3-4.6,4.6-12.1,5.4-18.5l4.1,0.9c-0.9,6.6-2.4,14.6-5.5,19.4L1365.5,279.5z M1394.5,281.8
			c2.5,0,2.9-1.5,3.1-10.4c1,0.7,2.9,1.5,4.1,1.8c-0.5,10.1-1.6,12.8-6.8,12.8h-8.9c-5.3,0-6.7-1.5-6.7-6.6v-23.5h4.5v23.5
			c0,2.1,0.5,2.4,2.8,2.4L1394.5,281.8L1394.5,281.8z M1394.1,258c-2.9-2.7-9-6.8-14-9.4l3.1-2.9c4.9,2.4,11,6.2,14.2,9L1394.1,258z
			 M1403.4,259.7c4,6.2,7.9,14.4,8.9,19.8l-4.3,1.9c-1-5.4-4.6-13.7-8.6-20.1L1403.4,259.7z"/>
		<path d="M1462.7,267c3.9,3.2,9.5,5.9,14.8,7.2c-1,0.8-2.3,2.5-2.9,3.5c-2.9-0.9-5.9-2.3-8.7-4l-0.1,0.5c-0.7,6.9-1.3,9.9-2.7,11.2
			c-0.9,1-2.1,1.3-3.7,1.3c-1.5,0.1-4.3,0.1-7.3-0.1c-0.1-1.2-0.5-2.7-1-3.7c2.8,0.3,5.6,0.3,6.6,0.3s1.5-0.1,2-0.5
			c0.7-0.7,1.2-2.6,1.6-6.9h-13.7c-2.6,5.7-7.7,9.3-18.3,11.5c-0.4-1.1-1.5-2.7-2.3-3.5c8.8-1.6,13.4-4.2,15.8-8h-12v-2.1
			c-2.3,1.2-4.8,2.3-7.5,3.3c-0.5-1-1.7-2.5-2.6-3.2c5.7-1.8,10.2-4.3,13.6-7H1422v-3.7h16.1c1-1.2,1.8-2.3,2.4-3.5h-11.4v-16.7
			h39.8v16.7h-23.5c-0.7,1.2-1.3,2.3-2.1,3.5h32.6v3.7h-13.2V267z M1436.5,239.3h-13.7v-3.7h13.7v-4.1h4.4v4.1h15.9v-4.1h4.5v4.1
			h13.8v3.7h-13.8v3.1h-4.5v-3.1h-15.9v3.1h-4.4V239.3z M1463.9,272.6c-2.4-1.6-4.7-3.6-6.4-5.6h-17.3c-2,2-4.3,3.9-7.1,5.6h11.2
			c0.5-1.3,0.8-2.8,1-4.3h4.4c-0.2,1.5-0.5,2.9-0.9,4.3H1463.9z M1433.5,250.1h31.1v-3.9h-31.1V250.1z M1433.5,256.9h31.1V253h-31.1
			V256.9z"/>
		<path d="M1496.6,278.8c0-2.4,1.8-4.1,3.9-4.1s3.9,1.6,3.9,4.1c0,2.4-1.8,4-3.9,4C1498.3,282.8,1496.6,281.2,1496.6,278.8z
			 M1497.3,244.1l-0.1-7.2h6.7l-0.1,7.2l-1.2,23.7h-4L1497.3,244.1z"/>
	</g>
	<line class="st8" x1="633.8" y1="201" x2="883.8" y2="201"/>
	<g>
		<g>
			<path class="st9" d="M660.1,159.5c5,7,13.2,13.1,20.6,16.2c-0.8,0.9-1.7,2.1-2.3,3.1c-7.3-3.5-15.6-9.8-20-15.9
				c-3.8,5.7-11.5,12.2-19.5,16.1c-0.4-0.8-1.3-2.1-2-2.8c8.1-3.9,15.9-10.7,19.6-16.7L660.1,159.5L660.1,159.5z M639.4,183.1h38.9
				v3.3h-22.2c-1.7,3.5-3.7,7.6-5.6,10.9c5.9-0.2,12.5-0.4,19.2-0.7c-1.9-2.2-4.2-4.5-6.2-6.4l3-1.6c4.4,3.7,8.9,8.8,11.1,12.3
				l-3.2,1.9c-0.6-0.9-1.3-2-2.2-3.2c-11.6,0.6-23.8,1.1-31.9,1.4l-0.5-3.5c2,0,4.4-0.1,7-0.2c1.8-3.3,3.8-7.6,5.1-11h-12.4
				L639.4,183.1L639.4,183.1z M669.8,174.1v3.2h-22.4v-3.2H669.8z"/>
			<path class="st9" d="M697.7,194.8l3.2,2c-3.8,2.3-9.9,4.6-14.7,5.8c-0.6-0.7-1.8-1.9-2.6-2.6c4.9-1.1,11-3.3,14-5.3h-8.8v-20.3
				H722v20.3h-24.3V194.8z M720.2,171.9h-29.5v-10.6h29.5V171.9z M692.2,180.5h26.3v-3.3h-26.3V180.5z M692.2,186.3h26.3V183h-26.3
				V186.3z M692.2,192.2h26.3v-3.4h-26.3V192.2z M716.5,164.1h-22.4v4.9h22.4V164.1z M712.1,194.9c4.9,1.4,11.2,3.7,14.9,5.3l-3,2.6
				c-3.5-1.7-9.9-4.1-14.9-5.5L712.1,194.9z"/>
			<path class="st9" d="M751.1,200.5l-2.2-3.5c1.5-0.1,3-0.4,4.1-0.6c6.1-1.4,12-5.9,12-14.1c0-7.1-4.6-13.1-12.6-13.7
				c-0.6,4.4-1.5,9.2-2.8,13.6c-2.9,9.7-6.6,14.7-11,14.7c-4.2,0-8.4-4.8-8.4-12.6c0-10.3,9.1-19.3,20.7-19.3
				c11.1,0,18.1,7.8,18.1,17.4C768.8,192.4,762.3,199,751.1,200.5z M738.6,192.6c2.2,0,4.7-3.2,7.1-11.2c1.2-3.9,2.1-8.4,2.6-12.8
				c-9.1,1.1-14.7,8.9-14.7,15.3C733.7,190,736.5,192.6,738.6,192.6z"/>
			<path class="st9" d="M791.4,170.9c-0.1,2.6-0.3,5.2-0.7,7.8h18.8c0,0,0,1.1-0.1,1.7c-0.9,13.5-1.9,18.7-3.7,20.6
				c-1.1,1.1-2.2,1.5-4,1.6c-1.7,0.1-4.7,0-7.9-0.1c-0.1-1-0.6-2.5-1.2-3.4c3.4,0.3,6.7,0.3,7.9,0.3c1.1,0,1.8,0,2.2-0.5
				c1.4-1.2,2.3-5.9,3.1-16.8h-15.6c-1.7,8.4-5.4,16.2-15,20.8c-0.5-0.9-1.6-2.2-2.5-2.9c13.1-5.9,14.4-18.1,15-29h-14.5v-3.4h19.1
				v-8.2h3.5v8.2h19.4v3.4h-23.8V170.9z"/>
			<path class="st9" d="M826.9,166.1c-0.9,4.4-2.4,13.8-2.4,19.1c0,2.3,0.1,4.3,0.5,6.6c0.8-2.1,1.9-5,2.7-7l1.9,1.5
				c-1.1,3.3-2.9,8.1-3.4,10.5c-0.1,0.7-0.2,1.6-0.2,2.1s0,1.1,0.1,1.7l-3.3,0.2c-0.9-3.4-1.8-8.6-1.8-15c0-7,1.6-16,2.2-19.9
				c0.1-1.1,0.3-2.4,0.3-3.4l4.2,0.3C827.4,163.7,827,165.3,826.9,166.1z M850.8,165.5c0,1.3-0.1,3.5-0.1,5.7
				c2.9-0.2,5.7-0.6,8.2-1.1v3.6c-2.6,0.4-5.3,0.7-8.2,0.9c0,4.8,0.4,9.5,0.6,13.5c3.8,1.5,6.9,3.9,9.4,6.1l-2.1,3.2
				c-2.4-2.2-4.7-4.1-7.1-5.5c0,0.3,0,0.7,0,1c0,3.9-1.8,7.6-8.2,7.6c-6.3,0-9.8-2.5-9.8-6.8c0-4,3.5-7.1,9.7-7.1
				c1.6,0,3,0.1,4.4,0.4c-0.1-3.6-0.4-8.3-0.5-12.2c-1.5,0-3,0.1-4.5,0.1c-2.7,0-5.2-0.1-7.9-0.3v-3.5c2.7,0.2,5.2,0.4,8,0.4
				c1.5,0,3,0,4.4-0.1v-5.9c0-0.8-0.1-2.1-0.2-2.9h4.3C850.9,163.6,850.8,164.5,850.8,165.5z M842.5,197.1c4,0,5.2-2,5.2-5.2
				c0-0.5,0-1,0-1.7c-1.5-0.5-3.1-0.8-4.8-0.8c-3.5,0-6.1,1.5-6.1,3.8C836.7,195.8,839.1,197.1,842.5,197.1z"/>
			<path class="st9" d="M874,196.2c0-1.9,1.4-3.2,3-3.2s3,1.3,3,3.2s-1.4,3.1-3,3.1S874,198.1,874,196.2z M874.5,169.2l-0.1-5.6h5.2
				l-0.1,5.6l-0.9,18.4h-3.1L874.5,169.2z"/>
		</g>
	</g>
</g>
</svg>
