<?xml version="1.0" encoding="utf-8"?>
<!-- Generator: Adobe Illustrator 28.2.0, SVG Export Plug-In . SVG Version: 6.00 Build 0)  -->
<svg version="1.1" id="レイヤー_1" xmlns="http://www.w3.org/2000/svg" xmlns:xlink="http://www.w3.org/1999/xlink" x="0px"
	 y="0px" viewBox="0 0 928 552" style="enable-background:new 0 0 928 552;" xml:space="preserve">
<style type="text/css">
	.st0{fill:#FFFFFF;}
	.st1{fill:#F7EE4D;}
	.st2{fill:#444444;}
	.st3{fill:#FFFFFF;stroke:#000002;stroke-width:5.1328;stroke-miterlimit:10;}
	.st4{fill:#F7EE4D;stroke:#000002;stroke-width:5;stroke-miterlimit:10;}
	.st5{fill:none;stroke:#000002;stroke-width:5.1328;stroke-miterlimit:10;}
	.st6{fill:#FFFFFF;stroke:#000002;stroke-width:4.0423;stroke-miterlimit:10;}
	.st7{fill:#000002;}
	.st8{fill:none;}
	.st9{fill:#D8211E;}
	.st10{fill:none;stroke:#D8211E;stroke-width:1.5826;stroke-miterlimit:10;}
	.st11{fill:none;stroke:#F7EE4D;stroke-width:14.0604;stroke-miterlimit:10;}
	.st12{fill:#040000;}
</style>
<rect class="st0" width="928" height="552"/>
<path class="st1" d="M844,458H426.6c-18,0-32.6-14.6-32.6-32.6l0,0c0-18,14.6-32.6,32.6-32.6H844c18,0,32.6,14.6,32.6,32.6l0,0
	C876.6,443.4,862,458,844,458z"/>
<g>
	<g>
		<path class="st2" d="M520.3,420.3c-0.8,1.4-2.7,4-5,5.6l-1.3-1.1c1.9-1.1,3.8-3.3,4.4-4.5h-11.5c-0.7,0-1.5,0-2.3,0.1v-1.8
			c0.7,0.1,1.6,0.2,2.3,0.2h11.6c0.4,0,1.1-0.1,1.4-0.1l1,1C520.7,419.8,520.5,420.1,520.3,420.3z M507.1,434l-1.5-1.2
			c0.6-0.2,1.3-0.5,1.8-0.9c3.1-1.9,3.6-4.8,3.6-8.2c0-0.5,0-0.9-0.1-1.5h1.8C512.8,427.7,512.3,431.4,507.1,434z"/>
		<path class="st2" d="M539.2,416.4c1.3,0,2.3,1,2.3,2.3s-1,2.3-2.3,2.3c-0.3,0-0.5,0-0.8-0.1c0,0.1,0,0.1,0,0.2
			c-0.4,2.1-1.4,5.4-3,7.5c-1.8,2.4-4.3,4.3-8,5.4l-1.4-1.5c3.9-1,6.2-2.7,7.9-4.9c1.4-1.8,2.4-4.7,2.7-6.6h-10.3
			c-0.8,0-1.5,0-2,0.1v-1.8c0.6,0.1,1.4,0.1,2,0.1h10.2c0.2,0,0.4,0,0.6,0c-0.1-0.2-0.1-0.4-0.1-0.6
			C536.9,417.5,537.9,416.4,539.2,416.4z M539.2,420.1c0.7,0,1.4-0.6,1.4-1.3c0-0.7-0.6-1.4-1.4-1.4c-0.7,0-1.3,0.6-1.3,1.4
			C537.9,419.5,538.5,420.1,539.2,420.1z"/>
		<path class="st2" d="M546.9,419.5v6.8c0,0.5,0,1.2,0.1,1.5h-1.9c0-0.3,0.1-1,0.1-1.6v-6.7c0-0.4,0-1.1-0.1-1.5h1.8
			C547,418.4,546.9,419,546.9,419.5z M556.3,419.7v3.3c0,4.9-0.7,6.5-2.1,8.2c-1.3,1.6-3.3,2.5-4.8,3l-1.3-1.4
			c1.9-0.5,3.6-1.3,4.8-2.7c1.4-1.7,1.7-3.3,1.7-7.1v-3.2c0-0.7,0-1.3-0.1-1.8h1.9C556.4,418.4,556.3,419,556.3,419.7z"/>
		<path class="st2" d="M569.8,433.9l-1-1.5c0.6-0.1,1.3-0.2,1.7-0.3c2.6-0.6,5.1-2.5,5.1-6c0-3.1-2-5.6-5.4-5.9
			c-0.3,1.9-0.6,3.9-1.2,5.8c-1.2,4.2-2.8,6.3-4.7,6.3c-1.8,0-3.6-2.1-3.6-5.4c0-4.4,3.9-8.2,8.8-8.2c4.7,0,7.8,3.3,7.8,7.5
			C577.3,430.4,574.5,433.3,569.8,433.9z M564.4,430.5c1,0,2-1.4,3.1-4.8c0.5-1.7,0.9-3.6,1.1-5.5c-3.9,0.5-6.3,3.8-6.3,6.6
			C562.3,429.4,563.5,430.5,564.4,430.5z"/>
		<path class="st2" d="M596.1,419.7l-1.1,0.5l1,0.6c-0.2,0.3-0.4,0.7-0.5,1.1c-0.5,1.9-1.7,4.3-3.2,6.3c0.9,0.6,1.7,1.2,2.3,1.8
			l-1.2,1.4c-0.6-0.5-1.4-1.2-2.2-1.8c-1.8,2-4.3,3.8-7.7,5.1l-1.5-1.3c3.4-1,6-2.9,7.8-4.9c-1.4-1.1-3-2.1-4.3-2.9l1.1-1.1
			c1.3,0.8,2.9,1.8,4.3,2.8c1.3-1.8,2.3-3.9,2.8-5.6h-6.8c-1.3,1.8-3.1,3.8-5.4,5.3l-1.4-1c3.5-2.2,5.6-5.2,6.5-7.1
			c0.2-0.4,0.5-1.1,0.6-1.6l1.8,0.6c-0.3,0.5-0.7,1.2-0.9,1.6c-0.1,0.2-0.3,0.5-0.4,0.7h5.5c0.5,0,1-0.1,1.3-0.2l0.3,0.2
			c-0.4-0.8-1.1-2-1.6-2.8l1.1-0.5C595,417.7,595.7,418.9,596.1,419.7z M598.4,418.9l-1.1,0.5c-0.4-0.9-1.1-2-1.7-2.8l1.1-0.4
			C597.2,416.9,598,418.1,598.4,418.9z"/>
		<path class="st2" d="M609,418.6v1.9h4.5c0.7,0,1.1-0.1,1.4-0.2l1.1,0.7c-0.1,0.3-0.2,0.8-0.3,1.2c-0.3,1.6-0.9,4.2-2,6.1
			c-1.5,2.7-4.3,4.7-8,5.7l-1.3-1.5c0.7-0.1,1.5-0.3,2.1-0.6c2-0.6,4.3-2.2,5.5-4.1c1.1-1.7,1.7-4.2,1.9-5.9h-11.3v3.6
			c0,0.4,0,0.9,0.1,1.2h-1.8c0-0.4,0.1-0.9,0.1-1.3v-3.6c0-0.4,0-1.1-0.1-1.6c0.6,0.1,1.2,0.1,1.9,0.1h4.5v-1.9c0-0.4,0-0.9-0.1-1.5
			h1.9C609,417.7,609,418.1,609,418.6z"/>
		<path class="st2" d="M627.3,429c3.1-2,5.6-5,6.8-7.5l1,1.7c-1.4,2.5-3.7,5.3-6.8,7.2c-2,1.3-4.6,2.5-8,3.1l-1.1-1.7
			C622.8,431.5,625.4,430.2,627.3,429z M626.1,422.6l-1.3,1.3c-1-1.1-3.5-3.2-5-4.2l1.2-1.2C622.4,419.4,625,421.5,626.1,422.6z"/>
		<path class="st2" d="M640.4,419.4h10.9c0.4,0,1.2,0,1.8,0c0,0.5,0,1.1,0,1.6v10c0,0.6,0,2.2,0,2.5h-1.7c0-0.1,0-0.6,0-1.2h-11.1
			c0,0.5,0,1,0,1.2h-1.7c0-0.3,0.1-1.8,0.1-2.5v-10c0-0.5,0-1.1,0-1.6C639.4,419.4,639.9,419.4,640.4,419.4z M640.3,430.7h11.1V421
			h-11.1V430.7z"/>
		<path class="st2" d="M659.9,424.6H671c1,0,1.7-0.1,2.2-0.1v2c-0.4,0-1.3-0.1-2.2-0.1h-11.1c-1.1,0-2.2,0-2.8,0.1v-2
			C657.7,424.5,658.8,424.6,659.9,424.6z"/>
		<path class="st2" d="M678.9,420c0-0.6,0-1.5-0.2-2.1h2c-0.1,0.6-0.1,1.5-0.1,2.1v3.3c2.7,0.8,6.5,2.3,8.6,3.3l-0.7,1.7
			c-2.2-1.2-5.7-2.5-7.9-3.2v6.7c0,0.6,0.1,1.7,0.1,2.4h-1.9c0.1-0.6,0.1-1.6,0.1-2.4L678.9,420L678.9,420z M687.9,421.8l-1.2,0.5
			c-0.5-1.1-1.1-2.2-1.8-3.1l1.1-0.5C686.5,419.4,687.4,420.8,687.9,421.8z M690.4,420.7l-1.1,0.6c-0.5-1.1-1.2-2.1-1.9-3l1.1-0.5
			C689,418.4,689.9,419.7,690.4,420.7z"/>
		<path class="st2" d="M696.4,419.4c-0.4,1.9-1,5.5-1,7.8c0,1,0.1,1.8,0.2,2.8c0.3-0.9,0.8-2.1,1.2-3l0.9,0.6
			c-0.5,1.4-1.3,3.6-1.4,4.5c-0.1,0.3-0.1,0.7-0.1,0.9c0,0.2,0,0.5,0.1,0.7l-1.5,0.1c-0.4-1.4-0.7-3.8-0.7-6.5c0-3,0.7-6.4,0.9-8.1
			c0.1-0.5,0.1-1,0.1-1.4l1.8,0.2C696.6,418.4,696.5,419,696.4,419.4z M701.1,429.7c0,0.9,0.7,1.8,3.4,1.8c1.8,0,3.4-0.2,5-0.5v1.7
			c-1.3,0.2-3,0.4-5.1,0.4c-3.4,0-4.9-1.1-4.9-3c0-0.7,0.1-1.4,0.3-2.4l1.5,0.1C701.2,428.6,701.1,429.2,701.1,429.7z M708.9,419.6
			v1.6c-2.2,0.2-6.1,0.2-8.3,0v-1.6C702.8,420,706.9,419.9,708.9,419.6z"/>
		<path class="st2" d="M714,422.1c1.7-0.5,5.7-2,8.6-2c3.4,0,6,1.9,6,5.3c0,4.8-4.8,7.2-11.1,7.5l-0.7-1.7c5.3-0.1,10-1.7,10-5.9
			c0-2.1-1.6-3.8-4.3-3.8c-3.3,0-8.5,2.2-10.1,2.9l-0.7-1.8C712.5,422.6,713.2,422.4,714,422.1z"/>
		<path class="st2" d="M733.9,421.1c0,1.3,0,3.1,0.1,4.8c0.3,3.4,1.3,5.6,2.8,5.6c1,0,2-2.1,2.5-4.1l1.3,1.4
			c-1.2,3.4-2.4,4.6-3.8,4.6c-1.9,0-3.8-1.9-4.3-7.1c-0.2-1.8-0.2-4.2-0.2-5.4c0-0.5,0-1.3-0.1-1.8h2
			C734,419.6,733.9,420.6,733.9,421.1z M748.2,429.8l-1.6,0.7c-0.4-3.7-1.6-7.8-3.5-10.2l1.6-0.5
			C746.4,422.1,747.9,426.3,748.2,429.8z"/>
		<path class="st2" d="M751.7,419.7c1.3-0.1,5.1-0.5,8.9-0.8c2.2-0.2,4.1-0.3,5.5-0.4v1.6c-1.2,0-2.9,0-4,0.3
			c-2.9,0.9-4.6,4-4.6,6.4c0,4,3.7,5.2,7,5.3l-0.6,1.7c-3.7-0.1-8-2.1-8-6.7c0-3.2,1.9-5.7,3.8-6.8c-2.2,0.2-7.3,0.7-9.5,1.2
			l-0.2-1.8C750.7,419.8,751.3,419.8,751.7,419.7z"/>
	</g>
</g>
<g>
	<g>
		<path class="st3" d="M303.7,419H155c-5.7,0-10.3-4.6-10.3-10.3V116.3c0-5.7,4.6-10.3,10.3-10.3h148.7c5.7,0,10.3,4.6,10.3,10.3
			v292.4C314,414.4,309.4,419,303.7,419z"/>
		<path class="st4" d="M298.9,406.2H159.8c-2.7,0-4.8-2.2-4.8-4.8V123.6c0-2.7,2.2-4.8,4.8-4.8H299c2.7,0,4.8,2.2,4.8,4.8v277.7
			C303.8,404,301.6,406.2,298.9,406.2z"/>
	</g>
	<path class="st3" d="M-22.2,514c0,0,53.9-64.2,61.6-71.9s15.6-12.7,20.5-20.5c12.8-20.5,5.1-33.4,12.8-64.2s39.8-92.8,46.2-110.4
		c10.3-28.2-2.6-43.6,5.1-51.3s25.7-18,38.5,23.1s-18,87.3-18,97.5"/>
	<path class="st5" d="M314,216.3c0,0,20.5-7.7,28.2,12.8s-18,31.2-28.2,29.7"/>
	<path class="st3" d="M314,273.3c0,0-20.6,12-24.4,16s-6.5,9.6,0,19.6s16.7,4.9,16.7,4.9s6.4-3.2,12.8-7.7
		c6.5-4.5,13-10.2,13.8-11.9c1.6-3.5,2.9-7.3-1-13.8C323.3,266.1,314,273.3,314,273.3z"/>
	<path class="st3" d="M314,316.9c0,0-20.6,12-24.4,16s-6.5,9.6,0,19.6s16.7,4.9,16.7,4.9s6.4-3.3,12.8-7.7
		c6.5-4.5,13-10.2,13.8-11.9c1.6-3.5,2.9-7.3-1-13.8C323.3,309.8,314,316.9,314,316.9z"/>
	<path class="st6" d="M317.3,358.8c0,0-17.4,8.9-20.6,11.8s-5.4,7.1,0,14.4s14.1,3.6,14.1,3.6s7.8-2,13.5-5.5c5.2-3.1,8.3-7.7,8.9-9
		c1.3-2.6,2.5-5.4-0.8-10.1C325.1,353.5,317.3,358.8,317.3,358.8z"/>
	<path class="st3" d="M99.5,557.8c0,0,34.9-43.8,37.5-48.9s2.6-12.8,12.8-20.5S196,467.9,214,455c18-12.8,30.8-28.2,33.4-35.9"/>
	<path class="st3" d="M315.9,159.8h-1.1c-0.4,0-0.7-0.3-0.7-0.7v-21.7c0-0.4,0.3-0.7,0.7-0.7h1.1c0.4,0,0.7,0.3,0.7,0.7v21.7
		C316.6,159.5,316.3,159.8,315.9,159.8z"/>
	<path class="st3" d="M315.9,190.6h-1.1c-0.4,0-0.7-0.3-0.7-0.7v-21.7c0-0.4,0.3-0.7,0.7-0.7h1.1c0.4,0,0.7,0.3,0.7,0.7v21.7
		C316.6,190.3,316.3,190.6,315.9,190.6z"/>
	<path class="st7" d="M269.3,122.6h-79.8c-2.8,0-5-2.2-5-5v-13h89.8v13C274.3,120.4,272,122.6,269.3,122.6z"/>
	<g>
		<g>
			<path class="st8" d="M292.7,255c0.2-0.6,0.1-1.3-0.3-1.9c-0.4-0.5-1-0.9-1.7-0.9h-11.2c-0.9,0-1.7,0.6-2,1.4l-0.8,2.5
				c-0.1,0.2-0.1,0.3-0.1,0.5c-0.1,0-0.2,0-0.3,0h-3.4l0.7-2c0.2-0.6,0.1-1.3-0.3-1.9s-1-0.9-1.7-0.9h-3.7c-0.9,0-1.7,0.6-2,1.4
				l-1.2,3.4h-42.5c-0.9,0-1.7,0.6-2,1.4v0.1H219l1.2-3.5c0.2-0.6,0.1-1.3-0.3-1.9c-0.4-0.5-1-0.9-1.7-0.9h-3.7
				c-0.9,0-1.7,0.6-2,1.4l-1.7,4.8H209c-0.1-0.2-0.2-0.4-0.3-0.6c-0.4-0.5-1-0.9-1.7-0.9h-3.7c-0.9,0-1.7,0.6-2,1.4l-1,2.9l-0.3-2.5
				c-0.1-1-1-1.8-2.1-1.8h-2.5c-0.1,0-0.3,0-0.4,0l0,0l1.7-2.6c0.5-0.7,0.5-1.6,0-2.3c-0.4-0.6-1-0.9-1.7-0.9c-0.2,0-0.3,0-0.5,0.1
				l-19.9,5.1c-0.9,0.2-1.6,1.1-1.6,2v6.3c0,0.7,0.4,1.4,1,1.8c0.3,0.2,0.7,0.3,1.1,0.3c0.3,0,0.6-0.1,0.9-0.2l2.2-1.1l0.4,0.9
				l1.9,4.6c0.2,0.5,0.6,0.9,1.2,1.1c0.2,0.1,0.5,0.1,0.8,0.1h3.8c0.7,0,1.3-0.3,1.7-0.9s0.5-1.3,0.2-1.9l-0.5-1.1l3-4.5l0.8,6.7
				c0.1,1,1,1.8,2.1,1.8h2.5c0.1,0,0.3,0,0.4,0c0.1,0,0.1,0,0.2,0l-0.7,2c-0.2,0.6-0.1,1.3,0.3,1.9c0.4,0.5,1,0.9,1.7,0.9h3.7
				c0.9,0,1.7-0.6,2-1.4l1.7-5h1.3l-1.2,3.6c-0.2,0.6-0.1,1.3,0.3,1.9c0.4,0.5,1,0.9,1.7,0.9h3.7c0.9,0,1.7-0.6,2-1.4l1.7-4.9h1.5
				c0.1,0.3,0.2,0.5,0.3,0.7c0.4,0.5,1,0.9,1.7,0.9h40.2c0.3,0,0.7-0.1,1-0.2l-0.8,2.3c-0.2,0.6-0.1,1.3,0.3,1.9s1,0.9,1.7,0.9h3.7
				c0.9,0,1.7-0.6,2-1.4l1.2-3.6c0.3,0.2,0.7,0.3,1,0.3h3.7c0.9,0,1.7-0.6,2-1.4l2.5-7.2h5.7l-2,5.9c-0.2,0.6-0.1,1.3,0.3,1.9
				s1,0.9,1.7,0.9h3.7c0.9,0,1.7-0.6,2-1.4l3.8-11.2c0.2-0.6,0.1-1.3-0.2-1.8l0,0L292.7,255z"/>
			<g>
				<g>
					<polygon points="203.6,258.7 198.1,274.6 201.9,274.6 207.3,258.7 					"/>
					<polygon points="192.5,258.7 193.8,269.8 196.2,269.8 195,258.7 					"/>
					<polygon points="198.3,258.7 195.8,258.7 197.1,269.8 199.6,269.8 					"/>
				</g>
				<polygon points="236.2,258.6 235.3,261.2 244.1,261.2 242,267.3 233.2,267.3 232.3,269.8 244.8,269.8 248.7,258.6 				"/>
				<polygon points="250,258.6 249.2,261.2 257.9,261.2 255.8,267.3 247.1,267.3 246.2,269.8 258.7,269.8 262.5,258.6 				"/>
				<g>
					<polygon points="276.7,261.2 285.5,261.2 282.6,269.8 286.3,269.8 290.1,258.6 277.6,258.6 					"/>
					<polygon points="290.7,254.4 279.5,254.4 278.7,256.8 289.9,256.8 					"/>
				</g>
				<polygon points="271.7,253.9 267.9,253.9 266.3,258.6 263.8,258.6 263,261.2 265.4,261.2 260.8,274.6 264.5,274.6 269.2,261.2 
					271.7,261.2 268.8,269.8 272.5,269.8 276.3,258.6 270,258.6 				"/>
				<polygon points="234.8,258.7 222.3,258.7 221.5,261.2 230.2,261.2 229.6,263 221.1,263 220.3,265.5 228.7,265.5 228.1,267.3 
					219.3,267.3 218.5,269.8 231,269.8 				"/>
				<polygon points="218.9,265.7 214.3,265.7 215.4,262.6 219.9,262.6 220.8,260.1 216.3,260.1 218.4,253.9 214.7,253.9 
					212.5,260.1 208,260.1 207.1,262.6 211.7,262.6 210.6,265.7 206.1,265.7 205.2,268.2 209.7,268.2 207.6,274.6 211.3,274.6 
					213.5,268.2 218,268.2 				"/>
				<polygon points="195.4,252.9 175.5,258 175.5,264.3 190.1,257.1 184.6,265.2 184.1,263.8 180.2,263.8 182.7,269.8 186.5,269.8 
					185.6,267.7 				"/>
			</g>
		</g>
	</g>
</g>
<g>
	<g>
		<path class="st9" d="M471.1,119.2c-0.9,1.5-3,4.4-5.5,6.1l-1.5-1.2c2-1.2,4.1-3.6,4.9-5h-12.6c-0.8,0-1.7,0-2.5,0.1v-2
			c0.8,0.1,1.7,0.2,2.5,0.2H469c0.4,0,1.2-0.1,1.6-0.1l1.1,1C471.5,118.6,471.2,119,471.1,119.2z M456.6,134.2l-1.6-1.3
			c0.6-0.2,1.4-0.6,2-1c3.4-2.1,3.9-5.3,3.9-9c0-0.5,0-1-0.1-1.6h2C462.8,127.3,462.3,131.4,456.6,134.2z"/>
		<path class="st9" d="M491.7,115c1.4,0,2.5,1.1,2.5,2.5s-1.1,2.5-2.5,2.5c-0.3,0-0.6,0-0.8-0.1c0,0.1,0,0.2,0,0.2
			c-0.5,2.3-1.6,5.9-3.3,8.2c-2,2.6-4.7,4.7-8.7,5.9l-1.5-1.7c4.3-1.1,6.8-2.9,8.6-5.3c1.6-2,2.6-5.1,2.9-7.2h-11.3
			c-0.9,0-1.6,0-2.2,0.1v-2c0.6,0.1,1.5,0.2,2.2,0.2h11.1c0.2,0,0.4,0,0.7,0c-0.1-0.2-0.1-0.5-0.1-0.7
			C489.2,116.1,490.3,115,491.7,115z M491.7,118.9c0.8,0,1.5-0.7,1.5-1.5s-0.7-1.5-1.5-1.5s-1.5,0.7-1.5,1.5
			C490.3,118.3,490.9,118.9,491.7,118.9z"/>
		<path class="st9" d="M500.2,118.3v7.4c0,0.6,0,1.3,0.1,1.7h-2c0-0.3,0.1-1,0.1-1.7v-7.4c0-0.4,0-1.2-0.1-1.6h2
			C500.2,117.2,500.2,117.8,500.2,118.3z M510.5,118.5v3.6c0,5.3-0.7,7.1-2.3,9c-1.4,1.7-3.7,2.7-5.3,3.2l-1.4-1.5
			c2-0.5,3.9-1.4,5.3-2.9c1.6-1.8,1.8-3.6,1.8-7.8v-3.5c0-0.8,0-1.4-0.1-1.9h2.1C510.5,117.1,510.5,117.7,510.5,118.5z"/>
		<path class="st9" d="M522.7,118.4c2.3-0.1,4.7-0.3,6.8-0.7v1.6c-2.2,0.4-4.9,0.5-7.4,0.6c-0.5,1.2-1.2,2.4-2,3.4
			c0.8-0.5,2.1-0.8,3.1-0.8c1.4,0,2.6,0.7,3,2c1.5-0.7,2.9-1.3,4-1.8c0.7-0.3,1.2-0.5,1.8-0.9l0.7,1.7c-0.6,0.2-1.4,0.5-2,0.7
			c-1.2,0.5-2.8,1.1-4.5,1.9c0,1.3,0,3.2,0.1,4.3h-1.7c0-0.8,0.1-2.3,0.1-3.5c-2.1,1.1-3.5,2.3-3.5,3.7c0,1.7,1.7,2,4,2
			c1.7,0,4.1-0.2,6-0.5v1.8c-1.7,0.2-4.1,0.4-6.1,0.4c-3.2,0-5.7-0.7-5.7-3.4c0-2.6,2.6-4.3,5.2-5.6c-0.2-1-1-1.4-2-1.4
			c-1.4,0-2.8,0.7-3.8,1.6c-0.6,0.6-1.3,1.4-2,2.3l-1.5-1.1c2.8-2.7,4.3-5,5.1-6.8c-0.3,0-0.7,0-1,0c-1,0-2.4,0-3.6-0.1v-1.7
			c1.2,0.2,2.7,0.2,3.7,0.2c0.5,0,1,0,1.5,0c0.3-1,0.5-1.9,0.6-2.8l1.8,0.2C523.2,116.5,523.1,117.4,522.7,118.4z"/>
		<path class="st9" d="M552.9,118.6l-1.2,0.5l1,0.6c-0.2,0.3-0.4,0.8-0.5,1.2c-0.6,2-1.8,4.7-3.5,6.9c1,0.7,1.8,1.4,2.5,1.9
			l-1.3,1.5c-0.7-0.6-1.5-1.3-2.4-2c-2,2.2-4.7,4.2-8.4,5.6l-1.6-1.4c3.7-1.1,6.6-3.2,8.6-5.3c-1.6-1.2-3.3-2.3-4.7-3.2l1.2-1.2
			c1.5,0.8,3.1,1.9,4.7,3c1.4-1.9,2.6-4.3,3-6.1h-7.5c-1.4,2-3.4,4.1-5.9,5.8l-1.5-1.1c3.8-2.4,6.1-5.7,7.1-7.7
			c0.2-0.4,0.6-1.2,0.7-1.8l2,0.6c-0.4,0.6-0.8,1.3-1,1.8c-0.1,0.2-0.3,0.5-0.4,0.8h6c0.6,0,1.1-0.1,1.5-0.2l0.4,0.2
			c-0.4-0.9-1.2-2.2-1.8-3l1.2-0.5C551.6,116.3,552.4,117.6,552.9,118.6z M555.4,117.6l-1.2,0.5c-0.5-1-1.2-2.2-1.8-3.1l1.2-0.5
			C554.1,115.4,554.9,116.8,555.4,117.6z"/>
		<path class="st9" d="M567,117.3v2.1h5c0.8,0,1.2-0.1,1.5-0.2l1.2,0.8c-0.1,0.3-0.2,0.9-0.3,1.3c-0.3,1.8-0.9,4.5-2.2,6.7
			c-1.7,2.9-4.7,5.2-8.8,6.3l-1.4-1.7c0.8-0.1,1.6-0.4,2.3-0.6c2.2-0.7,4.7-2.4,6-4.5c1.2-1.9,1.9-4.6,2.1-6.5H560v4
			c0,0.4,0,1,0.1,1.3h-1.9c0-0.4,0.1-1,0.1-1.4V121c0-0.5,0-1.2-0.1-1.7c0.6,0.1,1.3,0.1,2.1,0.1h4.9v-2.1c0-0.5,0-1-0.1-1.7h2.1
			C567,116.3,567,116.8,567,117.3z"/>
		<path class="st9" d="M587,128.7c3.4-2.1,6.1-5.4,7.4-8.2l1.1,1.9c-1.5,2.8-4.1,5.8-7.4,7.9c-2.2,1.4-5,2.7-8.7,3.4l-1.2-1.8
			C582,131.4,584.9,130.1,587,128.7z M585.7,121.7l-1.4,1.4c-1.1-1.2-3.9-3.5-5.5-4.6l1.3-1.4C581.6,118.2,584.4,120.5,585.7,121.7z
			"/>
		<path class="st9" d="M601.3,118.2h11.9c0.5,0,1.3,0,2,0c0,0.6,0,1.2,0,1.7v10.9c0,0.7,0,2.4,0,2.7h-1.9c0-0.2,0-0.7,0-1.3h-12.1
			c0,0.6,0,1.1,0,1.3h-1.9c0-0.3,0.1-1.9,0.1-2.7v-10.9c0-0.5,0-1.2,0-1.7C600.1,118.2,600.7,118.2,601.3,118.2z M601.1,130.5h12.1
			V120h-12.1V130.5z"/>
		<path class="st9" d="M622.6,123.9h12.1c1.1,0,1.9-0.1,2.4-0.1v2.2c-0.4,0-1.4-0.1-2.4-0.1h-12.2c-1.2,0-2.4,0-3.1,0.1v-2.2
			C620.2,123.8,621.4,123.9,622.6,123.9z"/>
		<path class="st9" d="M643.4,118.8c0-0.6,0-1.6-0.2-2.3h2.2c-0.1,0.7-0.2,1.6-0.2,2.3v3.6c2.9,0.9,7.1,2.5,9.5,3.7l-0.8,1.9
			c-2.4-1.3-6.2-2.8-8.7-3.5v7.3c0,0.7,0.1,1.9,0.1,2.6h-2.1c0.1-0.7,0.1-1.8,0.1-2.6v-13H643.4z M653.2,120.8l-1.3,0.6
			c-0.6-1.2-1.2-2.4-2-3.4l1.2-0.6C651.7,118.2,652.7,119.7,653.2,120.8z M655.9,119.6l-1.2,0.6c-0.6-1.2-1.3-2.3-2.1-3.3l1.2-0.6
			C654.4,117.1,655.4,118.6,655.9,119.6z"/>
		<path class="st9" d="M663.3,118.4c-0.1,2.5-0.3,7.7-0.3,11c0,2.4,1.5,3.3,3.6,3.3c4.1,0,6.3-2.3,7.9-4.6l1.3,1.5
			c-1.5,2.1-4.4,4.9-9.3,4.9c-3.2,0-5.4-1.3-5.4-4.9c0-3.3,0.2-8.9,0.2-11.2c0-0.8,0-1.6-0.2-2.3h2.2
			C663.4,116.9,663.4,117.6,663.3,118.4z"/>
		<path class="st9" d="M677.8,118.6c1.4-0.2,5.6-0.6,9.7-0.9c2.4-0.2,4.5-0.3,6-0.4v1.8c-1.3,0-3.2,0-4.3,0.4c-3.1,1-5.1,4.4-5.1,7
			c0,4.3,4,5.7,7.6,5.8l-0.6,1.8c-4.1-0.2-8.8-2.3-8.8-7.3c0-3.5,2.1-6.3,4.1-7.5c-2.4,0.3-8,0.8-10.4,1.3l-0.2-1.9
			C676.7,118.6,677.4,118.6,677.8,118.6z"/>
		<path class="st9" d="M706,114.9c2.3,3.3,6.2,6.1,9.7,7.6c-0.4,0.4-0.8,1-1.1,1.5c-3.4-1.7-7.3-4.6-9.3-7.5
			c-1.8,2.7-5.4,5.7-9.2,7.6c-0.2-0.4-0.6-1-1-1.3c3.8-1.8,7.5-5,9.2-7.8L706,114.9L706,114.9z M696.3,125.9h18.2v1.5h-10.4
			c-0.8,1.6-1.7,3.5-2.6,5.1c2.7-0.1,5.9-0.2,9-0.3c-0.9-1-2-2.1-2.9-3l1.4-0.8c2,1.8,4.2,4.1,5.2,5.8l-1.5,0.9
			c-0.3-0.4-0.6-1-1-1.5c-5.4,0.3-11.2,0.5-15,0.6l-0.2-1.6c1,0,2.1,0,3.3-0.1c0.8-1.5,1.8-3.5,2.4-5.2h-5.8v-1.4L696.3,125.9
			L696.3,125.9z M710.5,121.7v1.5H700v-1.5H710.5z"/>
		<path class="st9" d="M723.8,131.4l1.5,1c-1.8,1.1-4.6,2.1-6.9,2.7c-0.3-0.3-0.8-0.9-1.2-1.2C719.5,133.3,722.3,132.3,723.8,131.4
			h-4.2v-9.5h15.6v9.5H723.8z M734.3,120.7h-13.8v-5h13.8V120.7z M721.2,124.7h12.3v-1.6h-12.3V124.7z M721.2,127.4h12.3v-1.6h-12.3
			V127.4z M721.2,130.2h12.3v-1.6h-12.3V130.2z M732.6,117h-10.5v2.3h10.5V117z M730.5,131.5c2.3,0.7,5.2,1.8,7,2.5l-1.4,1.2
			c-1.7-0.8-4.6-1.9-7-2.6L730.5,131.5z"/>
		<path class="st9" d="M743.1,118.2c-0.4,2-1.1,6-1.1,8.5c0,1.1,0.1,2,0.2,3.1c0.4-1,0.9-2.3,1.3-3.2l0.9,0.7
			c-0.6,1.6-1.4,3.9-1.6,5c-0.1,0.3-0.1,0.8-0.1,1s0,0.6,0.1,0.8l-1.6,0.1c-0.4-1.6-0.8-4.1-0.8-7.1c0-3.3,0.7-7,1-8.9
			c0.1-0.5,0.2-1.1,0.2-1.6l2,0.2C743.4,117.1,743.2,117.8,743.1,118.2z M748.3,129.5c0,1,0.7,2,3.7,2c2,0,3.7-0.2,5.5-0.6v1.9
			c-1.4,0.3-3.3,0.5-5.5,0.5c-3.7,0-5.4-1.2-5.4-3.3c0-0.8,0.1-1.5,0.4-2.6l1.6,0.2C748.4,128.3,748.3,128.9,748.3,129.5z
			 M756.8,118.4v1.8c-2.4,0.3-6.7,0.3-9.1,0v-1.8C750.2,118.8,754.6,118.7,756.8,118.4z"/>
		<path class="st9" d="M767.8,119.2c1.2-0.2,2.3-0.4,3.5-0.8v1.7c-1.2,0.3-2.6,0.6-4,0.8c-1.1,3.1-3.1,7-4.8,9.3l-1.7-0.9
			c1.8-2.1,3.7-5.7,4.7-8.3c-0.7,0-1.3,0.1-2,0.1c-0.8,0-1.8,0-2.6-0.1l-0.1-1.7c0.8,0.1,1.8,0.2,2.7,0.2c0.8,0,1.6,0,2.5-0.1
			c0.3-1.2,0.6-2.6,0.7-3.8l1.9,0.2C768.5,116.6,768.1,117.9,767.8,119.2z M773.9,125c0,0.8,0.1,2.3,0.2,3.6
			c1.9,0.7,3.5,1.8,4.6,2.7l-1,1.5c-1-0.8-2.1-1.8-3.6-2.5c0,0.4,0,0.7,0,0.9c0,1.8-1.1,3.2-3.9,3.2c-2.4,0-4.4-1-4.4-3.2
			c0-2,1.9-3.3,4.4-3.3c0.8,0,1.5,0.1,2.2,0.2c-0.1-1.8-0.2-4-0.2-5.6h1.7C773.8,123.5,773.8,124.2,773.9,125z M770,132.9
			c1.8,0,2.5-1,2.5-2.2c0-0.3,0-0.6,0-1c-0.7-0.2-1.5-0.3-2.3-0.3c-1.6,0-2.7,0.8-2.7,1.8C767.4,132.2,768.3,132.9,770,132.9z
			 M773.2,120.2l0.9-1.4c1.6,0.7,4.1,2.1,5.2,2.9l-1,1.5C777.1,122.2,774.7,120.8,773.2,120.2z"/>
		<path class="st9" d="M785.3,117.1c1.2,0,6.4-0.2,7.6-0.3c0.7,0,1-0.1,1.2-0.2l1,1.3c-0.4,0.3-0.8,0.6-1.2,0.9
			c-1.1,0.8-4.1,3.4-5.8,4.9c1-0.4,2.1-0.5,3.1-0.5c3.7,0,6.3,2.2,6.3,5.2c0,3.6-2.9,5.9-7.6,5.9c-3,0-4.9-1.3-4.9-3.1
			c0-1.5,1.4-2.9,3.4-2.9c2.8,0,4.3,1.8,4.5,3.9c1.8-0.7,2.8-2,2.8-3.8c0-2.2-2.1-3.8-5-3.8c-3.7,0-5.7,1.6-8.5,4.4l-1.3-1.3
			c1.8-1.5,4.7-3.9,6-5c1.2-1,4-3.3,5.1-4.3c-1.2,0-5.6,0.2-6.8,0.3c-0.5,0-1,0.1-1.5,0.1l-0.1-1.8
			C784.2,117.1,784.8,117.1,785.3,117.1z M789.5,132.8c0.6,0,1.2,0,1.8-0.1c-0.2-1.8-1.3-3-3-3c-1,0-1.8,0.6-1.8,1.4
			C786.5,132.1,787.7,132.8,789.5,132.8z"/>
		<path class="st9" d="M807.9,122.7c2.1-1.3,4.5-2.4,5.7-3.1c0.6-0.4,1.1-0.7,1.6-1l1,1.6c-0.5,0.3-1.1,0.6-1.7,0.9
			c-1.5,0.8-4.6,2.2-6.7,3.7c-2.1,1.3-3.3,2.8-3.3,4.5c0,1.8,1.8,3,5.3,3c2.4,0,5.4-0.3,7.1-0.8v2c-1.7,0.3-4.2,0.6-7,0.6
			c-4.2,0-7.2-1.2-7.2-4.6c0-2.3,1.5-4.1,3.8-5.7c-1-1.8-2.2-4.4-3.2-6.8l1.8-0.7C805.8,118.6,806.9,121,807.9,122.7z"/>
	</g>
</g>
<g>
	<g>
		<polygon class="st10" points="380.4,96.8 380.4,153.9 421.5,153.9 414,173.3 438.2,153.9 890.1,153.9 890.1,96.8 		"/>
	</g>
</g>
<line class="st11" x1="456.7" y1="278.4" x2="813.8" y2="278.4"/>
<g>
	<path class="st12" d="M503.7,248.9h16.6v28.6h-3.9v-2.2h-34.1v-3.7h34.1v-7.9H485V260h31.4v-7.4h-33.1v-3.7h16.3V231h4.1V248.9z
		 M489.1,246.4c-1.1-3.3-3.8-8.2-6.5-11.8l3.3-1.4c2.9,3.6,5.6,8.3,6.8,11.6L489.1,246.4z M521,234.2c-2.1,4.3-5,9.3-7.3,12.6
		l-3.3-1.3c2.2-3.3,5-8.7,6.6-12.6L521,234.2z"/>
	<path class="st12" d="M537.8,267.3c2.4,3.8,6.9,5.5,12.9,5.8c5.8,0.3,17.6,0.1,23.8-0.3c-0.5,0.8-1.1,2.5-1.2,3.6
		c-5.8,0.3-16.7,0.4-22.5,0.2c-6.7-0.3-11.4-2.1-14.5-6.1c-2.1,2.2-4.4,4.4-6.9,6.6l-2-3.5c2.1-1.6,4.6-3.7,6.9-5.9v-13.1H528V251
		h9.8V267.3z M535.8,242.8c-1.3-2.5-4.6-6.2-7.5-8.7l2.9-1.9c3,2.4,6.4,5.9,7.8,8.4L535.8,242.8z M573.8,263.1h-33.9v-3h9.2v-4.8
		h-7.5v-2.9h7.5v-3.7h3.5v3.7h8.3v-3.7h3.6v3.7h7.6v2.9h-7.6v4.8h9.2v3H573.8z M551.8,235.6h-10.9V233H555v8.6h-10v2.6
		c0,0.9,0.3,1.1,1.9,1.1h5.5c1.2,0,1.5-0.3,1.6-2.5c0.7,0.5,1.9,0.9,2.8,1.1c-0.4,3.3-1.3,4.2-3.9,4.2h-6.3c-3.8,0-4.7-0.8-4.7-3.8
		V239h10L551.8,235.6L551.8,235.6z M554.1,264.8c-2.6,2.4-6.7,4.9-10,6.6c-0.6-0.7-2-1.9-2.8-2.4c3.5-1.4,7.2-3.3,9.5-5.3
		L554.1,264.8z M552.6,260.1h8.3v-4.8h-8.3V260.1z M568.2,235.6h-10.7V233h14.1v8.6h-9.9v2.6c0,1,0.3,1.2,2,1.2h6.1
		c1.2,0,1.5-0.3,1.6-2.7c0.7,0.5,1.9,0.9,2.8,1.1c-0.4,3.4-1.3,4.3-4,4.3h-6.8c-3.8,0-4.8-0.8-4.8-3.8V239h9.8v-3.4H568.2z
		 M569.4,271.5c-2.1-1.9-5.8-4.3-9.3-6.1l2.7-1.7c3.7,1.8,7.9,4.2,10.3,6.1L569.4,271.5z"/>
	<path class="st12" d="M625.9,275.3h-20.8v2.2h-3.6v-24.1c-0.9,0.9-1.8,1.6-2.7,2.4c-0.5-0.6-1.5-1.7-2.3-2.4v17.9h-9.8v4h-3.1
		v-16.4c-0.9,1.8-1.8,3.5-2.9,4.9c-0.4-0.9-1.5-2.7-2.1-3.5c3.7-5.4,5.9-13.5,7.2-22.3H580v-3.5h18v3.5h-8.6
		c-0.6,3.9-1.3,7.7-2.3,11.3h9.4v3.5c4.3-3.3,7.7-7.8,10.3-13.2h-5.4v5.3h-3.3v-8.7h10.2c0.7-1.7,1.2-3.4,1.7-5.2l3.6,0.7
		c-0.5,1.5-0.9,3.1-1.4,4.5h13.5v8.7h-3.4v-5.3h-11.5c-1.2,2.7-2.5,5.2-4.1,7.5h6.2c0.9-1.9,1.8-4.3,2.3-6l3.6,0.9
		c-0.8,1.7-1.7,3.6-2.4,5.1h8v3.2h-8.8v5.2h8v3h-8v5.4h8v3h-8v5.3H626L625.9,275.3L625.9,275.3z M593.3,252.5h-6.6V268h6.6V252.5z
		 M612,250.2h-6.9v5.2h6.9V250.2z M612,258.4h-6.9v5.4h6.9V258.4z M605.1,272h6.9v-5.3h-6.9V272z"/>
	<path class="st12" d="M643.7,255.3c-4,1.9-8.2,3.9-11.6,5.4l-1.9-3.1c3.3-1.2,8-3.2,12.8-5.2L643.7,255.3z M654.7,263.8h20.9v3.5
		h-20.9v10.3h-3.8v-10.3h-20.5v-3.5h20.5v-3.9h3.8V263.8z M645.9,245.5c1.3-1.7,2.7-3.7,3.7-5.3h-17.7v-3.4h19v-5.7h3.8v5.7h19.4
		v3.4H652l1.3,0.5c-1.6,2.2-3.5,4.5-5.1,6.3c1.4,1,2.8,2,3.9,3c2-2.3,3.9-4.7,5.3-6.7l3,1.4c-3,3.8-7,8.2-10.6,11.7l8.8-0.5
		c-1-1.4-2-2.7-3-3.9l2.7-1.2c2.5,2.8,5.3,6.6,6.4,9.2l-2.9,1.5c-0.4-0.8-0.9-1.8-1.5-2.9c-6.5,0.5-12.9,0.9-17.8,1.2l-0.5-3.2
		c1.1-0.1,2.4-0.1,3.8-0.2c1.3-1.3,2.7-2.7,4.2-4.2c-2-1.7-4.9-3.9-7.4-5.4l1.9-2.2L645.9,245.5z M640,250c-1.7-1.6-5.1-4-8-5.7
		l2.5-2.1c2.8,1.5,6.4,3.8,8.1,5.4L640,250z M672.8,261.3c-2.4-2.1-7.5-5.2-11.5-7.2l2.6-2.1c3.9,1.9,9,4.9,11.6,7L672.8,261.3z
		 M673.4,243.3c-2.6,2.3-5.9,4.7-8.5,6.3l-2.7-1.6c2.5-1.7,5.9-4.4,7.8-6.4L673.4,243.3z"/>
	<path class="st12" d="M685,267.9l2.4-3c2.8,3.3,6.6,5.4,11.5,5.4c4.8,0,8.7-2.6,8.7-6.9c0-4.5-3.7-7.4-12.9-7.4v-3.6
		c8.3,0,11.9-3.4,11.9-7c0-3.5-2.7-6.1-7.7-6.1c-3.8,0-7.4,1.6-10.3,4.7l-2.5-2.9c3.6-3.5,7.8-5.7,13-5.7c7.4,0,12,3.9,12,9.4
		c0,4.5-2.7,7.7-7.1,8.9v0.2c4.7,0.9,8.2,4.4,8.2,9.6c0,6.6-5.9,10.5-12.9,10.5C692.4,274.2,687.9,271.4,685,267.9z"/>
	<path class="st12" d="M736.2,232.3c-1.4,3.8-3.2,7.5-5.2,11v34.1h-3.6v-28.6c-1.6,2.3-3.4,4.4-5.1,6.3c-0.4-0.9-1.4-2.9-2.1-3.7
		c5-4.9,9.7-12.5,12.6-20.2L736.2,232.3z M768,250.2v3.5h-33.9v-3.5H768z M749.4,236.8V231h3.8v5.8H767v3.4h-30.8v-3.4H749.4z
		 M738.8,258.4h25.5v18.8h-3.8v-2.1h-17.9v2.4h-3.7L738.8,258.4L738.8,258.4z M743,249.9c-0.3-2.2-1.4-5.7-2.6-8.4l3.3-0.8
		c1.3,2.6,2.5,6.1,2.8,8.2L743,249.9z M742.5,261.9v9.7h17.9v-9.7H742.5z M755.5,249.2c1.1-2.2,2.4-6,3-8.6l3.8,0.8
		c-1.2,3-2.4,6.3-3.6,8.5L755.5,249.2z"/>
	<path class="st12" d="M781.7,270.5c0-2,1.5-3.4,3.3-3.4s3.3,1.4,3.3,3.4s-1.5,3.4-3.3,3.4C783.1,273.9,781.7,272.5,781.7,270.5z
		 M782.3,241.5l-0.1-6h5.6l-0.1,6l-1,19.8h-3.4L782.3,241.5z"/>
</g>
</svg>
