<?xml version="1.0" encoding="utf-8"?>
<!-- Generator: Adobe Illustrator 28.2.0, SVG Export Plug-In . SVG Version: 6.00 Build 0)  -->
<svg version="1.1" id="レイヤー_1" xmlns="http://www.w3.org/2000/svg" xmlns:xlink="http://www.w3.org/1999/xlink" x="0px"
	 y="0px" viewBox="0 0 383.4 311" style="enable-background:new 0 0 383.4 311;" xml:space="preserve">
<style type="text/css">
	.st0{fill:#FFFFFF;}
	.st1{fill:#D8211E;}
	.st2{fill:none;stroke:#D8211E;stroke-miterlimit:10;}
	.st3{fill:#F7EE4D;}
	.st4{fill:#444444;}
	.st5{fill:#FFFFFF;stroke:#000002;stroke-width:2;stroke-miterlimit:10;}
	.st6{fill:#F7EE4D;stroke:#000002;stroke-width:1.7964;stroke-miterlimit:10;}
	.st7{fill:none;stroke:#000002;stroke-width:2;stroke-miterlimit:10;}
	.st8{fill:#FFFFFF;stroke:#000002;stroke-width:1.5751;stroke-miterlimit:10;}
	.st9{fill:#000002;}
	.st10{fill:none;}
	.st11{fill:none;stroke:#F7EE4D;stroke-width:5.7397;stroke-miterlimit:10;}
	.st12{fill:#040000;}
</style>
<rect x="0.3" y="0.1" class="st0" width="383" height="311"/>
<g>
	<g>
		<g>
			<path class="st1" d="M87.6,17.9c-0.6,1-1.9,2.8-3.5,3.9L83.2,21c1.3-0.7,2.6-2.3,3.1-3.1h-8c-0.5,0-1.1,0-1.6,0.1v-1.3
				c0.5,0.1,1.1,0.1,1.6,0.1h8c0.3,0,0.8,0,1-0.1l0.7,0.7C87.9,17.5,87.7,17.7,87.6,17.9z M78.5,27.4l-1-0.8
				c0.4-0.1,0.9-0.4,1.3-0.6c2.2-1.3,2.5-3.3,2.5-5.7c0-0.3,0-0.6-0.1-1h1.3C82.4,23,82.1,25.6,78.5,27.4z"/>
			<path class="st1" d="M100.7,15.2c0.9,0,1.6,0.7,1.6,1.6s-0.7,1.6-1.6,1.6c-0.2,0-0.4,0-0.5-0.1c0,0,0,0.1,0,0.2
				c-0.3,1.5-1,3.7-2.1,5.2c-1.3,1.6-2.9,2.9-5.5,3.7l-1-1.1c2.7-0.7,4.3-1.9,5.5-3.4c1-1.3,1.7-3.2,1.8-4.6h-7.2c-0.6,0-1,0-1.4,0
				v-1.2c0.4,0.1,0.9,0.1,1.4,0.1h7c0.1,0,0.3,0,0.4,0c0-0.1-0.1-0.3-0.1-0.4C99.2,15.9,99.9,15.2,100.7,15.2z M100.7,17.7
				c0.5,0,0.9-0.4,0.9-0.9s-0.4-0.9-0.9-0.9s-0.9,0.4-0.9,0.9C99.8,17.3,100.2,17.7,100.7,17.7z"/>
			<path class="st1" d="M106.1,17.3V22c0,0.4,0,0.8,0.1,1.1h-1.3c0-0.2,0.1-0.7,0.1-1.1v-4.7c0-0.3,0-0.7-0.1-1h1.3
				C106.1,16.6,106.1,17,106.1,17.3z M112.6,17.4v2.3c0,3.4-0.5,4.5-1.5,5.7c-0.9,1.1-2.3,1.7-3.3,2l-0.9-1c1.3-0.3,2.5-0.9,3.3-1.9
				c1-1.2,1.2-2.3,1.2-4.9v-2.2c0-0.5,0-0.9-0.1-1.2h1.3C112.6,16.6,112.6,17,112.6,17.4z"/>
			<path class="st1" d="M120.4,17.4c1.4-0.1,3-0.2,4.3-0.4v1c-1.4,0.2-3.1,0.3-4.7,0.4c-0.3,0.7-0.8,1.5-1.3,2.2
				c0.5-0.3,1.3-0.5,1.9-0.5c0.9,0,1.7,0.4,1.9,1.3c1-0.5,1.8-0.8,2.5-1.1c0.4-0.2,0.8-0.3,1.1-0.5l0.5,1c-0.4,0.1-0.9,0.3-1.2,0.4
				c-0.8,0.3-1.8,0.7-2.8,1.2c0,0.8,0,2,0,2.7h-1.1c0-0.5,0-1.4,0-2.2c-1.3,0.7-2.2,1.4-2.2,2.4c0,1.1,1.1,1.3,2.5,1.3
				c1.1,0,2.6-0.1,3.8-0.3v1.1c-1.1,0.1-2.6,0.3-3.8,0.3c-2,0-3.6-0.4-3.6-2.1s1.7-2.7,3.3-3.5c-0.1-0.6-0.6-0.9-1.3-0.9
				c-0.9,0-1.8,0.4-2.4,1c-0.4,0.4-0.8,0.9-1.3,1.5l-1-0.7c1.8-1.7,2.7-3.2,3.2-4.3c-0.2,0-0.4,0-0.6,0c-0.6,0-1.5,0-2.3-0.1v-1.1
				c0.7,0.1,1.7,0.2,2.4,0.2c0.3,0,0.6,0,0.9,0c0.2-0.6,0.3-1.2,0.4-1.8l1.1,0.1C120.8,16.2,120.6,16.7,120.4,17.4z"/>
			<path class="st1" d="M139.5,17.5l-0.7,0.3l0.7,0.4c-0.1,0.2-0.3,0.5-0.3,0.7c-0.4,1.3-1.1,2.9-2.2,4.4c0.6,0.4,1.1,0.9,1.6,1.2
				l-0.8,1c-0.4-0.4-0.9-0.8-1.5-1.3c-1.2,1.4-3,2.7-5.3,3.6l-1-0.9c2.4-0.7,4.2-2,5.4-3.4c-1-0.7-2.1-1.5-3-2l0.8-0.8
				c0.9,0.5,2,1.2,3,1.9c0.9-1.2,1.6-2.7,1.9-3.9h-4.7c-0.9,1.2-2.1,2.6-3.7,3.7l-0.9-0.7c2.4-1.5,3.9-3.6,4.5-4.9
				c0.1-0.3,0.4-0.7,0.4-1.1l1.3,0.4c-0.2,0.4-0.5,0.8-0.6,1.1c-0.1,0.2-0.2,0.3-0.3,0.5h3.8c0.4,0,0.7,0,0.9-0.1l0.2,0.1
				c-0.3-0.6-0.7-1.4-1.1-1.9l0.7-0.3C138.7,16.1,139.2,16.9,139.5,17.5z M141.1,16.9l-0.8,0.3c-0.3-0.6-0.8-1.4-1.2-1.9l0.7-0.3
				C140.3,15.5,140.8,16.4,141.1,16.9z"/>
			<path class="st1" d="M148.5,16.7V18h3.1c0.5,0,0.8,0,1-0.1l0.8,0.5c-0.1,0.2-0.2,0.6-0.2,0.8c-0.2,1.1-0.6,2.9-1.4,4.2
				c-1.1,1.8-3,3.3-5.5,4l-0.9-1.1c0.5-0.1,1-0.2,1.5-0.4c1.4-0.4,2.9-1.5,3.8-2.8c0.8-1.2,1.2-2.9,1.3-4.1h-7.8v2.5
				c0,0.3,0,0.6,0.1,0.8h-1.2c0-0.3,0-0.6,0-0.9V19c0-0.3,0-0.8,0-1.1c0.4,0,0.8,0.1,1.3,0.1h3.1v-1.3c0-0.3,0-0.6-0.1-1h1.3
				C148.5,16.1,148.5,16.4,148.5,16.7z"/>
			<path class="st1" d="M161.2,23.9c2.2-1.4,3.9-3.4,4.7-5.2l0.7,1.2c-1,1.8-2.6,3.7-4.7,5c-1.4,0.9-3.2,1.7-5.5,2.2l-0.7-1.1
				C158,25.6,159.9,24.8,161.2,23.9z M160.4,19.5l-0.9,0.9c-0.7-0.7-2.5-2.2-3.5-2.9l0.8-0.9C157.8,17.2,159.6,18.7,160.4,19.5z"/>
			<path class="st1" d="M170.3,17.3h7.5c0.3,0,0.8,0,1.2,0c0,0.3,0,0.7,0,1.1v6.9c0,0.4,0,1.5,0,1.7h-1.2c0-0.1,0-0.4,0-0.8h-7.6
				c0,0.4,0,0.7,0,0.8H169c0-0.2,0-1.2,0-1.7v-6.9c0-0.3,0-0.8,0-1.1C169.6,17.3,169.9,17.3,170.3,17.3z M170.2,25h7.7v-6.7h-7.7V25
				z"/>
			<path class="st1" d="M183.8,20.9h7.7c0.7,0,1.2,0,1.5-0.1v1.4c-0.3,0-0.9-0.1-1.5-0.1h-7.7c-0.8,0-1.5,0-1.9,0.1v-1.4
				C182.3,20.8,183,20.9,183.8,20.9z"/>
			<path class="st1" d="M197,17.7c0-0.4,0-1-0.1-1.5h1.4c-0.1,0.4-0.1,1-0.1,1.5V20c1.8,0.6,4.5,1.6,6,2.3l-0.5,1.2
				c-1.5-0.8-3.9-1.8-5.5-2.2v4.6c0,0.4,0,1.2,0.1,1.7H197c0.1-0.4,0.1-1.1,0.1-1.7L197,17.7L197,17.7z M203.2,18.9l-0.8,0.4
				c-0.3-0.7-0.8-1.5-1.2-2.1l0.8-0.3C202.3,17.3,202.9,18.2,203.2,18.9z M204.9,18.1l-0.8,0.4c-0.4-0.7-0.8-1.5-1.3-2.1l0.8-0.4
				C204,16.6,204.6,17.5,204.9,18.1z"/>
			<path class="st1" d="M209.7,17.4c-0.1,1.6-0.2,4.9-0.2,7c0,1.5,1,2.1,2.3,2.1c2.6,0,4-1.4,5-2.9l0.8,1c-1,1.3-2.8,3.1-5.9,3.1
				c-2,0-3.4-0.8-3.4-3.1c0-2.1,0.1-5.6,0.1-7.1c0-0.5,0-1-0.1-1.4h1.4C209.7,16.4,209.7,16.9,209.7,17.4z"/>
			<path class="st1" d="M218.9,17.5c0.9-0.1,3.6-0.4,6.1-0.6c1.5-0.1,2.8-0.2,3.8-0.3v1.1c-0.8,0-2,0-2.7,0.2
				c-2,0.6-3.2,2.8-3.2,4.4c0,2.7,2.5,3.6,4.8,3.7l-0.4,1.2c-2.6-0.1-5.5-1.5-5.5-4.6c0-2.2,1.3-4,2.6-4.7c-1.5,0.2-5.1,0.5-6.6,0.8
				l-0.1-1.2C218.2,17.5,218.7,17.5,218.9,17.5z"/>
			<path class="st1" d="M236.8,15.2c1.5,2.1,3.9,3.9,6.1,4.8c-0.2,0.3-0.5,0.6-0.7,0.9c-2.2-1.1-4.6-2.9-5.9-4.7
				c-1.1,1.7-3.4,3.6-5.8,4.8c-0.1-0.2-0.4-0.6-0.6-0.8c2.4-1.1,4.7-3.2,5.8-4.9h1.1L236.8,15.2L236.8,15.2z M230.6,22.1h11.5v1
				h-6.6c-0.5,1-1.1,2.2-1.7,3.2c1.7-0.1,3.7-0.1,5.7-0.2c-0.6-0.7-1.2-1.3-1.8-1.9l0.9-0.5c1.3,1.1,2.6,2.6,3.3,3.7L241,28
				c-0.2-0.3-0.4-0.6-0.6-0.9c-3.4,0.2-7.1,0.3-9.5,0.4l-0.1-1c0.6,0,1.3,0,2.1-0.1c0.5-1,1.1-2.2,1.5-3.3h-3.7L230.6,22.1
				L230.6,22.1z M239.6,19.5v1H233v-1H239.6z"/>
			<path class="st1" d="M248.1,25.6l0.9,0.6c-1.1,0.7-2.9,1.4-4.4,1.7c-0.2-0.2-0.5-0.6-0.8-0.8C245.3,26.8,247.1,26.2,248.1,25.6
				h-2.7v-6h9.9v6H248.1z M254.7,18.8H246v-3.1h8.7V18.8z M246.4,21.4h7.8v-1h-7.8V21.4z M246.4,23.1h7.8v-1h-7.8V23.1z M246.4,24.8
				h7.8v-1h-7.8V24.8z M253.6,16.5H247V18h6.6V16.5z M252.3,25.6c1.4,0.4,3.3,1.1,4.4,1.6l-0.9,0.8c-1.1-0.5-2.9-1.2-4.4-1.6
				L252.3,25.6z"/>
			<path class="st1" d="M260.3,17.3c-0.3,1.3-0.7,3.8-0.7,5.4c0,0.7,0,1.3,0.1,2c0.2-0.6,0.6-1.5,0.8-2l0.6,0.4
				c-0.4,1-0.9,2.5-1,3.1c0,0.2-0.1,0.5-0.1,0.6c0,0.2,0,0.3,0,0.5l-1,0.1c-0.3-1-0.5-2.6-0.5-4.5c0-2.1,0.5-4.5,0.6-5.6
				c0.1-0.3,0.1-0.7,0.1-1l1.2,0.1C260.5,16.6,260.4,17,260.3,17.3z M263.6,24.4c0,0.6,0.5,1.3,2.4,1.3c1.3,0,2.3-0.1,3.5-0.4v1.2
				c-0.9,0.2-2.1,0.3-3.5,0.3c-2.4,0-3.4-0.8-3.4-2.1c0-0.5,0.1-1,0.2-1.7l1,0.1C263.6,23.6,263.6,24,263.6,24.4z M269,17.4v1.1
				c-1.5,0.2-4.2,0.2-5.8,0v-1.1C264.8,17.7,267.6,17.6,269,17.4z"/>
			<path class="st1" d="M276,17.9c0.7-0.1,1.5-0.3,2.2-0.5v1c-0.7,0.2-1.6,0.4-2.5,0.5c-0.7,2-1.9,4.4-3.1,5.9l-1.1-0.6
				c1.2-1.4,2.4-3.6,3-5.2c-0.4,0-0.8,0-1.2,0c-0.5,0-1.1,0-1.6,0l-0.1-1.1c0.5,0.1,1.1,0.1,1.7,0.1c0.5,0,1,0,1.6-0.1
				c0.2-0.8,0.4-1.7,0.4-2.4l1.2,0.1C276.4,16.2,276.2,17.1,276,17.9z M279.8,21.6c0,0.5,0.1,1.4,0.1,2.3c1.2,0.4,2.2,1.1,2.9,1.7
				l-0.6,1c-0.6-0.5-1.4-1.2-2.3-1.6c0,0.2,0,0.4,0,0.6c0,1.1-0.7,2-2.5,2c-1.5,0-2.8-0.6-2.8-2c0-1.3,1.2-2.1,2.8-2.1
				c0.5,0,0.9,0,1.4,0.1c-0.1-1.1-0.1-2.5-0.2-3.5h1.1C279.8,20.6,279.8,21.1,279.8,21.6z M277.4,26.6c1.2,0,1.6-0.6,1.6-1.4
				c0-0.2,0-0.4,0-0.6c-0.4-0.1-0.9-0.2-1.4-0.2c-1,0-1.7,0.5-1.7,1.1C275.7,26.1,276.3,26.6,277.4,26.6z M279.4,18.5l0.6-0.9
				c1,0.4,2.6,1.4,3.3,1.9l-0.6,0.9C281.9,19.8,280.4,18.9,279.4,18.5z"/>
			<path class="st1" d="M287.1,16.6c0.7,0,4.1-0.1,4.8-0.2c0.4,0,0.6-0.1,0.8-0.1l0.6,0.8c-0.3,0.2-0.5,0.4-0.8,0.6
				c-0.7,0.5-2.6,2.2-3.7,3.1c0.6-0.2,1.3-0.3,1.9-0.3c2.3,0,4,1.4,4,3.3c0,2.3-1.8,3.7-4.8,3.7c-1.9,0-3.1-0.8-3.1-2
				c0-1,0.9-1.8,2.2-1.8c1.8,0,2.7,1.1,2.9,2.5c1.1-0.4,1.8-1.2,1.8-2.4c0-1.4-1.3-2.4-3.1-2.4c-2.3,0-3.6,1-5.4,2.8l-0.8-0.8
				c1.2-1,3-2.5,3.8-3.1s2.5-2.1,3.2-2.7c-0.7,0-3.5,0.2-4.3,0.2c-0.3,0-0.6,0-0.9,0.1v-1.2C286.4,16.6,286.8,16.6,287.1,16.6z
				 M289.7,26.5c0.4,0,0.8,0,1.1-0.1c-0.1-1.1-0.8-1.9-1.9-1.9c-0.6,0-1.1,0.4-1.1,0.9C287.9,26.1,288.6,26.5,289.7,26.5z"/>
			<path class="st1" d="M301.4,20.1c1.3-0.8,2.8-1.5,3.6-2c0.4-0.2,0.7-0.4,1-0.7l0.6,1c-0.3,0.2-0.7,0.4-1.1,0.6
				c-1,0.5-2.9,1.4-4.3,2.3c-1.3,0.8-2.1,1.8-2.1,2.8c0,1.2,1.1,1.9,3.3,1.9c1.5,0,3.4-0.2,4.5-0.5v1.2c-1.1,0.2-2.7,0.4-4.4,0.4
				c-2.6,0-4.5-0.8-4.5-2.9c0-1.4,0.9-2.6,2.4-3.6c-0.6-1.1-1.4-2.8-2-4.3l1.1-0.5C300.1,17.5,300.8,19,301.4,20.1z"/>
		</g>
	</g>
	<g>
		<g>
			<polygon class="st2" points="30.7,3.8 30.7,39.8 54.3,39.8 64.9,52.1 64.9,39.8 352.8,39.8 352.8,3.8 			"/>
		</g>
	</g>
</g>
<g>
	<path class="st3" d="M357.1,290.9h-332c-10.6,0-19.2-8.6-19.2-19.2l0,0c0-10.6,8.6-19.2,19.2-19.2H357c10.6,0,19.2,8.6,19.2,19.2
		l0,0C376.3,282.3,367.7,290.9,357.1,290.9z"/>
	<g>
		<g>
			<path class="st4" d="M111.3,268.2c-0.6,1-1.9,2.8-3.5,3.9l-0.9-0.7c1.3-0.7,2.6-2.3,3.1-3.1h-8c-0.5,0-1.1,0-1.6,0.1V267
				c0.5,0.1,1.1,0.1,1.6,0.1h8c0.3,0,0.8,0,1-0.1l0.7,0.7C111.6,267.8,111.4,268,111.3,268.2z M102.2,277.7l-1-0.8
				c0.4-0.1,0.9-0.4,1.3-0.6c2.2-1.3,2.5-3.3,2.5-5.7c0-0.3,0-0.6-0.1-1h1.3C106.1,273.3,105.8,275.9,102.2,277.7z"/>
			<path class="st4" d="M124.4,265.5c0.9,0,1.6,0.7,1.6,1.6s-0.7,1.6-1.6,1.6c-0.2,0-0.4,0-0.5-0.1c0,0,0,0.1,0,0.2
				c-0.3,1.5-1,3.7-2.1,5.2c-1.3,1.6-2.9,2.9-5.5,3.7l-1-1.1c2.7-0.7,4.3-1.9,5.5-3.4c1-1.3,1.7-3.2,1.8-4.6h-7.2c-0.6,0-1,0-1.4,0
				v-1.2c0.4,0.1,0.9,0.1,1.4,0.1h7c0.1,0,0.3,0,0.4,0c0-0.1-0.1-0.3-0.1-0.4C122.8,266.2,123.5,265.5,124.4,265.5z M124.4,268
				c0.5,0,0.9-0.4,0.9-0.9s-0.4-0.9-0.9-0.9s-0.9,0.4-0.9,0.9S123.9,268,124.4,268z"/>
			<path class="st4" d="M129.8,267.6v4.7c0,0.4,0,0.8,0.1,1.1h-1.3c0-0.2,0.1-0.7,0.1-1.1v-4.7c0-0.3,0-0.7-0.1-1h1.3
				C129.8,266.9,129.8,267.3,129.8,267.6z M136.3,267.7v2.3c0,3.4-0.5,4.5-1.5,5.7c-0.9,1.1-2.3,1.7-3.3,2l-0.9-1
				c1.3-0.3,2.5-0.9,3.3-1.9c1-1.2,1.2-2.3,1.2-4.9v-2.2c0-0.5,0-0.9-0.1-1.2h1.3C136.3,266.9,136.3,267.3,136.3,267.7z"/>
			<path class="st4" d="M145.6,277.6l-0.7-1c0.4,0,0.9-0.1,1.2-0.2c1.8-0.4,3.6-1.7,3.6-4.2c0-2.1-1.4-3.9-3.7-4.1
				c-0.2,1.3-0.4,2.7-0.8,4c-0.9,2.9-2,4.4-3.3,4.4c-1.2,0-2.5-1.4-2.5-3.7c0-3,2.7-5.7,6.1-5.7c3.3,0,5.4,2.3,5.4,5.2
				C150.9,275.2,149,277.1,145.6,277.6z M141.9,275.2c0.7,0,1.4-0.9,2.1-3.3c0.4-1.2,0.6-2.5,0.8-3.8c-2.7,0.3-4.3,2.6-4.3,4.5
				C140.5,274.5,141.3,275.2,141.9,275.2z"/>
			<path class="st4" d="M163.9,267.8l-0.7,0.3l0.7,0.4c-0.1,0.2-0.3,0.5-0.3,0.7c-0.4,1.3-1.1,2.9-2.2,4.4c0.6,0.4,1.1,0.9,1.6,1.2
				l-0.8,1c-0.4-0.4-0.9-0.8-1.5-1.3c-1.2,1.4-3,2.7-5.3,3.6l-1-0.9c2.4-0.7,4.2-2,5.4-3.4c-1-0.7-2.1-1.5-3-2l0.8-0.8
				c0.9,0.5,2,1.2,3,1.9c0.9-1.2,1.6-2.7,1.9-3.9h-4.7c-0.9,1.2-2.1,2.6-3.7,3.7l-0.9-0.7c2.4-1.5,3.9-3.6,4.5-4.9
				c0.1-0.3,0.4-0.7,0.4-1.1l1.3,0.4c-0.2,0.4-0.5,0.8-0.6,1.1c-0.1,0.2-0.2,0.3-0.3,0.5h3.8c0.4,0,0.7,0,0.9-0.1l0.2,0.1
				c-0.3-0.6-0.7-1.4-1.1-1.9l0.7-0.3C163.1,266.4,163.6,267.2,163.9,267.8z M165.5,267.2l-0.8,0.3c-0.3-0.6-0.8-1.4-1.2-1.9
				l0.7-0.3C164.7,265.8,165.2,266.7,165.5,267.2z"/>
			<path class="st4" d="M172.9,267v1.3h3.1c0.5,0,0.8,0,1-0.1l0.8,0.5c-0.1,0.2-0.2,0.6-0.2,0.8c-0.2,1.1-0.6,2.9-1.4,4.2
				c-1.1,1.8-3,3.3-5.5,4l-0.9-1.1c0.5-0.1,1-0.2,1.5-0.4c1.4-0.4,2.9-1.5,3.8-2.8c0.8-1.2,1.2-2.9,1.3-4.1h-7.8v2.5
				c0,0.3,0,0.6,0.1,0.8h-1.2c0-0.3,0-0.6,0-0.9v-2.5c0-0.3,0-0.8,0-1.1c0.4,0,0.8,0.1,1.3,0.1h3.1V267c0-0.3,0-0.6-0.1-1h1.3
				C172.9,266.4,172.9,266.7,172.9,267z"/>
			<path class="st4" d="M185.6,274.2c2.2-1.4,3.9-3.4,4.7-5.2l0.7,1.2c-1,1.8-2.6,3.7-4.7,5c-1.4,0.9-3.2,1.7-5.5,2.2l-0.7-1.1
				C182.4,275.9,184.2,275,185.6,274.2z M184.7,269.8l-0.9,0.9c-0.7-0.7-2.5-2.2-3.5-2.9l0.8-0.9C182.2,267.5,184,269,184.7,269.8z"
				/>
			<path class="st4" d="M194.7,267.6h7.5c0.3,0,0.8,0,1.2,0c0,0.3,0,0.7,0,1.1v6.9c0,0.4,0,1.5,0,1.7h-1.2c0-0.1,0-0.4,0-0.8h-7.6
				c0,0.4,0,0.7,0,0.8h-1.2c0-0.2,0-1.2,0-1.7v-6.9c0-0.3,0-0.8,0-1.1C194,267.6,194.3,267.6,194.7,267.6z M194.6,275.3h7.7v-6.7
				h-7.7V275.3z"/>
			<path class="st4" d="M208.2,271.2h7.7c0.7,0,1.2,0,1.5-0.1v1.4c-0.3,0-0.9-0.1-1.5-0.1h-7.7c-0.8,0-1.5,0-1.9,0.1v-1.4
				C206.7,271.1,207.4,271.2,208.2,271.2z"/>
			<path class="st4" d="M221.4,267.9c0-0.4,0-1-0.1-1.5h1.4c-0.1,0.4-0.1,1-0.1,1.5v2.3c1.8,0.6,4.5,1.6,6,2.3l-0.5,1.2
				c-1.5-0.8-3.9-1.8-5.5-2.2v4.6c0,0.4,0,1.2,0.1,1.7h-1.3c0.1-0.4,0.1-1.1,0.1-1.7L221.4,267.9L221.4,267.9z M227.6,269.2
				l-0.8,0.4c-0.3-0.7-0.8-1.5-1.2-2.1l0.8-0.3C226.7,267.6,227.3,268.5,227.6,269.2z M229.3,268.4l-0.8,0.4
				c-0.4-0.7-0.8-1.5-1.3-2.1l0.8-0.4C228.4,266.9,229,267.8,229.3,268.4z"/>
			<path class="st4" d="M233.5,267.6c-0.3,1.3-0.7,3.8-0.7,5.4c0,0.7,0,1.3,0.1,2c0.2-0.6,0.6-1.5,0.8-2l0.6,0.4
				c-0.4,1-0.9,2.5-1,3.1c0,0.2-0.1,0.5-0.1,0.6c0,0.2,0,0.3,0,0.5l-1,0.1c-0.3-1-0.5-2.6-0.5-4.5c0-2.1,0.5-4.5,0.6-5.6
				c0.1-0.3,0.1-0.7,0.1-1l1.2,0.1C233.7,266.9,233.6,267.3,233.5,267.6z M236.8,274.7c0,0.6,0.5,1.3,2.4,1.3c1.3,0,2.3-0.1,3.5-0.4
				v1.2c-0.9,0.2-2.1,0.3-3.5,0.3c-2.4,0-3.4-0.8-3.4-2.1c0-0.5,0.1-1,0.2-1.7l1,0.1C236.9,273.9,236.8,274.3,236.8,274.7z
				 M242.2,267.7v1.1c-1.5,0.2-4.2,0.2-5.8,0v-1.1C238,267.9,240.8,267.9,242.2,267.7z"/>
			<path class="st4" d="M245.8,269.4c1.2-0.4,3.9-1.4,6-1.4c2.3,0,4.2,1.3,4.2,3.7c0,3.3-3.3,5-7.7,5.2l-0.5-1.2
				c3.7-0.1,6.9-1.2,6.9-4.1c0-1.5-1.1-2.6-3-2.6c-2.3,0-5.9,1.5-7,2l-0.5-1.2C244.7,269.7,245.2,269.6,245.8,269.4z"/>
			<path class="st4" d="M259.5,268.7c0,0.9,0,2.2,0.1,3.3c0.2,2.3,0.9,3.9,1.9,3.9c0.7,0,1.4-1.5,1.7-2.9l0.9,1
				c-0.8,2.4-1.7,3.2-2.6,3.2c-1.3,0-2.6-1.3-3-4.9c-0.1-1.2-0.2-2.9-0.2-3.7c0-0.3,0-0.9-0.1-1.2h1.4
				C259.6,267.7,259.5,268.4,259.5,268.7z M269.4,274.7l-1.1,0.5c-0.3-2.5-1.1-5.4-2.4-7l1.1-0.4
				C268.2,269.4,269.2,272.4,269.4,274.7z"/>
			<path class="st4" d="M271.9,267.8c0.9-0.1,3.6-0.4,6.1-0.6c1.5-0.1,2.8-0.2,3.8-0.3v1.1c-0.8,0-2,0-2.7,0.2
				c-2,0.6-3.2,2.8-3.2,4.4c0,2.7,2.5,3.6,4.8,3.7l-0.4,1.2c-2.6-0.1-5.5-1.5-5.5-4.6c0-2.2,1.3-4,2.6-4.7c-1.5,0.2-5.1,0.5-6.6,0.8
				l-0.1-1.2C271.2,267.8,271.7,267.8,271.9,267.8z"/>
		</g>
	</g>
</g>
<g>
	<g>
		<path class="st5" d="M175,206.1h-51.5c-4,0-7.2-3.2-7.2-7.2V91.3c0-4,3.2-7.2,7.2-7.2H175c4,0,7.2,3.2,7.2,7.2v107.5
			C182.3,202.8,179,206.1,175,206.1z"/>
		<path class="st6" d="M174.9,201.1h-51.2c-1.9,0-3.4-1.5-3.4-3.4V92.4c0-1.9,1.5-3.4,3.4-3.4h51.2c1.9,0,3.4,1.5,3.4,3.4v105.2
			C178.3,199.5,176.8,201.1,174.9,201.1z"/>
	</g>
	<path class="st5" d="M51.3,243.1c0,0,21-25,24-28s6.1-4.9,8-8c5-8,2-13,5-25s15.5-36.2,18-43c4-11-1-17,2-20s10-7,15,9s-7,34-7,38"
		/>
	<path class="st7" d="M182.3,127.1c0,0,8-3,11,5s-7,12.1-11,11.6"/>
	<path class="st5" d="M182.3,149.3c0,0-8,4.7-9.5,6.2c-1.5,1.6-2.5,3.7,0,7.6c2.5,3.9,6.5,1.9,6.5,1.9s2.5-1.3,5-3s5.1-4,5.4-4.6
		c0.6-1.4,1.1-2.9-0.4-5.4C185.9,146.5,182.3,149.3,182.3,149.3z"/>
	<path class="st5" d="M182.3,166.3c0,0-8,4.7-9.5,6.2c-1.5,1.6-2.5,3.7,0,7.6c2.5,3.9,6.5,1.9,6.5,1.9s2.5-1.3,5-3s5.1-4,5.4-4.6
		c0.6-1.4,1.1-2.9-0.4-5.4C185.9,163.5,182.3,166.3,182.3,166.3z"/>
	<path class="st8" d="M183.5,182.6c0,0-6.8,3.5-8,4.6s-2.1,2.8,0,5.6c2.1,2.9,5.5,1.4,5.5,1.4s3-0.8,5.3-2.1c2-1.2,3.2-3,3.5-3.5
		c0.5-1,1-2.1-0.3-3.9C186.6,180.5,183.5,182.6,183.5,182.6z"/>
	<path class="st5" d="M103.3,254.1c0,0,9-11,10-13s1-5,5-8s18-8,25-13s12-11,13-14"/>
	<path class="st5" d="M182.8,105.1L182.8,105.1c-0.3,0-0.5-0.2-0.5-0.5v-8c0-0.3,0.2-0.5,0.5-0.5l0,0c0.3,0,0.5,0.2,0.5,0.5v8
		C183.3,104.8,183.1,105.1,182.8,105.1z"/>
	<path class="st5" d="M182.8,117.1L182.8,117.1c-0.3,0-0.5-0.2-0.5-0.5v-8c0-0.3,0.2-0.5,0.5-0.5l0,0c0.3,0,0.5,0.2,0.5,0.5v8
		C183.3,116.8,183.1,117.1,182.8,117.1z"/>
	<path class="st9" d="M163.3,90.6h-28c-1.9,0-3.5-1.6-3.5-3.5v-3.5h35v3.5C166.8,89,165.2,90.6,163.3,90.6z"/>
	<g>
		<g>
			<path class="st10" d="M172.3,141.9c0.1-0.2,0-0.5-0.1-0.7c-0.2-0.2-0.4-0.3-0.7-0.3h-4.3c-0.3,0-0.7,0.2-0.8,0.5l-0.3,1
				c0,0.1,0,0.1,0,0.2H166h-1.3l0.3-0.8c0.1-0.2,0-0.5-0.1-0.7s-0.4-0.3-0.7-0.3h-1.4c-0.3,0-0.7,0.2-0.8,0.5l-0.5,1.3h-16.4
				c-0.3,0-0.7,0.2-0.8,0.5l0,0H144l0.5-1.3c0.1-0.2,0-0.5-0.1-0.7c-0.2-0.2-0.4-0.3-0.7-0.3h-1.4c-0.3,0-0.7,0.2-0.8,0.5l-0.7,1.8
				h-0.7c0-0.1-0.1-0.2-0.1-0.2c-0.2-0.2-0.4-0.3-0.7-0.3h-1.4c-0.3,0-0.7,0.2-0.8,0.5l-0.4,1.1l-0.1-1c0-0.4-0.4-0.7-0.8-0.7h-1
				c0,0-0.1,0-0.2,0l0,0l0.7-1c0.2-0.3,0.2-0.6,0-0.9c-0.2-0.2-0.4-0.3-0.7-0.3c-0.1,0-0.1,0-0.2,0l-7.7,2c-0.3,0.1-0.6,0.4-0.6,0.8
				v2.4c0,0.3,0.2,0.5,0.4,0.7c0.1,0.1,0.3,0.1,0.4,0.1s0.2,0,0.3-0.1l0.8-0.4l0.2,0.3l0.7,1.8c0.1,0.2,0.2,0.3,0.5,0.4
				c0.1,0,0.2,0,0.3,0h1.5c0.3,0,0.5-0.1,0.7-0.3s0.2-0.5,0.1-0.7l-0.2-0.4l1.2-1.7l0.3,2.6c0,0.4,0.4,0.7,0.8,0.7h1
				c0,0,0.1,0,0.2,0c0,0,0,0,0.1,0l-0.3,0.8c-0.1,0.2,0,0.5,0.1,0.7c0.2,0.2,0.4,0.3,0.7,0.3h1.4c0.3,0,0.7-0.2,0.8-0.5l0.7-1.9h0.5
				l-0.5,1.4c-0.1,0.2,0,0.5,0.1,0.7c0.2,0.2,0.4,0.3,0.7,0.3h1.4c0.3,0,0.7-0.2,0.8-0.5l0.7-1.9h0.6c0,0.1,0.1,0.2,0.1,0.3
				c0.2,0.2,0.4,0.3,0.7,0.3h15.5c0.1,0,0.3,0,0.4-0.1l-0.3,0.9c-0.1,0.2,0,0.5,0.1,0.7s0.4,0.3,0.7,0.3h1.4c0.3,0,0.7-0.2,0.8-0.5
				l0.5-1.4c0.1,0.1,0.3,0.1,0.4,0.1h1.4c0.3,0,0.7-0.2,0.8-0.5l1-2.8h2.2l-0.8,2.3c-0.1,0.2,0,0.5,0.1,0.7c0.2,0.2,0.4,0.3,0.7,0.3
				h1.4c0.3,0,0.7-0.2,0.8-0.5l1.5-4.3c0.1-0.2,0-0.5-0.1-0.7l0,0L172.3,141.9z"/>
			<g>
				<g>
					<polygon points="138,143.3 135.9,149.4 137.4,149.4 139.5,143.3 					"/>
					<polygon points="133.8,143.3 134.3,147.6 135.2,147.6 134.7,143.3 					"/>
					<polygon points="136,143.3 135,143.3 135.5,147.6 136.5,147.6 					"/>
				</g>
				<polygon points="150.6,143.3 150.2,144.3 153.6,144.3 152.8,146.6 149.4,146.6 149.1,147.6 153.9,147.6 155.4,143.3 				"/>
				<polygon points="155.9,143.3 155.6,144.3 158.9,144.3 158.1,146.6 154.8,146.6 154.4,147.6 159.2,147.6 160.7,143.3 				"/>
				<g>
					<polygon points="166.2,144.3 169.6,144.3 168.4,147.6 169.9,147.6 171.3,143.3 166.5,143.3 					"/>
					<polygon points="171.6,141.7 167.2,141.7 166.9,142.6 171.2,142.6 					"/>
				</g>
				<polygon points="164.2,141.5 162.8,141.5 162.2,143.3 161.2,143.3 160.9,144.3 161.8,144.3 160,149.4 161.5,149.4 163.3,144.3 
					164.2,144.3 163.1,147.6 164.5,147.6 166,143.3 163.6,143.3 				"/>
				<polygon points="150,143.3 145.2,143.3 144.9,144.3 148.3,144.3 148,145 144.8,145 144.5,145.9 147.7,145.9 147.5,146.6 
					144.1,146.6 143.8,147.6 148.6,147.6 				"/>
				<polygon points="143.9,146 142.1,146 142.6,144.8 144.3,144.8 144.6,143.8 142.9,143.8 143.7,141.5 142.3,141.5 141.5,143.8 
					139.7,143.8 139.4,144.8 141.1,144.8 140.7,146 139,146 138.6,147 140.4,147 139.6,149.4 141,149.4 141.8,147 143.6,147 				"/>
				<polygon points="134.9,141.1 127.2,143 127.2,145.5 132.8,142.7 130.7,145.8 130.5,145.3 129,145.3 130,147.6 131.4,147.6 
					131.1,146.8 				"/>
			</g>
		</g>
	</g>
</g>
<line class="st11" x1="206.5" y1="119.1" x2="352.3" y2="119.1"/>
<g>
	<path class="st12" d="M224.8,107h6.8v11.7H230v-0.9h-13.9v-1.5H230v-3.2h-12.8v-1.5H230v-3h-13.5V107h6.7v-7.3h1.7L224.8,107
		L224.8,107z M218.8,106c-0.4-1.3-1.6-3.3-2.6-4.8l1.4-0.6c1.2,1.5,2.3,3.4,2.8,4.7L218.8,106z M231.9,101c-0.9,1.8-2,3.8-3,5.1
		l-1.3-0.5c0.9-1.4,2.1-3.6,2.7-5.2L231.9,101z"/>
	<path class="st12" d="M239,114.5c1,1.6,2.8,2.3,5.3,2.4c2.3,0.1,7.2,0,9.7-0.1c-0.2,0.3-0.4,1-0.5,1.5c-2.3,0.1-6.8,0.1-9.2,0.1
		c-2.7-0.1-4.6-0.9-5.9-2.5c-0.9,0.9-1.8,1.8-2.8,2.7l-0.8-1.4c0.9-0.6,1.9-1.5,2.8-2.4v-5.4H235v-1.5h4V114.5z M238.2,104.6
		c-0.5-1-1.9-2.5-3.1-3.5l1.2-0.8c1.2,1,2.6,2.4,3.2,3.5L238.2,104.6z M253.7,112.8h-13.8v-1.2h3.7v-2h-3.1v-1.2h3.1V107h1.4v1.5
		h3.4V107h1.5v1.5h3.1v1.2h-3.1v2h3.8L253.7,112.8L253.7,112.8z M244.7,101.6h-4.4v-1.1h5.8v3.5H242v1.1c0,0.4,0.1,0.5,0.8,0.5h2.2
		c0.5,0,0.6-0.1,0.7-1c0.3,0.2,0.8,0.4,1.1,0.4c-0.1,1.4-0.5,1.7-1.6,1.7h-2.6c-1.5,0-1.9-0.3-1.9-1.6V103h4.1v-1.4H244.7z
		 M245.6,113.5c-1.1,1-2.7,2-4.1,2.7c-0.2-0.3-0.8-0.8-1.1-1c1.4-0.6,3-1.4,3.9-2.2L245.6,113.5z M245,111.6h3.4v-2H245V111.6z
		 M251.4,101.6H247v-1.1h5.8v3.5h-4.1v1.1c0,0.4,0.1,0.5,0.8,0.5h2.5c0.5,0,0.6-0.1,0.7-1.1c0.3,0.2,0.8,0.4,1.1,0.4
		c-0.1,1.4-0.5,1.8-1.6,1.8h-2.8c-1.5,0-2-0.3-2-1.6V103h4V101.6z M251.9,116.3c-0.9-0.8-2.4-1.7-3.8-2.5l1.1-0.7
		c1.5,0.7,3.2,1.7,4.2,2.5L251.9,116.3z"/>
	<path class="st12" d="M275.2,117.8h-8.5v0.9h-1.5v-9.9c-0.4,0.4-0.7,0.7-1.1,1c-0.2-0.2-0.6-0.7-0.9-1v7.3h-4v1.6h-1.3V111
		c-0.4,0.7-0.7,1.4-1.2,2c-0.2-0.4-0.6-1.1-0.9-1.4c1.5-2.2,2.4-5.5,2.9-9.1h-2.3v-1.4h7.3v1.4h-3.5c-0.2,1.6-0.5,3.2-0.9,4.6h3.8
		v1.4c1.7-1.3,3.2-3.2,4.2-5.4h-2.2v2.2h-1.4v-3.5h4.2c0.3-0.7,0.5-1.4,0.7-2.1l1.5,0.3c-0.2,0.6-0.4,1.2-0.6,1.8h5.5v3.5h-1.4v-2.2
		H269c-0.5,1.1-1,2.1-1.7,3.1h2.5c0.4-0.8,0.7-1.7,0.9-2.5l1.5,0.4c-0.3,0.7-0.7,1.5-1,2.1h3.3v1.3h-3.6v2.1h3.3v1.2h-3.3v2.2h3.3
		v1.2h-3.3v2.2h4.2v1.4C275.1,117.8,275.2,117.8,275.2,117.8z M261.9,108.5h-2.7v6.3h2.7V108.5z M269.5,107.6h-2.8v2.1h2.8V107.6z
		 M269.5,110.9h-2.8v2.2h2.8V110.9z M266.7,116.5h2.8v-2.2h-2.8V116.5z"/>
	<path class="st12" d="M282.6,109.7c-1.6,0.8-3.3,1.6-4.7,2.2l-0.8-1.2c1.3-0.5,3.3-1.3,5.2-2.1L282.6,109.7z M287.1,113.1h8.5v1.4
		h-8.5v4.2h-1.5v-4.2h-8.4v-1.4h8.4v-1.6h1.5V113.1z M283.5,105.7c0.5-0.7,1.1-1.5,1.5-2.2h-7.2v-1.4h7.8v-2.3h1.5v2.3h7.9v1.4h-9
		l0.5,0.2c-0.6,0.9-1.4,1.8-2.1,2.6c0.6,0.4,1.1,0.8,1.6,1.2c0.8-1,1.6-1.9,2.2-2.7l1.2,0.6c-1.2,1.5-2.8,3.3-4.3,4.8l3.6-0.2
		c-0.4-0.6-0.8-1.1-1.2-1.6l1.1-0.5c1,1.1,2.2,2.7,2.6,3.7l-1.2,0.6c-0.1-0.3-0.4-0.7-0.6-1.2c-2.6,0.2-5.3,0.4-7.3,0.5l-0.2-1.3
		c0.5,0,1,0,1.6-0.1c0.5-0.5,1.1-1.1,1.7-1.7c-0.8-0.7-2-1.6-3-2.2l0.8-0.9L283.5,105.7z M281.1,107.5c-0.7-0.7-2.1-1.6-3.3-2.3
		l1-0.9c1.1,0.6,2.6,1.6,3.3,2.2L281.1,107.5z M294.5,112.1c-1-0.9-3.1-2.1-4.7-3l1.1-0.9c1.6,0.8,3.7,2,4.7,2.8L294.5,112.1z
		 M294.8,104.8c-1.1,1-2.4,1.9-3.5,2.6l-1.1-0.7c1-0.7,2.4-1.8,3.2-2.6L294.8,104.8z"/>
	<path class="st12" d="M299.8,114.8l1-1.2c1.1,1.3,2.7,2.2,4.7,2.2s3.5-1.1,3.5-2.8c0-1.8-1.5-3-5.3-3v-1.5c3.4,0,4.9-1.4,4.9-2.8
		s-1.1-2.5-3.1-2.5c-1.6,0-3,0.6-4.2,1.9l-1-1.2c1.5-1.4,3.2-2.3,5.3-2.3c3,0,4.9,1.6,4.9,3.8c0,1.8-1.1,3.1-2.9,3.6v0.1
		c1.9,0.4,3.3,1.8,3.3,3.9c0,2.7-2.4,4.3-5.3,4.3C302.8,117.4,301,116.2,299.8,114.8z"/>
	<path class="st12" d="M321,100.2c-0.6,1.5-1.3,3.1-2.1,4.5v13.9h-1.5V107c-0.7,1-1.4,1.8-2.1,2.6c-0.2-0.4-0.6-1.2-0.9-1.5
		c2-2,3.9-5.1,5.1-8.2L321,100.2z M334,107.6v1.4h-13.8v-1.4H334z M326.4,102.1v-2.3h1.6v2.3h5.6v1.4H321v-1.4H326.4z M322.1,110.9
		h10.4v7.7h-1.6v-0.9h-7.3v1h-1.5V110.9z M323.8,107.4c-0.1-0.9-0.6-2.3-1.1-3.4l1.3-0.3c0.5,1.1,1,2.5,1.1,3.4L323.8,107.4z
		 M323.6,112.4v4h7.3v-4H323.6z M328.9,107.1c0.4-0.9,1-2.5,1.2-3.5l1.6,0.3c-0.5,1.2-1,2.6-1.5,3.5L328.9,107.1z"/>
	<path class="st12" d="M340,115.9c0-0.8,0.6-1.4,1.3-1.4c0.7,0,1.3,0.6,1.3,1.4s-0.6,1.4-1.3,1.4C340.6,117.2,340,116.7,340,115.9z
		 M340.3,104v-2.5h2.3v2.5l-0.4,8.1h-1.4L340.3,104z"/>
</g>
</svg>
