<?xml version="1.0" encoding="utf-8"?>
<!-- Generator: Adobe Illustrator 26.5.1, SVG Export Plug-In . SVG Version: 6.00 Build 0)  -->
<svg version="1.1" id="レイヤー_1" xmlns="http://www.w3.org/2000/svg" xmlns:xlink="http://www.w3.org/1999/xlink" x="0px"
	 y="0px" viewBox="0 0 20 20" enable-background="new 0 0 20 20" xml:space="preserve">
<g>
	<g>
		<g>
			
				<line fill="none" stroke="#1F1F1F" stroke-width="0.75" stroke-linecap="round" stroke-linejoin="round" stroke-miterlimit="10" x1="17.9" y1="5.2" x2="7.5" y2="5.2"/>
			
				<line fill="none" stroke="#1F1F1F" stroke-width="0.75" stroke-linecap="round" stroke-linejoin="round" stroke-miterlimit="10" x1="4.1" y1="5.2" x2="2.1" y2="5.2"/>
			
				<path fill="none" stroke="#1F1F1F" stroke-width="0.75" stroke-linecap="round" stroke-linejoin="round" stroke-miterlimit="10" d="
				M7.5,5.2c0-1-0.8-1.7-1.7-1.7c-1,0-1.7,0.8-1.7,1.7"/>
			
				<path fill="none" stroke="#1F1F1F" stroke-width="0.75" stroke-linecap="round" stroke-linejoin="round" stroke-miterlimit="10" d="
				M4.1,5.2c0,1,0.8,1.7,1.7,1.7c1,0,1.7-0.8,1.7-1.7"/>
		</g>
	</g>
	<g>
		<g>
			
				<line fill="none" stroke="#1E1F1F" stroke-width="0.75" stroke-linecap="round" stroke-linejoin="round" stroke-miterlimit="10" x1="17.9" y1="10" x2="16.5" y2="10"/>
			
				<line fill="none" stroke="#1E1F1F" stroke-width="0.75" stroke-linecap="round" stroke-linejoin="round" stroke-miterlimit="10" x1="13.1" y1="10" x2="2.1" y2="10"/>
			
				<path fill="none" stroke="#1E1F1F" stroke-width="0.75" stroke-linecap="round" stroke-linejoin="round" stroke-miterlimit="10" d="
				M16.5,10c0-1-0.8-1.7-1.7-1.7c-1,0-1.7,0.8-1.7,1.7"/>
			
				<path fill="none" stroke="#1E1F1F" stroke-width="0.75" stroke-linecap="round" stroke-linejoin="round" stroke-miterlimit="10" d="
				M13.1,10c0,1,0.8,1.7,1.7,1.7c1,0,1.7-0.8,1.7-1.7"/>
		</g>
	</g>
	
		<path fill="none" stroke="#1E1F1F" stroke-width="0.75" stroke-linecap="round" stroke-linejoin="round" stroke-miterlimit="10" d="
		M7.5,14.8c0-1-0.8-1.7-1.7-1.7c-1,0-1.7,0.8-1.7,1.7c0,1,0.8,1.7,1.7,1.7C6.8,16.5,7.5,15.7,7.5,14.8"/>
	<g>
		<g>
			
				<line fill="none" stroke="#1E1F1F" stroke-width="0.75" stroke-linecap="round" stroke-linejoin="round" stroke-miterlimit="10" x1="17.9" y1="14.8" x2="7.5" y2="14.8"/>
			
				<line fill="none" stroke="#1E1F1F" stroke-width="0.75" stroke-linecap="round" stroke-linejoin="round" stroke-miterlimit="10" x1="4.1" y1="14.8" x2="2.1" y2="14.8"/>
			
				<path fill="none" stroke="#1E1F1F" stroke-width="0.75" stroke-linecap="round" stroke-linejoin="round" stroke-miterlimit="10" d="
				M7.5,14.8c0-1-0.8-1.7-1.7-1.7c-1,0-1.7,0.8-1.7,1.7"/>
			
				<path fill="none" stroke="#1E1F1F" stroke-width="0.75" stroke-linecap="round" stroke-linejoin="round" stroke-miterlimit="10" d="
				M4.1,14.8c0,1,0.8,1.7,1.7,1.7c1,0,1.7-0.8,1.7-1.7"/>
		</g>
	</g>
</g>
</svg>
