<svg xmlns="http://www.w3.org/2000/svg" viewBox="0 0 256 256"><defs><style>.cls-1{fill:#fff;}.cls-2{fill:none;}</style></defs><g id="レイヤー_2" data-name="レイヤー 2"><rect class="cls-1" x="0.04" width="256" height="256"/><rect class="cls-2" x="9.89" width="235.81" height="256"/><path d="M67.93,146.52,63.4,129.41H56.12v23h4.43V133.66l5.3,18.78h4.31l5.24-18.75v18.75h4.46v-23H72.49Zm29.5-5c0-4.11-2.43-6.21-7.21-6.21-4.5,0-6.8,1.75-7.12,5.4h4.17c.23-1.55,1.1-2.17,3-2.17s2.81.59,2.81,1.82v1.22s-2.94.42-5.82,1c-3.29.66-5.08,2.48-5.08,5.13,0,3,2.27,5.16,5.79,5.16a6.53,6.53,0,0,0,5.14-2.16,6.57,6.57,0,0,0,.36,1.68h4.63a6.89,6.89,0,0,1-.65-3.5Zm-4.37,4.2a3.56,3.56,0,0,1-3.81,3.79c-1.69,0-2.62-.9-2.62-2.09s.57-1.82,2.16-2.19,4.27-.73,4.27-.73Zm27.66-3-3.59-.75c-1.2-.25-1.88-.92-1.88-1.79,0-1.07,1-1.78,2.49-1.78,1.71,0,2.94.79,3.17,2.25H125c-.42-3.27-3.17-5.42-7.22-5.42s-6.79,2.13-6.79,5.5c0,2.55,1.59,4.12,4.85,4.77l3.3.64c1.52.29,2.2.89,2.2,1.8,0,1.26-1.29,1.84-3,1.84-2.16,0-3.29-.85-3.55-2.5h-4.18c.42,3.55,3,5.67,7.57,5.67s7.41-2,7.41-5.56C125.6,145.46,124.05,143.5,120.72,142.82ZM138,144.68c0,2.49-1.33,4.07-3.27,4.07-1.62,0-2.42-1.1-2.42-2.85V135.75h-4.56v11.19c0,3.62,2,5.92,5.46,5.92a5.26,5.26,0,0,0,4.82-2.69l.07,2.27h4.46V135.75H138Zm25.05-11.13h4.56v-4.14h-4.56Zm0,18.89h4.56V135.75h-4.56Zm31.55-17.11c-5,0-8.53,3.78-8.53,8.83s3.52,8.83,8.53,8.83,8.54-3.79,8.54-8.83S199.63,135.33,194.61,135.33Zm0,14.1c-2.55,0-4.14-2.07-4.14-5.27s1.59-5.27,4.14-5.27,4.14,2.07,4.14,5.27S197.17,149.43,194.61,149.43Zm-13.09-13.68-3.46,11.49-3.69-11.49h-5L176,153.17l-1.93,5.6h4.35l7.93-23Zm-75.78,11.3v-7.94h3.11v-3.36h-3.11v-5.14h-4.56v5.11l-2.26,0v3.36h2.26v6.35h0v2.2c0,3.62,2,5.2,5.47,5.2a7.2,7.2,0,0,0,2.43-.41V148.9C108.1,149.35,105.74,149.56,105.74,147.05Zm-15.8,46.26-16,12.56H70a10.41,10.41,0,0,1-1.28,3.62c-1.27-1.43-2.38-2.69-3.39-3.91,3.36-1.91,4.22-3.9,4.22-5.67,0-2.86-2.42-5.14-5.88-5.14-3.31,0-5.72,2.21-5.72,5.09,0,1.61.61,3,2,4.8-2.43,1.6-4.31,3.68-4.31,6.64,0,3.61,2.62,6,6.72,6a10.18,10.18,0,0,0,6.33-2.08L70,216.92h5.26c-1.47-1.71-2.78-3.19-4-4.52A17.19,17.19,0,0,0,73.91,205.87ZM63.72,198a2,2,0,0,1,2,1.9c0,.68-.41,1.62-2.65,2.91a5.62,5.62,0,0,1-1.42-2.91A2,2,0,0,1,63.72,198ZM63,213.64c-1.91,0-3-1.09-3-2.64a4.45,4.45,0,0,1,2.1-3.54c1.16,1.41,2.52,3,4.16,5A5.29,5.29,0,0,1,63,213.64Zm57.16-1.58v4.86H125v-4.86ZM89.94,193.31c-6.45,0-10.75,4.65-10.75,12.09s4.38,12.32,10.75,12.32c5.14,0,8.84-2.76,9.84-8.79H95.27c-.71,3.58-2.64,4.65-5.21,4.65-3.86,0-6.09-3.33-6.09-8.18,0-4.69,2.3-8,6.09-8,2.41,0,4.42,1.05,5.18,4.5h4.54c-1-6-4.75-8.64-9.84-8.64m19.91,6.5c-5,0-8.54,3.78-8.54,8.83s3.52,8.83,8.54,8.83,8.53-3.79,8.53-8.83S114.86,199.81,109.85,199.81Zm0,14.1c-2.56,0-4.14-2.07-4.14-5.27s1.58-5.28,4.14-5.28,4.14,2.07,4.14,5.28S112.4,213.91,109.85,213.91Zm53.76-40.1c0-4.11-2.43-6.21-7.21-6.21-4.5,0-6.8,1.75-7.12,5.4h4.17c.23-1.55,1.1-2.17,3-2.17s2.81.59,2.81,1.82v1.22s-2.94.41-5.82,1c-3.29.66-5.08,2.48-5.08,5.13,0,3,2.27,5.16,5.79,5.16a6.51,6.51,0,0,0,5.14-2.17,6.56,6.56,0,0,0,.36,1.69h4.63a6.89,6.89,0,0,1-.65-3.5Zm-4.37,4.2a3.56,3.56,0,0,1-3.81,3.79c-1.69,0-2.62-.9-2.62-2.09s.57-1.82,2.16-2.19,4.27-.73,4.27-.73Zm32.67-4.2c0-4.11-2.42-6.21-7.21-6.21-4.49,0-6.79,1.75-7.11,5.4h4.17c.22-1.55,1.1-2.17,3-2.17s2.82.59,2.82,1.82v1.22s-3,.41-5.82,1c-3.29.66-5.08,2.48-5.08,5.13,0,3,2.26,5.16,5.79,5.16a6.51,6.51,0,0,0,5.14-2.17,5.82,5.82,0,0,0,.36,1.69h4.62a7,7,0,0,1-.65-3.5Zm-4.36,4.2a3.56,3.56,0,0,1-3.82,3.79c-1.68,0-2.62-.9-2.62-2.09s.58-1.82,2.17-2.19,4.27-.73,4.27-.73ZM66.41,181.34c-3.86,0-6.08-3.33-6.08-8.18,0-4.69,2.3-7.95,6.08-7.95,2.41,0,4.42,1,5.19,4.5h4.54c-1-6-4.76-8.64-9.84-8.64-6.45,0-10.76,4.65-10.76,12.09s4.38,12.32,10.76,12.32c5.14,0,8.83-2.76,9.84-8.79H71.63C70.92,180.27,69,181.34,66.41,181.34ZM86.2,167.57c-5,0-8.54,3.78-8.54,8.83s3.53,8.83,8.54,8.83,8.54-3.79,8.54-8.83S91.22,167.57,86.2,167.57Zm0,14.1c-2.55,0-4.14-2.07-4.14-5.27s1.59-5.27,4.14-5.27,4.14,2.06,4.14,5.27S88.76,181.67,86.2,181.67Zm18-10.54c1.65,0,2.71.87,3.2,2.68h4.46c-.68-3.95-3.46-6.24-7.73-6.24-5,0-8,3.46-8,8.83s3.07,8.83,8,8.83c4.21,0,7-2.33,7.73-6.31h-4.46c-.52,1.81-1.59,2.75-3.2,2.75-2.33,0-3.69-1.88-3.69-5.27S101.88,171.13,104.21,171.13Zm17.37-3.56c-5,0-8.54,3.78-8.54,8.83s3.52,8.83,8.54,8.83,8.54-3.79,8.54-8.83S126.59,167.57,121.58,167.57Zm0,14.1c-2.56,0-4.14-2.07-4.14-5.27s1.58-5.27,4.14-5.27,4.14,2.06,4.14,5.27S124.13,181.67,121.58,181.67Zm49.52-11.42L171,168h-4.46v16.69h4.56v-9.09a4,4,0,0,1,5.15-3.67v-4.35C174.21,167.48,172.32,168,171.1,170.25Zm-16-28,6.54-6.51h-5.73l-5.66,5.84V129.41h-4.56v23h4.56v-5.35l1.78-1.76,4.43,7.11h5.31ZM141.5,174.5,148,168h-5.72l-5.66,5.84V161.65h-4.56v23h4.56v-5.35l1.77-1.76,4.43,7.11h5.31Z"/><path d="M209.38,54.83a4,4,0,0,0-5.55-.36,71.5,71.5,0,0,1-14.41,9.73c.63-1.87,1.27-3.7,1.76-5.72.59-2.2-.31-4.41-2.55-4.93a4.12,4.12,0,0,0-4.93,3.21,81.83,81.83,0,0,1-3.35,10.78C152.71,76.09,112,72.41,83.26,63c-9.38-15.6-18.09-28.5-29.83-28.5a9,9,0,0,0-9,9c0,12.11,18.37,20.78,33.8,25.94,13.38,21,28.86,41.79,57.72,41.5,32-.31,45.6-26.61,50.24-37.38a73.88,73.88,0,0,0,22.55-13.22A4,4,0,0,0,209.38,54.83ZM176.65,76.27c-8.39,15.71-23,27.51-40.7,27-22.71,0-36.49-15.57-47-30.93C107.13,77.17,126.58,80,141.1,80A154.3,154.3,0,0,0,176.65,76.27Zm-104.6-17c-11.94-5-19.93-11.17-19.93-15.36a2,2,0,0,1,2.16-2C60,41.88,67.09,51.65,72.05,59.24Z"/></g></svg>