<svg xmlns="http://www.w3.org/2000/svg" viewBox="0 0 256 180.36" width="256" height="181"><defs><style>.cls-1{fill:#fafafa;}</style></defs><path class="cls-1" d="M223.31,122.54H80.4a3.89,3.89,0,0,1-3.83-3.24L58,7.76H3.88A3.88,3.88,0,0,1,3.88,0H61.27A3.89,3.89,0,0,1,65.1,3.24L83.69,114.78H220.83L248.6,54.86a3.88,3.88,0,0,1,7,3.26l-28.81,62.17A3.88,3.88,0,0,1,223.31,122.54Z"/><path class="cls-1" d="M104.31,180.36a23,23,0,1,1,23-23A23,23,0,0,1,104.31,180.36Zm0-38.26a15.25,15.25,0,1,0,15.25,15.25A15.27,15.27,0,0,0,104.31,142.1Z"/><path class="cls-1" d="M200,180.36a23,23,0,1,1,23-23A23,23,0,0,1,200,180.36Zm0-38.26a15.25,15.25,0,1,0,15.26,15.25A15.27,15.27,0,0,0,200,142.1Z"/></svg>