<svg xmlns="http://www.w3.org/2000/svg" viewBox="0 0 57.63 58.58"><defs><style>.cls-1{fill:none;stroke:#fff;stroke-linecap:round;stroke-linejoin:round;stroke-width:1.55px;}.cls-2{fill:#fff;}</style></defs><g id="レイヤー_2" data-name="レイヤー 2"><g id="レイヤー_2-2" data-name="レイヤー 2"><polyline class="cls-1" points="5.57 0.78 15.22 0.78 18.43 20.08 42.46 20.08 47.31 9.62"/><circle class="cls-1" cx="22.45" cy="26.58" r="3.22"/><circle class="cls-1" cx="38.54" cy="26.58" r="3.22"/><path class="cls-2" d="M8.92,37.51a10.92,10.92,0,0,0,1.25-.09V39L9,39H7.46c0,1.75.08,3.75.11,5.37,0,.77-.43,1.21-1.35,1.21-.73,0-1.4,0-2.08-.07L4,43.93a10.82,10.82,0,0,0,1.59.14c.3,0,.42-.15.42-.5,0-.8,0-2,0-3.24a16.39,16.39,0,0,1-4.9,4.05L0,43.14A14.56,14.56,0,0,0,5.28,39H2c-.43,0-.94,0-1.36,0V37.43A10.93,10.93,0,0,0,2,37.51h4c0-.31,0-.6,0-.86s-.06-.79-.12-1.21h1.7c0,.37-.07.84-.07,1.21v.86Z"/><path class="cls-2" d="M16.92,42.35a11.46,11.46,0,0,0,4.37-4.67l.93,1.69a12.69,12.69,0,0,1-4.43,4.44,13.15,13.15,0,0,1-4.45,1.69l-1-1.58A12.54,12.54,0,0,0,16.92,42.35Zm0-3.89L15.7,39.72a25.1,25.1,0,0,0-3-2.59l1.13-1.2A24.34,24.34,0,0,1,16.92,38.46Z"/><path class="cls-2" d="M33.77,39.32a5.45,5.45,0,0,0-.23.51,8.65,8.65,0,0,1-1.77,3.32,9,9,0,0,1-4.28,2.59l-1.2-1.36a8.1,8.1,0,0,0,4.16-2.09,5.27,5.27,0,0,0,1.24-2.08h-5.8c-.29,0-.89,0-1.39.06V38.71c.5,0,1,.07,1.39.07h5.94a2.3,2.3,0,0,0,.87-.12ZM25.6,35.85a12.19,12.19,0,0,0,1.25,0h4.62c.37,0,1,0,1.29,0v1.54c-.32,0-.88,0-1.32,0H26.85c-.38,0-.9,0-1.25,0Z"/><path class="cls-2" d="M42.4,44a7.73,7.73,0,0,0,.11,1.57h-1.9A12.8,12.8,0,0,0,40.7,44V40.07a24.48,24.48,0,0,1-4.13,1.63l-.86-1.47a18.29,18.29,0,0,0,5.46-2.17,12.67,12.67,0,0,0,3.13-2.71l1.28,1.17A19.65,19.65,0,0,1,42.4,39.1Z"/><path class="cls-2" d="M52.33,42.35a11.46,11.46,0,0,0,4.37-4.67l.93,1.69a12.73,12.73,0,0,1-4.44,4.44,13,13,0,0,1-4.45,1.69l-1-1.58A12.54,12.54,0,0,0,52.33,42.35Zm0-3.89-1.22,1.26a25.91,25.91,0,0,0-3-2.59l1.13-1.2A25.06,25.06,0,0,1,52.33,38.46Z"/><path class="cls-2" d="M22.21,49.78a6.49,6.49,0,0,0-.42.74,16.74,16.74,0,0,1-1.88,3.3,34,34,0,0,1,3.35,3.43l-1.37,1.19a27,27,0,0,0-3-3.4,15.71,15.71,0,0,1-4.51,3.37l-1.24-1.29A13.62,13.62,0,0,0,18,53.67a9.33,9.33,0,0,0,1.79-2.93H15.76c-.5,0-1.16.07-1.41.08v-1.7a12.74,12.74,0,0,0,1.41.08H20a4.53,4.53,0,0,0,1.25-.15Z"/><path class="cls-2" d="M32.73,55.15a35.92,35.92,0,0,0-4.33-1.79v3.4c0,.34.06,1.18.1,1.66H26.63a11.38,11.38,0,0,0,.12-1.66V49.87a7.81,7.81,0,0,0-.12-1.45H28.5c0,.42-.1.95-.1,1.45v1.77a38.13,38.13,0,0,1,5,1.86Z"/><path class="cls-2" d="M44.87,49.79a7.21,7.21,0,0,0-.47.62,11.91,11.91,0,0,1-2.89,3.29l-1.24-1a7,7,0,0,0,2.21-2.23H36.23c-.5,0-.9,0-1.46.09V48.89a9.8,9.8,0,0,0,1.46.12H42.7a6.17,6.17,0,0,0,1.21-.11ZM40,51.41c0,3-.06,5.42-3.33,7.17l-1.39-1.14a5,5,0,0,0,1.26-.66c1.52-1.05,1.81-2.33,1.81-4.29a6.63,6.63,0,0,0-.08-1.08Z"/></g></g></svg>