<svg xmlns="http://www.w3.org/2000/svg" viewBox="0 0 145.07 256" width="146" height="256"><defs><style>.cls-1{fill:#444;}</style></defs><path class="cls-1" d="M51.2,21.33H93.87a4.27,4.27,0,0,0,0-8.53H51.2a4.27,4.27,0,1,0,0,8.53Z"/><path class="cls-1" d="M119.47,21.33h4.26a4.27,4.27,0,1,0,0-8.53h-4.26a4.27,4.27,0,1,0,0,8.53Z"/><path class="cls-1" d="M77.83,217.6H67.24a11.78,11.78,0,0,0-11.77,11.77v2.06A11.78,11.78,0,0,0,67.23,243.2h10.6A11.78,11.78,0,0,0,89.6,231.43v-2.06A11.78,11.78,0,0,0,77.83,217.6Zm3.24,13.83a3.24,3.24,0,0,1-3.24,3.24H67.24A3.24,3.24,0,0,1,64,231.43v-2.06a3.24,3.24,0,0,1,3.24-3.24H77.83a3.24,3.24,0,0,1,3.24,3.24Z"/><path class="cls-1" d="M145.07,29.87h0V15.42A15.44,15.44,0,0,0,129.65,0H15.42A15.44,15.44,0,0,0,0,15.42V240.58A15.44,15.44,0,0,0,15.42,256H129.64a15.44,15.44,0,0,0,15.43-15.42v-31.5h0ZM8.53,34.13h128V204.8H8.53Zm6.89-25.6H129.64a6.9,6.9,0,0,1,6.89,6.89V25.6H8.53V15.42A6.9,6.9,0,0,1,15.42,8.53ZM129.65,247.47H15.42a6.9,6.9,0,0,1-6.89-6.89V213.33h128v27.25h0A6.9,6.9,0,0,1,129.65,247.47Z"/></svg>