<svg xmlns="http://www.w3.org/2000/svg" viewBox="0 0 256 255.93" width="256" height="256"><defs><style>.cls-1{fill:#444;}</style></defs><path class="cls-1" d="M63.53,0c2.71,1.47,3.58,3.72,3.56,6.79-.1,19.32,0,38.64-.06,58,0,12.9-5.66,22.52-17.06,28.6-1.49.79-1.44,1.76-1.44,3q0,53.46,0,106.91c0,12.32,0,24.65,0,37,0,9-6.48,15.66-15,15.66s-15-6.73-15-15.67q0-71.33,0-142.63c0-2.37-.5-3.73-2.77-5C5.58,86.76.2,77.74.09,66-.09,46,.08,26,0,6A6.42,6.42,0,0,1,3.54,0h3c2.71,1.47,3.57,3.72,3.55,6.79C10,23.28,10,39.76,10,56.25v2.58h9V56c0-16.4.07-32.81,0-49.21,0-3.07.84-5.32,3.56-6.79h3c2.72,1.46,3.58,3.72,3.56,6.79C29,23.28,29,39.77,29,56.26v2.58h9V56C38,39.61,38.1,23.2,38,6.79c0-3.07.84-5.32,3.55-6.79h3c2.71,1.47,3.58,3.72,3.56,6.8C48,23.28,48,39.77,48,56.26v2.58h9V56c0-16.4.06-32.81-.05-49.22,0-3.07.84-5.32,3.55-6.79ZM10.29,69.07c1.58,8,6,13.31,13.23,16.23,4.46,1.79,5,2.5,5,7.35q0,73,0,145.9a23,23,0,0,0,.07,3,5,5,0,0,0,9.84.08,21.25,21.25,0,0,0,.08-3q0-73.2,0-146.4c0-4.29.85-5.17,4.67-6.89a30.63,30.63,0,0,0,7.53-4.73,17.91,17.91,0,0,0,5.94-11.55Z"/><path class="cls-1" d="M256,243.4c-.17.47-.38.92-.52,1.39-2.22,7.37-9.1,12-16.34,11A15,15,0,0,1,226,240.62q-.06-35.34,0-70.68a5.82,5.82,0,0,0-2-4.74c-2.69-2.49-5.24-5.13-7.76-7.78A25.08,25.08,0,0,1,209,139.6c-.05-22.48-.56-45,.14-67.43C210.13,41.39,224,17.35,249.5,0H256Zm-10-228c-.65.48-.92.65-1.16.86-.8.73-1.61,1.44-2.37,2.21-15.3,15.46-23.23,34.09-23.42,55.82-.19,21.57,0,43.13-.05,64.7a16.41,16.41,0,0,0,5,12.12c3.12,3.12,6.19,6.29,9.4,9.33a8.13,8.13,0,0,1,2.66,6.4c-.07,23.9,0,47.8,0,71.7a21.34,21.34,0,0,0,.08,3,5,5,0,0,0,9.86-.13,18.57,18.57,0,0,0,0-2.24q0-95.05,0-190.1Z"/><path class="cls-1" d="M128,57a71,71,0,1,1-71,70.84A71.08,71.08,0,0,1,128,57ZM67,127.9A61,61,0,1,0,128.12,67,61.1,61.1,0,0,0,67,127.9Z"/><path class="cls-1" d="M127.92,223.49A95.6,95.6,0,0,1,77.48,209c-3.32-2.07-4.28-4.78-2.66-7.46s4.59-3.09,7.84-1.09a83.79,83.79,0,0,0,48,12.92c25-.94,45.8-11,62.33-29.8.77-.87,1.47-1.81,2.27-2.66,2.06-2.19,4.77-2.46,6.92-.75a4.74,4.74,0,0,1,.69,7.09c-4.56,4.95-9,10.1-14.15,14.39C171.14,216.25,150.72,223.25,127.92,223.49Z"/><path class="cls-1" d="M131.12,32.43c23.28.35,46.13,9.76,65,28.59a9.8,9.8,0,0,1,2.26,3.22,4.8,4.8,0,0,1-2.09,5.64c-2,1.22-4.4.84-6.41-.92-4-3.52-7.77-7.34-12.07-10.44-17.16-12.36-36.38-17.43-57.46-15.68a85,85,0,0,0-30.32,8.48c-3.28,1.59-6.16.84-7.51-1.9s-.2-5.41,3.1-7.05C98.9,35.76,113,32.51,131.12,32.43Z"/><path class="cls-1" d="M64.15,197.07a5.21,5.21,0,0,1-5.1-5,5,5,0,0,1,5-5.07A5.17,5.17,0,0,1,69.14,192,4.84,4.84,0,0,1,64.15,197.07Z"/><path class="cls-1" d="M82,126.53C83.46,108,92.19,94.25,109.16,86.08c3.13-1.51,6-.65,7.26,2s.25,5.44-2.87,6.94C99.83,101.65,92.77,112.61,92,127.76c-.15,3.15-2.36,5.31-5.21,5.17C83.74,132.78,82,130.43,82,126.53Z"/><path class="cls-1" d="M127.78,92a4.9,4.9,0,0,1-4.92-5.16,5,5,0,0,1,5-4.82A5.06,5.06,0,0,1,133,87.06,5,5,0,0,1,127.78,92Z"/></svg>