<svg xmlns="http://www.w3.org/2000/svg" viewBox="0 0 31.92 57.71"><defs><style>.cls-1,.cls-3{fill:#fff;}.cls-1,.cls-2{stroke:#fff;}.cls-1{stroke-miterlimit:10;stroke-width:0.22px;}.cls-2{fill:none;stroke-linecap:round;stroke-linejoin:round;stroke-width:1.58px;}</style></defs><g id="レイヤー_2" data-name="レイヤー 2"><g id="レイヤー_2-2" data-name="レイヤー 2"><path class="cls-1" d="M24.89.11H6.77A3.09,3.09,0,0,0,3.68,3.2v36a3.09,3.09,0,0,0,3.09,3.09H24.89A3.09,3.09,0,0,0,28,39.19V3.2A3.09,3.09,0,0,0,24.89.11Zm1.85,33.52H9.24a.62.62,0,1,0,0,1.24h17.5v4.32A1.85,1.85,0,0,1,24.89,41H6.77a1.86,1.86,0,0,1-1.86-1.85V34.87H6.77a.62.62,0,0,0,0-1.24H4.91V6.29H26.74Zm0-28.58H4.91V3.2A1.87,1.87,0,0,1,6.77,1.34H24.89A1.86,1.86,0,0,1,26.74,3.2Z"/><path class="cls-1" d="M18.3,2.58H15.83a.62.62,0,1,0,0,1.24H18.3a.62.62,0,1,0,0-1.24Z"/><path class="cls-1" d="M15.83,36.1A1.86,1.86,0,1,0,17.68,38,1.85,1.85,0,0,0,15.83,36.1Zm0,2.47a.62.62,0,0,1-.62-.62.61.61,0,0,1,.62-.61.61.61,0,0,1,.61.61A.61.61,0,0,1,15.83,38.57Z"/><circle class="cls-1" cx="13.36" cy="3.2" r="0.62"/><line class="cls-2" x1="16.39" y1="13.65" x2="16.39" y2="22.78"/><polyline class="cls-2" points="11.5 21.19 16.45 26.5 21.28 21.19"/><path class="cls-3" d="M9.87,49c-.11.13-.3.36-.4.5a11.87,11.87,0,0,1-2.93,3.32l-1-.81A7.54,7.54,0,0,0,8,49.56H1.4c-.46,0-.88,0-1.4.07V48.3a10.72,10.72,0,0,0,1.4.11H8.11a5.89,5.89,0,0,0,1-.09ZM5,50.63c0,3.13-.18,5.43-3.34,7l-1.1-.9a4.49,4.49,0,0,0,1.15-.59c1.71-1.1,2-2.61,2-4.6a5.23,5.23,0,0,0-.07-1Z"/><path class="cls-3" d="M19.22,48.79a4.53,4.53,0,0,0,.5,0,1.84,1.84,0,0,1,0-.33,1.39,1.39,0,1,1,1.38,1.38,1.66,1.66,0,0,1-.32,0l-.06.22a12,12,0,0,1-1.79,4.41,9.46,9.46,0,0,1-4.77,3.25l-1-1.13a8,8,0,0,0,4.69-2.86A8.27,8.27,0,0,0,19.29,50H13.4c-.51,0-1,0-1.29,0V48.71a10.38,10.38,0,0,0,1.29.08Zm2.6-.35a.75.75,0,1,0-.75.75A.75.75,0,0,0,21.82,48.44Z"/><path class="cls-3" d="M26.38,48.05c0,.25,0,.55,0,.88v4c0,.31,0,.73,0,1H25c0-.2.06-.62.06-1v-4c0-.21,0-.63-.05-.88Zm5.54-.1c0,.31,0,.67,0,1.11v2.13c0,2.75-.43,3.77-1.32,4.77a6.66,6.66,0,0,1-2.87,1.75l-1-1a5.57,5.57,0,0,0,2.9-1.57c.84-1,1-1.88,1-4V49.06A8.52,8.52,0,0,0,30.52,48Z"/></g></g></svg>