<?xml version="1.0" encoding="utf-8"?>
<!-- Generator: Adobe Illustrator 28.2.0, SVG Export Plug-In . SVG Version: 6.00 Build 0)  -->
<svg version="1.1" id="レイヤー_1" xmlns="http://www.w3.org/2000/svg" xmlns:xlink="http://www.w3.org/1999/xlink" x="0px"
	 y="0px" viewBox="0 0 216 256" enable-background="new 0 0 216 256" xml:space="preserve">
<path fill="#FFFFFF" d="M143.3,188.1H73.9c-1.9,0-3.5,1.5-3.5,3.4c0,1.9,1.5,3.5,3.4,3.5c0,0,0,0,0,0h69.4c1.9,0,3.5-1.5,3.5-3.4
	S145.2,188.1,143.3,188.1C143.3,188.1,143.3,188.1,143.3,188.1z"/>
<path fill="#FFFFFF" d="M139.8,204.6H77.3c-1.9,0-3.4,1.5-3.4,3.5c0,1.9,1.5,3.4,3.4,3.4h62.6c1.9,0,3.4-1.5,3.4-3.5
	C143.3,206.1,141.8,204.6,139.8,204.6L139.8,204.6z"/>
<path fill="#FFFFFF" d="M136.5,221H80.7c-1.9,0-3.5,1.5-3.5,3.4c0,1.9,1.5,3.5,3.4,3.5c0,0,0,0,0,0h55.8c1.9,0,3.4-1.5,3.4-3.5
	C139.9,222.5,138.4,221,136.5,221z"/>
<path fill="#FFFFFF" d="M108.6,256c10.4,0,18.9-8.4,18.9-18.9H89.7C89.7,247.5,98.1,256,108.6,256C108.5,256,108.6,256,108.6,256z"
	/>
<path fill="#FFFFFF" d="M110.4,42.8c-18.3-0.5-35.2,5.9-47.6,17.9c-11.6,11.3-18.1,26.9-18,43.1c0,11.6,3.2,23,9.1,32.9
	c7.4,12.1,13,25.1,16.7,38.8l0.9,3.5h7.1c0-0.1,0-0.2-0.1-0.4l-1.2-4.9c-3.8-14.3-9.7-28-17.4-40.6c-5.3-8.9-8.2-19-8.2-29.3
	c-0.1-14.3,5.6-28.1,15.9-38.1c11.1-10.7,26.2-16.4,42.6-16c31.4,0.9,55.2,24.1,55.2,54c0,10.2-2.7,20.3-7.9,29.1
	c-8,13.2-14,27.5-18,42.4l-0.9,3.5c0,0.1,0,0.2-0.1,0.4h7.1l0.5-2.1c3.8-14.3,9.6-27.9,17.2-40.6c5.8-9.9,8.9-21.1,8.9-32.6
	C172.3,70,145.6,43.8,110.4,42.8z"/>
<path fill="#FFFFFF" d="M86.7,106.5c-6.1-0.2-11.3,4.7-11.5,10.8c-0.2,6.1,4.7,11.3,10.8,11.5c0.2,0,0.4,0,0.7,0h6.8l2,50.3h4.6
	l-2-50.3h21l-2,50.3h4.6l2-50.3h6.8c6.2,0,11.1-5,11.1-11.1c0-6.2-5-11.1-11.1-11.1c-6.2,0-11.1,5-11.1,11.1l0,0v6.5H97.8v-6.5
	C97.8,111.5,92.8,106.5,86.7,106.5z M93.2,124.2h-6.5c-3.6,0-6.5-2.9-6.5-6.5c0-3.6,2.9-6.5,6.5-6.5c3.6,0,6.5,2.9,6.5,6.5
	c0,0,0,0,0,0V124.2z M123.9,117.6c0-3.6,2.9-6.5,6.5-6.5s6.5,2.9,6.5,6.5s-2.9,6.5-6.5,6.5c0,0,0,0,0,0h-6.5V117.6z"/>
<path fill="#FFFFFF" d="M108,29.7c1.6,0,2.9-1.3,2.9-2.9v-24c0.1-1.6-1.1-3-2.7-3c-1.6-0.1-3,1.1-3,2.7c0,0.1,0,0.2,0,0.3v24
	C105.1,28.4,106.4,29.7,108,29.7z"/>
<path fill="#FFFFFF" d="M65.1,39.1c0.8,1.4,2.6,1.9,3.9,1.1c1.4-0.8,1.9-2.6,1.1-3.9l-12-20.8c-0.8-1.4-2.6-1.9-3.9-1.1
	c-1.4,0.8-1.9,2.6-1.1,3.9L65.1,39.1z"/>
<path fill="#FFFFFF" d="M39.4,64.8l-20.8-12c-1.4-0.8-3.1-0.3-3.9,1.1c-0.8,1.4-0.3,3.1,1.1,3.9l20.8,12c1.4,0.8,3.1,0.3,3.9-1.1
	C41.3,67.3,40.8,65.6,39.4,64.8L39.4,64.8z"/>
<path fill="#FFFFFF" d="M30,107.7c0-1.6-1.3-2.9-2.9-2.9h-24c-1.6-0.1-3,1.1-3,2.7c-0.1,1.6,1.1,3,2.7,3c0.1,0,0.2,0,0.3,0h24
	C28.7,110.6,30,109.3,30,107.7z"/>
<path fill="#FFFFFF" d="M36.5,145.7l-20.8,12c-1.4,0.8-1.9,2.6-1.1,3.9c0.8,1.4,2.6,1.9,3.9,1.1l0,0l20.8-12
	c1.4-0.8,1.9-2.6,1.1-3.9C39.7,145.3,37.9,144.9,36.5,145.7z"/>
<path fill="#FFFFFF" d="M200.3,157.6l-20.8-12c-1.4-0.8-3.1-0.3-3.9,1.1s-0.3,3.1,1.1,3.9l20.8,12c1.4,0.8,3.1,0.3,3.9-1.1
	S201.7,158.4,200.3,157.6z"/>
<path fill="#FFFFFF" d="M212.8,104.8h-24c-1.6-0.1-3,1.1-3,2.7c-0.1,1.6,1.1,3,2.7,3c0.1,0,0.2,0,0.3,0h24c1.6-0.1,2.8-1.5,2.7-3
	C215.5,106.1,214.3,104.9,212.8,104.8z"/>
<path fill="#FFFFFF" d="M178,70.2c0.5,0,1-0.1,1.4-0.4l20.8-12c1.4-0.8,1.9-2.6,1.1-3.9s-2.6-1.9-3.9-1.1l0,0l-20.8,12
	c-1.4,0.8-1.8,2.6-1,3.9C176.1,69.6,177,70.1,178,70.2L178,70.2z"/>
<path fill="#FFFFFF" d="M147,40.2c0.4,0.3,0.9,0.4,1.4,0.4c1,0,2-0.6,2.5-1.4l12-20.8c0.8-1.4,0.3-3.1-1.1-3.9
	c-1.4-0.8-3.1-0.3-3.9,1.1l-12,20.8C145.1,37.6,145.6,39.4,147,40.2C147,40.2,147,40.2,147,40.2z"/>
</svg>
