<svg xmlns="http://www.w3.org/2000/svg" viewBox="0 0 256 237.5" width="256" height="238"><defs><style>.cls-1{fill:#444;}</style></defs><path class="cls-1" d="M237.25,0H18.75A18.77,18.77,0,0,0,0,18.75v165A18.77,18.77,0,0,0,18.75,202.5h80l-4.52,15.8c-1.81,6.34-8.91,11.7-15.51,11.7H50.5a3.75,3.75,0,0,0,0,7.5h155a3.75,3.75,0,0,0,0-7.5H177.25c-6.6,0-13.7-5.36-15.51-11.7l-4.52-15.8h80A18.77,18.77,0,0,0,256,183.75v-165A18.77,18.77,0,0,0,237.25,0ZM18.75,7.5h218.5A11.27,11.27,0,0,1,248.5,18.75V150H7.5V18.75A11.27,11.27,0,0,1,18.75,7.5ZM154.52,220.36a22.92,22.92,0,0,0,5.76,9.64H95.72a22.92,22.92,0,0,0,5.76-9.64l5.1-17.86h42.84ZM237.25,195H18.75A11.27,11.27,0,0,1,7.5,183.75V157.5h241v26.25A11.27,11.27,0,0,1,237.25,195Z"/><path class="cls-1" d="M18.75,142.5h218.5a3.75,3.75,0,0,0,3.75-3.75v-120A3.75,3.75,0,0,0,237.25,15H18.75A3.75,3.75,0,0,0,15,18.75v52.5a3.75,3.75,0,0,0,7.5,0V22.5h211V135H22.5V86.25a3.75,3.75,0,0,0-7.5,0v52.5A3.75,3.75,0,0,0,18.75,142.5Z"/><path class="cls-1" d="M128,165a11.25,11.25,0,1,0,11.25,11.25A11.27,11.27,0,0,0,128,165Zm0,15a3.75,3.75,0,1,1,3.75-3.75A3.75,3.75,0,0,1,128,180Z"/></svg>