<?xml version="1.0" encoding="utf-8"?>
<!-- Generator: Adobe Illustrator 28.2.0, SVG Export Plug-In . SVG Version: 6.00 Build 0)  -->
<svg version="1.1" id="レイヤー_1" xmlns="http://www.w3.org/2000/svg" xmlns:xlink="http://www.w3.org/1999/xlink" x="0px"
	 y="0px" viewBox="0 0 383.4 244.8" enable-background="new 0 0 383.4 244.8" xml:space="preserve">
<path fill="#FFFFFF" d="M0.3,0.1h383v245H0.3L0.3,0.1z"/>
<path fill="#FFFFFF" d="M244.2,143.1h-40c-3.1,0-5.6-2.5-5.6-5.6v-81c0-3.1,2.5-5.6,5.6-5.6h40c3.1,0,5.6,2.5,5.6,5.6v81
	C249.8,140.5,247.3,143.1,244.2,143.1z"/>
<path fill="#040000" d="M232,88.3l-1.9-3.5c-0.2-0.4-0.6-0.6-1.1-0.6h-9.5c-0.4,0-0.9,0.2-1,0.6l-1.9,3.5H215v-1
	c0-0.3-0.3-0.6-0.6-0.6h-0.9c-0.3,0-0.6,0.3-0.6,0.6v1h-1.8c-0.6,0-1,0.4-1,1v15.4c0,0.6,0.4,1,1,1h26.4c0.6,0,1-0.4,1-1V89.3
	c0-0.6-0.4-1-1-1H232z"/>
<circle fill="none" stroke="#FFFFFF" stroke-width="1.0281" stroke-miterlimit="10" cx="224.3" cy="96.9" r="5.6"/>
<ellipse fill="#FFFFFF" cx="235.5" cy="91.3" rx="1" ry="1"/>
<path fill="none" stroke="#221714" stroke-width="1.2236" stroke-linecap="round" stroke-linejoin="round" stroke-miterlimit="10" d="
	M205.7,69.6v-7.4h7.6"/>
<path fill="none" stroke="#221714" stroke-width="1.2236" stroke-linecap="round" stroke-linejoin="round" stroke-miterlimit="10" d="
	M235.5,62.1h7.4v7.6"/>
<path fill="none" stroke="#221714" stroke-width="1.2236" stroke-linecap="round" stroke-linejoin="round" stroke-miterlimit="10" d="
	M242.9,123.9v7.4h-7.6"/>
<path fill="none" stroke="#221714" stroke-width="1.2236" stroke-linecap="round" stroke-linejoin="round" stroke-miterlimit="10" d="
	M213.1,131.4h-7.4v-7.6"/>
<path fill="#1E1F1F" stroke="#FFFFFF" stroke-width="1.3867" stroke-miterlimit="10" d="M245.5,47.8h-42.4c-3.3,0-6,2.7-6,6v84.9
	c0,3.3,2.7,6,6,6h42.4c3.3,0,6-2.7,6-6V53.9C251.6,50.5,248.8,47.8,245.5,47.8z M200.1,53.9c0-1.7,1.4-3,3-3h5.4l3.9,2.2
	c1.3,1.1,3.5,1.9,4.4,1.9h14.4c1.7,0,3.5-0.7,5.1-1.9l3.8-2.2h5.4c1.7,0,3,1.4,3,3v84.6c0,1.7-1.4,3-3,3h-42.4c-1.7,0-3-1.4-3-3
	L200.1,53.9z"/>
<path fill="#F7EE4D" d="M357.1,226.9h-332c-10.6,0-19.2-8.6-19.2-19.2c0-10.6,8.6-19.2,19.2-19.2H357c10.6,0,19.2,8.6,19.2,19.2
	C376.3,218.3,367.7,226.9,357.1,226.9z"/>
<path fill="#444444" d="M142.9,201.5c1.4,1.9,3.7,3.9,5.7,5c-0.3,0.2-0.5,0.6-0.7,0.8c-2-1.2-4.3-3.2-5.5-4.9c-1,1.6-3.2,3.6-5.3,5
	c-0.1-0.2-0.4-0.6-0.6-0.8c2.2-1.3,4.4-3.5,5.5-5.2L142.9,201.5z M146.1,208.1l0.8,0.2c-0.6,1.4-1.6,3.6-2.4,5.2l-1-0.3
	c0.7-1.3,1.5-2.9,2-4.1h-7.3v-0.9L146.1,208.1L146.1,208.1z M145.4,205.6v0.9h-5.7v-0.9H145.4z"/>
<path fill="#444444" d="M159.3,204.7v2.1c0.3,0.4,0.4,1,0.4,1.7c0,1.7-0.9,3.7-3.9,4.6l-0.9-0.9c1.7-0.4,2.9-1.1,3.4-2.2
	c-0.3,0.2-0.7,0.3-1.1,0.3c-1.1,0-2.1-0.8-2.1-2.2c0-1.3,1.1-2.3,2.3-2.3c0.3,0,0.6,0,0.9,0.1c0-0.4,0-0.8,0-1.3
	c-2,0-4.2,0.1-5.8,0.2v-1c1.4,0,3.9-0.1,5.8-0.1c0-0.4,0-0.7,0-0.9c0-0.3,0-0.7-0.1-0.8h1.2l-0.1,0.8v0.8h0.2h3.8v1
	c-0.7,0-1.9-0.1-3.8-0.1h-0.2L159.3,204.7z M158.6,207.6c-0.2-0.6-0.6-0.8-1.2-0.8c-0.7,0-1.3,0.5-1.3,1.4c0,0.8,0.6,1.3,1.3,1.3
	C158.2,209.4,158.7,208.8,158.6,207.6z"/>
<path fill="#444444" d="M174,202.8c-0.3,0.2-0.7,0.6-0.9,0.7c-0.9,0.8-2.7,2.3-3.7,3c-0.8,0.7-0.8,0.9,0,1.6
	c1.2,0.9,3.6,2.9,4.8,4.2l-0.9,0.9c-0.3-0.3-0.6-0.6-0.9-0.9c-0.7-0.8-2.9-2.6-4.1-3.6s-1.1-1.6,0.1-2.6c1-0.8,2.9-2.4,3.8-3.3
	c0.3-0.3,0.6-0.6,0.7-0.9L174,202.8z M174.5,206.9l-0.7,0.3c-0.3-0.5-0.8-1.4-1.1-1.9l0.7-0.3C173.7,205.5,174.3,206.4,174.5,206.9z
	 M176.1,206.3l-0.7,0.3c-0.3-0.6-0.8-1.4-1.2-1.9l0.7-0.3C175.3,204.9,175.8,205.8,176.1,206.3z"/>
<path fill="#444444" d="M192.5,203.7c-0.6,0.5-1.3,1.1-1.9,1.6c0.7,0.6,1.5,1.1,2.4,1.4c-0.2,0.2-0.5,0.6-0.6,0.8
	c-1.1-0.5-2.1-1.2-3-2.2v0.7h-4.8v-0.6c-1,1-2.1,1.7-3.2,2.2c-0.1-0.2-0.4-0.5-0.6-0.7c0.9-0.4,1.8-1,2.6-1.7
	c-0.4-0.4-1.1-1-1.7-1.3l0.5-0.5c0.6,0.4,1.3,0.9,1.7,1.3c0.5-0.6,1-1.2,1.3-1.8H182V202h3.7h0.2l0.6,0.3c-0.4,1.1-1.1,2-1.8,2.8
	h4.4c-0.9-1-1.7-2.1-2.2-3.3l0.8-0.3c0.3,0.6,0.6,1.1,0.9,1.6c0.6-0.5,1.3-1.1,1.7-1.5l0.7,0.5c-0.6,0.6-1.3,1.2-2,1.6
	c0.3,0.3,0.6,0.7,0.9,1c0.6-0.5,1.4-1.1,1.8-1.6L192.5,203.7z M189.8,210.5c-0.3,0.6-0.7,1.3-1,1.8h3.7v0.8h-11.3v-0.8h3.6
	c-0.1-0.5-0.4-1.2-0.8-1.8l0.7-0.2h-1.5V207h7.2v3.3h-1.3L189.8,210.5z M184.2,209.6h5.3v-1.7h-5.3V209.6z M184.9,210.4
	c0.4,0.6,0.7,1.3,0.8,1.8l-0.6,0.2h3.2l-0.4-0.1c0.3-0.5,0.7-1.3,0.9-1.8L184.9,210.4z"/>
<path fill="#444444" d="M204.6,210.7c-0.8,0.6-1.7,1.3-2.5,1.8l-0.3-0.5c-1.6,0.4-3.3,0.7-4.6,1l-0.2-0.9c0.6-0.1,1.3-0.2,2.2-0.4
	v-4h-2v-0.9h2v-1.4h-1.3V205c-0.2,0.2-0.4,0.3-0.5,0.5c-0.1-0.2-0.4-0.5-0.6-0.6c1.2-1,2-2.3,2.4-3.3h0.9c0.8,0.7,1.7,1.7,2.2,2.3
	l-0.6,0.7c-0.4-0.6-1.2-1.5-1.8-2.2c-0.4,0.7-0.9,1.5-1.6,2.3h3.5v0.8h-1.5v1.4h1.9v0.9h-1.9v3.8l1.8-0.4v0.4c0.7-0.4,1.6-1,2.4-1.6
	L204.6,210.7z M198.1,208.5c0.3,0.8,0.5,1.8,0.5,2.4l-0.7,0.2c0-0.7-0.2-1.7-0.5-2.5L198.1,208.5z M200.5,210.7
	c0.2-0.6,0.4-1.7,0.5-2.3l0.8,0.2c-0.2,0.8-0.4,1.7-0.7,2.3L200.5,210.7z M205.8,207.1c0.4,1.7,1.4,3.8,3.3,4.8
	c-0.2,0.1-0.5,0.6-0.6,0.8c-1.3-0.8-2.2-2.1-2.7-3.3v3.1c0,0.4-0.1,0.7-0.4,0.9c-0.3,0.1-0.8,0.1-1.5,0.1c0-0.2-0.1-0.6-0.3-0.9h1.1
	c0,0,0.2,0,0.2-0.2v-5.6H202v-0.9h5v-1.1h-4V204h4v-1.1h-4.3v-0.8h5.2v3.9h1.1v0.9h-3.1v0.2L205.8,207.1z M203.6,209.6
	c-0.3-0.5-0.9-1.3-1.4-1.8l0.7-0.4c0.6,0.5,1.2,1.2,1.4,1.7L203.6,209.6z M206.5,209c0.5-0.5,1.2-1.3,1.5-1.8l0.8,0.5
	c-0.5,0.6-1.2,1.3-1.7,1.8L206.5,209z"/>
<path fill="#444444" d="M219.9,204.7v2.1c0.3,0.4,0.4,1,0.4,1.7c0,1.7-0.9,3.7-3.9,4.6l-0.9-0.9c1.7-0.4,2.9-1.1,3.4-2.2
	c-0.3,0.2-0.7,0.3-1.1,0.3c-1.1,0-2.1-0.8-2.1-2.2c0-1.3,1.1-2.3,2.3-2.3c0.3,0,0.6,0,0.9,0.1c0-0.4,0-0.8,0-1.3
	c-2,0-4.2,0.1-5.8,0.2v-1c1.4,0,3.9-0.1,5.8-0.1c0-0.4,0-0.7,0-0.9c0-0.3,0-0.7-0.1-0.8h1.2l-0.1,0.8v0.8h0.2h3.8v1
	c-0.7,0-1.9-0.1-3.8-0.1h-0.2L219.9,204.7z M219.2,207.6c-0.2-0.6-0.6-0.8-1.2-0.8c-0.7,0-1.3,0.5-1.3,1.4c0,0.8,0.6,1.3,1.3,1.3
	C218.8,209.4,219.3,208.8,219.2,207.6z"/>
<path fill="#444444" d="M236.1,203.4c-0.2,0.1-0.5,0.4-0.7,0.5c-0.6,0.5-2.4,2-3.4,2.9c0.6-0.2,1.2-0.3,1.7-0.3c2.2,0,3.7,1.3,3.7,3
	c0,2.1-1.7,3.5-4.5,3.5c-1.8,0-2.9-0.8-2.9-1.9c0-0.9,0.8-1.7,2-1.7c1.6,0,2.5,1.1,2.7,2.3c1-0.4,1.6-1.1,1.6-2.2
	c0-1.3-1.3-2.2-2.9-2.2c-2.1,0-3.3,0.9-4.9,2.6l-0.8-0.8c1.1-0.9,2.7-2.3,3.5-2.9c0.7-0.6,2.3-2,3-2.5c-0.7,0-3.2,0.1-3.9,0.2
	c-0.3,0-0.6,0-0.9,0.1v-1.1h0.9c0.7,0,3.7-0.1,4.4-0.1c0.4,0,0.6-0.1,0.7-0.1L236.1,203.4z M233.9,211.9c-0.1-1-0.7-1.7-1.7-1.7
	c-0.6,0-1,0.4-1,0.8c0,0.6,0.7,1,1.7,1C233.2,212,233.6,212,233.9,211.9z"/>
<path fill="none" stroke="#211613" stroke-width="1.6314" stroke-linecap="round" stroke-linejoin="round" stroke-miterlimit="10" d="
	M185.6,90.2l-8.7,7.1l8.7,7.2"/>
<path fill="none" stroke="#040000" stroke-width="1.2236" stroke-linecap="round" stroke-linejoin="round" stroke-miterlimit="10" d="
	M124.8,139.4V53.2h39.5v86.2"/>
<path fill="none" stroke="#040000" stroke-width="1.2236" stroke-linecap="round" stroke-linejoin="round" stroke-miterlimit="10" d="
	M130.7,98.7h28.7"/>
<path fill="none" stroke="#040000" stroke-width="1.2236" stroke-linecap="round" stroke-linejoin="round" stroke-miterlimit="10" d="
	M130.7,103.8h28.7"/>
<path fill="none" stroke="#040000" stroke-width="1.2236" stroke-linecap="round" stroke-linejoin="round" stroke-miterlimit="10" d="
	M130.7,109h28.7"/>
<path fill="none" stroke="#040000" stroke-width="1.2236" stroke-linecap="round" stroke-linejoin="round" stroke-miterlimit="10" d="
	M143.9,114.1h15.5"/>
<path fill="none" stroke="#040000" stroke-width="1.2236" stroke-linecap="round" stroke-linejoin="round" stroke-miterlimit="10" d="
	M143.9,124.4h15.5"/>
<path fill="none" stroke="#040000" stroke-width="1.2236" stroke-linecap="round" stroke-linejoin="round" stroke-miterlimit="10" d="
	M143.9,119.2h15.5"/>
<path fill="#040000" d="M139,118.8c0.5,0,0.5,0.4,0.5,0.5c0,0.3-0.2,0.5-0.5,0.5h-3.4v1.7h3.5c0.5,0,0.5,0.4,0.5,0.5
	c0,0.3-0.2,0.5-0.5,0.5h-3.5v2.6c0,0.7-0.5,0.7-0.7,0.7c-0.5,0-0.7-0.2-0.7-0.7v-2.6h-3.5c-0.5,0-0.5-0.4-0.5-0.5
	c0-0.3,0.2-0.5,0.5-0.5h3.5v-1.7h-3.4c-0.5,0-0.5-0.4-0.5-0.5c0-0.3,0.2-0.5,0.5-0.5h2.8l-2.8-4.4c-0.1-0.2-0.3-0.4-0.3-0.6
	c0-0.4,0.4-0.6,0.8-0.6c0.3,0,0.4,0.2,0.6,0.4l3.1,5l3.1-5c0.1-0.3,0.3-0.4,0.6-0.4c0.4,0,0.8,0.3,0.8,0.6c0,0.2-0.1,0.3-0.2,0.6
	l-2.8,4.4H139z"/>
<path fill="none" stroke="#040000" stroke-width="1.2236" stroke-linecap="round" stroke-linejoin="round" stroke-miterlimit="10" d="
	M164.3,139.5l-3.9-2.7l-3.9,2.7l-4-2.7l-3.9,2.7l-4-2.7l-4,2.7l-3.9-2.7l-4,2.7l-3.9-2.7l-4,2.7"/>
<g>
	<path fill="#040000" d="M64.2,169.9v-10.4c0-0.5-0.1-1.3-0.2-1.6h1.8c-0.1,0.5-0.1,1.1-0.1,1.6v10.3c3.5-0.9,7.7-3.3,9.9-6.2
		l0.8,1.3c-2.4,2.9-6.1,5.2-10.6,6.5c-0.2,0.1-0.5,0.1-0.8,0.3l-1-0.9C64.1,170.5,64.2,170.2,64.2,169.9L64.2,169.9z"/>
	<path fill="#040000" d="M83.5,164l-0.8,1.3c-0.9-0.7-2.9-1.9-3.9-2.5l0.8-1.2C80.6,162.1,82.7,163.4,83.5,164z M85.6,168.3
		c3-1.7,5.4-4.1,6.9-6.6l0.9,1.5c-1.6,2.4-4.1,4.8-6.9,6.5c-1.8,1-4.3,1.9-6,2.2l-0.8-1.5C81.5,170,83.8,169.3,85.6,168.3
		L85.6,168.3z M86.2,160l-0.9,1.2c-0.9-0.7-2.8-2-3.9-2.6l0.8-1.2C83.3,158,85.4,159.4,86.2,160z"/>
	<path fill="#040000" d="M98.7,163.6h9.9c0.9,0,1.6-0.1,2-0.1v1.8c-0.4,0-1.1-0.1-1.9-0.1h-9.9c-1,0-2,0-2.5,0.1v-1.8
		C96.8,163.5,97.7,163.6,98.7,163.6z"/>
	<path fill="#040000" d="M116,159.2c0-0.5,0-1.3-0.1-1.9h1.8c-0.1,0.6-0.1,1.3-0.1,1.9v3c2.4,0.7,5.8,2,7.7,3l-0.6,1.5
		c-2-1.1-5.1-2.3-7.1-2.9v6c0,0.6,0,1.5,0.1,2.1h-1.8c0.1-0.6,0.1-1.5,0.1-2.1V159.2z"/>
	<path fill="#040000" d="M134.7,159.1c1.8-0.1,3.8-0.3,5.5-0.6v1.3c-1.8,0.3-4,0.4-6,0.5c-0.4,1-1,2-1.6,2.8
		c0.7-0.4,1.7-0.7,2.5-0.7c1.2,0,2.1,0.6,2.4,1.6c1.2-0.6,2.3-1,3.3-1.5c0.5-0.2,1-0.4,1.5-0.7l0.6,1.4c-0.5,0.1-1.1,0.4-1.6,0.6
		c-1,0.4-2.3,0.9-3.7,1.6c0,1,0,2.6,0.1,3.5h-1.4c0-0.7,0.1-1.9,0.1-2.8c-1.7,0.9-2.9,1.8-2.9,3c0,1.4,1.4,1.6,3.3,1.6
		c1.4,0,3.3-0.2,4.9-0.4v1.4c-1.4,0.2-3.4,0.3-5,0.3c-2.6,0-4.7-0.6-4.7-2.8c0-2.1,2.2-3.5,4.3-4.6c-0.2-0.8-0.8-1.1-1.6-1.1
		c-1.1,0-2.3,0.6-3.1,1.3c-0.5,0.5-1,1.2-1.6,1.9l-1.2-0.9c2.3-2.2,3.5-4.1,4.2-5.5c-0.3,0-0.5,0-0.8,0c-0.8,0-2,0-3-0.1V159
		c1,0.1,2.2,0.2,3.1,0.2h1.2c0.3-0.8,0.4-1.6,0.5-2.3l1.5,0.1C135.1,157.6,134.9,158.3,134.7,159.1L134.7,159.1z"/>
	<path fill="#040000" d="M155.4,164.2v8.5h-1.1V171c-1.6,0.3-3.2,0.6-4.5,0.8l-0.3-1.1c0.4-0.1,0.9-0.1,1.5-0.2v-6.2h-1l0.1,0.9
		l-1.8,0.6v5.5c0,0.7-0.1,1.1-0.6,1.3c-0.4,0.2-1.1,0.2-2.2,0.2c-0.1-0.3-0.2-0.9-0.4-1.2h1.7c0.2,0,0.3-0.1,0.3-0.3v-5.1
		c-0.8,0.3-1.5,0.5-2.1,0.7l-0.3-1.3c0.7-0.2,1.5-0.4,2.5-0.7v-3.7H145V160h2.2v-3.6h1.2v3.6h1.7v1.2h-1.7v3.3l1.6-0.5v-0.8h11.6
		v1.1h-6.2V164.2z M160.1,162.1h-8.6v-5.4h8.6V162.1z M154.3,164.2h-2.2v1.3h2.2V164.2z M152.1,167.8h2.2v-1.3h-2.2V167.8z
		 M154.3,169.9v-1.2h-2.2v1.5L154.3,169.9z M158.8,157.7h-6.1v1.3h6.1V157.7z M158.8,159.9h-6.1v1.3h6.1V159.9z M160.9,165.5
		c-0.3,1.9-0.9,3.4-1.7,4.6c0.7,0.7,1.5,1.3,2.4,1.7c-0.3,0.2-0.6,0.7-0.8,1c-0.9-0.4-1.6-1-2.3-1.8c-0.7,0.7-1.4,1.3-2.3,1.8
		c-0.1-0.3-0.4-0.7-0.7-1c0.9-0.4,1.6-1,2.3-1.7c-0.7-0.9-1.2-2-1.6-3.2l1-0.3c0.3,0.9,0.7,1.8,1.2,2.6c0.5-0.8,0.9-1.7,1.1-2.8
		h-3.7v-1h4.1h0.2L160.9,165.5z"/>
	<path fill="#040000" d="M167.2,158.1c0.9,0,5.2-0.1,6.2-0.2c0.5,0,0.8-0.1,1-0.1l0.8,1c-0.3,0.2-0.7,0.5-1,0.7
		c-0.9,0.7-3.4,2.8-4.8,4c0.8-0.3,1.7-0.4,2.5-0.4c3,0,5.2,1.8,5.2,4.3c0,2.9-2.4,4.8-6.2,4.8c-2.5,0-4-1.1-4-2.6
		c0-1.2,1.1-2.4,2.8-2.4c2.3,0,3.5,1.5,3.7,3.2c1.4-0.6,2.3-1.6,2.3-3.1c0-1.8-1.7-3.1-4.1-3.1c-3,0-4.6,1.3-6.9,3.6l-1-1.1
		c1.5-1.2,3.8-3.2,4.9-4.1c1-0.8,3.3-2.7,4.2-3.5c-1,0-4.6,0.2-5.5,0.3c-0.4,0-0.8,0.1-1.2,0.1L166,158
		C166.3,158.1,166.8,158.1,167.2,158.1L167.2,158.1z M170.6,170.9c0.5,0,1,0,1.5-0.1c-0.1-1.4-1-2.5-2.4-2.5c-0.8,0-1.4,0.5-1.4,1.2
		C168.2,170.3,169.2,170.9,170.6,170.9L170.6,170.9z"/>
	<path fill="#040000" d="M185.2,158.8c-0.1,0.4-0.2,0.9-0.3,1.3c1.2-0.1,2.4-0.4,3.5-0.6v1.4c-1.2,0.3-2.5,0.5-3.8,0.6
		c-0.2,0.8-0.4,1.6-0.6,2.4c-0.7,2.6-1.9,6.3-2.8,8.3l-1.6-0.5c1.1-1.9,2.4-5.5,3-8.1c0.2-0.6,0.3-1.3,0.5-1.9
		c-0.6,0-1.2,0.1-1.7,0.1c-0.8,0-1.4,0-2.1-0.1l-0.1-1.4c0.9,0.1,1.5,0.1,2.2,0.1c0.6,0,1.2,0,2-0.1c0.1-0.6,0.2-1.2,0.3-1.6
		c0.1-0.5,0.1-1.1,0.1-1.5l1.7,0.1C185.4,157.8,185.3,158.4,185.2,158.8L185.2,158.8z M187.4,168.9c0,0.9,0.5,1.7,3.1,1.7
		c1.2,0,2.4-0.1,3.5-0.4l-0.1,1.5c-1,0.1-2.2,0.3-3.5,0.3c-2.9,0-4.4-0.9-4.4-2.7c0-0.7,0.1-1.4,0.3-2.1l1.4,0.1
		C187.4,167.9,187.4,168.4,187.4,168.9L187.4,168.9z M190.5,162.7c1.1,0,2.2,0.1,3.1,0.2v1.4c-0.9-0.1-2-0.2-3-0.2
		c-1.1,0-2.2,0.1-3.4,0.2v-1.4C188.2,162.8,189.4,162.7,190.5,162.7L190.5,162.7z M193.2,160.4l-1,0.4c-0.4-0.7-1-1.8-1.5-2.5l1-0.4
		C192.2,158.6,192.8,159.7,193.2,160.4z M195.2,159.7l-1,0.4c-0.4-0.8-1-1.8-1.5-2.5l0.9-0.4C194.2,157.9,194.9,159,195.2,159.7z"/>
	<path fill="#040000" d="M199.9,158.7c-0.6,2.6-1.2,6.6-0.5,9.6c0.3-0.8,0.6-1.9,1-2.8l0.8,0.5c-0.4,1.3-1,3.1-1.2,4
		c-0.1,0.3-0.1,0.6-0.1,0.8s0,0.4,0.1,0.6l-1.2,0.1c-0.4-1.1-1-3.5-1-5.7c0-2.9,0.5-5.7,0.7-7.2c0.1-0.4,0.1-0.9,0.1-1.2l1.7,0.2
		C200.1,157.8,200,158.3,199.9,158.7L199.9,158.7z M209.3,158.3v2.7c1.1-0.1,2.1-0.2,3-0.4v1.5c-0.8,0.1-1.8,0.2-2.9,0.3v0.6
		c0,4.2,0,7.1-3.8,9.4l-1.3-1c0.6-0.2,1.3-0.7,1.8-1.1c1.9-1.7,2-3.7,2-7.2c0-0.2,0-0.3,0-0.6c-0.8,0-1.6,0.1-2.3,0.1
		c-0.9,0-2.2-0.1-2.9-0.1V161c0.8,0.1,1.9,0.2,2.9,0.2c0.7,0,1.5,0,2.3-0.1c0-1.1-0.1-2.4-0.1-2.8s-0.1-0.8-0.2-1.1h1.7
		C209.3,157.5,209.3,157.9,209.3,158.3L209.3,158.3z"/>
	<path fill="#040000" d="M216.5,159.4c1.2-0.1,4.6-0.5,7.9-0.7c2-0.2,3.7-0.3,4.9-0.3v1.4c-1,0-2.6,0-3.5,0.3
		c-2.6,0.8-4.1,3.6-4.1,5.7c0,3.5,3.3,4.7,6.2,4.8l-0.5,1.5c-3.3-0.1-7.2-1.9-7.2-6c0-2.8,1.7-5.1,3.4-6.1c-1.9,0.2-6.6,0.7-8.5,1.1
		l-0.2-1.6C215.5,159.4,216.1,159.4,216.5,159.4L216.5,159.4z M228.1,164.5l-0.9,0.4c-0.4-0.9-0.9-1.8-1.5-2.6l0.9-0.4
		C227.1,162.6,227.8,163.7,228.1,164.5z M230.2,163.7l-0.9,0.5c-0.4-0.9-1-1.8-1.5-2.5l0.9-0.4C229.1,161.8,229.8,162.9,230.2,163.7
		z"/>
	<path fill="#040000" d="M234.6,158.7c-0.5,0.7-1,1.4-1.6,1.9c-0.3-0.2-0.8-0.6-1.1-0.7c1.1-0.9,2.1-2.3,2.6-3.7l1.2,0.3
		c-0.2,0.4-0.3,0.8-0.5,1.1h4.8v1.1h-3.4c0.3,0.5,0.6,1.1,0.7,1.5l-1.2,0.3c-0.1-0.5-0.5-1.2-0.9-1.8L234.6,158.7z M234.4,165.4v7.3
		h-1.2v-11.9h6.3v4.6L234.4,165.4z M234.4,161.7v1h3.8v-1H234.4z M238.3,164.5v-1h-3.8v1H238.3z M243.6,171.2h-5.5v0.7H237v-5.6h6.7
		L243.6,171.2L243.6,171.2z M238.2,167.2v1.2h4.3v-1.2H238.2z M242.4,170.4v-1.2h-4.3v1.2H242.4z M248.3,157.6v1.1h-3.8
		c0.4,0.5,0.8,1.1,1,1.5l-1.2,0.4c-0.2-0.5-0.7-1.3-1.2-1.9h-1.4c-0.5,0.7-1.1,1.3-1.7,1.8c-0.3-0.2-0.9-0.5-1.2-0.7
		c1.2-0.9,2.3-2.2,2.8-3.6l1.3,0.3c-0.2,0.4-0.4,0.8-0.6,1.2h6L248.3,157.6z M247.6,171.2c0,0.7-0.2,1.1-0.7,1.3s-1.4,0.2-2.8,0.2
		c-0.1-0.3-0.3-0.9-0.4-1.2c1,0.1,2,0,2.3,0s0.4-0.1,0.4-0.4v-5.8H241v-4.6h6.5L247.6,171.2L247.6,171.2z M242.3,161.7v1h4v-1H242.3
		z M246.3,164.5v-1h-4v1H246.3z"/>
	<path fill="#040000" d="M266.2,169.5h-7.4v3.2h-1.4v-3.2h-7.3v-1.2h7.3v-1.6h-5.6v-7.2h1.7c-0.3-0.7-1.1-1.7-1.7-2.5l1.1-0.5
		c0.7,0.8,1.5,1.8,1.8,2.5l-0.9,0.5h3.9c-0.2-0.8-0.8-1.9-1.4-2.8l1.2-0.5c0.6,0.9,1.2,2,1.5,2.8l-1,0.4h3.2
		c0.7-0.9,1.5-2.2,1.9-3.1l1.4,0.5c-0.6,0.9-1.2,1.9-1.8,2.7h1.9v7.2h-5.9v1.6h7.4L266.2,169.5L266.2,169.5z M253.2,162.5h4.3v-1.9
		h-4.3L253.2,162.5z M257.5,165.5v-1.9h-4.3v1.9H257.5z M263.3,160.5h-4.5v1.9h4.5V160.5z M263.3,163.5h-4.5v1.9h4.5V163.5z"/>
	<path fill="#040000" d="M270.7,159.8v3.4c0,2.8-0.3,6.8-1.8,9.5c-0.2-0.2-0.8-0.6-1.1-0.8c1.5-2.6,1.6-6.2,1.6-8.8v-4.7h6.6v-2.3
		h1.4v2.3h6.9v1.3h-13.6V159.8z M270.8,170.5c0.9-1.4,1.4-3.6,1.6-5.5l1.2,0.3c-0.3,2-0.7,4.3-1.6,5.8L270.8,170.5z M279.4,171.1
		c0.7,0,0.8-0.5,0.9-3.1c0.3,0.2,0.9,0.5,1.2,0.5c-0.1,3-0.5,3.8-2,3.8h-2.6c-1.6,0-2-0.5-2-2v-7h1.3v7c0,0.6,0.1,0.7,0.8,0.7h2.4
		L279.4,171.1z M279.2,164.1c-0.9-0.8-2.7-2-4.2-2.8l0.9-0.9c1.4,0.7,3.3,1.8,4.2,2.7L279.2,164.1z M282,164.6
		c1.2,1.8,2.3,4.3,2.6,5.9l-1.3,0.6c-0.3-1.6-1.4-4.1-2.6-6L282,164.6z"/>
	<path fill="#040000" d="M298.8,166.8c1.2,0.9,2.8,1.7,4.4,2.1c-0.3,0.2-0.7,0.7-0.9,1c-0.9-0.3-1.8-0.7-2.6-1.2v0.2
		c-0.2,2-0.4,2.9-0.8,3.3c-0.3,0.3-0.6,0.4-1.1,0.4c-0.4,0-1.3,0-2.2,0c0-0.3-0.1-0.8-0.3-1.1c0.8,0.1,1.6,0.1,2,0.1
		c0.3,0,0.5,0,0.6-0.1c0.2-0.2,0.4-0.8,0.5-2h-4.1c-0.8,1.7-2.3,2.8-5.4,3.4c-0.1-0.3-0.4-0.8-0.7-1c2.6-0.5,4-1.2,4.7-2.4h-3.5
		v-0.6c-0.7,0.3-1.4,0.7-2.2,1c-0.1-0.3-0.5-0.7-0.8-1c1.7-0.5,3-1.3,4-2.1h-3.6v-1.1h4.8c0.3-0.3,0.5-0.7,0.7-1h-3.4v-4.9h11.8v4.9
		h-7c-0.2,0.4-0.4,0.7-0.6,1h9.7v1.1L298.8,166.8z M291,158.5h-4v-1.1h4.1v-1.2h1.3v1.2h4.7v-1.2h1.3v1.2h4.1v1.1h-4.1v0.9H297v-0.9
		h-4.7v0.9H291V158.5z M299.2,168.4c-0.7-0.5-1.4-1.1-1.9-1.6h-5.1c-0.6,0.6-1.3,1.2-2.1,1.6h3.3c0.1-0.4,0.2-0.8,0.3-1.3h1.3
		c-0.1,0.5-0.2,0.9-0.3,1.3H299.2z M290.1,161.7h9.2v-1.2h-9.2V161.7z M290.1,163.7h9.2v-1.2h-9.2V163.7z"/>
	<path fill="#040000" d="M308.3,170.2c0-0.7,0.5-1.2,1.2-1.2c0.6,0,1.2,0.5,1.2,1.2s-0.5,1.2-1.2,1.2S308.3,171,308.3,170.2z
		 M308.5,159.9v-2.1h2v2.1l-0.4,7h-1.2L308.5,159.9z"/>
</g>
<path fill="none" stroke="#F7EE4D" stroke-width="5.3248" d="M137.3,34.6h102"/>
<path fill="#040000" d="M150,18.1c1.9,2.7,5,5,7.9,6.2c-0.3,0.3-0.6,0.8-0.9,1.2c-2.8-1.4-6-3.8-7.6-6.1c-1.5,2.2-4.4,4.7-7.5,6.2
	c-0.1-0.3-0.5-0.8-0.8-1.1c3.1-1.5,6.1-4.1,7.5-6.4L150,18.1z M142.1,27.1H157v1.2h-8.5c-0.6,1.3-1.4,2.9-2.1,4.2
	c2.2-0.1,4.8-0.2,7.3-0.3c-0.7-0.9-1.6-1.7-2.4-2.4l1.1-0.6c1.7,1.4,3.4,3.4,4.3,4.7l-1.2,0.7c-0.2-0.4-0.5-0.8-0.8-1.2
	c-4.4,0.2-9.1,0.4-12.2,0.5l-0.2-1.3c0.8,0,1.7,0,2.7-0.1c0.7-1.2,1.5-2.9,2-4.2h-4.8v-1.2L142.1,27.1z M153.7,23.7v1.2h-8.6v-1.2
	H153.7z"/>
<path fill="#040000" d="M164.6,31.6l1.2,0.8c-1.4,0.9-3.8,1.8-5.6,2.2c-0.2-0.3-0.7-0.7-1-1C161,33.2,163.4,32.4,164.6,31.6l-3.5,0
	v-7.7h12.8v7.7L164.6,31.6z M173.2,22.9h-11.3v-4.1h11.3V22.9z M162.5,26.1h10v-1.3h-10V26.1z M162.5,28.4h10v-1.3h-10V28.4z
	 M162.5,30.6h10v-1.3h-10V30.6z M171.8,19.9h-8.6v1.9h8.6V19.9z M170.1,31.7c1.9,0.5,4.3,1.4,5.7,2l-1.2,1c-1.4-0.6-3.8-1.6-5.7-2.1
	L170.1,31.7z"/>
<path fill="#040000" d="M185.2,33.8l-0.9-1.3c0.6-0.1,1.1-0.1,1.6-0.2c2.3-0.5,4.6-2.2,4.6-5.4c0-2.7-1.8-5-4.8-5.2
	c-0.2,1.7-0.6,3.5-1.1,5.2c-1.1,3.7-2.5,5.6-4.2,5.6c-1.6,0-3.2-1.8-3.2-4.8c0-3.9,3.5-7.4,7.9-7.4c4.2,0,6.9,3,6.9,6.7
	S189.5,33.2,185.2,33.8z M180.5,30.8c0.9,0,1.8-1.2,2.7-4.3c0.5-1.5,0.8-3.2,1-4.9c-3.5,0.4-5.6,3.4-5.6,5.9
	C178.6,29.8,179.6,30.8,180.5,30.8L180.5,30.8z"/>
<path fill="#040000" d="M200.9,22.5c-0.1,1-0.1,2-0.3,3h7.2v0.7c-0.4,5.2-0.7,7.1-1.4,7.9c-0.4,0.4-0.9,0.6-1.5,0.6s-1.8,0-3-0.1
	c0-0.4-0.2-0.9-0.5-1.3c1.3,0.1,2.6,0.1,3,0.1s0.7,0,0.9-0.2c0.5-0.5,0.9-2.2,1.2-6.4h-6c-0.6,3.2-2.1,6.2-5.8,8
	c-0.2-0.3-0.6-0.8-1-1.1c5-2.2,5.5-6.9,5.7-11.1h-5.6v-1.3h7.3v-3.1h1.4v3.1h7.4v1.3h-9L200.9,22.5z"/>
<path fill="#040000" d="M214.7,20.6c-0.4,1.7-0.9,5.3-0.9,7.3c0,0.9,0.1,1.6,0.2,2.5c0.3-0.8,0.7-1.9,1-2.7l0.7,0.6
	c-0.4,1.3-1.1,3.1-1.3,4c-0.1,0.3-0.1,0.6-0.1,0.8v0.6l-1.3,0.1c-0.4-1.3-0.7-3.3-0.7-5.7c0-2.7,0.6-6.1,0.8-7.6
	c0.1-0.4,0.1-0.9,0.1-1.3l1.6,0.1C214.9,19.7,214.8,20.3,214.7,20.6z M223.8,20.4c0,0.5,0,1.3-0.1,2.2c1.1-0.1,2.2-0.2,3.1-0.4v1.4
	c-1,0.2-2,0.3-3.1,0.3c0,1.8,0.1,3.6,0.2,5.2c1.5,0.6,2.6,1.5,3.6,2.3l-0.8,1.2c-0.9-0.9-1.8-1.6-2.7-2.1v0.4c0,1.5-0.7,2.9-3.1,2.9
	s-3.8-1-3.8-2.6c0-1.5,1.4-2.7,3.7-2.7c0.6,0,1.2,0.1,1.7,0.2c-0.1-1.4-0.2-3.2-0.2-4.7c-0.6,0-1.2,0-1.7,0c-1,0-2-0.1-3-0.1v-1.4
	c1,0.1,2,0.1,3.1,0.1h1.7v-2.2c0-0.3,0-0.8-0.1-1.1h1.6C223.9,19.7,223.9,20,223.8,20.4L223.8,20.4z M220.7,32.5c1.5,0,2-0.8,2-2
	c0-0.2,0-0.4,0-0.6c-0.6-0.2-1.2-0.3-1.8-0.3c-1.4,0-2.3,0.6-2.3,1.5C218.5,32,219.4,32.5,220.7,32.5z"/>
<path fill="#040000" d="M233.1,32.1c0-0.7,0.5-1.2,1.2-1.2c0.6,0,1.2,0.5,1.2,1.2s-0.5,1.2-1.2,1.2S233.1,32.9,233.1,32.1z
	 M233.3,21.8v-2.1h2v2.1l-0.4,7h-1.2L233.3,21.8z"/>
</svg>
