<?xml version="1.0" encoding="utf-8"?>
<!-- Generator: Adobe Illustrator 26.5.0, SVG Export Plug-In . SVG Version: 6.00 Build 0)  -->
<svg version="1.1" id="レイヤー_1" xmlns="http://www.w3.org/2000/svg" xmlns:xlink="http://www.w3.org/1999/xlink" x="0px"
	 y="0px" viewBox="0 0 48 48" style="enable-background:new 0 0 48 48;" xml:space="preserve">
<style type="text/css">
	.st0{fill:#D20000;}
	.st1{enable-background:new    ;}
	.st2{fill:#FFFFFF;}
</style>
<g transform="translate(-299 -1549)">
	<circle class="st0" cx="323" cy="1573" r="24"/>
	<g class="st1">
		<path class="st2" d="M322.3,1579.2c-0.2-6.6-0.6-9.9-2.3-18c-0.1-0.7-0.2-1.5-0.2-1.9c0-1.6,1.1-2.4,3.4-2.4
			c2.3,0,3.4,0.7,3.4,2.4c0,0.9,0,0.9-0.9,5c-1,4.7-1.6,9.5-1.7,14.9H322.3z M326.5,1585.5c0,1.9-1.5,3.4-3.4,3.4
			c-1.9,0-3.4-1.5-3.4-3.4s1.5-3.4,3.4-3.4C325.1,1582.1,326.5,1583.6,326.5,1585.5z"/>
	</g>
</g>
</svg>
