<svg xmlns="http://www.w3.org/2000/svg" viewBox="0 0 240.3 256" width="241" height="256"><defs><style>.cls-1{fill:#444;}</style></defs><path class="cls-1" d="M55,63a5,5,0,1,0,5,5A5,5,0,0,0,55,63Z"/><path class="cls-1" d="M100,156.49H85v-15a5,5,0,0,0-10,0v15H60a5,5,0,0,0,0,10H75v15a5,5,0,0,0,10,0v-15h15a5,5,0,1,0,0-10Z"/><path class="cls-1" d="M234.94,161a40,40,0,0,0-54.64-14.64L160,158.08V114.66a25.15,25.15,0,0,0-5-15L130,66.33V52.14A15,15,0,0,0,140,38V15A15,15,0,0,0,125,0H35A15,15,0,0,0,20,15V38A15,15,0,0,0,30,52.14V66.33L5,99.66a25.15,25.15,0,0,0-5,15v96.83a25,25,0,0,0,25,25h80.35a40,40,0,0,0,54.33,14.14l60.62-35A40,40,0,0,0,234.94,161ZM30,15a5,5,0,0,1,5-5h90a5,5,0,0,1,5,5V38a5,5,0,0,1-5,5H35a5,5,0,0,1-5-5V15ZM13,105.66,39,71a5,5,0,0,0,1-3V53h80V63H75a5,5,0,0,0,0,10h47.49L147,105.66a15.13,15.13,0,0,1,2.9,7.33H10.11A15.08,15.08,0,0,1,13,105.66ZM25,226.49a15,15,0,0,1-15-15v-5.05h90.84a40,40,0,0,0,.24,20.05Zm79.76-30H10V123H150v40.86l-30.31,17.5A39.72,39.72,0,0,0,104.76,196.49ZM154.68,242a30,30,0,0,1-30-52l27.14-15.67,30,52Zm60.62-35L190.48,221.3l-30-52L185.3,155a30,30,0,1,1,30,52Z"/></svg>