<?xml version="1.0" encoding="utf-8"?>
<!-- Generator: Adobe Illustrator 28.2.0, SVG Export Plug-In . SVG Version: 6.00 Build 0)  -->
<svg version="1.1" id="レイヤー_1" xmlns="http://www.w3.org/2000/svg" xmlns:xlink="http://www.w3.org/1999/xlink" x="0px"
	 y="0px" viewBox="0 0 250 256" enable-background="new 0 0 250 256" xml:space="preserve">
<path fill="#FFFFFF" d="M226.8,256H23.2c-2.2,0-4-1.8-4-4V112.1c0-2.2,1.8-4,4-4s4,1.8,4,4V248h195.5V137.5c0-2.2,1.8-4,4-4
	s4,1.8,4,4V252C230.8,254.2,229,256,226.8,256C226.8,256,226.8,256,226.8,256z"/>
<path fill="#FFFFFF" d="M245.8,116.1h-95.4c-2.2,0-4-1.8-4-4s1.8-4,4-4h91.4V65.2h-91.4c-2.2,0-4-1.8-4-4s1.8-4,4-4h95.4
	c2.2,0,4,1.8,4,4v50.9C249.8,114.3,248,116.1,245.8,116.1L245.8,116.1z"/>
<path fill="#FFFFFF" d="M125,116.1H4.2c-2.2,0-4-1.8-4-4V61.2c0-2.2,1.8-4,4-4H125c2.2,0,4,1.8,4,4c0,2.2-1.8,4-4,4c0,0,0,0,0,0H8.2
	v42.9H125c2.2,0,4,1.8,4,4S127.2,116.1,125,116.1L125,116.1z"/>
<path fill="#FFFFFF" d="M125,256c-2.2,0-4-1.8-4-4V61.2c0-2.2,1.8-4,4-4c2.2,0,4,1.8,4,4V252C129,254.2,127.2,256,125,256L125,256z"
	/>
<path fill="#FFFFFF" d="M180.5,65.2c-2.2,0-4-1.8-4-4s1.8-4,4-4c5.6,0.1,10.9-2.7,14-7.3c3.2-4.5,5-10.8,5-17.4
	c0-11.8-6-24.5-19-24.5C129.7,7.9,129,59,129,61.2c0,2.2-1.8,4-4,4l0,0c-2.2,0-4-1.8-4-4c0-0.6,0.7-61.2,59.5-61.2
	c18.6,0,27,16.8,27,32.5c0,8.3-2.3,16.2-6.5,22.1C196.4,61.3,188.7,65.3,180.5,65.2z"/>
<path fill="#FFFFFF" d="M69.5,65.2C50.6,65.2,42,48.5,42,32.9c0-8.4,2.4-16.3,6.7-22.2C53.4,3.9,61.2-0.1,69.5,0
	C128.3,0,129,60.6,129,61.2c0,2.2-1.8,4-4,4l0,0c-2.2,0-4-1.8-4-4C121,59.1,120.3,8,69.5,8c-5.7-0.1-11.1,2.7-14.4,7.4
	C51.8,19.9,50,26.3,50,32.9c0,12.1,6,24.3,19.5,24.3c2.2,0,4,1.8,4,4S71.7,65.3,69.5,65.2L69.5,65.2z"/>
</svg>
