<svg xmlns="http://www.w3.org/2000/svg" viewBox="0 0 256 255.92" width="256" height="256"><defs><style>.cls-1{fill:#444;}</style></defs><path class="cls-1" d="M103.45,130.17a5,5,0,1,0,1.46,3.53A5.06,5.06,0,0,0,103.45,130.17Z"/><path class="cls-1" d="M242,94a46,46,0,0,0-14.37-9.43A101,101,0,0,0,30.56,74.3,15,15,0,0,0,15,89.31v39.46a10,10,0,0,0-6,9.16v22a10,10,0,0,0-9,9.94v71a15,15,0,0,0,15,15H61a15,15,0,0,0,15-15V187.54a99.72,99.72,0,0,0,37,13.29v25.06h-2.42a25.06,25.06,0,0,0-25,25,5,5,0,0,0,5,5h74.88a5,5,0,0,0,5-5,25.05,25.05,0,0,0-25-25H143V200.82a99.49,99.49,0,0,0,39.15-14.61v50a19.77,19.77,0,0,0,19.75,19.75h14.75a19.78,19.78,0,0,0,19.76-19.75V177.29l14.86-30.16A45.67,45.67,0,0,0,242,94ZM25,89.31a5,5,0,0,1,7.36-4.41l16,8.57A5,5,0,0,1,51,97.88v30.05H25Zm-6,48.62H57v22H19Zm47,103a5,5,0,0,1-5,5H15a5,5,0,0,1-5-5v-71H66v71Zm79.41-5a15,15,0,0,1,14.17,10H96.4a15,15,0,0,1,14.17-10H145.4Zm-22.42-10V201.8c1.64.08,3.3.12,5,.12h1.37q1.85,0,3.66-.12v24.09ZM76,175.62v-5.69a10,10,0,0,0-9-10v-22a10,10,0,0,0-6-9.16V97.88a15,15,0,0,0-7.92-13.22L40,77.66a91,91,0,0,1,176.89,3.91,45.81,45.81,0,0,0-6.74-.49,44.87,44.87,0,0,0-7.62.64A77,77,0,0,0,61.94,61.37a5,5,0,1,0,8.57,5.14,67,67,0,0,1,76.07-29.92l-36.9,36.9a5,5,0,0,0,7.07,7.07l40.06-40.05a67.51,67.51,0,0,1,17.31,11.92l-64.24,64.23a5,5,0,0,0,3.54,8.54,5,5,0,0,0,3.53-1.47l63.91-63.9a66.62,66.62,0,0,1,12.07,24.59A45.75,45.75,0,0,0,178.32,94l-.56.55A45.85,45.85,0,0,0,168,146.62l2.72,5.9a67,67,0,0,1-79,4.73,5,5,0,0,0-5.43,8.4,77,77,0,0,0,88.79-3.78l6,13A91.67,91.67,0,0,1,76,175.62Zm150.4,60.55a9.76,9.76,0,0,1-9.76,9.75H201.88a9.76,9.76,0,0,1-9.75-9.75V204.86h34.26v31.31Zm0-41.31H192.13V181h34.26Zm15.89-52.15-14,28.32h-2.56V150.5a5,5,0,0,0-10,0V171H190.28l-13.19-28.6a35.83,35.83,0,0,1,7.62-40.74l.57-.55a35.8,35.8,0,0,1,57,41.57Z"/><path class="cls-1" d="M224.3,130.17a5,5,0,1,0,1.46,3.54A5,5,0,0,0,224.3,130.17Z"/></svg>