<?xml version="1.0" encoding="utf-8"?>
<!-- Generator: Adobe Illustrator 26.5.0, SVG Export Plug-In . SVG Version: 6.00 Build 0)  -->
<!DOCTYPE svg PUBLIC "-//W3C//DTD SVG 1.1//EN" "http://www.w3.org/Graphics/SVG/1.1/DTD/svg11.dtd" [
	<!ENTITY st0 "fill:none;">
	<!ENTITY st1 "fill:none;stroke:#000000;stroke-width:2;stroke-linecap:round;stroke-linejoin:round;stroke-miterlimit:10;">
	<!ENTITY st2 "enable-background:new    ;">
	<!ENTITY st3 "fill:#202020;">
]>
<svg version="1.1" id="レイヤー_1" xmlns="http://www.w3.org/2000/svg" xmlns:xlink="http://www.w3.org/1999/xlink" x="0px"
	 y="0px" viewBox="0 0 446 390" style="enable-background:new 0 0 446 390;" xml:space="preserve">
<g>
	<path id="長方形_3_00000026158886446219375390000001410303006139792315_" style="&st0;" d="M14,1h418c7.2,0,13,5.8,13,13v362
		c0,7.2-5.8,13-13,13H14c-7.2,0-13-5.8-13-13V14C1,6.8,6.8,1,14,1z"/>
	<g>
		<path style="&st1;" d="M272.8,141.1H119.2c-2.2,0-3.9-1.7-3.9-3.9v-22.5c0-2.2,1.7-3.9,3.9-3.9h153.6c2.2,0,3.9,1.7,3.9,3.9v22.5
			C276.7,139.3,275,141.1,272.8,141.1z"/>
		<g>
			<polyline style="&st1;" points="297.6,121.3 307.3,130 330.7,100.6 			"/>
			<g>
				<path d="M326.8,111.8c1.6,0,2.9,1.3,2.9,2.9v22.5c0,1.6-1.3,2.9-2.9,2.9h-34.5c-1.6,0-2.9-1.3-2.9-2.9v-22.5
					c0-1.6,1.3-2.9,2.9-2.9h25l1.6-2h-26.6c-2.7,0-4.9,2.2-4.9,4.9v22.5c0,2.7,2.2,4.9,4.9,4.9h34.5c2.7,0,4.9-2.2,4.9-4.9v-22.5
					c0-2.4-1.7-4.3-3.9-4.8l-1.5,1.9C326.3,111.8,326.8,111.8,326.8,111.8z"/>
			</g>
		</g>
		<path style="&st1;" d="M272.8,198H119.2c-2.2,0-3.9-1.7-3.9-3.9v-22.5c0-2.2,1.7-3.9,3.9-3.9h153.6c2.2,0,3.9,1.7,3.9,3.9v22.5
			C276.7,196.3,275,198,272.8,198z"/>
		<g>
			<polyline style="&st1;" points="297.6,178.3 307.3,186.9 330.7,157.6 			"/>
			<g>
				<path d="M326.8,168.7c1.6,0,2.9,1.3,2.9,2.9v22.5c0,1.6-1.3,2.9-2.9,2.9h-34.5c-1.6,0-2.9-1.3-2.9-2.9v-22.5
					c0-1.6,1.3-2.9,2.9-2.9h25l1.6-2h-26.6c-2.7,0-4.9,2.2-4.9,4.9v22.5c0,2.7,2.2,4.9,4.9,4.9h34.5c2.7,0,4.9-2.2,4.9-4.9v-22.5
					c0-2.4-1.7-4.3-3.9-4.8l-1.5,1.9L326.8,168.7L326.8,168.7z"/>
			</g>
		</g>
		<path style="&st1;" d="M272.8,255H119.2c-2.2,0-3.9-1.7-3.9-3.9v-22.5c0-2.2,1.7-3.9,3.9-3.9h153.6c2.2,0,3.9,1.7,3.9,3.9v22.5
			C276.7,253.3,275,255,272.8,255z"/>
		<g>
			<polyline style="&st1;" points="297.6,235.2 307.3,243.9 330.7,214.5 			"/>
			<g>
				<path d="M326.8,225.7c1.6,0,2.9,1.3,2.9,2.9v22.5c0,1.6-1.3,2.9-2.9,2.9h-34.5c-1.6,0-2.9-1.3-2.9-2.9v-22.5
					c0-1.6,1.3-2.9,2.9-2.9h25l1.6-2h-26.6c-2.7,0-4.9,2.2-4.9,4.9v22.5c0,2.7,2.2,4.9,4.9,4.9h34.5c2.7,0,4.9-2.2,4.9-4.9v-22.5
					c0-2.4-1.7-4.3-3.9-4.8l-1.5,1.9L326.8,225.7L326.8,225.7z"/>
			</g>
		</g>
	</g>
	<g style="&st2;">
		<path style="&st3;" d="M36.8,302.7c-0.1,0.8-0.2,1.6-0.2,3l-0.2,17.1c3.1-0.6,5.9-1.7,8.2-3.3c2.8-1.9,4.6-4,6.1-6.9
			c1.2,1.6,1.6,2,2.8,3.1c-2.1,3.2-4,5.2-6.7,7c-3,2-6.1,3.2-10.9,4.1c-0.8,0.1-1.2,0.3-1.8,0.5l-1.9-2.3c0.2-0.8,0.3-1.4,0.3-3.1
			l0.1-16.2c0-2.1,0-2.1-0.2-3.1L36.8,302.7z"/>
		<path style="&st3;" d="M61.9,309.7c3.1,1.2,5.4,2.4,8,4.1l-1.9,3.4c-2.4-1.8-5.1-3.2-8.1-4.4L61.9,309.7z M60.5,323.1
			c2.3,0,5.6-0.8,8.7-1.9c3.7-1.4,6.3-3.4,8.7-6.6c1.6-2.2,2.5-4,3.5-6.6c1.2,1.3,1.7,1.7,3.1,2.7c-1.4,3.3-2.6,5.4-4.5,7.6
			c-3.8,4.4-8.9,7-16.3,8.5c-1.1,0.2-1.5,0.3-2.1,0.5L60.5,323.1z M64.2,302.4c3.1,1.2,5.5,2.3,8,3.9l-1.9,3.3
			c-2.7-1.8-5.4-3.2-8-4.1L64.2,302.4z"/>
		<path style="&st3;" d="M88.6,312.7c1.3,0.2,1.9,0.2,4.9,0.2h16c3,0,3.5,0,4.9-0.2v4.2c-1.2-0.1-1.5-0.1-4.9-0.1h-16
			c-3.4,0-3.7,0-4.9,0.1V312.7z"/>
		<path style="&st3;" d="M124.4,327.6c0.2-1,0.2-1.8,0.2-3.4V305c0-1.5-0.1-2.2-0.2-3.1h4.1c-0.1,0.9-0.1,1.3-0.1,3.1v5.6
			c4.1,1.4,8.8,3.6,13.6,6.3l-2.1,3.5c-2.5-1.7-5.6-3.4-10.6-5.7c-0.7-0.3-0.8-0.4-1-0.5c0.1,0.8,0.1,1.2,0.1,2v7.9
			c0,1.6,0,2.3,0.1,3.3h-4.1V327.6z"/>
		<path style="&st3;" d="M147.2,314.7c0.8-2.6,1-4.5,1-7.9l2.4,0.5c-0.1,3.3-0.3,5.8-1,8.4L147.2,314.7z M154.4,325
			c0,1.6,0.1,2.6,0.2,3.7H151c0.2-1,0.2-2.4,0.2-3.8v-20.8c0-1.3-0.1-2.2-0.2-3.2h3.5c-0.1,1-0.2,1.8-0.2,3.2v2.5l1.8-0.7
			c0.8,1.5,0.8,1.7,1.5,3.9l-0.8,0.4c0.8,0.1,1.3,0.1,2.5,0.1h4.4v-1.2h-3.4c-1.2,0-1.7,0-2.5,0.1v-2.7c0.8,0.1,1.3,0.1,2.6,0.1h3.4
			v-1.1h-3.9c-1.6,0-2.2,0-3,0.1v-2.9c0.9,0.2,1.5,0.2,3.1,0.2h3.7c0-0.9,0-1.4-0.2-2h3.5c-0.1,0.7-0.2,1.1-0.2,2h4.6
			c1.7,0,2.2,0,3.1-0.2v2.9c-0.9-0.1-1.6-0.1-3.1-0.1h-4.6v1.1h4.2c1.3,0,1.8,0,2.5-0.1v2.7c-0.7-0.1-1.3-0.1-2.6-0.1h-4.2v1.2h5.2
			c1.4,0,2.2,0,3-0.1v2.9c-0.9-0.1-1.7-0.2-3-0.2h-12.8c-1.5,0-2.2,0-3,0.2v-2.6l-0.9,0.4c-0.3-1.3-0.6-2.2-1.1-3.3V325H154.4z
			 M160.9,325.3c0,1.5,0.1,2.5,0.2,3.4h-3.4c0.1-1,0.2-1.7,0.2-3.4v-8.6c0-1.1,0-1.7-0.1-2.5c0.7,0.1,1.3,0.1,2.4,0.1h10.6
			c1.3,0,2.1,0,2.7-0.1c-0.1,0.7-0.1,1.6-0.1,3.1v8.5c0,2.3-0.8,2.9-3.8,2.9c-0.7,0-1.2,0-2.7-0.1c-0.2-1.3-0.3-1.8-0.7-2.9
			c1.2,0.2,2.2,0.3,2.9,0.3c1,0,1.1-0.1,1.1-0.7v-1H161L160.9,325.3L160.9,325.3z M170,317.9v-1.2h-9.2v1.2H170z M170,321.5v-1.2
			h-9.2v1.2H170z"/>
		<path style="&st3;" d="M188.5,309c1.3,0,1.8,0,2.6-0.2v3.2c-0.6-0.1-1-0.1-1.7-0.1c-0.3,1.4-0.5,2-1,3.3h0.4c1.1,0,1.6,0,2.3-0.1
			v3.2c-0.8-0.1-1.4-0.1-2.6-0.1h-2.3v2.4h2c1.1,0,1.7,0,2.5-0.1v3.1c-0.8-0.1-1.4-0.1-2.5-0.1h-2v2.2c0,1,0.1,2.1,0.2,3.1H183
			c0.1-1,0.2-1.9,0.2-3.1v-2.2H181c-1.1,0-1.6,0-2.5,0.1v-3.1c0.8,0.1,1.3,0.1,2.5,0.1h2.2v-2.4h-2.7c-1.1,0-1.8,0-2.6,0.1v-3.2
			c0.8,0.1,1.2,0.1,2.6,0.1h0.3c-0.2-1.2-0.4-2-0.8-3.3c-1,0-1.5,0-2.2,0.1v-3.2c0.8,0.1,1.4,0.2,2.6,0.2h2.7v-2.3h-2
			c-1.1,0-1.7,0-2.5,0.1v-3.1c0.7,0.1,1.3,0.1,2.5,0.1h2v-0.5c0-0.8-0.1-1.9-0.2-2.3h3.2c-0.1,0.7-0.1,1.3-0.1,2.3v0.5h1.8
			c1.2,0,1.8,0,2.5-0.1v3.1c-0.8-0.1-1.4-0.1-2.5-0.1H186v2.3H188.5z M185.6,315.2c0.4-1,0.7-2.1,0.9-3.3h-3.6
			c0.4,1.4,0.5,2,0.8,3.3H185.6z M204.7,313.1c-0.1,0.4-0.2,0.6-0.4,1.3c-0.6,2.8-1.5,5.4-2.5,7.4c1.2,1.4,2.2,2.2,4.1,3.5
			c-0.9,1.4-1.2,2-1.7,3.2c-1.7-1.4-2.8-2.3-4.1-3.9c-1,1.5-2,2.5-3.6,3.9c-0.6-1-1-1.7-1.7-2.6c0,1.2,0.1,1.8,0.2,2.8h-3.4
			c0.2-1.3,0.2-2,0.2-3.6V305c0-1.1-0.1-2.2-0.2-3.1c0.9,0.1,1.7,0.2,2.8,0.2h7.4c1.3,0,2.3-0.1,2.8-0.2c-0.1,0.9-0.1,1.2-0.1,2
			c-0.4,5.5-0.8,6.1-4.1,6.1c-0.8,0-1.4,0-2.7-0.1c-0.2-1.3-0.3-1.9-0.7-2.8c1.2,0.2,2.4,0.4,3.1,0.4c0.9,0,1.1-0.3,1.2-2.5h-6.5
			v6.6h5.6c1.4,0,2.2,0,2.8-0.1L204.7,313.1z M194.8,325.5c1.4-1.1,2.4-2.1,3.3-3.5c-1.3-2.1-1.9-3.7-2.9-7.6h-0.5L194.8,325.5
			L194.8,325.5z M198,314.4c0.5,2.1,1,3.3,1.8,4.8c0.6-1.4,1-2.6,1.5-4.8H198z"/>
		<path style="&st3;" d="M209.9,304.7c1.2,0.3,3.2,0.4,7,0.4c0.8-1.8,1.1-2.7,1.2-3.7l3.9,0.4c-0.2,0.3-0.2,0.3-1.2,2.7
			c-0.2,0.3-0.2,0.4-0.3,0.5c0.2,0,0.2,0,1.9-0.1c3.5-0.2,6.2-0.5,7.9-1l0.2,3.4c-0.8,0.1-0.8,0.1-2.4,0.2c-2.2,0.3-6,0.5-9,0.6
			c-0.9,1.7-1.7,2.9-2.8,4v0.1c0.2-0.2,0.2-0.2,0.6-0.5c1.1-0.8,2.7-1.3,4.2-1.3c2.3,0,3.8,1.1,4.3,3.2c2.3-0.8,3.8-1.4,4.6-1.6
			c1.6-0.6,1.7-0.6,2.2-0.9l1.4,3.4c-0.8,0.1-1.7,0.4-3.3,0.8c-0.4,0.1-1.9,0.6-4.5,1.5v0.3c0,0.8,0,0.8,0,1.2c0,0.3,0,0.8,0,1.2
			c0,0.5,0,0.8,0,1c0,0.7,0,1.1,0.1,1.6l-3.5,0.1c0.1-0.5,0.2-2.1,0.2-3.5c0-0.4,0-0.4,0-0.7c-1.5,0.7-2.2,1.1-2.9,1.6
			c-1,0.8-1.6,1.6-1.6,2.5c0,1.6,1.4,2.2,5.1,2.2c3.6,0,6.7-0.5,8.8-1.3l0.3,3.9c-0.5,0-0.7,0-1.4,0.1c-2.2,0.3-5,0.5-7.7,0.5
			c-3.2,0-5.2-0.4-6.7-1.3c-1.4-0.8-2.2-2.2-2.2-3.9c0-1.2,0.4-2.2,1.3-3.3c1.3-1.7,3.1-2.8,6.4-4.2c-0.2-1.1-0.8-1.6-1.8-1.6
			c-1.7,0-3.8,1-6.2,3.1c-1.3,1.1-1.9,1.8-2.6,2.7l-2.7-2.7c0.8-0.6,1.6-1.4,2.7-2.7c1.2-1.4,3-4,3.6-5.1c0.1-0.2,0.1-0.2,0.2-0.4
			c-0.1,0-0.5,0-0.5,0c-0.5,0-3.1-0.1-3.8-0.1c-0.6,0-0.6,0-0.8,0c-0.1,0-0.3,0-0.5,0L209.9,304.7z"/>
		<path style="&st3;" d="M245.9,305.7c-0.8,0-1.7,0.1-2.9,0.1v-3.6c0.9,0.1,1.5,0.2,2.8,0.2h4.8c1.2,0,2,0,2.7-0.2
			c-0.1,0.9-0.1,1.1-0.1,1.9c0,4.3,1.1,8.2,3.2,11.9c1.3,2.1,2.7,3.9,4.8,5.8c1.5,1.4,2.4,2,4.4,3.2c-1.1,1.1-1.7,1.9-2.5,3.4
			c-3-2.1-5.2-4.3-7.3-7c-1.1-1.5-1.8-2.6-2.6-4.4c-0.8-1.6-1.1-2.4-1.5-4.3c-1.1,3.8-2.3,6.4-4.3,9.1c-1.9,2.5-4.2,4.6-7.4,6.8
			c-0.6-1.3-1.3-2.2-2.5-3.2c2.5-1.5,4-2.6,6-4.7c2.3-2.4,4.2-5.6,5.1-8.9c0.6-2.1,0.9-3.6,1-6.1L245.9,305.7L245.9,305.7z"/>
		<path style="&st3;" d="M289.4,307c1.8,0,2.8,0,3.9-0.2c-0.1,1.2-0.1,1.2-0.2,4.5c-0.1,4.1-0.4,9.2-0.7,11.2
			c-0.4,2.8-0.8,3.8-1.7,4.5c-0.8,0.6-1.9,0.8-3.6,0.8c-1.4,0-2.7-0.1-4.6-0.3c-0.2-1.5-0.4-2.4-0.8-3.6c1.9,0.4,3.7,0.6,5.2,0.6
			c1.4,0,1.9-0.5,2.2-2.5c0.4-2.2,0.7-6.9,0.7-11.7h-8.1c-0.5,4.4-1.3,7.5-2.7,10c-1.7,3.1-4.5,5.7-8.6,8c-0.7-1.3-1.4-2.2-2.5-3.1
			c4.1-1.8,6.8-4.2,8.5-7.5c0.9-1.8,1.5-4.1,1.9-7.4h-5.2c-1.5,0-2.7,0.1-3.7,0.2v-3.6c1.1,0.1,2.1,0.2,3.8,0.2h5.3
			c0.1-1.2,0.1-1.5,0.1-3.1c0-1.4-0.1-2.3-0.2-2.9h4c-0.1,0.8-0.1,0.8-0.3,6h7.3V307z"/>
		<path style="&st3;" d="M306.8,302.3c-0.2,0.9-0.2,1.7-0.4,4c-0.1,2.8-0.3,8.9-0.3,11c0,2.8,0.2,3.9,0.8,4.8c0.7,1,2.1,1.6,4,1.6
			c3.2,0,5.8-1.8,7.3-5.1c0.7-1.6,1.1-3,1.4-5c1.6,1.3,2.2,1.7,3.6,2.3c-1.2,4-2.1,6-3.6,7.6c-2.2,2.5-5.2,3.8-9,3.8
			c-2.1,0-4-0.5-5.2-1.3c-2.1-1.4-2.9-3.7-2.9-7.7c0-1.6,0.1-4.6,0.2-12.1c0-0.9,0-1.5,0-1.9c0-0.8,0-1.3-0.1-2L306.8,302.3z"/>
		<path style="&st3;" d="M328.9,305.4c0.7,0,1,0,1.1,0c0.5,0,0.5,0,4.9-0.3c1.7-0.1,6.7-0.4,15-0.8c2.5-0.1,2.9-0.2,3.4-0.3l0.2,3.8
			c-0.3,0-0.3,0-0.6,0c-1.8,0-4,0.6-5.9,1.6c-3.8,2-6.1,5-6.1,8c0,2.3,1.5,4.1,4,4.9c1.5,0.5,3.4,0.8,4.5,0.8c0,0,0.3,0,0.6,0
			l-0.5,4.1c-0.4-0.1-0.5-0.1-1-0.2c-3.3-0.4-5.2-1-7-2c-2.8-1.6-4.3-4.1-4.3-7.2c0-2.5,1-5.1,2.9-7.1c1.1-1.2,2.2-2,4.2-3
			c-2.4,0.4-3.6,0.5-10.1,0.9c-2,0.1-3.8,0.4-5,0.6L328.9,305.4z"/>
		<path style="&st3;" d="M363,306.9c0,13-0.6,16.9-3.1,21.5c-1-1.2-1.6-1.8-2.7-2.6c1.1-2,1.6-3.2,2-5.2c0.4-2.2,0.6-6.6,0.6-12.7
			c0-2.2,0-3.2-0.1-4.2c1,0.1,1.8,0.2,3.1,0.2h7.7v-1.3c0-0.7,0-1.1-0.2-1.7h3.6c-0.1,0.5-0.1,0.9-0.1,1.7v1.3h7.8
			c1.6,0,2.7-0.1,3.5-0.2v3.3c-1-0.1-2-0.2-3.5-0.2h-9.9c4,2.2,4.6,2.6,7.5,5l-2.3,2.5c-2.2-2.2-4-3.5-7.6-5.5l2.3-2H363V306.9z
			 M362.7,324.5c0.9-2,1.2-2.9,1.6-4.9c0.4-1.9,0.5-3.1,0.7-5.8l3.1,0.8c-0.5,5.5-0.9,7.8-2.4,11.8L362.7,324.5z M373,312
			c-0.1,0.7-0.2,1.6-0.2,2.8v9.4c0,0.8,0.2,0.9,2,0.9c2.4,0,2.4-0.1,2.4-5.5c1.2,0.5,2.2,0.9,3.2,1c-0.2,4.1-0.5,5.6-1.2,6.4
			s-1.9,1.2-4.4,1.2c-4.2,0-5.2-0.4-5.2-2.2v-11.3c0-1.3,0-2.1-0.2-2.8h3.6V312z M382.3,325.9c-0.8-4.6-1.6-7-3.5-10.9l2.8-1.4
			c2,4.4,2.8,6.7,3.8,10.7L382.3,325.9z"/>
		<path style="&st3;" d="M393.5,321.8c-1.3,0.7-2.3,1.2-4.2,2c-0.6-1.1-1-1.8-1.7-2.6c2.5-0.6,4.9-1.7,6.7-3h-3.1
			c-1.4,0-2.4,0.1-3.3,0.2v-2.8c1,0.1,1.9,0.1,3.4,0.1h5.9c0.3-0.3,0.6-0.7,0.8-1h-4c-1,0-1.7,0-2.4,0.1c0.1-0.7,0.1-1.3,0.1-2.1
			v-4.3c0-0.8,0-1.4-0.1-2.1c0.5,0.1,1.1,0.1,2.4,0.1h1.3v-1.1h-3.9c-1.4,0-2.2,0.1-3.3,0.2v-2.9c1,0.1,2.1,0.2,3.4,0.2h3.8v-0.1
			c0-0.7,0-1.1-0.1-1.6h3.4c-0.1,0.5-0.1,0.9-0.1,1.6v0.1h6.2v-0.1c0-0.7,0-1.1-0.1-1.6h3.3c-0.1,0.5-0.1,0.9-0.1,1.6v0.1h4
			c1.3,0,2.4-0.1,3.4-0.2v2.9c-1.1-0.2-1.9-0.2-3.3-0.2h-4.1v1.1h1.6c1.2,0,1.9,0,2.4-0.1c-0.1,0.7-0.1,1.3-0.1,2.1v4.3
			c0,0.8,0,1.4,0.1,2.1c-0.7,0-1.4-0.1-2.4-0.1h-8c-0.3,0.5-0.4,0.7-0.6,1H412c1.5,0,2.4-0.1,3.4-0.1v2.8c-1-0.1-1.8-0.2-3.3-0.2
			h-3.2c0.8,0.6,1.9,1.2,3.2,1.7c1.1,0.5,2.1,0.7,3.9,1.1c-0.7,0.9-1.1,1.8-1.5,2.8c-1.7-0.6-3-1.1-4.1-1.8
			c-0.6,5.8-1.1,6.5-5.3,6.5c-0.6,0-1.1,0-2.3-0.1c-0.2-1.1-0.4-1.9-1-2.9c1.3,0.2,2.1,0.3,3,0.3c2,0,2.2-0.2,2.4-2.9h-5.4
			c-1.8,3.3-5,5.2-10.3,6c-0.4-1-0.8-1.7-1.6-2.6c4-0.4,6.7-1.4,8.4-3.3h-2c-1.2,0-1.9,0-2.6,0.1v-1.3H393.5z M394.6,309.4h13.9v-1
			h-13.9V309.4z M394.6,312.5h13.9v-1h-13.9V312.5z M398.4,318.2c-1,1-1.9,1.7-2.8,2.3c0.1,0,0.1,0,0.3,0h3.5c0.2-0.7,0.3-1,0.3-1.7
			l3.4,0.1c0,0.1-0.2,0.7-0.5,1.6h4.9c-1.3-0.9-1.6-1.2-2.8-2.3H398.4z M404.5,305.2h-6.2v1.1h6.2V305.2z"/>
	</g>
</g>
</svg>
