<?xml version="1.0" encoding="utf-8"?>
<!-- Generator: Adobe Illustrator 26.5.0, SVG Export Plug-In . SVG Version: 6.00 Build 0)  -->
<!DOCTYPE svg PUBLIC "-//W3C//DTD SVG 1.1//EN" "http://www.w3.org/Graphics/SVG/1.1/DTD/svg11.dtd" [
	<!ENTITY st0 "fill:#FFFFFF;stroke:#4D4D4D;stroke-width:0.5;stroke-miterlimit:10;">
	<!ENTITY st1 "clip-path:url(#SVGID_00000117677407522110476580000017386875227336084901_);">
	<!ENTITY st2 "fill:none;">
	
		<!ENTITY st3 "fill:none;stroke:#000000;stroke-linecap:round;stroke-linejoin:round;stroke-miterlimit:10;stroke-dasharray:5,3.5;">
	<!ENTITY st4 "fill:none;stroke:#D20000;stroke-width:2;stroke-miterlimit:10;">
	<!ENTITY st5 "clip-path:url(#SVGID_00000040576503218964984760000007173490908271967413_);">
	<!ENTITY st6 "fill:#D20000;">
	<!ENTITY st7 "clip-path:url(#SVGID_00000176746702237941789110000017169330919396112061_);">
	<!ENTITY st8 "fill:#FFE402;">
	<!ENTITY st9 "enable-background:new    ;">
	<!ENTITY st10 "fill:#202020;">
	<!ENTITY st11 "fill:none;stroke:#FFE402;stroke-width:1.1449;stroke-miterlimit:10;">
	<!ENTITY st12 "fill:none;stroke:#000000;stroke-width:2;stroke-miterlimit:10;">
	<!ENTITY st13 "fill:none;stroke:#000000;stroke-width:2;stroke-linecap:round;stroke-linejoin:round;">
	<!ENTITY st14 "stroke:#FFE402;stroke-width:0.2042;stroke-miterlimit:10;">
	<!ENTITY st15 "stroke:#FFE402;stroke-width:0.25;stroke-miterlimit:10;">
	<!ENTITY st16 "fill:none;stroke:#000000;stroke-width:2;stroke-linecap:round;stroke-linejoin:round;stroke-miterlimit:10;">
	<!ENTITY st17 "clip-path:url(#SVGID_00000106853578924172362830000017710443660769849016_);">
	<!ENTITY st18 "fill:#FFFFFF;stroke:#DDDDDD;stroke-width:2;stroke-miterlimit:10;">
	<!ENTITY st19 "fill:#FFFFFF;">
	<!ENTITY st20 "fill:none;stroke:#DDDDDD;">
	<!ENTITY st21 "fill:none;stroke:#000000;stroke-miterlimit:10;">
	<!ENTITY st22 "fill:none;stroke:#000000;stroke-linecap:round;stroke-linejoin:round;">
	<!ENTITY st23 "clip-path:url(#SVGID_00000061443751850640470550000007115768520397102238_);">
	<!ENTITY st24 "fill:none;stroke:#000000;stroke-width:0.4856;stroke-miterlimit:10;">
	<!ENTITY st25 "fill:none;stroke:#000000;stroke-linecap:round;stroke-linejoin:round;stroke-miterlimit:10;">
	<!ENTITY st26 "stroke:#000000;stroke-width:0.25;stroke-miterlimit:10;">
	<!ENTITY st27 "clip-path:url(#SVGID_00000021092385798197608990000012157963477005875365_);">
]>
<svg version="1.1" id="レイヤー_1" xmlns="http://www.w3.org/2000/svg" xmlns:xlink="http://www.w3.org/1999/xlink" x="0px"
	 y="0px" viewBox="0 0 166 166" style="enable-background:new 0 0 166 166;" xml:space="preserve">
<g id="長方形_95_00000156575781934605468950000013332579397645040017_" transform="translate(180)">
	<path style="&st2;" d="M-172,0h150c4.4,0,8,3.6,8,8V158c0,4.4-3.6,8-8,8h-150c-4.4,0-8-3.6-8-8V8C-180,3.6-176.4,0-172,0z"/>
	<path style="&st2;" d="M-172,0.5h150c4.1,0,7.5,3.4,7.5,7.5V158c0,4.2-3.4,7.5-7.5,7.5h-150c-4.1,0-7.5-3.4-7.5-7.5V8
		C-179.5,3.9-176.1,0.5-172,0.5z"/>
</g>
<g style="&st9;">
	<path style="&st10;" d="M34,105.4c-0.1,0.4-0.1,0.8-0.1,1.6l-0.1,9.1c1.7-0.3,3.2-0.9,4.4-1.8c1.5-1,2.5-2.1,3.3-3.7
		c0.6,0.8,0.8,1.1,1.5,1.6c-1.1,1.7-2.1,2.8-3.6,3.7c-1.6,1.1-3.2,1.7-5.8,2.2c-0.4,0.1-0.6,0.1-1,0.3l-1-1.2
		c0.1-0.4,0.1-0.7,0.1-1.6l0.1-8.6c0-1.1,0-1.1-0.1-1.6L34,105.4z"/>
	<path style="&st10;" d="M45.9,109.2c1.6,0.7,2.9,1.3,4.3,2.2l-1,1.8c-1.3-0.9-2.7-1.7-4.3-2.4L45.9,109.2z M45.1,116.3
		c1.2,0,3-0.4,4.6-1c2-0.8,3.3-1.8,4.6-3.5c0.9-1.2,1.4-2.1,1.9-3.5c0.7,0.7,0.9,0.9,1.7,1.4c-0.7,1.8-1.4,2.9-2.4,4
		c-2,2.3-4.8,3.8-8.7,4.5c-0.6,0.1-0.8,0.2-1.1,0.3L45.1,116.3z M47.1,105.3c1.6,0.6,2.9,1.2,4.3,2.1l-1,1.8c-1.5-1-2.9-1.7-4.3-2.2
		L47.1,105.3z"/>
	<path style="&st10;" d="M59.6,110.7c0.7,0.1,1,0.1,2.6,0.1h8.5c1.6,0,1.9,0,2.6-0.1v2.2c-0.6-0.1-0.8-0.1-2.6-0.1h-8.5
		c-1.8,0-2,0-2.6,0.1V110.7z"/>
	<path style="&st10;" d="M77.2,118.7c0.1-0.5,0.1-0.9,0.1-1.8v-10.3c0-0.8,0-1.2-0.1-1.6h2.2c-0.1,0.5-0.1,0.7-0.1,1.7v3
		c2.2,0.8,4.7,1.9,7.3,3.4l-1.1,1.9c-1.3-0.9-3-1.8-5.7-3.1c-0.4-0.2-0.4-0.2-0.5-0.3c0,0.4,0.1,0.6,0.1,1.1v4.2
		c0,0.8,0,1.2,0.1,1.8H77.2z"/>
	<path style="&st10;" d="M88.1,111.9c0.4-1.4,0.5-2.4,0.5-4.2l1.3,0.3c0,1.7-0.2,3.1-0.5,4.5L88.1,111.9z M91.9,117.3
		c0,0.8,0,1.4,0.1,2h-1.9c0.1-0.5,0.1-1.3,0.1-2v-11.1c0-0.7,0-1.2-0.1-1.7H92c-0.1,0.6-0.1,1-0.1,1.7v1.3l0.9-0.4
		c0.4,0.8,0.4,0.9,0.8,2.1l-0.4,0.2c0.4,0,0.7,0,1.3,0H97v-0.6h-1.8c-0.6,0-0.9,0-1.3,0.1v-1.4c0.4,0,0.7,0.1,1.4,0.1H97V107h-2.1
		c-0.8,0-1.2,0-1.6,0.1v-1.5c0.5,0.1,0.8,0.1,1.7,0.1h2c0-0.5,0-0.7-0.1-1.1h1.8c-0.1,0.4-0.1,0.6-0.1,1.1h2.4c0.9,0,1.2,0,1.7-0.1
		v1.5c-0.5-0.1-0.9-0.1-1.6-0.1h-2.5v0.6h2.3c0.7,0,0.9,0,1.3-0.1v1.4c-0.4,0-0.7-0.1-1.4-0.1h-2.2v0.6h2.8c0.8,0,1.2,0,1.6-0.1v1.6
		c-0.5-0.1-0.9-0.1-1.6-0.1h-6.8c-0.8,0-1.2,0-1.6,0.1v-1.4l-0.5,0.2c-0.2-0.7-0.3-1.2-0.6-1.8V117.3z M95.4,117.5
		c0,0.8,0,1.3,0.1,1.8h-1.8c0.1-0.5,0.1-0.9,0.1-1.8v-4.6c0-0.6,0-0.9,0-1.4c0.4,0,0.7,0,1.3,0h5.6c0.7,0,1.1,0,1.4-0.1
		c0,0.4-0.1,0.9-0.1,1.6v4.5c0,1.2-0.4,1.5-2,1.5c-0.4,0-0.7,0-1.4-0.1c-0.1-0.7-0.2-1-0.4-1.5c0.7,0.1,1.2,0.1,1.6,0.1
		c0.5,0,0.6-0.1,0.6-0.4v-0.5h-4.9V117.5z M100.3,113.5v-0.7h-4.9v0.7H100.3z M100.3,115.5v-0.7h-4.9v0.7H100.3z"/>
	<path style="&st10;" d="M110.1,108.8c0.7,0,1,0,1.4-0.1v1.7c-0.3,0-0.5,0-0.9-0.1c-0.2,0.8-0.3,1.1-0.5,1.8h0.2
		c0.6,0,0.9,0,1.2-0.1v1.7c-0.4,0-0.8-0.1-1.4-0.1h-1.2v1.3h1.1c0.6,0,0.9,0,1.3-0.1v1.7c-0.4,0-0.7-0.1-1.3-0.1h-1.1v1.2
		c0,0.5,0,1.1,0.1,1.6h-1.8c0.1-0.5,0.1-1,0.1-1.6v-1.2h-1.2c-0.6,0-0.9,0-1.3,0.1v-1.7c0.4,0,0.7,0.1,1.3,0.1h1.2v-1.3h-1.4
		c-0.6,0-0.9,0-1.4,0.1V112c0.4,0.1,0.7,0.1,1.4,0.1h0.2c-0.1-0.6-0.2-1.1-0.4-1.8c-0.5,0-0.8,0-1.2,0.1v-1.7
		c0.4,0.1,0.8,0.1,1.4,0.1h1.4v-1.2h-1.1c-0.6,0-0.9,0-1.3,0.1V106c0.4,0,0.7,0.1,1.3,0.1h1.1v-0.3c0-0.4,0-1-0.1-1.2h1.7
		c0,0.4-0.1,0.7-0.1,1.2v0.3h0.9c0.6,0,0.9,0,1.3-0.1v1.7c-0.4,0-0.8-0.1-1.3-0.1h-0.9v1.2H110.1z M108.6,112.1
		c0.2-0.5,0.4-1.1,0.5-1.8h-1.9c0.2,0.8,0.3,1.1,0.4,1.8H108.6z M118.8,111c-0.1,0.2-0.1,0.3-0.2,0.7c-0.3,1.5-0.8,2.9-1.4,4
		c0.6,0.8,1.2,1.2,2.2,1.9c-0.5,0.8-0.7,1.1-0.9,1.7c-0.9-0.7-1.5-1.2-2.2-2.1c-0.6,0.8-1.1,1.4-1.9,2.1c-0.3-0.6-0.5-0.9-0.9-1.4
		c0,0.6,0,1,0.1,1.5h-1.8c0.1-0.7,0.1-1.1,0.1-1.9v-10.7c0-0.6,0-1.2-0.1-1.6c0.5,0.1,0.9,0.1,1.5,0.1h3.9c0.7,0,1.2,0,1.5-0.1
		c0,0.5-0.1,0.7-0.1,1c-0.2,2.9-0.4,3.3-2.2,3.3c-0.4,0-0.7,0-1.4-0.1c-0.1-0.7-0.2-1-0.4-1.5c0.6,0.1,1.3,0.2,1.6,0.2
		c0.5,0,0.6-0.2,0.6-1.3h-3.5v3.5h3c0.8,0,1.2,0,1.5-0.1L118.8,111z M113.5,117.6c0.7-0.6,1.3-1.1,1.8-1.9c-0.7-1.1-1-2-1.5-4h-0.3
		V117.6z M115.2,111.7c0.3,1.1,0.5,1.7,1,2.5c0.3-0.8,0.5-1.4,0.8-2.5H115.2z"/>
	<path style="&st10;" d="M121,106.5c0.7,0.1,1.7,0.2,3.7,0.2c0.4-1,0.6-1.4,0.6-2l2.1,0.2c-0.1,0.2-0.1,0.2-0.6,1.4
		c-0.1,0.2-0.1,0.2-0.1,0.3c0.1,0,0.1,0,1-0.1c1.9-0.1,3.3-0.3,4.2-0.5l0.1,1.8c-0.4,0-0.4,0-1.3,0.1c-1.2,0.1-3.2,0.3-4.8,0.3
		c-0.5,0.9-0.9,1.6-1.5,2.1l0,0c0.1-0.1,0.1-0.1,0.3-0.2c0.6-0.4,1.4-0.7,2.3-0.7c1.2,0,2,0.6,2.3,1.7c1.2-0.4,2-0.7,2.4-0.9
		c0.9-0.3,0.9-0.3,1.2-0.5l0.8,1.8c-0.4,0.1-0.9,0.2-1.8,0.4c-0.2,0.1-1,0.3-2.4,0.8v0.2c0,0.4,0,0.4,0,0.6c0,0.2,0,0.4,0,0.6
		c0,0.3,0,0.4,0,0.5c0,0.4,0,0.6,0,0.8l-1.9,0c0.1-0.3,0.1-1.1,0.1-1.9c0-0.2,0-0.2,0-0.4c-0.8,0.4-1.2,0.6-1.5,0.8
		c-0.6,0.4-0.8,0.8-0.8,1.3c0,0.8,0.8,1.2,2.7,1.2c1.9,0,3.6-0.2,4.7-0.7l0.2,2.1c-0.3,0-0.4,0-0.7,0.1c-1.2,0.2-2.7,0.3-4.1,0.3
		c-1.7,0-2.8-0.2-3.6-0.7c-0.7-0.4-1.2-1.2-1.2-2.1c0-0.7,0.2-1.2,0.7-1.8c0.7-0.9,1.6-1.5,3.4-2.3c-0.1-0.6-0.4-0.9-1-0.9
		c-0.9,0-2,0.6-3.3,1.6c-0.7,0.6-1,1-1.4,1.5l-1.5-1.4c0.4-0.3,0.9-0.8,1.4-1.4c0.6-0.7,1.6-2.1,1.9-2.7c0.1-0.1,0.1-0.1,0.1-0.2
		c-0.1,0-0.3,0-0.3,0c-0.3,0-1.7,0-2,0c-0.3,0-0.3,0-0.4,0c0,0-0.1,0-0.3,0L121,106.5z"/>
	<path style="&st10;" d="M41.4,126.2c-0.4,0-0.9,0-1.5,0.1v-1.9c0.5,0.1,0.8,0.1,1.5,0.1H44c0.7,0,1.1,0,1.5-0.1c0,0.5,0,0.6,0,1
		c0,2.3,0.6,4.4,1.7,6.3c0.7,1.1,1.5,2.1,2.6,3.1c0.8,0.8,1.3,1.1,2.4,1.7c-0.6,0.6-0.9,1-1.4,1.8c-1.6-1.1-2.8-2.3-3.9-3.8
		c-0.6-0.8-0.9-1.4-1.4-2.4c-0.4-0.9-0.6-1.3-0.8-2.3c-0.6,2-1.2,3.4-2.3,4.8c-1,1.3-2.2,2.4-4,3.6c-0.3-0.7-0.7-1.2-1.3-1.7
		c1.4-0.8,2.1-1.4,3.2-2.5c1.2-1.3,2.2-3,2.7-4.7c0.3-1.1,0.5-1.9,0.5-3.2H41.4z"/>
	<path style="&st10;" d="M64.3,126.9c1,0,1.5,0,2.1-0.1c-0.1,0.6-0.1,0.6-0.1,2.4c0,2.2-0.2,4.9-0.4,6c-0.2,1.5-0.4,2-0.9,2.4
		c-0.4,0.3-1,0.4-1.9,0.4c-0.7,0-1.4,0-2.4-0.2c-0.1-0.8-0.2-1.3-0.4-1.9c1,0.2,2,0.3,2.8,0.3c0.8,0,1-0.3,1.2-1.4
		c0.2-1.2,0.4-3.7,0.4-6.2h-4.3c-0.3,2.4-0.7,4-1.5,5.3c-0.9,1.7-2.4,3-4.6,4.3c-0.4-0.7-0.8-1.2-1.3-1.7c2.2-1,3.6-2.2,4.5-4
		c0.5-1,0.8-2.2,1-4h-2.8c-0.8,0-1.4,0-2,0.1v-1.9c0.6,0.1,1.1,0.1,2,0.1h2.8c0-0.6,0-0.8,0-1.6c0-0.8,0-1.2-0.1-1.6h2.1
		c-0.1,0.4-0.1,0.4-0.2,3.2H64.3z"/>
	<path style="&st10;" d="M72.3,124.4c-0.1,0.5-0.1,0.9-0.2,2.2c-0.1,1.5-0.2,4.7-0.2,5.9c0,1.5,0.1,2.1,0.4,2.6
		c0.4,0.5,1.1,0.8,2.1,0.8c1.7,0,3.1-1,3.9-2.7c0.4-0.8,0.6-1.6,0.7-2.7c0.9,0.7,1.2,0.9,1.9,1.2c-0.6,2.2-1.1,3.2-1.9,4.1
		c-1.2,1.4-2.8,2-4.8,2c-1.1,0-2.1-0.3-2.8-0.7c-1.1-0.7-1.6-2-1.6-4.1c0-0.8,0-2.4,0.1-6.5c0-0.5,0-0.8,0-1c0-0.4,0-0.7-0.1-1.1
		L72.3,124.4z"/>
	<path style="&st10;" d="M81.8,126.1c0.4,0,0.5,0,0.6,0c0.3,0,0.3,0,2.6-0.2c0.9,0,3.6-0.2,8-0.4c1.3-0.1,1.6-0.1,1.8-0.2l0.1,2
		c-0.2,0-0.2,0-0.3,0c-1,0-2.1,0.3-3.2,0.9c-2,1.1-3.2,2.7-3.2,4.3c0,1.2,0.8,2.2,2.1,2.6c0.8,0.2,1.8,0.4,2.4,0.4c0,0,0.2,0,0.3,0
		l-0.3,2.2c-0.2,0-0.3-0.1-0.5-0.1c-1.8-0.2-2.8-0.5-3.7-1.1c-1.5-0.8-2.3-2.2-2.3-3.9c0-1.4,0.5-2.7,1.5-3.8
		c0.6-0.7,1.2-1.1,2.2-1.6c-1.3,0.2-1.9,0.2-5.4,0.5c-1.1,0.1-2,0.2-2.7,0.3L81.8,126.1z"/>
	<path style="&st10;" d="M99.2,126.9c0,7-0.3,9-1.6,11.5c-0.5-0.6-0.8-0.9-1.4-1.4c0.6-1,0.8-1.7,1-2.8c0.2-1.2,0.3-3.5,0.3-6.8
		c0-1.2,0-1.7-0.1-2.2c0.5,0.1,1,0.1,1.7,0.1h4.1v-0.7c0-0.4,0-0.6-0.1-0.9h1.9c-0.1,0.3-0.1,0.5-0.1,0.9v0.7h4.1
		c0.9,0,1.4,0,1.9-0.1v1.8c-0.6-0.1-1.1-0.1-1.9-0.1h-5.3c2.1,1.2,2.5,1.4,4,2.7l-1.2,1.4c-1.2-1.2-2.1-1.9-4.1-2.9l1.2-1.1H99.2z
		 M99.1,136.3c0.5-1.1,0.7-1.6,0.9-2.6c0.2-1,0.3-1.7,0.4-3.1l1.7,0.4c-0.3,3-0.5,4.2-1.3,6.3L99.1,136.3z M104.5,129.6
		c0,0.4-0.1,0.8-0.1,1.5v5c0,0.4,0.1,0.5,1.1,0.5c1.3,0,1.3-0.1,1.3-2.9c0.6,0.3,1.2,0.5,1.7,0.6c-0.1,2.2-0.3,3-0.6,3.4
		c-0.4,0.4-1,0.6-2.4,0.6c-2.2,0-2.8-0.2-2.8-1.2v-6c0-0.7,0-1.1-0.1-1.5H104.5z M109.5,137c-0.4-2.5-0.8-3.7-1.8-5.8l1.5-0.8
		c1.1,2.3,1.5,3.6,2,5.7L109.5,137z"/>
	<path style="&st10;" d="M115.5,134.8c-0.7,0.4-1.2,0.6-2.2,1c-0.3-0.6-0.5-0.9-0.9-1.4c1.3-0.3,2.6-0.9,3.6-1.6h-1.7
		c-0.8,0-1.3,0-1.8,0.1v-1.5c0.5,0,1,0.1,1.8,0.1h3.2c0.2-0.2,0.3-0.4,0.4-0.5h-2.2c-0.5,0-0.9,0-1.3,0c0-0.4,0-0.7,0-1.1v-2.3
		c0-0.4,0-0.8,0-1.1c0.3,0,0.6,0,1.3,0h0.7V126h-2.1c-0.7,0-1.2,0-1.8,0.1v-1.6c0.5,0.1,1.1,0.1,1.8,0.1h2v-0.1c0-0.4,0-0.6-0.1-0.9
		h1.8c0,0.3-0.1,0.5-0.1,0.9v0.1h3.3v-0.1c0-0.4,0-0.6,0-0.9h1.8c0,0.3-0.1,0.5-0.1,0.9v0.1h2.2c0.7,0,1.3,0,1.8-0.1v1.6
		c-0.6-0.1-1-0.1-1.8-0.1H123v0.6h0.9c0.7,0,1,0,1.3,0c0,0.4,0,0.7,0,1.1v2.3c0,0.4,0,0.8,0,1.1c-0.4,0-0.8,0-1.3,0h-4.3
		c-0.2,0.3-0.2,0.4-0.3,0.5h6c0.8,0,1.3,0,1.8-0.1v1.5c-0.5-0.1-1-0.1-1.8-0.1h-1.7c0.4,0.3,1,0.6,1.7,0.9c0.6,0.3,1.1,0.4,2.1,0.6
		c-0.4,0.5-0.6,1-0.8,1.5c-0.9-0.3-1.6-0.6-2.2-0.9c-0.3,3.1-0.6,3.4-2.8,3.4c-0.3,0-0.6,0-1.2,0c-0.1-0.6-0.2-1-0.5-1.6
		c0.7,0.1,1.1,0.2,1.6,0.2c1.1,0,1.2-0.1,1.3-1.6h-2.9c-0.9,1.8-2.7,2.8-5.5,3.2c-0.2-0.5-0.4-0.9-0.9-1.4c2.2-0.2,3.6-0.8,4.5-1.8
		h-1.1c-0.6,0-1,0-1.4,0.1V134.8z M116,128.2h7.4v-0.5H116V128.2z M116,129.9h7.4v-0.6H116V129.9z M118.1,132.9
		c-0.5,0.5-1,0.9-1.5,1.2c0,0,0,0,0.2,0h1.9c0.1-0.4,0.1-0.5,0.1-0.9l1.8,0.1c0,0.1-0.1,0.4-0.2,0.8h2.6c-0.7-0.5-0.8-0.6-1.5-1.2
		H118.1z M121.3,126H118v0.6h3.3V126z"/>
</g>
<g>
	<path style="&st25;" d="M91.9,48.4H47.1c-0.9,0-1.6-0.7-1.6-1.6v-9c0-0.9,0.7-1.6,1.6-1.6h44.8c0.9,0,1.6,0.7,1.6,1.6v9
		C93.5,47.7,92.8,48.4,91.9,48.4z"/>
	<g>
		<polyline style="&st25;" points="101.8,40.5 105.7,44 115,32.3 		"/>
		<g>
			<path style="&st26;" d="M113.5,36.7c0.6,0,1.2,0.5,1.2,1.2v9c0,0.6-0.5,1.2-1.2,1.2H99.7c-0.6,0-1.2-0.5-1.2-1.2v-9
				c0-0.6,0.5-1.2,1.2-1.2h10l0.6-0.8H99.7c-1.1,0-2,0.9-2,2v9c0,1.1,0.9,2,2,2h13.8c1.1,0,2-0.9,2-2v-9c0-0.9-0.7-1.7-1.6-1.9
				l-0.6,0.8H113.5z"/>
		</g>
	</g>
	<path style="&st25;" d="M91.9,68.3H47.1c-0.9,0-1.6-0.7-1.6-1.6v-9c0-0.9,0.7-1.6,1.6-1.6h44.8c0.9,0,1.6,0.7,1.6,1.6v9
		C93.5,67.6,92.8,68.3,91.9,68.3z"/>
	<g>
		<polyline style="&st25;" points="101.8,60.4 105.7,63.9 115,52.1 		"/>
		<g>
			<path style="&st26;" d="M113.5,56.6c0.6,0,1.2,0.5,1.2,1.2v9c0,0.6-0.5,1.2-1.2,1.2H99.7c-0.6,0-1.2-0.5-1.2-1.2v-9
				c0-0.6,0.5-1.2,1.2-1.2h10l0.6-0.8H99.7c-1.1,0-2,0.9-2,2v9c0,1.1,0.9,2,2,2h13.8c1.1,0,2-0.9,2-2v-9c0-0.9-0.7-1.7-1.6-1.9
				l-0.6,0.8H113.5z"/>
		</g>
	</g>
	<path style="&st25;" d="M91.9,88.2H47.1c-0.9,0-1.6-0.7-1.6-1.6v-9c0-0.9,0.7-1.6,1.6-1.6h44.8c0.9,0,1.6,0.7,1.6,1.6v9
		C93.5,87.5,92.8,88.2,91.9,88.2z"/>
	<g>
		<polyline style="&st25;" points="101.8,80.3 105.7,83.8 115,72 		"/>
		<g>
			<path style="&st26;" d="M113.5,76.5c0.6,0,1.2,0.5,1.2,1.2v9c0,0.6-0.5,1.2-1.2,1.2H99.7c-0.6,0-1.2-0.5-1.2-1.2v-9
				c0-0.6,0.5-1.2,1.2-1.2h10l0.6-0.8H99.7c-1.1,0-2,0.9-2,2v9c0,1.1,0.9,2,2,2h13.8c1.1,0,2-0.9,2-2v-9c0-0.9-0.7-1.7-1.6-1.9
				l-0.6,0.8H113.5z"/>
		</g>
	</g>
</g>
</svg>
