<?xml version="1.0" encoding="utf-8"?>
<!-- Generator: Adobe Illustrator 26.5.0, SVG Export Plug-In . SVG Version: 6.00 Build 0)  -->
<!DOCTYPE svg PUBLIC "-//W3C//DTD SVG 1.1//EN" "http://www.w3.org/Graphics/SVG/1.1/DTD/svg11.dtd" [
	<!ENTITY st0 "enable-background:new    ;">
	<!ENTITY st1 "fill:#D20000;">
	<!ENTITY st2 "fill:#FFFFFF;">
]>
<svg version="1.1" id="レイヤー_1" xmlns="http://www.w3.org/2000/svg" xmlns:xlink="http://www.w3.org/1999/xlink" x="0px"
	 y="0px" viewBox="0 0 249 39" style="enable-background:new 0 0 249 39;" xml:space="preserve">
<g transform="translate(-71 -805)">
	<g style="&st0;">
		<path style="&st1;" d="M140.2,816.3c-0.3,1-0.5,1.5-1,2.3c-0.4,0.8-0.8,1.3-1.5,2c-0.6-0.6-0.8-0.8-1.5-1.1
			c0.5-0.6,0.8-0.8,1.1-1.3c0.6-0.8,0.8-1.4,1.1-2.5L140.2,816.3z M138.5,815.1c-0.7,0-1.3,0-1.9,0.1v-1.8c0.5,0.1,1.1,0.1,1.9,0.1
			h4.3v-1.6h-3.2c-0.7,0-1.2,0-1.8,0.1v-1.8c0.5,0.1,1,0.1,1.8,0.1h3.2v-0.3c0-0.7,0-1-0.1-1.4h2c-0.1,0.2-0.1,0.7-0.1,1.4v0.3h3.4
			c0.8,0,1.3,0,1.8-0.1v1.8c-0.5-0.1-1-0.1-1.8-0.1h-3.4v1.6h4.6c0.8,0,1.4,0,1.9-0.1v1.8c-0.5-0.1-1.1-0.1-1.9-0.1h-2.7v6.5
			c0,0.6-0.1,0.9-0.4,1.2c-0.3,0.3-0.7,0.4-1.6,0.4c-0.4,0-1,0-1.7,0c0-0.6-0.1-1-0.4-1.8c0.6,0.1,1.2,0.1,1.6,0.1
			c0.6,0,0.7-0.1,0.7-0.4v-5.9h-1.6c-0.1,2.2-0.3,3.4-0.7,4.5c-0.4,0.9-1,1.7-1.7,2.4c-0.6,0.6-1.1,0.9-2.2,1.4
			c-0.4-0.7-0.8-1.1-1.2-1.5c1.9-0.8,2.8-1.6,3.5-2.9c0.4-0.9,0.6-1.9,0.7-3.9H138.5z M148.9,815.7c0.3,1.1,0.5,1.6,0.9,2.4
			c0.4,0.8,0.7,1.2,1.4,2.1c-0.6,0.4-1,0.6-1.6,1.1c-1.2-1.9-1.7-2.9-2.4-5L148.9,815.7z"/>
		<path style="&st1;" d="M163.4,812c-0.5,2.2-1.4,3.5-3.2,4.7c-0.3-0.4-0.4-0.6-0.7-0.9c-0.1,0.1-0.2,0.5-0.5,1
			c-0.5-0.7-0.7-0.9-1.1-1.8c0,0.4,0,0.4,0,0.8c0,0.2,0,0.2,0,0.4l0,0.4v4.7c0,0.8,0,1.5,0.1,2h-1.8c0.1-0.5,0.1-1.2,0.1-2v-3.3
			c0-0.6,0-1.6,0.1-2.2c-0.5,1.8-0.9,2.8-1.6,3.8c-0.4-1-0.4-1.1-0.9-1.8c0.9-1.2,1.7-3,2.2-5h-0.7c-0.5,0-0.8,0-1.2,0.1v-1.7
			c0.3,0.1,0.6,0.1,1.2,0.1h0.8v-1.2c0-0.7,0-1.2-0.1-1.7h1.9c-0.1,0.5-0.1,1-0.1,1.6v1.2h0.6c0.5,0,0.7,0,1-0.1v1.7
			c-0.3,0-0.5-0.1-0.8-0.1H158c0.3,0.8,0.8,1.4,1.5,2.1c1.2-0.7,1.9-1.6,2.2-3.1h-0.3c-0.7,0-1.1,0-1.5,0.1v-1.7
			c0.4,0.1,0.9,0.1,1.6,0.1h0.4c0-0.5,0-0.7,0-0.9c0-0.5,0-0.8-0.1-1.1h1.8c0,0.2,0,0.4-0.1,1c0,0.3,0,0.5-0.1,1h1.6
			c0.5,0,0.9,0,1.4,0c0,0.3-0.1,0.6-0.1,1.1v2.7c0,0.2,0.1,0.2,0.4,0.2c0.2,0,0.4-0.1,0.4-0.2c0.1-0.2,0.1-0.7,0.1-1.4
			c0-0.1,0-0.2,0-0.4c0.6,0.3,1,0.4,1.5,0.5c-0.1,2.6-0.3,2.9-2.2,2.9c-1.5,0-1.9-0.2-1.9-1.1V812H163.4z M162.8,816.8
			c0-0.6,0-1-0.1-1.4h1.9c-0.1,0.4-0.1,0.7-0.1,1.3v0.8h2.4c0.8,0,1.3,0,1.8-0.1v1.8c-0.5-0.1-1-0.1-1.8-0.1h-2.4v2.3
			c0,0.8,0,1.4,0.1,2h-1.9c0.1-0.5,0.1-1.2,0.1-2v-2.3H161c-0.8,0-1.3,0-1.8,0.1v-1.8c0.5,0.1,1,0.1,1.8,0.1h1.8V816.8z"/>
		<path style="&st1;" d="M183.9,817.8c-0.4,0.4-0.7,0.9-1.1,1.5c-1.7-1.1-3-2.6-3.9-4.1c-0.2,0.6-0.4,1-0.8,1.5
			c-0.8,1.1-1.6,1.9-3,2.8c-0.2-0.4-0.6-0.9-1-1.3v3.1c0,1,0,1.5,0.1,1.9h-2c0.1-0.5,0.1-1.2,0.1-1.9v-9.1c0-0.7,0-1.1-0.1-1.6
			c0.6,0.1,1,0.1,1.9,0.1h3.9c0-0.4,0-0.6,0-0.9c0-0.6,0-1-0.1-1.4h2c-0.1,0.3-0.1,0.4-0.1,0.8c0,0.2,0,0.2,0,0.9c0,0.3,0,0.3,0,0.6
			h4.1c0.9,0,1.3,0,1.8-0.1c0,0.4-0.1,0.9-0.1,1.6v9.2c0,0.7,0,0.9-0.2,1.2c-0.4,0.4-0.9,0.6-2.4,0.6c-0.4,0-0.9,0-1.6,0
			c-0.1-0.8-0.2-1.2-0.5-1.8c0.8,0.1,1.5,0.2,2.1,0.2c0.8,0,0.9,0,0.9-0.5V817.8z M174.1,818.1c1.3-0.8,2-1.4,2.7-2.4
			c0.6-0.9,0.9-1.9,1.1-3.3h-3.8V818.1z M179.6,812.3c0,0.4-0.1,0.5-0.1,0.8c0.4,1,1.1,1.9,1.8,2.7c0.7,0.7,1.4,1.2,2.5,1.9v-5.3
			H179.6z"/>
		<path style="&st1;" d="M195,809.9c-0.1,0.5-0.2,1.1-0.4,2c0,0.3,0,0.3-0.1,0.5c0.5,0,0.7,0,1,0c1.1,0,1.8,0.3,2.4,0.8
			c0.5,0.6,0.8,1.4,0.8,2.8c0,2.8-0.5,4.9-1.2,5.8c-0.4,0.5-0.9,0.7-1.8,0.7c-0.7,0-1.4-0.1-2.5-0.5c0-0.3,0-0.5,0-0.7
			c0-0.4,0-0.7-0.2-1.4c0.9,0.4,1.8,0.6,2.3,0.6c0.5,0,0.7-0.3,1-1.1c0.3-0.8,0.4-2.3,0.4-3.6c0-1.5-0.4-1.9-1.6-1.9
			c-0.3,0-0.6,0-1,0c-0.8,3.3-1.5,5.2-3.3,8.7l-1.9-1c1.2-1.7,2.5-4.6,3.2-7.5c-0.2,0-0.2,0-0.8,0.1l-1.5,0.2
			c-0.3,0-0.4,0.1-0.7,0.2l-0.2-1.9c0.7,0,1.6-0.1,3.4-0.3c0.3-1.8,0.4-2.7,0.4-3.2c0-0.1,0-0.2,0-0.3l2.1,0.2
			c0,0.1-0.1,0.3-0.1,0.5L195,809.9z M199.9,809.2c0.7,0.8,1.1,1.4,1.7,2.4l-1.1,0.6c-0.5-1-1-1.6-1.7-2.4L199.9,809.2z
			 M201.4,812.4c1.1,1.5,1.9,3.2,2.4,5.1l-1.8,0.9c-0.3-1.7-1.3-4-2.2-5.2L201.4,812.4z M202.4,811.2c-0.5-0.9-1-1.6-1.6-2.3
			l1.1-0.6c0.7,0.7,1.2,1.3,1.7,2.3L202.4,811.2z"/>
		<path style="&st1;" d="M206.4,811.1c0.4,0.1,0.7,0.1,1.3,0.1h2.7c0.6,0,0.9,0,1.3-0.1v1.6c-0.3,0-0.5-0.1-1.2-0.1h-2.8
			c-0.6,0-0.8,0-1.3,0.1V811.1z M215.7,817c0,0.3,0,0.5,0,0.8c-0.1,1.9-0.4,2.9-1.1,3.8c-0.6,0.8-1.4,1.3-2.6,1.9
			c-0.2-0.4-0.3-0.6-0.6-1c-0.3,0-0.6,0-0.8,0h-2.2v0.8h-1.6c0-0.5,0.1-1.1,0.1-1.6v-2.4c0-0.5,0-0.8-0.1-1.2c0.3,0,0.4,0,1.1,0h2.7
			c0.4,0,0.7,0,1,0c0,0.3,0,0.5,0,1.2v2.5c0.6-0.3,1.1-0.6,1.4-0.9c0.7-0.6,1.1-1.7,1.1-3.1c0-0.3,0-0.5-0.1-0.7L215.7,817z
			 M207,808.9c0.4,0,0.7,0.1,1.3,0.1h2c0.6,0,0.9,0,1.3-0.1v1.5c-0.4,0-0.7-0.1-1.3-0.1h-2c-0.6,0-0.9,0-1.3,0.1V808.9z M207,813.6
			c0.3,0,0.5,0,1,0h2.5c0.5,0,0.7,0,1,0v1.5c-0.3,0-0.5,0-1,0H208c-0.5,0-0.7,0-1,0V813.6z M207,815.8c0.3,0,0.5,0,1,0h2.5
			c0.5,0,0.7,0,1,0v1.5c-0.3,0-0.5,0-1,0H208c-0.5,0-0.7,0-1,0V815.8z M208.4,821h1.6v-1.6h-1.6V821z M219.4,818v-1.7h-6v1.7h-1.6
			c0-0.4,0.1-0.7,0.1-1.2v-0.9c0-0.6,0-0.8-0.1-1.2c0.2,0,0.7,0,1.5,0h6.3c0.8,0,1.1,0,1.6-0.1c0,0.3,0,0.6,0,1.1v1
			c0,0.5,0,0.8,0.1,1.1H219.4z M213.6,811.4c-0.7,0-1.1,0-1.6,0.1v-1.7c0.5,0.1,0.9,0.1,1.7,0.1h1.7v-0.2c0-0.5,0-0.8-0.1-1.2h1.8
			c-0.1,0.3-0.1,0.7-0.1,1.2v0.2h2.3c0.8,0,1.2,0,1.7-0.1v1.7c-0.5-0.1-0.8-0.1-1.6-0.1h-2.4v1.1h1.8c0.7,0,1.1,0,1.5-0.1v1.6
			c-0.4-0.1-0.8-0.1-1.5-0.1h-5.1c-0.7,0-1.1,0-1.5,0.1v-1.6c0.4,0.1,0.8,0.1,1.5,0.1h1.6v-1.1H213.6z M218.4,817
			c-0.1,0.3-0.1,0.7-0.1,1.1v3.1c0,0.3,0.1,0.4,0.7,0.4c0.5,0,0.7-0.1,0.7-0.4c0.1-0.2,0.1-0.9,0.1-1.9c0.7,0.3,1.1,0.5,1.6,0.6
			c-0.1,1.7-0.2,2.3-0.5,2.7c-0.3,0.4-0.8,0.6-2,0.6c-1.8,0-2.2-0.3-2.2-1.3v-3.7c0-0.5,0-0.8-0.1-1.1H218.4z"/>
		<path style="&st1;" d="M228.1,809.4c0,0.6,0.2,1.8,0.4,2.6c1.1-0.4,2-0.6,3.1-0.6c0.1,0,0.2,0,0.4,0c0.3-1.4,0.4-2,0.5-2.5l2,0.4
			c-0.1,0.2-0.1,0.3-0.2,0.4c-0.2,0.9-0.4,1.6-0.5,1.9c0.9,0.2,1.5,0.5,2.1,1c1.3,0.9,2,2.3,2,4c0,2.4-1.4,4.3-3.7,5.3
			c-0.8,0.3-1.4,0.5-2.6,0.8c-0.2-0.8-0.4-1.1-1-1.9c1.1-0.1,1.7-0.2,2.6-0.6c1.1-0.5,1.8-1,2.2-1.7c0.4-0.6,0.5-1.3,0.5-2
			c0-1.1-0.4-1.9-1.2-2.5c-0.4-0.3-0.8-0.5-1.4-0.7c-0.6,2.2-1.7,4.4-2.9,6c-0.6,0.7-1.3,1.4-1.9,1.8c-0.5,0.3-0.9,0.4-1.5,0.4
			c-1.6,0-2.8-1.4-2.8-3.6c0-2,0.9-3.7,2.6-4.9c-0.1-0.2-0.4-1.6-0.5-2.5c0-0.2-0.1-0.3-0.2-0.5L228.1,809.4z M226.1,817.7
			c0,1,0.4,1.8,1.1,1.8c0.4,0,1-0.4,1.5-1c-0.7-1.6-1-2.4-1.3-3.7C226.5,815.7,226.1,816.6,226.1,817.7z M229.9,816.9
			c0-0.1,0-0.1,0.1-0.2c0.6-1.1,1.1-2.1,1.6-3.7c-1.1,0-1.9,0.2-2.8,0.6c0.3,1.1,0.5,1.8,1,3C229.8,816.8,229.9,816.8,229.9,816.9
			L229.9,816.9z"/>
		<path style="&st1;" d="M246,815.4c1.5-0.6,2.2-0.7,3.4-0.7c2.7,0,4.5,1.4,4.5,3.6c0,1.5-0.8,2.7-2.2,3.5c-1,0.6-2.4,0.9-3.9,0.9
			c-1.3,0-2.5-0.3-3.1-0.7c-0.6-0.4-1-1.1-1-1.8c0-1.3,1.2-2.3,2.8-2.3c1.1,0,2.1,0.5,2.8,1.3c0.3,0.4,0.5,0.8,0.7,1.4
			c1.3-0.5,1.9-1.2,1.9-2.3c0-1.2-1.2-2.1-3.2-2.1c-2.3,0-4.7,0.9-6.6,2.7l-1.1-1.7c0.6-0.3,1.2-0.7,2.3-1.5
			c1.5-1.1,3.6-2.9,4.8-4.2c0,0,0.2-0.2,0.3-0.3l0,0c-0.6,0.1-1.6,0.1-4.5,0.3c-0.4,0-0.5,0-0.8,0.1l-0.1-1.9c0.5,0.1,1,0.1,1.9,0.1
			c1.4,0,3.3-0.1,4.9-0.2c0.6,0,0.7-0.1,1-0.2l1,1.4c-0.3,0.1-0.4,0.2-0.8,0.7c-0.8,0.7-2,1.8-2.5,2.2c-0.3,0.2-1.4,1.1-1.8,1.3
			C246.3,815.2,246.3,815.2,246,815.4L246,815.4z M246.5,819.4c-0.6,0-0.9,0.3-0.9,0.7c0,0.6,0.7,1,1.9,1c0.3,0,0.4,0,0.8-0.1
			C248,820,247.4,819.4,246.5,819.4z"/>
		<path style="&st1;" d="M264.7,808.8c-0.1,0.5-0.1,1.3-0.1,2.5c0,0.2,0,0.3,0,1c1.9,0,3.7-0.2,4.7-0.5l0.2,1.9c-0.3,0-0.3,0-1,0.1
			c-1.3,0.2-2.5,0.3-3.8,0.3c0,1.2,0.1,2,0.2,3.5c0.9,0.3,1.6,0.6,2.5,1.1c0.6,0.3,0.8,0.5,2.1,1.4c0.2,0.1,0.3,0.2,0.5,0.3
			l-1.2,1.8c-0.3-0.4-0.5-0.6-1.1-1.1c-0.8-0.6-1.3-0.9-2.1-1.3c-0.2-0.1-0.3-0.2-0.5-0.3c0,0.1,0,0.3,0,0.5c0,1.8-1.3,2.7-3.6,2.7
			c-1.6,0-2.8-0.5-3.4-1.4c-0.2-0.4-0.4-0.9-0.4-1.4c0-1.7,1.6-2.9,4-2.9c0.6,0,1.2,0.1,1.5,0.2c0,0,0,0,0-0.2
			c-0.1-0.6-0.2-4.9-0.2-6.9c0-0.8,0-1-0.1-1.4L264.7,808.8z M261.4,818.9c-1.2,0-2,0.5-2,1.2c0,0.4,0.2,0.6,0.5,0.8
			c0.3,0.1,0.7,0.2,1.2,0.2c0.6,0,1.1-0.2,1.5-0.4c0.2-0.2,0.3-0.5,0.3-0.9c0-0.3,0-0.7,0-0.8C262.3,818.9,262,818.9,261.4,818.9z"
			/>
		<path style="&st1;" d="M273.6,814c0.4,0,0.4,0,1.9-0.3c2.3-0.4,3.7-0.5,5-0.5c1.3,0,2.3,0.2,3,0.7c1,0.6,1.6,1.7,1.6,2.9
			c0,1.8-1.1,3.5-3,4.6c-1.3,0.8-2.4,1.1-5,1.5c-0.2-0.8-0.3-1.2-0.8-2c1.9-0.1,3.6-0.5,4.8-1.2c1.3-0.7,2-1.7,2-2.8
			c0-1.2-0.8-1.8-2.5-1.8c-1.8,0-5,0.6-6.3,1.1L273.6,814z M276.1,808.9c1.8,0.6,4.1,0.9,6.7,0.9c0.1,0,0.3,0,0.4,0l-0.3,2
			c-2.9-0.1-5.1-0.4-7.5-1L276.1,808.9z"/>
	</g>
	<g style="&st0;">
		<path style="&st1;" d="M113.4,840.5c-0.7,0-1.2,0-1.8,0.1v-1.7c0.5,0.1,1,0.1,1.8,0.1h10.7c0.8,0,1.4,0,1.9-0.1v1.7
			c-0.6-0.1-1.1-0.1-1.7-0.1h-2.8c1.3,0.8,2.5,1.1,4.7,1.4c-0.5,0.6-0.8,1-1.1,1.5c-2.1-0.5-3.4-1-5-2l1-1h-4.4l1,1
			c-1.6,1-3.1,1.6-5,2c-0.3-0.6-0.5-1-1-1.5c1.9-0.3,3.2-0.7,4.6-1.4H113.4z M117.9,829.6c0-0.5,0-0.7-0.1-1.1h2
			c-0.1,0.4-0.1,0.5-0.1,1.1h4.2c0.9,0,1.4,0,2-0.1v1.6c-0.6-0.1-1.1-0.1-2-0.1h-4.2v0.6h2.6c0.9,0,1.4,0,1.9-0.1
			c0,0.5-0.1,0.9-0.1,1.8v3.2c0,0.9,0,1.3,0.1,1.8c-0.6,0-1.1,0-1.9,0h-6.9c-0.8,0-1.4,0-1.9,0c0-0.5,0.1-1,0.1-1.8v-3.2
			c0-0.8,0-1.3-0.1-1.8c0.6,0,1,0.1,1.9,0.1h2.5v-0.6h-4.1c-0.9,0-1.4,0-2,0.1v-1.6c0.5,0.1,1.1,0.1,2,0.1H117.9z M115.3,833.6h7.2
			V833h-7.2V833.6z M115.3,835.4h7.2v-0.6h-7.2V835.4z M115.3,837.1h7.2v-0.6h-7.2V837.1z"/>
		<path style="&st1;" d="M137,840.9h4.6c0.8,0,1.6,0,2.2-0.1v1.9c-0.7-0.1-1.3-0.1-2.1-0.1h-10.2c-0.8,0-1.5,0-2.2,0.1v-1.9
			c0.6,0.1,1.3,0.1,2.2,0.1h3.6v-10.3c0-0.7,0-1.2-0.1-1.8h2.1c-0.1,0.6-0.1,1.1-0.1,1.8v2.7h3.8c0.7,0,1.3,0,1.9-0.1v1.9
			c-0.6-0.1-1.2-0.1-1.9-0.1H137V840.9z"/>
		<path style="&st1;" d="M152.7,829.1c0,0.1-0.1,0.3-0.1,0.5c0,0.2,0,0.3-0.1,0.5c0,0.3,0,0.3-0.3,1.5c-0.1,0.4-0.1,0.4-0.1,0.6
			c0.5,0,0.7,0,1,0c1.1,0,1.8,0.3,2.4,0.8c0.5,0.6,0.8,1.4,0.8,2.8c0,2.8-0.5,4.9-1.2,5.8c-0.4,0.5-0.9,0.7-1.8,0.7
			c-0.7,0-1.4-0.1-2.5-0.5c0-0.3,0-0.5,0-0.7c0-0.4,0-0.7-0.2-1.4c0.9,0.4,1.8,0.6,2.3,0.6c0.5,0,0.7-0.3,1-1.1
			c0.3-0.8,0.4-2.3,0.4-3.7c0-1.5-0.4-1.9-1.6-1.9c-0.3,0-0.6,0-0.9,0c-0.5,2-0.6,2.4-1,3.5c-0.6,1.6-1,2.6-1.9,4.5
			c-0.1,0.2-0.1,0.2-0.2,0.5c0,0.1,0,0.1-0.1,0.3l-1.9-1c0.5-0.6,1.1-1.8,1.7-3c0.7-1.6,0.9-2.2,1.6-4.5c-0.8,0.1-2.3,0.4-2.9,0.5
			l-0.2-1.9c0.6,0,2.5-0.2,3.4-0.3c0.3-1.7,0.4-2.7,0.4-3.2c0-0.1,0-0.2,0-0.3L152.7,829.1z M158,831.1c1.6,1.9,2.6,3.8,3.3,6.2
			l-1.8,0.9c-0.3-1.4-0.7-2.4-1.3-3.6c-0.6-1.2-1.1-1.9-1.8-2.7L158,831.1z"/>
		<path style="&st1;" d="M167.6,832.1c-0.2,0.9-0.5,2.4-0.7,3.9c0,0.2,0,0.2-0.1,0.5l0,0c0.9-0.9,2.9-1.5,4.9-1.5
			c2.7,0,4.5,1.3,4.5,3.4c0,1.2-0.6,2.4-1.6,3.1c-1,0.8-2.4,1.1-4.2,1.1c-1.4,0-2.3-0.1-4.1-0.6c0-1,0-1.3-0.2-2.1
			c1.6,0.5,2.9,0.8,4.3,0.8c2.3,0,3.8-0.9,3.8-2.3c0-1.1-1-1.7-2.7-1.7c-1.4,0-2.9,0.4-4,1.2c-0.3,0.2-0.4,0.3-0.7,0.7l-2-0.1
			c0-0.3,0-0.4,0.1-1c0.1-1,0.4-2.8,0.7-4.7c0.1-0.4,0.1-0.6,0.1-0.9L167.6,832.1z M167.8,828.9c1.1,0.6,4.2,1.5,6,1.8l-0.7,1.8
			c-2.7-0.6-4.4-1.2-6.2-2L167.8,828.9z"/>
		<path style="&st1;" d="M180.8,833.1c-0.4,0-0.7,0-1.1,0.1v-1.7c0.4,0.1,0.6,0.1,1.1,0.1h0.5v-1.3c0-0.8,0-1.2-0.1-1.6h1.8
			c-0.1,0.5-0.1,0.8-0.1,1.6v1.3h0.5c0.3,0,0.5,0,0.8,0v1.6c-0.3,0-0.5,0-0.8,0H183v2.7c0.4-0.1,0.5-0.1,0.8-0.2v-1.4
			c0.5,0.1,0.8,0.1,1.5,0.1h7.5c0.7,0,1.2,0,1.6-0.1v1.5c-0.4-0.1-0.8-0.1-1.6-0.1h-4v6.3c0.7-0.4,1.2-0.8,1.8-1.4
			c-0.5-0.7-0.8-1.1-1.3-2.2l1.2-0.6h-0.3c-0.5,0-0.7,0-1,0v-1.5c0.4,0,0.6,0,1.2,0h1.9c0.5,0,0.8,0,1.1,0l0.7,0.8
			c-0.1,0.3-0.1,0.3-0.3,0.6c-0.4,1.1-0.7,1.9-1.3,2.7c0.7,0.6,1.3,1,2.2,1.3c-0.4,0.5-0.7,0.9-0.9,1.5c-0.9-0.6-1.4-1-2.1-1.6
			c-0.6,0.6-1.3,1.2-1.9,1.6c-0.3-0.6-0.5-0.9-0.9-1.2c0,0.6,0,0.9,0.1,1.3h-1.6c0.1-0.6,0.1-1,0.1-1.6v-0.2
			c-0.6,0.2-1.7,0.4-2.7,0.6c-0.4,0.1-0.7,0.2-0.9,0.2l-0.2-1.6c0,0,0.1,0,0.1,0c0.2,0,0.3,0,0.9-0.1v-5.1c-0.2,0-0.3,0-0.5,0v1.3
			c-0.4,0.2-0.6,0.2-1,0.3v4.4c0,1.2-0.4,1.6-1.8,1.6c-0.2,0-0.6,0-1.1,0c-0.1-0.7-0.1-1-0.4-1.6c0.6,0.1,0.8,0.1,1.2,0.1
			c0.3,0,0.4-0.1,0.4-0.4v-3.4c-1.1,0.3-1.2,0.3-1.5,0.4l-0.3-1.7c0.4,0,0.4,0,1.8-0.3v-3.1H180.8z M186.3,833.8c-0.6,0-1.1,0-1.5,0
			c0-0.5,0.1-1.1,0.1-1.6v-1.9c0-0.5,0-0.8-0.1-1.3c0.4,0,0.8,0.1,1.5,0.1h5.3c0.8,0,1.1,0,1.5-0.1c0,0.5-0.1,0.8-0.1,1.4v1.9
			c0,0.5,0,1.2,0.1,1.6c-0.4,0-0.8,0-1.4,0H186.3z M187.4,836.4v-0.8h-1.7v0.8H187.4z M187.4,838.4v-0.8h-1.7v0.8H187.4z
			 M185.7,840.6c1-0.2,1-0.2,1.7-0.3v-0.7h-1.7V840.6z M186.6,830.9h4.9v-0.6h-4.9V830.9z M186.6,832.6h4.9V832h-4.9V832.6z
			 M190.6,837.8c0.4,0.9,0.5,1.2,0.9,1.7c0.4-0.6,0.5-1,0.7-1.7H190.6z"/>
		<path style="&st1;" d="M200.2,840.1c-0.6,1.4-1,1.9-2,2.9c-0.4-0.4-0.7-0.7-1.2-1.1c0.9-0.8,1.3-1.4,1.8-2.4L200.2,840.1z
			 M199.4,833.6c-0.7,0-1.1,0-1.4,0c0-0.4,0.1-0.8,0.1-1.3v-2c0-0.6,0-0.9-0.1-1.3c0.4,0,0.8,0.1,1.6,0.1h4.4c0.7,0,1.2,0,1.6-0.1
			c0,0.4-0.1,0.6-0.1,1.4v2c0,0.6,0,0.9,0.1,1.3c-0.3,0-0.8,0-1.4,0h-1.5v0.8h1.9c0.8,0,1.2,0,1.6-0.1v1.6c-0.4-0.1-0.8-0.1-1.6-0.1
			h-5.7c-0.8,0-1.2,0-1.6,0.1v-1.6c0.4,0.1,0.8,0.1,1.6,0.1h2.1v-0.8H199.4z M199.4,839.3c-0.6,0-0.9,0-1.2,0c0-0.3,0.1-0.6,0.1-1
			v-1.1c0-0.4,0-0.6-0.1-1c0.3,0,0.5,0,1.2,0h4.5c0.7,0,0.9,0,1.2,0c0,0.3,0,0.6,0,1v1.1c0,0.3,0,0.7,0,1c-0.3,0-0.6,0-1.2,0h-1.4
			v2.6c0,0.5-0.1,0.9-0.4,1.1c-0.2,0.2-0.7,0.2-1.4,0.2c-0.2,0-0.4,0-0.9,0c-0.1-0.6-0.2-1.1-0.4-1.6c0.4,0.1,0.8,0.2,1.1,0.2
			c0.3,0,0.3-0.1,0.3-0.3v-2.2H199.4z M199.7,830.7h4.1v-0.6h-4.1V830.7z M199.7,832.4h4.1v-0.6h-4.1V832.4z M199.9,838.3h3.6v-0.8
			h-3.6V838.3z M204.4,842.7c-0.4-1-0.8-1.7-1.4-2.6l1.2-0.5c0.5,0.7,0.8,1.1,1.2,1.9c1.4-0.7,2.7-1.5,4-2.8c0.5-0.5,1-1,1.3-1.5
			l1.4,1.2c-0.6,0.5-0.6,0.5-0.9,0.9c-1.8,1.9-3.1,2.8-5.2,3.9c-0.2-0.5-0.4-0.6-0.7-1.1L204.4,842.7z M211.8,833.9
			c-0.2,0.2-0.4,0.3-0.6,0.6c-1.5,1.6-2.8,2.6-4.7,3.6c-0.3-0.6-0.6-1.1-1-1.6c1.3-0.5,2.5-1.4,3.7-2.4c0.7-0.6,1-0.9,1.2-1.3
			L211.8,833.9z M211.4,829.7c0,0-0.4,0.4-1.2,1.1c-1.4,1.2-2,1.7-3.6,2.6c-0.3-0.6-0.6-1-1-1.5c1.3-0.6,2.2-1.2,3.2-2
			c0.6-0.5,0.8-0.7,1.2-1.3L211.4,829.7z"/>
		<path style="&st1;" d="M218.6,829.2c-0.1,0.5-0.1,0.9-0.2,2.2c-0.1,1.5-0.2,4.7-0.2,5.9c0,1.5,0.1,2.1,0.4,2.6
			c0.4,0.5,1.1,0.8,2.1,0.8c1.7,0,3.1-1,3.9-2.7c0.4-0.8,0.6-1.6,0.7-2.7c0.9,0.7,1.2,0.9,1.9,1.2c-0.6,2.2-1.1,3.2-1.9,4.1
			c-1.2,1.4-2.8,2-4.8,2c-1.1,0-2.1-0.3-2.8-0.7c-1.1-0.7-1.6-2-1.6-4.1c0-0.8,0-2.4,0.1-6.5c0-0.5,0-0.8,0-1c0-0.4,0-0.7-0.1-1.1
			L218.6,829.2z"/>
		<path style="&st1;" d="M229.7,830.9c0.4,0,0.5,0,0.6,0c0.3,0,0.3,0,2.6-0.2c0.9,0,3.6-0.2,8-0.4c1.3-0.1,1.6-0.1,1.8-0.2l0.1,2
			c-0.2,0-0.2,0-0.3,0c-1,0-2.1,0.3-3.2,0.9c-2,1.1-3.2,2.7-3.2,4.3c0,1.2,0.8,2.2,2.1,2.6c0.8,0.2,1.8,0.4,2.4,0.4c0,0,0.2,0,0.3,0
			l-0.3,2.2c-0.2,0-0.3-0.1-0.5-0.1c-1.8-0.2-2.8-0.5-3.7-1.1c-1.5-0.8-2.3-2.2-2.3-3.9c0-1.4,0.5-2.7,1.5-3.8
			c0.6-0.7,1.2-1.1,2.2-1.6c-1.3,0.2-1.9,0.2-5.4,0.5c-1.1,0.1-2,0.2-2.7,0.3L229.7,830.9z"/>
		<path style="&st1;" d="M255.1,830.1c-0.3,0.2-0.6,0.5-2,1.8c-0.8,0.8-1.9,1.6-3.8,3.1c-0.5,0.4-0.6,0.5-0.6,0.7
			c0,0.2,0,0.3,1.4,1.3c2.5,1.9,3,2.3,5,4.2c0.2,0.2,0.3,0.2,0.5,0.4l-1.6,1.7c-0.4-0.6-1-1.2-2.1-2.2c-1.1-1.1-1.7-1.5-4.1-3.4
			c-1.1-0.8-1.3-1.2-1.3-2c0-0.5,0.2-0.9,0.5-1.3c0.2-0.2,0.2-0.2,1.4-1.2c1.7-1.3,2.6-2.1,3.7-3.1c0.7-0.7,0.9-0.9,1.2-1.3
			L255.1,830.1z"/>
		<path style="&st1;" d="M260.1,831.5c0.6,0.1,1.2,0.1,2.1,0.1c0.2,0,0.4,0,0.7,0c0.1-0.8,0.3-2,0.3-2.4c0-0.1,0-0.2,0-0.3l2.1,0.2
			c-0.1,0.4-0.1,0.4-0.3,1.2c0,0.2-0.1,0.4-0.1,0.7c0,0.1,0,0.2-0.1,0.5c1-0.1,2-0.3,2.7-0.5l0.1,1.8c-0.1,0-0.1,0-0.1,0l-0.4,0.1
			c-1.1,0.2-2.2,0.3-2.6,0.3c-0.6,3.1-1.4,5.8-2.8,9.4l-2-0.8c1-1.9,2.3-5.7,2.9-8.6c-0.1,0-0.1,0-0.2,0l-0.4,0h-0.8
			c0,0-0.2,0-0.4,0c-0.2,0-0.5,0-0.6,0c-0.1,0-0.2,0-0.3,0L260.1,831.5z M268,837.7c-0.6,0.8-0.8,1.2-0.8,1.8c0,0.8,0.8,1.2,2.4,1.2
			c1.2,0,2.7-0.3,3.6-0.6l0.1,2c-0.3,0-0.4,0-0.8,0.1c-1.3,0.2-2,0.3-3,0.3c-1.4,0-2.4-0.2-3.2-0.6c-0.7-0.4-1.1-1.2-1.1-2
			c0-0.8,0.3-1.6,1.2-2.8L268,837.7z M272.8,835.6c-0.8-0.1-1.2-0.1-2-0.1c-1.6,0-2.6,0.1-4.2,0.5l-0.1-1.8c2.3-0.4,3-0.5,4.8-0.5
			c0.5,0,0.8,0,1.6,0L272.8,835.6z M270.1,829.3c0.7,0.8,1.1,1.4,1.7,2.4l-1.1,0.6c-0.5-1-1-1.6-1.7-2.4L270.1,829.3z M272.6,831.3
			c-0.5-0.9-1-1.6-1.6-2.3l1.1-0.6c0.7,0.7,1.2,1.3,1.7,2.3L272.6,831.3z"/>
		<path style="&st1;" d="M277.2,831.9c0.5,0.1,0.9,0.1,1.6,0.1c1.2,0,3.3-0.1,4.3-0.3c-0.3-0.7-1-2.4-1-2.5l2.1-0.3
			c0.1,0.5,0.4,1.4,0.9,2.6c1.6-0.3,3.1-0.6,3.9-0.9l0.2,1.9c-0.4,0.1-0.6,0.1-1.1,0.2c-0.2,0.1-1,0.2-2.4,0.5
			c0.6,1.1,0.9,1.7,1.1,2c0.4,0.7,1.1,1.8,1.7,2.5l-1.9,0.8c-0.4-0.4-0.7-0.5-1.1-0.7c-0.7-0.2-1.6-0.4-2.5-0.4
			c-2.2,0-3.5,0.7-3.5,1.8c0,1,1.2,1.6,3.4,1.6c1.7,0,3.6-0.4,4.8-1.1l0.3,2c-2,0.6-3.5,0.9-5.1,0.9c-2,0-3.6-0.4-4.5-1.2
			c-0.6-0.6-0.9-1.4-0.9-2.2c0-0.9,0.4-1.8,1.2-2.4c0.9-0.8,2.3-1.2,4.1-1.2c1,0,2,0.2,2.8,0.5c-0.7-0.9-0.7-0.9-1.7-2.9
			c-1.4,0.2-3.8,0.4-5.7,0.4c-0.4,0-0.5,0-0.7,0L277.2,831.9z"/>
		<path style="&st1;" d="M295.4,830.2c-0.1,0.6-0.1,1.4-0.1,2.4c0,1.4,0.1,3.3,0.3,4.3c0.3,1.7,0.8,2.7,1.3,2.7
			c0.2,0,0.5-0.2,0.7-0.7c0.4-0.9,0.7-1.8,0.8-2.9c0.6,0.6,0.8,0.9,1.6,1.5c-0.8,3.1-1.8,4.4-3.1,4.4c-1.1,0-1.9-0.8-2.6-2.3
			c-0.7-1.6-0.9-3.9-1-8.4c0-0.6,0-0.7-0.1-1H295.4z M303,831c2,2.4,3.1,5.1,3.6,8.6l-2,0.8c-0.1-1.5-0.5-3.2-1-4.6
			c-0.5-1.5-1.3-2.8-2.3-3.9L303,831z"/>
	</g>
	<ellipse style="&st1;" cx="87.5" cy="827" rx="16.5" ry="17"/>
	<g style="&st0;">
		<path style="&st2;" d="M86.9,831.4c-0.1-4.6-0.4-7-1.7-12.7c-0.1-0.5-0.2-1-0.2-1.4c0-1.2,0.8-1.7,2.4-1.7c1.7,0,2.4,0.5,2.4,1.7
			c0,0.6,0,0.6-0.6,3.5c-0.7,3.3-1.1,6.7-1.2,10.6H86.9z M89.9,835.8c0,1.3-1.1,2.4-2.4,2.4s-2.4-1.1-2.4-2.4c0-1.3,1.1-2.4,2.4-2.4
			C88.8,833.4,89.9,834.5,89.9,835.8z"/>
	</g>
</g>
</svg>
