<?xml version="1.0" encoding="utf-8"?>
<!-- Generator: Adobe Illustrator 26.5.0, SVG Export Plug-In . SVG Version: 6.00 Build 0)  -->
<!DOCTYPE svg PUBLIC "-//W3C//DTD SVG 1.1//EN" "http://www.w3.org/Graphics/SVG/1.1/DTD/svg11.dtd" [
	<!ENTITY st0 "enable-background:new    ;">
	<!ENTITY st1 "fill:#D20000;">
	<!ENTITY st2 "fill:#FFFFFF;">
]>
<svg version="1.1" fill="none" xmlns="http://www.w3.org/2000/svg" xmlns:xlink="http://www.w3.org/1999/xlink" viewBox="0 0 732 48">
<g transform="translate(-299 -1549)">
	<g style="&st0;">
		<path style="&st1;" d="M373.7,1573.6c-0.6,1.9-1,2.8-1.7,4.1c-0.8,1.5-1.4,2.3-2.7,3.6c-1-1-1.5-1.4-2.7-2c1-1,1.5-1.5,2-2.3
			c1-1.5,1.5-2.5,2-4.5L373.7,1573.6z M370.6,1571.5c-1.3,0-2.4,0.1-3.4,0.2v-3.3c0.8,0.1,1.9,0.2,3.4,0.2h7.7v-2.9h-5.7
			c-1.3,0-2.3,0.1-3.2,0.2v-3.3c0.8,0.1,1.8,0.2,3.2,0.2h5.7v-0.5c0-1.2,0-1.9-0.2-2.6h3.7c-0.1,0.4-0.2,1.3-0.2,2.6v0.5h6.2
			c1.5,0,2.4-0.1,3.2-0.2v3.3c-1-0.1-1.9-0.2-3.2-0.2h-6.2v2.9h8.3c1.5,0,2.6-0.1,3.4-0.2v3.3c-0.9-0.1-2-0.2-3.4-0.2H385v11.7
			c0,1-0.2,1.7-0.8,2.2c-0.6,0.5-1.3,0.7-2.8,0.7c-0.7,0-1.9,0-3.2-0.1c-0.1-1-0.3-1.9-0.7-3.2c1.2,0.2,2.1,0.3,3,0.3
			c1.1,0,1.3-0.1,1.3-0.8v-10.8H379c-0.1,4-0.5,6.1-1.3,8.1c-0.7,1.7-1.8,3.1-3.2,4.4c-1.1,1-2,1.6-4,2.6c-0.8-1.3-1.4-2-2.3-2.7
			c3.4-1.5,5.1-2.9,6.3-5.3c0.8-1.7,1.1-3.5,1.2-7L370.6,1571.5L370.6,1571.5z M389.4,1572.6c0.6,1.9,1,2.9,1.7,4.4
			c0.8,1.5,1.3,2.2,2.5,3.8c-1.1,0.6-1.8,1.1-3,2c-2.2-3.5-3.1-5.3-4.3-9.1L389.4,1572.6z"/>
		<path style="&st1;" d="M415.6,1565.9c-0.9,4-2.5,6.3-5.9,8.5c-0.5-0.8-0.7-1-1.2-1.6c-0.1,0.3-0.4,0.9-0.9,1.9
			c-1-1.3-1.2-1.7-1.9-3.2c0.1,0.7,0.1,0.7,0.1,1.5c0,0.3,0,0.3,0,0.8l0.1,0.8v8.4c0,1.5,0.1,2.7,0.2,3.6h-3.3
			c0.1-0.9,0.2-2.1,0.2-3.6v-6c0-1.1,0.1-2.8,0.2-3.9c-0.8,3.2-1.6,5.2-2.8,7c-0.6-1.8-0.7-1.9-1.6-3.2c1.6-2.2,3-5.5,3.9-9.1h-1.2
			c-1,0-1.5,0-2.1,0.1v-3.1c0.6,0.1,1.1,0.1,2.1,0.1h1.5v-2.2c0-1.2-0.1-2.1-0.2-3h3.4c-0.1,0.8-0.2,1.7-0.2,3v2.3h1.1
			c0.8,0,1.2,0,1.8-0.1v3c-0.5-0.1-0.9-0.1-1.5-0.1h-1.2c0.6,1.4,1.4,2.6,2.7,3.9c2.1-1.2,3.4-2.9,4-5.5h-0.6c-1.3,0-2,0-2.8,0.1
			v-3.1c0.8,0.1,1.6,0.1,3,0.1h0.8c0.1-1,0.1-1.2,0.1-1.6c0-0.9,0-1.4-0.1-1.9h3.3c-0.1,0.4-0.1,0.8-0.1,1.8c0,0.6-0.1,0.9-0.1,1.7
			h2.8c1,0,1.7,0,2.5-0.1c-0.1,0.6-0.1,1.1-0.1,2.1v4.8c0,0.3,0.2,0.4,0.7,0.4c0.4,0,0.7-0.1,0.8-0.3c0.1-0.3,0.2-1.3,0.2-2.6
			c0-0.1,0-0.4,0-0.6c1.1,0.6,1.8,0.8,2.8,1c-0.2,4.8-0.6,5.2-4,5.2c-2.7,0-3.4-0.4-3.4-2v-5.1h-3.1V1565.9z M414.7,1574.6
			c0-1.2,0-1.9-0.1-2.5h3.5c-0.1,0.7-0.1,1.3-0.1,2.4v1.4h4.4c1.5,0,2.3-0.1,3.2-0.2v3.2c-0.9-0.1-1.8-0.2-3.2-0.2h-4.3v4.2
			c0,1.4,0.1,2.6,0.2,3.5h-3.5c0.1-1,0.2-2.1,0.2-3.6v-4.1h-3.3c-1.4,0-2.3,0.1-3.3,0.2v-3.2c0.9,0.1,1.7,0.2,3.2,0.2h3.3v-1.3
			H414.7z"/>
		<path style="&st1;" d="M452.8,1576.4c-0.7,0.8-1.3,1.6-1.9,2.7c-3-2-5.5-4.6-7-7.4c-0.4,1.1-0.8,1.9-1.4,2.8
			c-1.4,2.1-2.9,3.5-5.5,5.1c-0.4-0.8-1-1.6-1.9-2.4v5.6c0,1.8,0,2.7,0.1,3.5h-3.6c0.1-1,0.2-2.1,0.2-3.5v-16.5c0-1.2,0-2-0.1-2.8
			c1,0.1,1.9,0.1,3.4,0.1h7.1c0-0.7,0-1.1,0-1.6c0-1.2-0.1-1.8-0.2-2.6h3.6c-0.1,0.5-0.1,0.8-0.2,1.5c0,0.4,0,0.4-0.1,1.6
			c0,0.6,0,0.6-0.1,1.1h7.4c1.6,0,2.3,0,3.3-0.1c-0.1,0.8-0.1,1.6-0.1,2.8v16.6c0,1.2-0.1,1.7-0.4,2.1c-0.6,0.8-1.7,1-4.4,1
			c-0.8,0-1.7,0-2.8-0.1c-0.2-1.5-0.4-2.2-0.9-3.3c1.5,0.2,2.6,0.3,3.8,0.3c1.4,0,1.6-0.1,1.6-0.9v-5.6H452.8z M435.1,1576.9
			c2.3-1.4,3.7-2.6,4.8-4.4c1-1.6,1.7-3.5,2.1-6h-6.9V1576.9z M445.1,1566.5c-0.1,0.7-0.1,0.9-0.2,1.4c0.8,1.8,2,3.5,3.3,4.8
			c1.2,1.3,2.6,2.3,4.6,3.4v-9.6L445.1,1566.5L445.1,1566.5z"/>
		<path style="&st1;" d="M473,1562c-0.1,0.8-0.3,2-0.6,3.6c-0.1,0.5-0.1,0.5-0.2,0.9c0.9,0,1.3-0.1,1.8-0.1c1.9,0,3.3,0.5,4.3,1.5
			c1,1.1,1.4,2.5,1.4,5.1c0,5-0.8,9-2.2,10.6c-0.8,1-1.7,1.3-3.2,1.3c-1.3,0-2.5-0.2-4.5-0.9c0-0.6,0.1-1,0.1-1.3
			c0-0.8-0.1-1.3-0.3-2.5c1.6,0.7,3.2,1.2,4.2,1.2c0.8,0,1.3-0.6,1.7-2c0.5-1.5,0.8-4.1,0.8-6.6c0-2.7-0.7-3.5-2.9-3.5
			c-0.6,0-1.1,0-1.7,0.1c-1.4,5.9-2.7,9.5-5.9,15.8l-3.4-1.9c2.2-3,4.5-8.3,5.8-13.7c-0.4,0.1-0.4,0.1-1.4,0.2l-2.6,0.4
			c-0.5,0.1-0.8,0.2-1.2,0.3l-0.3-3.4c1.3,0,2.8-0.2,6.2-0.6c0.6-3.2,0.8-4.9,0.8-5.9c0-0.1,0-0.3,0-0.5l3.8,0.4
			c-0.1,0.2-0.2,0.6-0.2,0.9L473,1562z M481.8,1560.9c1.3,1.4,2.1,2.5,3,4.3l-2,1.1c-1-1.8-1.8-2.9-3-4.3L481.8,1560.9z
			 M484.5,1566.6c2,2.8,3.5,5.9,4.4,9.2l-3.3,1.7c-0.6-3-2.4-7.3-4-9.4L484.5,1566.6z M486.3,1564.4c-0.9-1.6-1.8-3-3-4.2l1.9-1
			c1.3,1.3,2.1,2.4,3,4.1L486.3,1564.4z"/>
		<path style="&st1;" d="M493.7,1564.3c0.7,0.1,1.2,0.1,2.3,0.1h5c1.1,0,1.7,0,2.3-0.1v3c-0.6-0.1-1-0.1-2.2-0.1H496
			c-1,0-1.5,0-2.3,0.1V1564.3z M510.5,1574.9c0,0.5-0.1,0.9-0.1,1.4c-0.2,3.5-0.7,5.3-2,6.9c-1.1,1.4-2.5,2.4-4.7,3.4
			c-0.4-0.8-0.6-1.1-1-1.7c-0.6-0.1-1-0.1-1.4-0.1h-4v1.5h-2.8c0.1-0.9,0.1-2,0.1-2.8v-4.4c0-0.9,0-1.5-0.1-2.2
			c0.6,0.1,0.8,0.1,1.9,0.1h4.8c0.8,0,1.2,0,1.7-0.1c-0.1,0.5-0.1,0.9-0.1,2.1v4.6c1.1-0.6,2-1.1,2.6-1.7c1.2-1.1,1.9-3.1,1.9-5.7
			c0-0.5,0-0.9-0.1-1.3L510.5,1574.9z M494.7,1560.3c0.7,0.1,1.2,0.1,2.3,0.1h3.5c1.1,0,1.6,0,2.3-0.1v2.8c-0.7-0.1-1.3-0.1-2.3-0.1
			H497c-1,0-1.7,0-2.3,0.1V1560.3z M494.7,1568.7c0.6,0.1,0.9,0.1,1.8,0.1h4.6c0.9,0,1.3,0,1.8-0.1v2.7c-0.6-0.1-0.9-0.1-1.8-0.1
			h-4.6c-0.9,0-1.3,0-1.8,0.1V1568.7z M494.7,1572.8c0.6,0.1,0.9,0.1,1.8,0.1h4.6c0.9,0,1.3,0,1.8-0.1v2.7c-0.6-0.1-0.9-0.1-1.8-0.1
			h-4.6c-0.9,0-1.3,0-1.8,0.1V1572.8z M497.3,1582.2h3v-2.9h-3V1582.2z M517.2,1576.8v-3.1h-10.9v3.1h-2.9c0.1-0.7,0.1-1.3,0.1-2.1
			v-1.7c0-1,0-1.5-0.1-2.1c0.3,0,1.2,0.1,2.6,0.1h11.4c1.4,0,2.1,0,2.8-0.1c-0.1,0.6-0.1,1.1-0.1,2.1v1.9c0,0.9,0,1.5,0.1,2.1h-3
			V1576.8z M506.7,1564.8c-1.3,0-2.1,0-2.8,0.1v-3c0.9,0.1,1.6,0.2,3,0.2h3.2v-0.4c0-0.9-0.1-1.5-0.2-2.2h3.3
			c-0.1,0.6-0.2,1.3-0.2,2.2v0.3h4.1c1.5,0,2.2,0,3.1-0.2v3c-0.8-0.1-1.5-0.1-2.8-0.1H513v2.1h3.3c1.2,0,1.9,0,2.8-0.1v2.9
			c-0.8-0.1-1.5-0.1-2.8-0.1h-9.2c-1.3,0-1.9,0-2.8,0.1v-2.9c0.8,0.1,1.5,0.1,2.8,0.1h2.9v-2.1L506.7,1564.8L506.7,1564.8z
			 M515.3,1574.9c-0.1,0.6-0.2,1.2-0.2,2.1v5.6c0,0.6,0.2,0.7,1.2,0.7c0.8,0,1.2-0.2,1.3-0.7c0.1-0.4,0.2-1.7,0.2-3.4
			c1.2,0.6,1.9,0.9,2.8,1c-0.2,3-0.4,4.1-0.9,4.8c-0.5,0.7-1.5,1-3.5,1c-3.2,0-4-0.5-4-2.4v-6.7c0-0.9,0-1.5-0.1-2.1L515.3,1574.9
			L515.3,1574.9z"/>
		<path style="&st1;" d="M533,1561.2c0,1.1,0.3,3.2,0.7,4.7c2-0.8,3.7-1.2,5.6-1.2c0.2,0,0.4,0,0.8,0c0.6-2.5,0.8-3.5,0.8-4.5
			l3.7,0.7c-0.2,0.3-0.2,0.6-0.3,0.8c-0.4,1.6-0.8,3-0.9,3.4c1.7,0.4,2.8,0.9,3.9,1.7c2.3,1.7,3.5,4.2,3.5,7.2
			c0,4.3-2.5,7.7-6.8,9.5c-1.4,0.6-2.5,0.9-4.7,1.4c-0.4-1.5-0.7-1.9-1.8-3.4c2-0.2,3.1-0.4,4.7-1.1c2-0.8,3.3-1.9,4.1-3.1
			c0.6-1.1,1-2.3,1-3.6c0-1.9-0.7-3.4-2.1-4.5c-0.8-0.6-1.4-0.9-2.6-1.2c-1.2,4-3.2,8.1-5.3,10.8c-1,1.3-2.3,2.5-3.5,3.2
			c-0.9,0.6-1.7,0.8-2.7,0.8c-3,0-5-2.6-5-6.5c0-3.6,1.6-6.6,4.6-8.9c-0.1-0.4-0.7-3-1-4.6c-0.1-0.4-0.1-0.6-0.3-1L533,1561.2z
			 M529.3,1576.3c0,1.9,0.8,3.2,2,3.2c0.8,0,1.7-0.6,2.7-1.9c-1.3-2.9-1.8-4.3-2.4-6.7C530,1572.6,529.3,1574.2,529.3,1576.3z
			 M536.2,1574.7c0.1-0.2,0.1-0.2,0.2-0.4c1.2-2,1.9-3.8,2.9-6.7c-2,0-3.5,0.3-5,1.2c0.5,2,0.8,3.2,1.7,5.5
			C536.1,1574.5,536.1,1574.6,536.2,1574.7L536.2,1574.7z"/>
		<path style="&st1;" d="M565.4,1572c2.6-1,3.9-1.3,6.1-1.3c5,0,8.2,2.6,8.2,6.5c0,2.8-1.4,5-3.9,6.4c-1.9,1.1-4.4,1.7-7,1.7
			c-2.4,0-4.5-0.5-5.6-1.3s-1.7-2-1.7-3.3c0-2.4,2.1-4.1,5-4.1c2,0,3.8,0.8,5,2.4c0.6,0.7,0.9,1.4,1.3,2.6c2.4-0.9,3.5-2.1,3.5-4.2
			c0-2.3-2.2-3.7-5.7-3.7c-4.2,0-8.5,1.7-12,4.9l-2-3.1c1-0.5,2.2-1.3,4.1-2.7c2.7-2.1,6.5-5.3,8.7-7.5c0.1-0.1,0.3-0.3,0.5-0.5l0,0
			c-1.1,0.1-3,0.3-8.2,0.5c-0.6,0-0.8,0.1-1.4,0.1l-0.1-3.5c1,0.1,1.8,0.2,3.4,0.2c2.5,0,6-0.1,8.8-0.3c1-0.1,1.3-0.1,1.8-0.4
			l1.8,2.6c-0.5,0.3-0.7,0.4-1.5,1.2c-1.5,1.3-3.6,3.2-4.6,4.1c-0.5,0.4-2.6,2-3.2,2.4C565.9,1571.7,565.9,1571.7,565.4,1572
			L565.4,1572z M566.3,1579.2c-1,0-1.7,0.5-1.7,1.3c0,1.2,1.3,1.8,3.5,1.8c0.6,0,0.7,0,1.5-0.1
			C569,1580.3,567.9,1579.2,566.3,1579.2z"/>
		<path style="&st1;" d="M599.2,1560.2c-0.1,1-0.2,2.4-0.2,4.5c0,0.4,0,0.5,0,1.9c3.5,0,6.7-0.4,8.5-1l0.3,3.5c-0.6,0-0.6,0-1.9,0.2
			c-2.4,0.3-4.5,0.5-6.8,0.5c0.1,2.3,0.1,3.6,0.3,6.4c1.6,0.5,3,1.1,4.5,2c1,0.6,1.5,0.9,3.7,2.5c0.4,0.3,0.5,0.4,0.9,0.6l-2.3,3.3
			c-0.5-0.6-1-1.1-2.1-1.9c-1.4-1.1-2.3-1.7-3.8-2.4c-0.4-0.2-0.6-0.3-0.9-0.5c0,0.2,0.1,0.5,0.1,0.9c0,3.2-2.3,5-6.6,5
			c-3,0-5-0.8-6.1-2.5c-0.4-0.7-0.7-1.7-0.7-2.6c0-3,3-5.2,7.2-5.2c1.1,0,2.1,0.1,2.7,0.3c0-0.1,0-0.1,0-0.3c-0.1-1-0.4-9-0.4-12.6
			c0-1.5,0-1.7-0.1-2.6L599.2,1560.2z M593.4,1578.4c-2.2,0-3.6,0.9-3.6,2.1c0,0.7,0.3,1.2,1,1.5c0.6,0.3,1.3,0.4,2.1,0.4
			c1.1,0,2.1-0.3,2.6-0.8c0.4-0.3,0.6-0.9,0.6-1.6c0-0.5,0-1.3,0-1.4C595,1578.4,594.5,1578.4,593.4,1578.4z"/>
		<path style="&st1;" d="M615.5,1569.6c0.8,0,0.8,0,3.4-0.5c4.1-0.7,6.6-1,9.1-1c2.3,0,4.1,0.4,5.5,1.2c1.8,1.1,2.8,3,2.8,5.3
			c0,3.3-2,6.3-5.5,8.3c-2.4,1.4-4.4,2-9.1,2.7c-0.3-1.5-0.6-2.3-1.5-3.6c3.4-0.1,6.5-1,8.7-2.2c2.3-1.3,3.5-3.1,3.5-5.1
			c0-2.2-1.5-3.3-4.6-3.3c-3.3,0-9.1,1-11.5,2L615.5,1569.6z M620,1560.3c3.2,1.1,7.5,1.7,12.1,1.7c0.1,0,0.5,0,0.8,0l-0.5,3.6
			c-5.3-0.2-9.3-0.8-13.5-1.8L620,1560.3z"/>
		<path style="&st1;" d="M646.5,1581.3c-1.2,0-2.3,0.1-3.2,0.2v-3.1c0.9,0.1,1.9,0.2,3.2,0.2H666c1.5,0,2.5-0.1,3.5-0.2v3.1
			c-1-0.1-1.9-0.2-3.2-0.2h-5.1c2.3,1.4,4.6,2.1,8.5,2.6c-1,1.1-1.5,1.7-2,2.8c-3.9-0.8-6.1-1.7-9.1-3.6l1.7-1.8h-7.9l1.8,1.8
			c-2.9,1.8-5.5,2.8-9.1,3.6c-0.5-1.1-0.9-1.7-1.8-2.8c3.5-0.5,5.7-1.2,8.3-2.6H646.5z M654.6,1561.5c0-1-0.1-1.3-0.2-2h3.6
			c-0.1,0.6-0.1,0.9-0.2,2h7.5c1.6,0,2.6-0.1,3.6-0.2v3c-1.1-0.1-2-0.2-3.6-0.2h-7.5v1.1h4.7c1.6,0,2.5,0,3.5-0.1
			c-0.1,0.9-0.1,1.7-0.1,3.3v5.9c0,1.6,0,2.3,0.1,3.2c-1-0.1-2-0.1-3.5-0.1H650c-1.4,0-2.5,0-3.4,0.1c0.1-1,0.1-1.9,0.1-3.2v-5.9
			c0-1.5,0-2.3-0.1-3.3c1,0.1,1.8,0.1,3.5,0.1h4.5v-1.1h-7.5c-1.6,0-2.6,0.1-3.6,0.2v-3c1,0.1,1.9,0.2,3.6,0.2H654.6z M649.8,1568.8
			h13v-1.1h-13V1568.8z M649.8,1572h13v-1.2h-13V1572z M649.8,1575.1h13v-1.2h-13V1575.1z"/>
		<path style="&st1;" d="M689.1,1582.1h8.4c1.5,0,2.8-0.1,3.9-0.2v3.5c-1.2-0.1-2.4-0.2-3.9-0.2h-18.4c-1.4,0-2.7,0.1-4,0.2v-3.5
			c1.1,0.1,2.3,0.2,4,0.2h6.6v-18.7c0-1.3-0.1-2.1-0.2-3.3h3.8c-0.1,1.1-0.2,2-0.2,3.3v5h6.8c1.3,0,2.3-0.1,3.4-0.2v3.5
			c-1-0.1-2.1-0.2-3.4-0.2h-6.8L689.1,1582.1L689.1,1582.1z"/>
		<path style="&st1;" d="M717.7,1560.6c-0.1,0.3-0.2,0.6-0.2,0.9c-0.1,0.4-0.1,0.5-0.2,1c-0.1,0.6-0.1,0.6-0.5,2.8
			c-0.1,0.6-0.1,0.7-0.2,1.1c0.8-0.1,1.2-0.1,1.8-0.1c1.9,0,3.3,0.5,4.3,1.5c1,1.1,1.4,2.5,1.4,5.1c0,5-0.8,9-2.2,10.6
			c-0.8,1-1.7,1.3-3.2,1.3c-1.3,0-2.5-0.2-4.5-0.8c0-0.6,0.1-1,0.1-1.3c0-0.8-0.1-1.3-0.3-2.5c1.6,0.7,3.2,1.1,4.2,1.1
			c0.8,0,1.3-0.6,1.7-2c0.5-1.5,0.8-4.1,0.8-6.6c0-2.7-0.7-3.5-3-3.5c-0.6,0-1,0-1.7,0.1c-0.9,3.5-1.1,4.4-1.8,6.3
			c-1,2.9-1.8,4.8-3.5,8.2c-0.1,0.3-0.1,0.3-0.4,0.9c-0.1,0.2-0.1,0.2-0.2,0.5l-3.4-1.9c0.9-1.2,2-3.2,3-5.5
			c1.2-2.8,1.7-4.1,2.8-8.2c-1.5,0.2-4.2,0.7-5.2,0.9l-0.3-3.4c1.1,0,4.6-0.3,6.2-0.6c0.5-3.1,0.8-4.9,0.8-5.9c0-0.1,0-0.3,0-0.6
			L717.7,1560.6z M727.3,1564.3c2.9,3.4,4.7,6.8,6,11.3l-3.3,1.7c-0.6-2.5-1.2-4.4-2.3-6.6c-1-2.1-2-3.5-3.3-5L727.3,1564.3z"/>
		<path style="&st1;" d="M744.6,1566c-0.4,1.6-0.9,4.3-1.3,7.1c-0.1,0.4-0.1,0.4-0.1,0.8l0.1,0.1c1.7-1.6,5.3-2.8,8.8-2.8
			c4.9,0,8.2,2.4,8.2,6.1c0,2.1-1.1,4.3-3,5.6c-1.9,1.4-4.3,2-7.7,2c-2.5,0-4.1-0.2-7.4-1c0-1.8-0.1-2.4-0.4-3.7
			c2.8,1,5.3,1.5,7.8,1.5c4.1,0,6.9-1.7,6.9-4.2c0-1.9-1.8-3.1-4.9-3.1c-2.6,0-5.3,0.8-7.2,2.1c-0.5,0.4-0.7,0.6-1.3,1.2l-3.7-0.1
			c0.1-0.5,0.1-0.6,0.2-1.7c0.2-1.8,0.7-5,1.2-8.4c0.1-0.7,0.1-1,0.2-1.7L744.6,1566z M745,1560.3c2,1.1,7.5,2.8,10.8,3.2l-1.2,3.3
			c-5-1.1-8-2.1-11.3-3.6L745,1560.3z"/>
		<path style="&st1;" d="M768.6,1567.9c-0.7,0-1.3,0-2,0.1v-3.1c0.7,0.1,1.2,0.1,2,0.1h0.9v-2.3c0-1.5,0-2.1-0.2-3h3.3
			c-0.1,0.8-0.2,1.5-0.2,3v2.4h0.9c0.6,0,1,0,1.5-0.1v3c-0.6-0.1-0.9-0.1-1.5-0.1h-0.9v4.9c0.7-0.2,0.9-0.2,1.4-0.4v-2.5
			c0.8,0.1,1.5,0.1,2.6,0.1h13.7c1.3,0,2.1-0.1,2.9-0.1v2.7c-0.8-0.1-1.5-0.1-2.8-0.1H783v11.3c1.2-0.7,2.2-1.5,3.2-2.5
			c-0.9-1.2-1.4-2.1-2.3-4l2.1-1h-0.6c-1,0-1.3,0-1.8,0.1v-2.7c0.6,0.1,1.1,0.1,2.1,0.1h3.5c0.9,0,1.5,0,1.9-0.1l1.2,1.5
			c-0.2,0.5-0.3,0.6-0.5,1.2c-0.7,2.1-1.3,3.4-2.3,4.9c1.2,1,2.4,1.8,3.9,2.4c-0.8,0.9-1.3,1.7-1.7,2.7c-1.7-1.1-2.6-1.8-3.9-3
			c-1,1.1-2.3,2.2-3.4,3c-0.6-1.1-1-1.6-1.6-2.2c0,1.1,0.1,1.7,0.1,2.4h-3c0.1-1.1,0.1-1.8,0.1-3v-0.3c-1,0.3-3,0.7-5,1.1
			c-0.6,0.1-1.3,0.3-1.7,0.4l-0.4-2.8c0.1,0,0.1,0,0.2,0c0.3,0,0.6,0,1.6-0.1v-9.3c-0.4,0-0.6,0-0.9,0.1v2.4
			c-0.8,0.3-1.1,0.4-1.7,0.6v7.9c0,2.2-0.7,2.8-3.3,2.8c-0.4,0-1.2,0-2-0.1c-0.1-1.2-0.3-1.8-0.7-2.9c1,0.1,1.5,0.1,2.3,0.1
			c0.6,0,0.7-0.1,0.7-0.8v-6.2c-2,0.6-2.1,0.6-2.7,0.8l-0.5-3.1c0.7,0,0.7-0.1,3.2-0.6v-5.7L768.6,1567.9L768.6,1567.9z
			 M778.6,1569.1c-1.1,0-1.9,0-2.6,0.1c0.1-0.8,0.1-2,0.1-2.9v-3.5c0-0.9,0-1.5-0.1-2.4c0.8,0.1,1.4,0.1,2.8,0.1h9.5
			c1.4,0,2,0,2.8-0.1c-0.1,0.9-0.1,1.5-0.1,2.5v3.4c0,1,0,2.1,0.1,2.9c-0.7-0.1-1.5-0.1-2.6-0.1H778.6z M780.6,1573.9v-1.4h-3.1v1.4
			H780.6z M780.6,1577.5v-1.5h-3.1v1.5H780.6z M777.5,1581.4c1.7-0.3,1.8-0.3,3.1-0.6v-1.2h-3.1V1581.4z M779,1563.9h8.9v-1.1H779
			V1563.9z M779,1566.9h8.9v-1.1H779V1566.9z M786.3,1576.3c0.7,1.6,1,2.1,1.7,3c0.7-1.1,1-1.8,1.3-3H786.3z"/>
		<path style="&st1;" d="M803.7,1580.6c-1.2,2.5-1.8,3.5-3.6,5.3c-0.7-0.8-1.2-1.3-2.1-2c1.6-1.4,2.4-2.5,3.2-4.3L803.7,1580.6z
			 M802.2,1568.7c-1.2,0-2,0-2.5,0.1c0.1-0.7,0.1-1.5,0.1-2.3v-3.7c0-1,0-1.7-0.1-2.4c0.8,0.1,1.5,0.1,2.8,0.1h7.9
			c1.2,0,2.1,0,2.9-0.1c-0.1,0.6-0.1,1.1-0.1,2.5v3.7c0,1,0,1.7,0.1,2.3c-0.5,0-1.4-0.1-2.5-0.1H808v1.4h3.5c1.5,0,2.1,0,2.9-0.1
			v2.8c-0.8-0.1-1.5-0.1-2.9-0.1h-10.3c-1.4,0-2.1,0-2.9,0.1v-2.8c0.7,0.1,1.5,0.1,2.9,0.1h3.8v-1.4L802.2,1568.7L802.2,1568.7z
			 M802.4,1579.2c-1.1,0-1.6,0-2.2,0.1c0.1-0.6,0.1-1.1,0.1-1.7v-2.1c0-0.7,0-1.1-0.1-1.7c0.6,0.1,1,0.1,2.2,0.1h8.2
			c1.2,0,1.6,0,2.2-0.1c-0.1,0.6-0.1,1.2-0.1,1.7v2.1c0,0.6,0,1.2,0.1,1.7c-0.6-0.1-1.1-0.1-2.2-0.1h-2.5v4.8c0,1-0.2,1.6-0.7,1.9
			c-0.4,0.3-1.2,0.4-2.6,0.4c-0.4,0-0.8,0-1.6-0.1c-0.1-1.1-0.3-1.9-0.7-2.9c0.6,0.2,1.4,0.3,2,0.3c0.5,0,0.6-0.1,0.6-0.6v-3.9
			L802.4,1579.2L802.4,1579.2z M802.8,1563.6h7.5v-1h-7.5V1563.6z M802.8,1566.6h7.5v-1h-7.5V1566.6z M803.2,1577.2h6.6v-1.5h-6.6
			V1577.2z M811.3,1585.3c-0.7-1.7-1.4-3-2.5-4.8l2.2-1c0.9,1.2,1.4,2,2.3,3.5c2.6-1.2,4.8-2.8,7.2-5c1-0.9,1.7-1.8,2.3-2.7l2.6,2.3
			c-1,1-1,1-1.6,1.6c-3.2,3.4-5.6,5.2-9.3,7.1c-0.4-0.8-0.6-1.2-1.2-1.9L811.3,1585.3z M824.7,1569.3c-0.3,0.3-0.7,0.6-1.1,1
			c-2.8,2.8-5.2,4.6-8.6,6.5c-0.5-1.1-1.1-1.9-1.8-2.8c2.3-1,4.6-2.5,6.7-4.4c1.2-1.1,1.7-1.7,2.2-2.4L824.7,1569.3z M824,1561.7
			c-0.1,0.1-0.8,0.7-2.2,1.9c-2.5,2.3-3.7,3.1-6.5,4.7c-0.6-1.1-1-1.8-1.9-2.8c2.3-1,4-2.1,5.7-3.6c1.1-0.9,1.4-1.3,2.2-2.3
			L824,1561.7z"/>
		<path style="&st1;" d="M837.1,1560.9c-0.2,0.8-0.2,1.7-0.3,3.9c-0.1,2.7-0.3,8.6-0.3,10.6c0,2.8,0.2,3.8,0.8,4.7
			c0.7,1,2.1,1.5,3.9,1.5c3.1,0,5.7-1.8,7-5c0.6-1.5,1-2.9,1.3-4.9c1.6,1.3,2.1,1.6,3.5,2.2c-1.2,3.9-2,5.8-3.5,7.4
			c-2.2,2.5-5,3.7-8.7,3.7c-2,0-3.9-0.5-5.1-1.3c-2-1.3-2.8-3.6-2.8-7.5c0-1.5,0.1-4.4,0.2-11.7c0-0.9,0-1.5,0-1.9
			c0-0.8,0-1.2-0.1-2L837.1,1560.9z"/>
		<path style="&st1;" d="M857.2,1563.8c0.6,0,1,0,1.1,0c0.5,0,0.5,0,4.8-0.3c1.6-0.1,6.4-0.3,14.5-0.7c2.4-0.1,2.8-0.1,3.3-0.3
			l0.2,3.7c-0.3,0-0.3,0-0.6,0c-1.7,0-3.9,0.6-5.7,1.6c-3.7,1.9-5.9,4.8-5.9,7.7c0,2.3,1.4,4,3.9,4.7c1.4,0.4,3.3,0.8,4.3,0.8
			c0,0,0.3,0,0.6,0l-0.5,3.9c-0.3-0.1-0.5-0.1-1-0.2c-3.2-0.4-5-0.9-6.8-1.9c-2.7-1.5-4.1-4-4.1-7c0-2.5,1-4.9,2.8-6.8
			c1.1-1.2,2.1-1.9,4-2.9c-2.3,0.3-3.5,0.4-9.8,0.9c-1.9,0.1-3.7,0.3-4.8,0.6L857.2,1563.8z"/>
		<path style="&st1;" d="M903.2,1562.5c-0.5,0.3-1,0.8-3.6,3.2c-1.5,1.4-3.5,3-6.9,5.6c-0.9,0.7-1.1,0.9-1.1,1.2
			c0,0.4,0.1,0.5,2.6,2.4c4.5,3.4,5.4,4.1,9.1,7.6c0.3,0.3,0.5,0.4,0.8,0.7l-3,3c-0.8-1-1.8-2.1-3.8-4c-2.1-1.9-3-2.7-7.5-6.2
			c-1.9-1.5-2.4-2.3-2.4-3.6c0-0.9,0.3-1.7,1-2.3c0.4-0.4,0.4-0.4,2.6-2.1c3.1-2.4,4.8-3.8,6.7-5.7c1.3-1.3,1.6-1.7,2.1-2.4
			L903.2,1562.5z"/>
		<path style="&st1;" d="M912.3,1565c1,0.2,2.2,0.3,3.9,0.3c0.3,0,0.7,0,1.3,0c0.3-1.4,0.6-3.6,0.6-4.4c0-0.1,0-0.3,0-0.5l3.8,0.3
			c-0.2,0.6-0.2,0.8-0.5,2.3c-0.1,0.3-0.1,0.8-0.2,1.3c0,0.1-0.1,0.4-0.2,0.9c1.9-0.2,3.6-0.5,5-0.9l0.1,3.3c-0.1,0-0.2,0-0.3,0
			l-0.7,0.1c-1.9,0.3-4.1,0.6-4.8,0.6c-1.1,5.6-2.5,10.4-5,17.1l-3.7-1.4c1.9-3.4,4.2-10.4,5.2-15.5c-0.1,0-0.3,0-0.3,0h-0.6h-1.4
			c0,0-0.3,0-0.7,0s-0.9,0-1.2,0c-0.1,0-0.3,0-0.6,0L912.3,1565z M926.7,1576.2c-1.2,1.5-1.5,2.2-1.5,3.2c0,1.5,1.5,2.2,4.4,2.2
			c2.1,0,4.9-0.5,6.6-1.1l0.3,3.5c-0.5,0.1-0.7,0.1-1.4,0.2c-2.4,0.4-3.7,0.5-5.4,0.5c-2.6,0-4.4-0.4-5.8-1.2
			c-1.2-0.7-2.1-2.1-2.1-3.6s0.6-2.8,2.1-5L926.7,1576.2z M935.3,1572.4c-1.4-0.1-2.2-0.2-3.7-0.2c-2.9,0-4.8,0.2-7.7,0.9l-0.3-3.2
			c4.1-0.8,5.5-0.9,8.6-0.9c0.9,0,1.5,0,2.9,0L935.3,1572.4z M930.5,1561.1c1.3,1.4,2.1,2.5,3,4.3l-2,1.1c-1-1.8-1.8-2.9-3-4.3
			L930.5,1561.1z M935,1564.6c-0.9-1.6-1.8-3-3-4.2l1.9-1c1.3,1.3,2.1,2.4,3,4.1L935,1564.6z"/>
		<path style="&st1;" d="M943.4,1565.6c0.9,0.1,1.6,0.1,2.8,0.1c2.2,0,6-0.3,7.8-0.5c-0.5-1.3-1.7-4.4-1.9-4.6l3.7-0.5
			c0.2,1,0.7,2.5,1.6,4.6c3-0.5,5.6-1.1,7.1-1.7l0.4,3.5c-0.8,0.1-1.1,0.2-2.1,0.4c-0.4,0.1-1.9,0.4-4.3,0.9c1,1.9,1.7,3.2,2,3.7
			c0.8,1.3,2.1,3.2,3.1,4.6l-3.4,1.5c-0.7-0.7-1.2-1-2-1.2c-1.3-0.4-2.8-0.7-4.6-0.7c-3.9,0-6.3,1.2-6.3,3.2c0,1.9,2.1,2.9,6.1,2.9
			c3.1,0,6.5-0.8,8.7-1.9l0.5,3.7c-3.6,1.1-6.3,1.6-9.2,1.6c-3.7,0-6.6-0.8-8.1-2.2c-1.1-1-1.7-2.5-1.7-3.9c0-1.7,0.8-3.2,2.1-4.3
			c1.7-1.4,4.1-2.1,7.4-2.1c1.9,0,3.6,0.3,5,0.9c-1.2-1.6-1.2-1.7-3.1-5.3c-2.6,0.3-6.8,0.6-10.3,0.7c-0.7,0-0.8,0-1.3,0.1V1565.6z"
			/>
		<path style="&st1;" d="M976.3,1562.7c-0.1,1.1-0.2,2.5-0.2,4.4c0,2.5,0.2,6,0.6,7.8c0.5,3,1.4,4.9,2.3,4.9c0.4,0,0.8-0.4,1.2-1.2
			c0.7-1.6,1.2-3.3,1.5-5.2c1,1.2,1.5,1.6,2.9,2.6c-1.5,5.7-3.2,8-5.7,8c-1.9,0-3.5-1.4-4.7-4.2c-1.2-2.9-1.7-7.1-1.8-15.1
			c0-1,0-1.2-0.1-1.9h4V1562.7z M990.1,1564c3.7,4.4,5.7,9.2,6.5,15.6l-3.6,1.4c-0.2-2.7-0.8-5.7-1.9-8.4c-1-2.6-2.4-5-4.1-7.1
			L990.1,1564z"/>
	</g>
	<circle style="&st1;" cx="323" cy="1573" r="24"/>
	<g style="&st0;">
		<path style="&st2;" d="M322.1,1578.6c-0.2-6.6-0.6-9.9-2.3-18c-0.1-0.7-0.2-1.5-0.2-1.9c0-1.6,1.1-2.4,3.4-2.4s3.4,0.7,3.4,2.4
			c0,0.9,0,0.9-0.9,5c-1,4.7-1.6,9.5-1.7,14.9H322.1z M326.4,1584.9c0,1.9-1.5,3.4-3.4,3.4s-3.4-1.5-3.4-3.4s1.5-3.4,3.4-3.4
			S326.4,1583,326.4,1584.9z"/>
	</g>
</g>
</svg>
