<?xml version="1.0" encoding="utf-8"?>
<!-- Generator: Adobe Illustrator 26.5.0, SVG Export Plug-In . SVG Version: 6.00 Build 0)  -->
<!DOCTYPE svg PUBLIC "-//W3C//DTD SVG 1.1//EN" "http://www.w3.org/Graphics/SVG/1.1/DTD/svg11.dtd" [
	<!ENTITY st0 "fill:#FFFFFF;stroke:#4D4D4D;stroke-width:0.5;stroke-miterlimit:10;">
	<!ENTITY st1 "clip-path:url(#SVGID_00000177458511918104279710000012469168234575419546_);">
	<!ENTITY st2 "fill:none;">
	
		<!ENTITY st3 "fill:none;stroke:#000000;stroke-linecap:round;stroke-linejoin:round;stroke-miterlimit:10;stroke-dasharray:5,3.5;">
	<!ENTITY st4 "fill:none;stroke:#D20000;stroke-width:2;stroke-miterlimit:10;">
	<!ENTITY st5 "clip-path:url(#SVGID_00000098201927168432410070000013021431633753472420_);">
	<!ENTITY st6 "fill:#D20000;">
	<!ENTITY st7 "clip-path:url(#SVGID_00000166665302654495733510000016748046446328400029_);">
	<!ENTITY st8 "fill:#FFE402;">
	<!ENTITY st9 "enable-background:new    ;">
	<!ENTITY st10 "fill:#202020;">
	<!ENTITY st11 "fill:none;stroke:#FFE402;stroke-width:1.1449;stroke-miterlimit:10;">
	<!ENTITY st12 "fill:none;stroke:#000000;stroke-width:2;stroke-miterlimit:10;">
	<!ENTITY st13 "fill:none;stroke:#000000;stroke-width:2;stroke-linecap:round;stroke-linejoin:round;">
	<!ENTITY st14 "stroke:#FFE402;stroke-width:0.2042;stroke-miterlimit:10;">
	<!ENTITY st15 "stroke:#FFE402;stroke-width:0.25;stroke-miterlimit:10;">
	<!ENTITY st16 "fill:none;stroke:#000000;stroke-width:2;stroke-linecap:round;stroke-linejoin:round;stroke-miterlimit:10;">
	<!ENTITY st17 "clip-path:url(#SVGID_00000156562372085414572750000004734756338897255607_);">
	<!ENTITY st18 "fill:#FFFFFF;stroke:#DDDDDD;stroke-width:2;stroke-miterlimit:10;">
	<!ENTITY st19 "fill:#FFFFFF;">
	<!ENTITY st20 "fill:none;stroke:#DDDDDD;">
	<!ENTITY st21 "fill:none;stroke:#000000;stroke-miterlimit:10;">
	<!ENTITY st22 "fill:none;stroke:#000000;stroke-linecap:round;stroke-linejoin:round;">
	<!ENTITY st23 "clip-path:url(#SVGID_00000085213015708493592660000004589592385822771082_);">
	<!ENTITY st24 "fill:none;stroke:#000000;stroke-width:0.4856;stroke-miterlimit:10;">
	<!ENTITY st25 "fill:none;stroke:#000000;stroke-linecap:round;stroke-linejoin:round;stroke-miterlimit:10;">
	<!ENTITY st26 "stroke:#000000;stroke-width:0.25;stroke-miterlimit:10;">
	<!ENTITY st27 "clip-path:url(#SVGID_00000092437818124508543150000002723798680677840301_);">
]>
<svg version="1.1" id="レイヤー_1" xmlns="http://www.w3.org/2000/svg" xmlns:xlink="http://www.w3.org/1999/xlink" x="0px"
	 y="0px" viewBox="0 0 37 166" style="enable-background:new 0 0 37 166;" xml:space="preserve">
<rect style="&st2;" width="36.9" height="165.5"/>
<g>
	<path d="M19.7,60.2c0,0.3-0.1,0.6-0.1,1.1c0,0.2,0,0.5,0,0.8c1.3-0.1,2.7-0.2,4.1-0.4l0,1.4c-1.2,0.1-2.6,0.3-4.1,0.4v1.9
		c1.6-0.1,2.9-0.2,4.3-0.4l0,1.5c-1.4,0.2-2.7,0.3-4.2,0.3c0,0.7,0.1,1.5,0.1,2.2c2,0.6,3.6,1.7,4.5,2.4l-0.9,1.4
		c-0.9-0.8-2.1-1.7-3.5-2.3c0,0.3,0,0.6,0,0.8c0,1.2-0.9,2.3-2.9,2.3c-2.4,0-3.6-0.9-3.6-2.4c0-1.5,1.4-2.5,3.7-2.5
		c0.4,0,0.8,0,1.2,0.1c0-0.6,0-1.2-0.1-1.8h-0.8c-1,0-2.7-0.1-3.8-0.2l0-1.5c1.1,0.2,2.9,0.3,3.9,0.3h0.8c0-0.6,0-1.3,0-1.9h-0.6
		c-1,0-2.9-0.1-3.9-0.3l0-1.4c1.1,0.2,2.9,0.3,3.9,0.3h0.7v-0.9c0-0.3,0-0.8-0.1-1H19.7z M16.7,72.1c0.9,0,1.5-0.3,1.5-1.2
		c0-0.2,0-0.5,0-0.9c-0.5-0.1-0.9-0.1-1.4-0.1c-1.3,0-2,0.5-2,1.2C14.8,71.7,15.4,72.1,16.7,72.1z"/>
	<path d="M17.4,77.6c0,0.3-0.1,0.6-0.2,0.9c1-0.1,1.9-0.3,2.8-0.5v1.6c-1,0.2-2.1,0.4-3.2,0.5c-0.2,0.7-0.3,1.4-0.5,2.1
		c-0.6,2.2-1.6,5.4-2.5,7.2l-1.8-0.6c0.9-1.6,2.1-4.8,2.7-7c0.1-0.5,0.3-1,0.4-1.5c-0.4,0-0.9,0-1.3,0c-0.7,0-1.3,0-1.9-0.1l0-1.6
		c0.8,0.1,1.3,0.1,1.9,0.1c0.5,0,1,0,1.6-0.1c0.1-0.5,0.2-0.9,0.2-1.2c0.1-0.5,0.1-1.1,0.1-1.4l1.9,0.2
		C17.6,76.6,17.4,77.3,17.4,77.6z M19.2,86.3c0,0.7,0.4,1.3,2.4,1.3c1.1,0,2.1-0.1,3.2-0.3l-0.1,1.6c-0.8,0.1-1.9,0.2-3.1,0.2
		c-2.5,0-3.9-0.8-3.9-2.4c0-0.7,0.1-1.3,0.3-2l1.5,0.1C19.3,85.4,19.2,85.9,19.2,86.3z M21.8,80.9c0.9,0,1.9,0,2.8,0.1l0,1.5
		c-0.8-0.1-1.7-0.2-2.7-0.2c-1,0-2,0-3,0.2V81C19.7,80.9,20.8,80.9,21.8,80.9z"/>
	<path d="M14.8,92.7c-0.1,0.3-0.3,0.9-0.3,1.2c-0.3,1.3-0.8,4.5-0.8,6.2c0,0.6,0,1.1,0.1,1.6c0.2-0.6,0.6-1.4,0.8-2l0.8,0.6
		c-0.4,1.2-1,2.8-1.1,3.6c0,0.2-0.1,0.5-0.1,0.7c0,0.2,0,0.4,0,0.6l-1.4,0.1c-0.3-1.1-0.6-2.9-0.6-5c0-2.3,0.5-5.3,0.7-6.6
		c0-0.4,0.1-0.9,0.1-1.3L14.8,92.7z M22.5,92.5c0,0.3-0.1,0.7-0.1,1c0,0.4,0,1.1,0,1.8c0.9-0.1,1.8-0.2,2.6-0.4v1.6
		c-0.8,0.1-1.7,0.2-2.6,0.3c0,1.6,0.1,3,0.2,4.2c1.3,0.5,2.3,1.3,3.1,2l-0.8,1.3c-0.7-0.7-1.5-1.3-2.2-1.7v0.1
		c0,1.4-0.7,2.7-2.9,2.7c-2.1,0-3.4-0.9-3.4-2.4c0-1.4,1.3-2.5,3.4-2.5c0.4,0,0.9,0,1.3,0.1c-0.1-1.1-0.1-2.4-0.2-3.7
		c-0.4,0-0.9,0-1.3,0c-0.9,0-1.8,0-2.7-0.1l0-1.5c0.9,0.1,1.8,0.1,2.7,0.1c0.4,0,0.9,0,1.3,0v-1.8c0-0.3,0-0.7-0.1-1H22.5z
		 M21,101.8c-0.5-0.1-1-0.2-1.5-0.2c-1.1,0-1.8,0.4-1.8,1.1c0,0.8,0.7,1.1,1.7,1.1c1.2,0,1.5-0.6,1.5-1.6V101.8z"/>
</g>
</svg>
