<?xml version="1.0" encoding="utf-8"?>
<!-- Generator: Adobe Illustrator 26.5.0, SVG Export Plug-In . SVG Version: 6.00 Build 0)  -->
<!DOCTYPE svg PUBLIC "-//W3C//DTD SVG 1.1//EN" "http://www.w3.org/Graphics/SVG/1.1/DTD/svg11.dtd" [
	<!ENTITY st0 "fill:#FFFFFF;stroke:#4D4D4D;stroke-width:0.5;stroke-miterlimit:10;">
	<!ENTITY st1 "clip-path:url(#SVGID_00000132794596375930628010000009484275890804861352_);">
	<!ENTITY st2 "fill:none;">
	
		<!ENTITY st3 "fill:none;stroke:#000000;stroke-linecap:round;stroke-linejoin:round;stroke-miterlimit:10;stroke-dasharray:5,3.5;">
	<!ENTITY st4 "fill:none;stroke:#D20000;stroke-width:2;stroke-miterlimit:10;">
	<!ENTITY st5 "clip-path:url(#SVGID_00000035510768503256309920000017044406855833310641_);">
	<!ENTITY st6 "fill:#D20000;">
	<!ENTITY st7 "clip-path:url(#SVGID_00000088130381869655823450000007102737308654979755_);">
	<!ENTITY st8 "fill:#FFE402;">
	<!ENTITY st9 "enable-background:new    ;">
	<!ENTITY st10 "fill:#202020;">
	<!ENTITY st11 "fill:none;stroke:#FFE402;stroke-width:1.1449;stroke-miterlimit:10;">
	<!ENTITY st12 "fill:none;stroke:#000000;stroke-width:2;stroke-miterlimit:10;">
	<!ENTITY st13 "fill:none;stroke:#000000;stroke-width:2;stroke-linecap:round;stroke-linejoin:round;">
	<!ENTITY st14 "stroke:#FFE402;stroke-width:0.2042;stroke-miterlimit:10;">
	<!ENTITY st15 "stroke:#FFE402;stroke-width:0.25;stroke-miterlimit:10;">
	<!ENTITY st16 "fill:none;stroke:#000000;stroke-width:2;stroke-linecap:round;stroke-linejoin:round;stroke-miterlimit:10;">
	<!ENTITY st17 "clip-path:url(#SVGID_00000181065609314382159500000014276160628145368974_);">
	<!ENTITY st18 "fill:#FFFFFF;stroke:#DDDDDD;stroke-width:2;stroke-miterlimit:10;">
	<!ENTITY st19 "fill:#FFFFFF;">
	<!ENTITY st20 "fill:none;stroke:#DDDDDD;">
	<!ENTITY st21 "fill:none;stroke:#000000;stroke-miterlimit:10;">
	<!ENTITY st22 "fill:none;stroke:#000000;stroke-linecap:round;stroke-linejoin:round;">
	<!ENTITY st23 "clip-path:url(#SVGID_00000000200376366123872880000011621841192962634149_);">
	<!ENTITY st24 "fill:none;stroke:#000000;stroke-width:0.4856;stroke-miterlimit:10;">
	<!ENTITY st25 "fill:none;stroke:#000000;stroke-linecap:round;stroke-linejoin:round;stroke-miterlimit:10;">
	<!ENTITY st26 "stroke:#000000;stroke-width:0.25;stroke-miterlimit:10;">
	<!ENTITY st27 "clip-path:url(#SVGID_00000178914157543283593170000006544460476250345362_);">
]>
<svg version="1.1" id="レイヤー_1" xmlns="http://www.w3.org/2000/svg" xmlns:xlink="http://www.w3.org/1999/xlink" x="0px"
	 y="0px" viewBox="0 0 170 390" style="enable-background:new 0 0 170 390;" xml:space="preserve">
<g style="&st9;">
	<path style="&st10;" d="M64.9,206.7c-1.3-1.5-3.4-3-5.6-4.1c-0.7-0.4-0.9-0.4-1.6-0.8c0,0.2,0,0.3,0,0.3c0,1.9-0.5,3.2-1.7,4
		c-1.1,0.9-2.8,1.3-5,1.3c-4.4,0-6.9-1.7-6.9-4.7c0-3.3,3-5.2,8-5.2c0.7,0,1.2,0,2,0.1c0-0.4,0-0.4,0-0.7c0-0.1,0-0.4,0-0.7
		c0-0.4,0-0.4-0.1-1.6c-1.4,0-2.4,0.1-3,0.1c-1.8,0-2.9,0-5.4-0.2c-0.4,0-0.7,0-1.1,0l0.1-3.2c1.3,0.3,4.1,0.5,7,0.5
		c0.6,0,1.6,0,2.5-0.1c0-0.3,0-1.3,0-3c-1,0-1.4,0-1.9,0c-1.5,0-5.3-0.2-7.3-0.3c-0.3,0-0.6,0-0.7,0c-0.1,0-0.3,0-0.5,0l0-3.3
		c1.5,0.4,4.6,0.6,8.1,0.6c0.5,0,1.5,0,2.2-0.1c0-3,0-3-0.1-3.8h3.8c-0.2,0.8-0.2,1.2-0.2,3.7c4.1-0.2,6.7-0.6,8.6-1.1l0.2,3.3
		c-0.7,0-0.7,0-2.4,0.3c-2.6,0.4-3.8,0.4-6.5,0.6c0,0.8,0,1.1,0.1,3c1.5-0.1,1.5-0.1,4.3-0.4c1.9-0.2,2.4-0.3,3.7-0.7l0.1,3.3
		c-0.5,0-1.3,0.1-2,0.2c-0.4,0.1-1.8,0.2-4,0.4c-0.4,0-0.9,0.1-2,0.1c0.1,2.9,0.1,2.9,0.1,3.6c2.6,0.8,5,2,8.2,4.2
		c0.5,0.3,0.7,0.5,1.1,0.7L64.9,206.7z M51.8,200.6c-2.4,0-3.9,0.8-3.9,2.1c0,1.1,1.3,1.8,3.4,1.8c1.3,0,2.2-0.4,2.6-1
		c0.2-0.4,0.4-1,0.4-1.9c0-0.1,0-0.7,0-0.7C53.3,200.7,52.7,200.6,51.8,200.6z"/>
	<path style="&st10;" d="M72.8,186.5c1.1,0.2,2.3,0.3,4,0.3c0.4,0,0.7,0,1.4,0c0.3-1.4,0.6-3.7,0.6-4.6c0-0.1,0-0.3,0-0.5l4,0.4
		c-0.2,0.7-0.2,0.7-0.6,2.9c-0.2,0.8-0.2,1-0.3,1.7c2.2-0.2,3.6-0.5,5.1-0.9l0.1,3.4c-0.2,0-0.2,0-1,0.2c-1.5,0.3-3.9,0.6-4.9,0.6
		c-0.3,1.9-1.1,5-1.9,7.8c-0.9,3.1-1.4,4.6-3.4,9.9l-3.8-1.5c2.1-3.8,4.4-10.8,5.4-16.1c-0.2,0-0.3,0-0.4,0h-1.7c-0.2,0-0.4,0-1,0
		c-0.5,0-1,0-1.2,0c-0.1,0-0.3,0-0.6,0L72.8,186.5z M87.7,198.1c-1.2,1.5-1.6,2.2-1.6,3.3c0,1.5,1.5,2.3,4.5,2.3
		c2.2,0,5.1-0.5,6.8-1.1l0.3,3.7c-0.5,0.1-0.8,0.1-1.5,0.2c-2.5,0.4-3.8,0.5-5.6,0.5c-2.7,0-4.6-0.4-6-1.2c-1.3-0.8-2.1-2.2-2.1-3.7
		c0-1.6,0.6-2.9,2.2-5.2L87.7,198.1z M96.6,194.2c-1.4-0.1-2.3-0.2-3.8-0.2c-3,0-5,0.2-7.9,0.9l-0.3-3.3c4.3-0.8,5.7-1,8.9-1
		c0.8,0,1.1,0,3,0L96.6,194.2z"/>
	<path style="&st10;" d="M104,207.5c0-0.3,0-0.5-0.2-1.2c-0.6-3.5-0.8-6.4-0.8-9.5c0-2.7,0.2-5.3,0.6-7.9c0.1-0.9,0.1-0.9,0.8-4.3
		c0.2-1,0.3-1.9,0.3-2.2c0,0,0-0.1,0-0.1l4.1,0.4c-1.2,2.6-2.4,9.8-2.4,15.1c0,1.1,0,1.1,0,1.6c0,0.2,0,0.2,0,0.5c0,0.2,0,0.3,0,0.6
		h0c0.1-0.3,0.1-0.3,0.4-0.9c0.1-0.2,0.2-0.5,0.4-1c0.3-0.6,0.3-0.6,0.6-1.3c0.1-0.1,0.1-0.2,0.4-0.9l2.5,1.1c-1.8,3.5-3,7.2-3,9.2
		c0,0.2,0,0.2,0.1,0.8L104,207.5z M110.8,187.9c1.4,0.4,3,0.5,5.4,0.5c1,0,1.7,0,2.8-0.1c0-1.8,0-3.3,0-4.5c0-0.7,0-1.1-0.1-1.4
		l3.8-0.1c-0.2,0.8-0.2,2.3-0.2,4.4c0,0.3,0,0.8,0,1.4c1.6-0.2,2.9-0.4,4-0.7c0.2-0.1,0.2-0.1,0.7-0.2l0.2-0.1l0.1,3.4
		c-0.3,0-0.3,0-0.9,0.1c-1,0.2-2.6,0.5-4.2,0.7c0,0.3,0,0.3,0,0.7c0,1.7,0,1.7,0.3,6.8c2.2,1,2.9,1.4,4.7,2.7
		c0.4,0.3,0.5,0.4,0.8,0.5l-1.4,3.6c-0.5-0.6-1.4-1.4-2.2-1.9c-1-0.7-1.7-1.1-1.9-1.2c0,0.2,0,0.2,0,0.4c0,0.7-0.1,1.3-0.2,1.7
		c-0.7,1.8-2.8,2.8-5.7,2.8c-3.9,0-6.3-1.9-6.3-4.9c0-2.9,2.5-5,6.2-5c1.1,0,1.9,0.1,2.7,0.4c-0.1-0.8-0.1-2.2-0.2-6.4
		c-1.2,0-1.9,0.1-2.7,0.1c-1.1,0-2.3,0-3.7-0.2c-0.4,0-0.8,0-0.9,0c-0.3,0-0.5,0-0.5,0c-0.2,0-0.2,0-0.3,0c0,0-0.1,0-0.2,0
		L110.8,187.9z M116.9,200.4c-1.9,0-3.1,0.8-3.1,2c0,1.1,1.1,1.9,2.8,1.9c1.1,0,2-0.3,2.4-0.9c0.3-0.4,0.4-0.8,0.4-1.6
		c0-0.3,0-0.8,0-0.8C118.4,200.6,117.8,200.4,116.9,200.4z"/>
</g>
</svg>
