<?xml version="1.0" encoding="utf-8"?>
<!-- Generator: Adobe Illustrator 26.5.0, SVG Export Plug-In . SVG Version: 6.00 Build 0)  -->
<!DOCTYPE svg PUBLIC "-//W3C//DTD SVG 1.1//EN" "http://www.w3.org/Graphics/SVG/1.1/DTD/svg11.dtd" [
	<!ENTITY st0 "fill:#FFFFFF;stroke:#4D4D4D;stroke-width:0.5;stroke-miterlimit:10;">
	<!ENTITY st1 "clip-path:url(#SVGID_00000028312517746121129350000012206098410945332358_);">
	<!ENTITY st2 "fill:none;">
	
		<!ENTITY st3 "fill:none;stroke:#000000;stroke-linecap:round;stroke-linejoin:round;stroke-miterlimit:10;stroke-dasharray:5,3.5;">
	<!ENTITY st4 "fill:none;stroke:#D20000;stroke-width:2;stroke-miterlimit:10;">
	<!ENTITY st5 "clip-path:url(#SVGID_00000118392311813429221180000002280264969184532900_);">
	<!ENTITY st6 "fill:#D20000;">
	<!ENTITY st7 "clip-path:url(#SVGID_00000131357865236443759390000000017069841310780288_);">
	<!ENTITY st8 "fill:#FFE402;">
	<!ENTITY st9 "enable-background:new    ;">
	<!ENTITY st10 "fill:#202020;">
	<!ENTITY st11 "fill:none;stroke:#FFE402;stroke-width:1.1449;stroke-miterlimit:10;">
	<!ENTITY st12 "fill:none;stroke:#000000;stroke-width:2;stroke-miterlimit:10;">
	<!ENTITY st13 "fill:none;stroke:#000000;stroke-width:2;stroke-linecap:round;stroke-linejoin:round;">
	<!ENTITY st14 "stroke:#FFE402;stroke-width:0.2042;stroke-miterlimit:10;">
	<!ENTITY st15 "stroke:#FFE402;stroke-width:0.25;stroke-miterlimit:10;">
	<!ENTITY st16 "fill:none;stroke:#000000;stroke-width:2;stroke-linecap:round;stroke-linejoin:round;stroke-miterlimit:10;">
	<!ENTITY st17 "clip-path:url(#SVGID_00000044168775457146386510000010354763835175819922_);">
	<!ENTITY st18 "fill:#FFFFFF;stroke:#DDDDDD;stroke-width:2;stroke-miterlimit:10;">
	<!ENTITY st19 "fill:#FFFFFF;">
	<!ENTITY st20 "fill:none;stroke:#DDDDDD;">
	<!ENTITY st21 "fill:none;stroke:#000000;stroke-miterlimit:10;">
	<!ENTITY st22 "fill:none;stroke:#000000;stroke-linecap:round;stroke-linejoin:round;">
	<!ENTITY st23 "clip-path:url(#SVGID_00000142146691783244476640000005732410841638765186_);">
	<!ENTITY st24 "fill:none;stroke:#000000;stroke-width:0.4856;stroke-miterlimit:10;">
	<!ENTITY st25 "fill:none;stroke:#000000;stroke-linecap:round;stroke-linejoin:round;stroke-miterlimit:10;">
	<!ENTITY st26 "stroke:#000000;stroke-width:0.25;stroke-miterlimit:10;">
	<!ENTITY st27 "clip-path:url(#SVGID_00000062179600922101058580000003255797631161015198_);">
]>
<svg version="1.1" id="レイヤー_1" xmlns="http://www.w3.org/2000/svg" xmlns:xlink="http://www.w3.org/1999/xlink" x="0px"
	 y="0px" viewBox="0 0 166 166" style="enable-background:new 0 0 166 166;" xml:space="preserve">
<g>
	<path id="長方形_3_00000099654328682733805940000009294519344850891437_" style="&st2;" d="M8,0h150c4.4,0,8,3.6,8,8v152.6
		c0,4.4-3.6,5.4-8,5.4H8c-4.4,0-8-3.6-8-8V8C0,3.6,3.6,0,8,0z"/>
	<g style="&st9;">
		<path d="M50.4,107.4c-0.1,0.4-0.1,0.8-0.1,1.6l-0.1,9.1c1.7-0.3,3.2-0.9,4.4-1.8c1.5-1,2.5-2.1,3.3-3.7c0.6,0.8,0.8,1.1,1.5,1.6
			c-1.1,1.7-2.1,2.8-3.6,3.7c-1.6,1.1-3.2,1.7-5.8,2.2c-0.4,0.1-0.6,0.1-1,0.3l-1-1.2c0.1-0.4,0.1-0.7,0.1-1.6l0.1-8.6
			c0-1.1,0-1.1-0.1-1.6L50.4,107.4z"/>
		<path d="M62.3,111.2c1.6,0.7,2.9,1.3,4.3,2.2l-1,1.8c-1.3-0.9-2.7-1.7-4.3-2.4L62.3,111.2z M61.6,118.3c1.2,0,3-0.4,4.6-1
			c2-0.8,3.3-1.8,4.6-3.5c0.9-1.2,1.4-2.1,1.9-3.5c0.7,0.7,0.9,0.9,1.7,1.4c-0.7,1.8-1.4,2.9-2.4,4c-2,2.3-4.8,3.8-8.7,4.5
			c-0.6,0.1-0.8,0.2-1.1,0.3L61.6,118.3z M63.6,107.3c1.6,0.6,2.9,1.2,4.3,2.1l-1,1.8c-1.5-1-2.9-1.7-4.3-2.2L63.6,107.3z"/>
		<path d="M76.1,112.7c0.7,0.1,1,0.1,2.6,0.1h8.5c1.6,0,1.9,0,2.6-0.1v2.2c-0.6-0.1-0.8-0.1-2.6-0.1h-8.5c-1.8,0-2,0-2.6,0.1V112.7z
			"/>
		<path d="M93.6,120.7c0.1-0.5,0.1-0.9,0.1-1.8v-10.3c0-0.8,0-1.2-0.1-1.6h2.2c-0.1,0.5-0.1,0.7-0.1,1.7v3c2.2,0.8,4.7,1.9,7.3,3.4
			l-1.1,1.9c-1.3-0.9-3-1.8-5.7-3.1c-0.4-0.2-0.4-0.2-0.5-0.3c0,0.4,0.1,0.6,0.1,1.1v4.2c0,0.8,0,1.2,0.1,1.8H93.6z"/>
		<path d="M105.5,108.5c0.7,0.1,1.7,0.2,3.7,0.2c0.4-1,0.6-1.4,0.6-2l2.1,0.2c-0.1,0.2-0.1,0.2-0.6,1.4c-0.1,0.2-0.1,0.2-0.1,0.3
			c0.1,0,0.1,0,1-0.1c1.9-0.1,3.3-0.3,4.2-0.5l0.1,1.8c-0.4,0-0.4,0-1.3,0.1c-1.2,0.1-3.2,0.3-4.8,0.3c-0.5,0.9-0.9,1.6-1.5,2.1l0,0
			c0.1-0.1,0.1-0.1,0.3-0.2c0.6-0.4,1.4-0.7,2.3-0.7c1.2,0,2,0.6,2.3,1.7c1.2-0.4,2-0.7,2.4-0.9c0.9-0.3,0.9-0.3,1.2-0.5l0.8,1.8
			c-0.4,0.1-0.9,0.2-1.8,0.4c-0.2,0.1-1,0.3-2.4,0.8v0.2c0,0.4,0,0.4,0,0.6c0,0.2,0,0.4,0,0.6c0,0.3,0,0.4,0,0.5c0,0.4,0,0.6,0,0.8
			l-1.9,0c0.1-0.3,0.1-1.1,0.1-1.9c0-0.2,0-0.2,0-0.4c-0.8,0.4-1.2,0.6-1.5,0.8c-0.6,0.4-0.8,0.8-0.8,1.3c0,0.8,0.8,1.2,2.7,1.2
			c1.9,0,3.6-0.2,4.7-0.7l0.2,2.1c-0.3,0-0.4,0-0.7,0.1c-1.2,0.2-2.7,0.3-4.1,0.3c-1.7,0-2.8-0.2-3.6-0.7c-0.7-0.4-1.2-1.2-1.2-2.1
			c0-0.7,0.2-1.2,0.7-1.8c0.7-0.9,1.6-1.5,3.4-2.3c-0.1-0.6-0.4-0.9-1-0.9c-0.9,0-2,0.6-3.3,1.6c-0.7,0.6-1,1-1.4,1.5l-1.5-1.4
			c0.4-0.3,0.9-0.8,1.4-1.4c0.6-0.7,1.6-2.1,1.9-2.7c0.1-0.1,0.1-0.1,0.1-0.2c-0.1,0-0.3,0-0.3,0c-0.3,0-1.7,0-2,0
			c-0.3,0-0.3,0-0.4,0c0,0-0.1,0-0.3,0L105.5,108.5z"/>
		<path d="M38.4,130.3c-0.4,0-0.7,0-1.1,0.1v-1.7c0.4,0.1,0.6,0.1,1.1,0.1h0.5v-1.3c0-0.8,0-1.2-0.1-1.6h1.8
			c-0.1,0.5-0.1,0.8-0.1,1.6v1.3h0.5c0.3,0,0.5,0,0.8,0v1.6c-0.3,0-0.5,0-0.8,0h-0.5v2.7c0.4-0.1,0.5-0.1,0.8-0.2v-1.4
			c0.5,0.1,0.8,0.1,1.5,0.1h7.5c0.7,0,1.2,0,1.6-0.1v1.5c-0.4-0.1-0.8-0.1-1.6-0.1h-4v6.3c0.7-0.4,1.2-0.8,1.8-1.4
			c-0.5-0.7-0.8-1.1-1.3-2.2l1.2-0.6h-0.3c-0.5,0-0.7,0-1,0v-1.5c0.4,0,0.6,0,1.2,0h1.9c0.5,0,0.8,0,1.1,0l0.7,0.8
			c-0.1,0.3-0.1,0.3-0.3,0.6c-0.4,1.1-0.7,1.9-1.3,2.7c0.7,0.6,1.3,1,2.2,1.3c-0.4,0.5-0.7,0.9-0.9,1.5c-0.9-0.6-1.4-1-2.1-1.6
			c-0.6,0.6-1.3,1.2-1.9,1.6c-0.3-0.6-0.5-0.9-0.9-1.2c0,0.6,0,0.9,0.1,1.3h-1.6c0.1-0.6,0.1-1,0.1-1.6v-0.2
			c-0.6,0.2-1.7,0.4-2.7,0.6c-0.4,0.1-0.7,0.2-0.9,0.2l-0.2-1.6c0,0,0.1,0,0.1,0c0.2,0,0.3,0,0.9-0.1v-5.1c-0.2,0-0.3,0-0.5,0v1.3
			c-0.4,0.2-0.6,0.2-1,0.3v4.4c0,1.2-0.4,1.6-1.8,1.6c-0.2,0-0.6,0-1.1,0c-0.1-0.7-0.1-1-0.4-1.6c0.6,0.1,0.8,0.1,1.2,0.1
			c0.3,0,0.4-0.1,0.4-0.4V135c-1.1,0.3-1.2,0.3-1.5,0.4l-0.3-1.7c0.4,0,0.4,0,1.8-0.3v-3.1H38.4z M44,131c-0.6,0-1.1,0-1.5,0
			c0-0.5,0.1-1.1,0.1-1.6v-1.9c0-0.5,0-0.8-0.1-1.3c0.4,0,0.8,0.1,1.5,0.1h5.3c0.8,0,1.1,0,1.5-0.1c0,0.5-0.1,0.8-0.1,1.4v1.9
			c0,0.5,0,1.2,0.1,1.6c-0.4,0-0.8,0-1.4,0H44z M45.1,133.6v-0.8h-1.7v0.8H45.1z M45.1,135.6v-0.8h-1.7v0.8H45.1z M43.4,137.8
			c1-0.2,1-0.2,1.7-0.3v-0.7h-1.7V137.8z M44.2,128.1h4.9v-0.6h-4.9V128.1z M44.2,129.8h4.9v-0.6h-4.9V129.8z M48.2,135
			c0.4,0.9,0.5,1.2,0.9,1.7c0.4-0.6,0.5-1,0.7-1.7H48.2z"/>
		<path d="M56.2,137.3c-0.6,1.4-1,1.9-2,2.9c-0.4-0.4-0.7-0.7-1.2-1.1c0.9-0.8,1.3-1.4,1.8-2.4L56.2,137.3z M55.4,130.8
			c-0.7,0-1.1,0-1.4,0c0-0.4,0.1-0.8,0.1-1.3v-2c0-0.6,0-0.9-0.1-1.3c0.4,0,0.8,0.1,1.6,0.1h4.4c0.7,0,1.2,0,1.6-0.1
			c0,0.4-0.1,0.6-0.1,1.4v2c0,0.6,0,0.9,0.1,1.3c-0.3,0-0.8,0-1.4,0h-1.5v0.8h1.9c0.8,0,1.2,0,1.6-0.1v1.6c-0.4-0.1-0.8-0.1-1.6-0.1
			h-5.7c-0.8,0-1.2,0-1.6,0.1v-1.6c0.4,0.1,0.8,0.1,1.6,0.1h2.1v-0.8H55.4z M55.5,136.5c-0.6,0-0.9,0-1.2,0c0-0.3,0.1-0.6,0.1-1
			v-1.1c0-0.4,0-0.6-0.1-1c0.3,0,0.5,0,1.2,0H60c0.7,0,0.9,0,1.2,0c0,0.3,0,0.6,0,1v1.1c0,0.3,0,0.7,0,1c-0.3,0-0.6,0-1.2,0h-1.4
			v2.6c0,0.5-0.1,0.9-0.4,1.1c-0.2,0.2-0.7,0.2-1.4,0.2c-0.2,0-0.4,0-0.9,0c-0.1-0.6-0.2-1.1-0.4-1.6c0.4,0.1,0.8,0.2,1.1,0.2
			c0.3,0,0.3-0.1,0.3-0.3v-2.2H55.5z M55.7,127.9h4.1v-0.6h-4.1V127.9z M55.7,129.6h4.1V129h-4.1V129.6z M55.9,135.5h3.6v-0.8h-3.6
			V135.5z M60.4,139.9c-0.4-1-0.8-1.7-1.4-2.6l1.2-0.5c0.5,0.7,0.8,1.1,1.2,1.9c1.4-0.7,2.7-1.5,4-2.8c0.5-0.5,1-1,1.3-1.5l1.4,1.2
			c-0.6,0.5-0.6,0.5-0.9,0.9c-1.8,1.9-3.1,2.8-5.2,3.9c-0.2-0.5-0.4-0.6-0.7-1.1L60.4,139.9z M67.8,131.1c-0.2,0.2-0.4,0.3-0.6,0.6
			c-1.5,1.6-2.8,2.6-4.7,3.6c-0.3-0.6-0.6-1.1-1-1.6c1.3-0.5,2.5-1.4,3.7-2.4c0.7-0.6,1-0.9,1.2-1.3L67.8,131.1z M67.4,126.9
			c0,0-0.4,0.4-1.2,1.1c-1.4,1.2-2,1.7-3.6,2.6c-0.3-0.6-0.6-1-1-1.5c1.3-0.6,2.2-1.2,3.2-2c0.6-0.5,0.8-0.7,1.2-1.3L67.4,126.9z"/>
		<path d="M73.1,126.4c-0.1,0.5-0.1,0.9-0.2,2.2c-0.1,1.5-0.2,4.7-0.2,5.9c0,1.5,0.1,2.1,0.4,2.6c0.4,0.5,1.1,0.8,2.1,0.8
			c1.7,0,3.1-1,3.9-2.7c0.4-0.8,0.6-1.6,0.7-2.7c0.9,0.7,1.2,0.9,1.9,1.2c-0.6,2.2-1.1,3.2-1.9,4.1c-1.2,1.4-2.8,2-4.8,2
			c-1.1,0-2.1-0.3-2.8-0.7c-1.1-0.7-1.6-2-1.6-4.1c0-0.8,0-2.4,0.1-6.5c0-0.5,0-0.8,0-1c0-0.4,0-0.7-0.1-1.1L73.1,126.4z"/>
		<path d="M82.6,128.1c0.4,0,0.5,0,0.6,0c0.3,0,0.3,0,2.6-0.2c0.9,0,3.6-0.2,8-0.4c1.3-0.1,1.6-0.1,1.8-0.2l0.1,2
			c-0.2,0-0.2,0-0.3,0c-1,0-2.1,0.3-3.2,0.9c-2,1.1-3.2,2.7-3.2,4.3c0,1.2,0.8,2.2,2.1,2.6c0.8,0.2,1.8,0.4,2.4,0.4c0,0,0.2,0,0.3,0
			l-0.3,2.2c-0.2,0-0.3-0.1-0.5-0.1c-1.8-0.2-2.8-0.5-3.7-1.1c-1.5-0.8-2.3-2.2-2.3-3.9c0-1.4,0.5-2.7,1.5-3.8
			c0.6-0.7,1.2-1.1,2.2-1.6c-1.3,0.2-1.9,0.2-5.4,0.5c-1.1,0.1-2,0.2-2.7,0.3L82.6,128.1z"/>
		<path d="M100,128.9c0,7-0.3,9-1.6,11.5c-0.5-0.6-0.8-0.9-1.4-1.4c0.6-1,0.8-1.7,1-2.8c0.2-1.2,0.3-3.5,0.3-6.8
			c0-1.2,0-1.7-0.1-2.2c0.5,0.1,1,0.1,1.7,0.1h4.1v-0.7c0-0.4,0-0.6-0.1-0.9h1.9c-0.1,0.3-0.1,0.5-0.1,0.9v0.7h4.1
			c0.9,0,1.4,0,1.9-0.1v1.8c-0.6-0.1-1.1-0.1-1.9-0.1h-5.3c2.1,1.2,2.5,1.4,4,2.7l-1.2,1.4c-1.2-1.2-2.1-1.9-4.1-2.9l1.2-1.1H100z
			 M99.9,138.3c0.5-1.1,0.7-1.6,0.9-2.6c0.2-1,0.3-1.7,0.4-3.1l1.7,0.4c-0.3,3-0.5,4.2-1.3,6.3L99.9,138.3z M105.3,131.6
			c0,0.4-0.1,0.8-0.1,1.5v5c0,0.4,0.1,0.5,1.1,0.5c1.3,0,1.3-0.1,1.3-2.9c0.6,0.3,1.2,0.5,1.7,0.6c-0.1,2.2-0.3,3-0.6,3.4
			c-0.4,0.4-1,0.6-2.4,0.6c-2.2,0-2.8-0.2-2.8-1.2v-6c0-0.7,0-1.1-0.1-1.5H105.3z M110.3,139c-0.4-2.5-0.8-3.7-1.8-5.8l1.5-0.8
			c1.1,2.3,1.5,3.6,2,5.7L110.3,139z"/>
		<path d="M116.3,136.8c-0.7,0.4-1.2,0.6-2.2,1c-0.3-0.6-0.5-0.9-0.9-1.4c1.3-0.3,2.6-0.9,3.6-1.6H115c-0.8,0-1.3,0-1.8,0.1v-1.5
			c0.5,0,1,0.1,1.8,0.1h3.2c0.2-0.2,0.3-0.4,0.4-0.5h-2.2c-0.5,0-0.9,0-1.3,0c0-0.4,0-0.7,0-1.1v-2.3c0-0.4,0-0.8,0-1.1
			c0.3,0,0.6,0,1.3,0h0.7V128h-2.1c-0.7,0-1.2,0-1.8,0.1v-1.6c0.5,0.1,1.1,0.1,1.8,0.1h2v-0.1c0-0.4,0-0.6-0.1-0.9h1.8
			c0,0.3-0.1,0.5-0.1,0.9v0.1h3.3v-0.1c0-0.4,0-0.6,0-0.9h1.8c0,0.3-0.1,0.5-0.1,0.9v0.1h2.2c0.7,0,1.3,0,1.8-0.1v1.6
			c-0.6-0.1-1-0.1-1.8-0.1h-2.2v0.6h0.9c0.7,0,1,0,1.3,0c0,0.4,0,0.7,0,1.1v2.3c0,0.4,0,0.8,0,1.1c-0.4,0-0.8,0-1.3,0h-4.3
			c-0.2,0.3-0.2,0.4-0.3,0.5h6c0.8,0,1.3,0,1.8-0.1v1.5c-0.5-0.1-1-0.1-1.8-0.1h-1.7c0.4,0.3,1,0.6,1.7,0.9c0.6,0.3,1.1,0.4,2.1,0.6
			c-0.4,0.5-0.6,1-0.8,1.5c-0.9-0.3-1.6-0.6-2.2-0.9c-0.3,3.1-0.6,3.4-2.8,3.4c-0.3,0-0.6,0-1.2,0c-0.1-0.6-0.2-1-0.5-1.6
			c0.7,0.1,1.1,0.2,1.6,0.2c1.1,0,1.2-0.1,1.3-1.6h-2.9c-0.9,1.8-2.7,2.8-5.5,3.2c-0.2-0.5-0.4-0.9-0.9-1.4c2.2-0.2,3.6-0.8,4.5-1.8
			h-1.1c-0.6,0-1,0-1.4,0.1V136.8z M116.8,130.2h7.4v-0.5h-7.4V130.2z M116.8,131.9h7.4v-0.6h-7.4V131.9z M118.9,134.9
			c-0.5,0.5-1,0.9-1.5,1.2c0,0,0,0,0.2,0h1.9c0.1-0.4,0.1-0.5,0.1-0.9l1.8,0.1c0,0.1-0.1,0.4-0.2,0.8h2.6c-0.7-0.5-0.8-0.6-1.5-1.2
			H118.9z M122.1,128h-3.3v0.6h3.3V128z"/>
	</g>
	<g>
		<g id="グループ_16_00000030471236502123400030000002951917587524821672_" transform="translate(118.581 610.934)">
			<path id="パス_7_00000176013613123830001220000002933365278277270953_" style="&st21;" d="M-0.6-518.3l-1.9,1.2l-1.9-1.2
				l-1.9,1.2l-1.9-1.2l-1.9,1.2l-1.9-1.2l-1.9,1.2l-1.9-1.2l-1.9,1.2l-1.9-1.2l-1.9,1.2l-1.9-1.2l-1.9,1.2l-1.9-1.2v-45.5l1.9-1.2
				l1.9,1.2l1.9-1.2l1.9,1.2l1.9-1.2l1.9,1.2l1.9-1.2l1.9,1.2l1.9-1.2l1.9,1.2l1.9-1.2l1.9,1.2l1.9-1.2l1.9,1.2L-0.6-518.3
				L-0.6-518.3z"/>
			
				<line id="線_7_00000113312337660514397240000002100198295296990354_" style="&st22;" x1="-23.9" y1="-555.2" x2="-4" y2="-555.2"/>
			
				<line id="線_8_00000124129452739990438250000000845120306379479227_" style="&st22;" x1="-23.9" y1="-546.9" x2="-4" y2="-546.9"/>
			
				<line id="線_10_00000018929982698365398660000000614451531302527655_" style="&st22;" x1="-23.9" y1="-539.5" x2="-4" y2="-539.5"/>
			
				<line id="線_11_00000127760333034480605790000003807958904882472382_" style="&st22;" x1="-23.9" y1="-531.2" x2="-15.9" y2="-531.2"/>
			
				<line id="線_12_00000112619546615438450970000003558484357033854352_" style="&st22;" x1="-23.9" y1="-523.9" x2="-15.9" y2="-523.9"/>
			<g id="グループ_15_00000175302497257886057070000004477840234994154680_" transform="translate(15.292 30.684)">
				<path id="パス_8_00000141454300060855802680000001159465221346928261_" d="M-19.8-559.9c0.2,0,0.5,0.1,0.5,0.4
					c0,0,0,0.1,0,0.1c0,0.2-0.2,0.5-0.4,0.5c0,0-0.1,0-0.1,0h-3.1l0,0v1.6h3.1c0.3,0,0.5,0.2,0.5,0.5c0,0.3-0.2,0.5-0.5,0.5
					c0,0,0,0,0,0h-3.1v2.3c0,0.3-0.2,0.6-0.5,0.6c-0.1,0-0.1,0-0.2,0c-0.4,0-0.7-0.2-0.7-0.6v-2.3h-3.2c-0.3,0-0.5-0.2-0.5-0.5
					c0-0.3,0.2-0.5,0.5-0.5c0,0,0,0,0,0h3.2v-1.6l0,0h-3.1c-0.2,0-0.5-0.2-0.5-0.4c0,0,0-0.1,0-0.1c0-0.2,0.2-0.5,0.4-0.5
					c0,0,0.1,0,0.1,0h2.5l-2.6-4c-0.1-0.1-0.2-0.3-0.2-0.5c0-0.3,0.4-0.6,0.7-0.6c0.3,0,0.4,0.2,0.5,0.4l2.8,4.5l2.9-4.5
					c0.1-0.2,0.3-0.4,0.5-0.4c0.3,0,0.7,0.2,0.7,0.6c0,0.2-0.1,0.4-0.2,0.5l-2.6,4L-19.8-559.9z"/>
			</g>
		</g>
		<g>
			<g>
				<defs>
					<path id="SVGID_00000134220330817607172370000006203478085420213381_" d="M80,50.6L90.7,47l9.1-14.7L89.4,16.9l-28.7-2.8
						l3.9,17h11.3c0,0,4.4,1.1,4.4,3.3S80,50.6,80,50.6z"/>
				</defs>
				<clipPath id="SVGID_00000110448284720984584630000017459075786553630126_">
					<use xlink:href="#SVGID_00000134220330817607172370000006203478085420213381_"  style="overflow:visible;"/>
				</clipPath>
				<g style="clip-path:url(#SVGID_00000110448284720984584630000017459075786553630126_);">
					<polygon points="64.3,34.3 69,32 66.1,27.6 71.3,28 70.9,22.8 75.3,25.7 77.6,21 79.9,25.7 84.2,22.8 83.9,28 89.1,27.6 
						86.2,32 90.9,34.3 86.2,36.6 89.1,40.9 83.9,40.6 84.2,45.8 79.9,42.9 77.6,47.6 75.3,42.9 70.9,45.8 71.3,40.6 66.1,40.9 
						69,36.6 					"/>
					<polygon style="&st24;" points="64.3,34.3 69,32 66.1,27.6 71.3,28 70.9,22.8 75.3,25.7 77.6,21 79.9,25.7 84.2,22.8 83.9,28 
						89.1,27.6 86.2,32 90.9,34.3 86.2,36.6 89.1,40.9 83.9,40.6 84.2,45.8 79.9,42.9 77.6,47.6 75.3,42.9 70.9,45.8 71.3,40.6 
						66.1,40.9 69,36.6 					"/>
				</g>
			</g>
			<g>
				<path d="M49,30.7c-2,0-3.7,1.6-3.7,3.7v56.4c0,2,1.6,3.7,3.7,3.7h28.8c2,0,3.7-1.6,3.7-3.7V34.4c0-2-1.6-3.7-3.7-3.7H49z
					 M77.7,92.9H49c-1.3,0-2.4-1.1-2.4-2.4V34.4c0-1.3,1.1-2.4,2.4-2.4h5.6l0,0.3c0,0.1,0.3,2.4,3.5,2.4h10.5c3.2,0,3.5-2.3,3.5-2.4
					l0-0.3l5.6,0c1.3,0,2.4,1.1,2.4,2.4v56.2C80.1,91.9,79,92.9,77.7,92.9z"/>
			</g>
			<g>
				<path d="M63.3,60.4c-2,0-3.7,1.7-3.7,3.7c0,2,1.7,3.7,3.7,3.7c2,0,3.7-1.7,3.7-3.7C67.1,62.1,65.4,60.4,63.3,60.4z"/>
				<path d="M73.9,57.2h-4.4L68,54.4c-0.2-0.3-0.5-0.5-0.8-0.5h-7.6c-0.4,0-0.7,0.2-0.8,0.5l-1.5,2.8h-1.3v-0.8
					c0-0.3-0.2-0.5-0.5-0.5h-0.8c-0.3,0-0.5,0.2-0.5,0.5v0.8h-1.4c-0.4,0-0.8,0.4-0.8,0.8l0,0v12.3c0,0.4,0.4,0.8,0.8,0.8h21.2
					c0.4,0,0.8-0.4,0.8-0.8l0,0V57.9C74.7,57.5,74.4,57.2,73.9,57.2z M63.3,69.4c-2.9,0-5.3-2.4-5.3-5.3c0-2.9,2.4-5.3,5.3-5.3
					c2.9,0,5.3,2.4,5.3,5.3C68.6,67,66.3,69.4,63.3,69.4z M72.3,60.4c-0.5,0-0.8-0.4-0.8-0.8s0.4-0.8,0.8-0.8c0.5,0,0.8,0.4,0.8,0.8
					S72.7,60.4,72.3,60.4z"/>
			</g>
		</g>
	</g>
</g>
</svg>
