<?xml version="1.0" encoding="utf-8"?>
<!-- Generator: Adobe Illustrator 26.5.0, SVG Export Plug-In . SVG Version: 6.00 Build 0)  -->
<!DOCTYPE svg PUBLIC "-//W3C//DTD SVG 1.1//EN" "http://www.w3.org/Graphics/SVG/1.1/DTD/svg11.dtd" [
	<!ENTITY st0 "fill:none;">
	<!ENTITY st1 "enable-background:new    ;">
	<!ENTITY st2 "fill:#202020;">
	<!ENTITY st3 "fill:none;stroke:#000000;stroke-width:2;stroke-miterlimit:10;">
	<!ENTITY st4 "fill:none;stroke:#000000;stroke-width:2;stroke-linecap:round;stroke-linejoin:round;">
	<!ENTITY st5 "fill:none;stroke:#000000;stroke-width:2;stroke-linecap:round;stroke-linejoin:round;stroke-miterlimit:10;">
]>
<svg version="1.1" id="レイヤー_1" xmlns="http://www.w3.org/2000/svg" xmlns:xlink="http://www.w3.org/1999/xlink" x="0px"
	 y="0px" viewBox="0 0 446 390" style="enable-background:new 0 0 446 390;" xml:space="preserve">
<path id="長方形_3_00000169525378878689306110000012008285899016436884_" style="&st0;" d="M21,1h404c11,0,20,9,20,20v348
	c0,11-9,20-20,20H21c-11,0-20-9-20-20V21C1,10,10,1,21,1z"/>
<g style="&st1;">
	<path style="&st2;" d="M60.7,301.4c-0.1,0.8-0.2,1.6-0.2,3l-0.2,17.1c3.1-0.6,5.9-1.7,8.2-3.3c2.8-1.9,4.6-4,6.1-6.9
		c1.2,1.6,1.6,2,2.8,3.1c-2.1,3.2-4,5.2-6.7,7c-3,2-6.1,3.2-10.9,4.1c-0.8,0.1-1.2,0.3-1.8,0.5l-1.9-2.3c0.2-0.8,0.3-1.4,0.3-3.1
		l0.1-16.2c0-2.1,0-2.1-0.2-3.1L60.7,301.4z"/>
	<path style="&st2;" d="M86,308.4c3.1,1.2,5.4,2.4,8,4.1l-1.9,3.4c-2.4-1.8-5.1-3.2-8.1-4.4L86,308.4z M84.7,321.9
		c2.3,0,5.5-0.8,8.7-1.9c3.7-1.4,6.3-3.4,8.7-6.6c1.6-2.2,2.5-4,3.5-6.6c1.2,1.3,1.7,1.7,3.1,2.7c-1.4,3.3-2.6,5.4-4.5,7.6
		c-3.8,4.4-8.9,7-16.3,8.5c-1.1,0.2-1.5,0.3-2.1,0.5L84.7,321.9z M88.3,301.2c3.1,1.2,5.5,2.3,8,3.9l-1.9,3.3
		c-2.7-1.8-5.4-3.2-8-4.1L88.3,301.2z"/>
	<path style="&st2;" d="M114.8,311.4c1.3,0.2,1.9,0.2,4.9,0.2h16c3,0,3.5,0,4.9-0.2v4.2c-1.2-0.1-1.5-0.1-4.9-0.1h-15.9
		c-3.4,0-3.7,0-4.9,0.1v-4.2H114.8z"/>
	<path style="&st2;" d="M150.7,326.3c0.2-1,0.2-1.8,0.2-3.4v-19.2c0-1.5-0.1-2.2-0.2-3.1h4.1c-0.1,0.9-0.1,1.3-0.1,3.1v5.6
		c4.1,1.4,8.8,3.6,13.6,6.3l-2.1,3.5c-2.5-1.7-5.6-3.4-10.6-5.7c-0.7-0.3-0.8-0.4-1-0.5c0.1,0.8,0.1,1.2,0.1,2v7.9
		c0,1.6,0,2.3,0.1,3.3h-4.1V326.3z"/>
	<path style="&st2;" d="M176,303.4c1.2,0.3,3.1,0.4,7,0.4c0.8-1.8,1.1-2.7,1.2-3.7l3.9,0.4c-0.2,0.3-0.2,0.3-1.2,2.7
		c-0.2,0.3-0.2,0.4-0.3,0.5c0.2,0,0.2,0,1.9-0.1c3.5-0.2,6.2-0.5,7.9-1l0.2,3.4c-0.8,0.1-0.8,0.1-2.4,0.2c-2.2,0.3-6,0.5-9,0.6
		c-0.9,1.7-1.7,2.9-2.8,4v0.1c0.2-0.2,0.2-0.2,0.6-0.5c1.1-0.8,2.7-1.3,4.2-1.3c2.3,0,3.8,1.1,4.3,3.2c2.3-0.8,3.8-1.4,4.6-1.6
		c1.6-0.6,1.7-0.6,2.2-0.9l1.4,3.4c-0.8,0.1-1.7,0.4-3.3,0.8c-0.4,0.1-1.9,0.6-4.5,1.5v0.3c0,0.8,0,0.8,0,1.2c0,0.3,0,0.8,0,1.2
		c0,0.5,0,0.8,0,1c0,0.7,0,1.1,0.1,1.6l-3.5,0.1c0.1-0.5,0.2-2.1,0.2-3.5c0-0.4,0-0.4,0-0.7c-1.5,0.7-2.2,1.1-2.9,1.6
		c-1.1,0.8-1.6,1.6-1.6,2.5c0,1.6,1.4,2.2,5.1,2.2c3.6,0,6.7-0.5,8.8-1.3l0.3,3.9c-0.5,0-0.7,0-1.4,0.1c-2.2,0.3-5,0.5-7.7,0.5
		c-3.2,0-5.2-0.4-6.7-1.3c-1.4-0.8-2.2-2.2-2.2-3.9c0-1.2,0.4-2.2,1.3-3.3c1.3-1.7,3.1-2.8,6.4-4.2c-0.1-1.1-0.8-1.6-1.8-1.6
		c-1.7,0-3.8,1-6.1,3.1c-1.3,1.1-2,1.8-2.6,2.7l-2.7-2.7c0.8-0.6,1.6-1.4,2.7-2.7c1.2-1.4,3-4,3.6-5.1c0.1-0.2,0.1-0.2,0.2-0.4
		c-0.1,0-0.5,0-0.5,0c-0.5,0-3.1-0.1-3.8-0.1c-0.6,0-0.6,0-0.8,0c-0.1,0-0.3,0-0.5,0L176,303.4z"/>
	<path style="&st2;" d="M208.1,308.3c-0.7,0-1.3,0-2,0.2v-3.2c0.7,0.1,1.2,0.2,2.1,0.2h0.9V303c0-1.5,0-2.2-0.2-3.1h3.5
		c-0.1,0.9-0.2,1.6-0.2,3.1v2.5h0.9c0.6,0,1,0,1.5-0.1v3.1c-0.6-0.1-1-0.1-1.5-0.1h-0.9v5.1c0.7-0.2,0.9-0.2,1.4-0.4v-2.5
		c0.9,0.1,1.5,0.2,2.7,0.2h14.1c1.4,0,2.2-0.1,3-0.2v2.8c-0.8-0.1-1.5-0.2-2.9-0.2h-7.4v11.7c1.2-0.7,2.3-1.5,3.3-2.6
		c-0.9-1.2-1.4-2.1-2.4-4.2l2.2-1h-0.6c-1,0-1.3,0-1.9,0.1v-2.8c0.7,0.1,1.2,0.1,2.2,0.1h3.6c1,0,1.5,0,2-0.1l1.3,1.5
		c-0.2,0.5-0.3,0.6-0.5,1.2c-0.7,2.1-1.4,3.5-2.4,5c1.3,1.1,2.5,1.8,4,2.5c-0.8,1-1.3,1.7-1.8,2.8c-1.7-1.1-2.7-1.9-4-3.1
		c-1.1,1.1-2.4,2.3-3.5,3.1c-0.6-1.1-1-1.6-1.7-2.3c0,1.1,0.1,1.8,0.2,2.5H220c0.1-1.2,0.2-1.9,0.2-3.1v-0.4c-1,0.3-3.1,0.8-5.1,1.1
		c-0.7,0.1-1.3,0.3-1.7,0.4l-0.4-2.9c0.1,0,0.2,0,0.2,0c0.3,0,0.6,0,1.6-0.1V313c-0.4,0-0.6,0-0.9,0.1v2.5c-0.8,0.3-1.1,0.4-1.8,0.6
		v8.2c0,2.3-0.7,2.9-3.4,2.9c-0.4,0-1.2,0-2-0.1c-0.1-1.2-0.3-1.9-0.7-3c1,0.1,1.6,0.2,2.3,0.2c0.6,0,0.7-0.1,0.7-0.8v-6.4
		c-2.1,0.6-2.2,0.6-2.8,0.8l-0.5-3.2c0.7,0,0.7-0.1,3.3-0.6v-5.9L208.1,308.3L208.1,308.3z M218.5,309.6c-1.1,0-2,0-2.7,0.1
		c0.1-0.9,0.1-2.1,0.1-3v-3.6c0-0.9,0-1.6-0.1-2.5c0.8,0.1,1.4,0.1,2.8,0.1h9.9c1.5,0,2,0,2.8-0.1c-0.1,0.9-0.1,1.5-0.1,2.6v3.5
		c0,1,0,2.2,0.1,3c-0.7-0.1-1.6-0.1-2.7-0.1H218.5z M220.5,314.6v-1.4h-3.2v1.4H220.5z M220.5,318.2v-1.5h-3.2v1.5H220.5z
		 M217.3,322.3c1.8-0.3,1.8-0.3,3.2-0.6v-1.3h-3.2V322.3z M218.9,304.2h9.2V303h-9.2V304.2z M218.9,307.4h9.2v-1.2h-9.2V307.4z
		 M226.4,317.1c0.7,1.6,1,2.2,1.7,3.1c0.7-1.1,1-1.9,1.4-3.1H226.4z"/>
	<path style="&st2;" d="M244.4,321.5c-1.2,2.6-1.9,3.6-3.7,5.5c-0.7-0.8-1.3-1.3-2.2-2.1c1.7-1.4,2.5-2.5,3.4-4.5L244.4,321.5z
		 M242.9,309.2c-1.3,0-2.1,0-2.6,0.1c0.1-0.8,0.1-1.6,0.1-2.4v-3.8c0-1.1,0-1.8-0.1-2.5c0.8,0.1,1.6,0.1,2.9,0.1h8.2
		c1.2,0,2.2,0,3-0.1c-0.1,0.7-0.1,1.1-0.1,2.5v3.8c0,1.1,0,1.7,0.1,2.4c-0.5,0-1.5-0.1-2.6-0.1H249v1.4h3.6c1.5,0,2.2,0,3-0.1v2.9
		c-0.8-0.1-1.6-0.2-3-0.2h-10.7c-1.4,0-2.2,0-3,0.2v-2.9c0.8,0.1,1.5,0.1,3,0.1h3.9v-1.4H242.9z M243,320c-1.2,0-1.6,0-2.3,0.1
		c0.1-0.6,0.1-1.1,0.1-1.8v-2.1c0-0.7,0-1.2-0.1-1.8c0.6,0.1,1,0.1,2.3,0.1h8.5c1.3,0,1.7,0,2.3-0.1c-0.1,0.6-0.1,1.2-0.1,1.8v2.1
		c0,0.6,0,1.2,0.1,1.8c-0.6-0.1-1.1-0.1-2.3-0.1H249v4.9c0,1-0.2,1.6-0.8,2c-0.4,0.3-1.3,0.5-2.7,0.5c-0.4,0-0.8,0-1.6-0.1
		c-0.1-1.1-0.3-2-0.7-3c0.7,0.2,1.4,0.3,2,0.3c0.5,0,0.6-0.1,0.6-0.6v-4L243,320L243,320z M243.4,303.9h7.8v-1.1h-7.8V303.9z
		 M243.4,307h7.8v-1.1h-7.8V307z M243.9,318h6.8v-1.5h-6.8V318z M252.3,326.4c-0.7-1.8-1.4-3.1-2.6-4.9l2.3-1
		c0.9,1.3,1.4,2.1,2.3,3.6c2.7-1.2,5-2.9,7.4-5.2c1-1,1.8-1.9,2.4-2.8l2.6,2.3c-1,1-1,1-1.6,1.6c-3.3,3.5-5.8,5.3-9.7,7.3
		c-0.5-0.9-0.7-1.2-1.3-2L252.3,326.4z M266.1,309.8c-0.4,0.3-0.7,0.6-1.2,1.1c-2.8,2.9-5.3,4.8-8.8,6.7c-0.5-1.2-1.1-2-1.9-2.9
		c2.4-1,4.8-2.6,7-4.6c1.2-1.1,1.8-1.8,2.2-2.5L266.1,309.8z M265.4,301.9c-0.1,0.1-0.8,0.7-2.3,2c-2.6,2.3-3.8,3.2-6.7,4.9
		c-0.6-1.2-1.1-1.9-2-2.8c2.4-1.1,4.1-2.2,5.9-3.8c1.1-1,1.4-1.3,2.2-2.4L265.4,301.9z"/>
	<path style="&st2;" d="M279,301.1c-0.2,0.9-0.2,1.7-0.4,4c-0.1,2.8-0.3,8.9-0.3,11c0,2.8,0.2,3.9,0.8,4.8c0.7,1,2.1,1.6,4,1.6
		c3.2,0,5.8-1.8,7.3-5.1c0.7-1.6,1-3,1.4-5c1.6,1.3,2.2,1.7,3.6,2.3c-1.2,4-2.1,6-3.6,7.6c-2.2,2.5-5.2,3.8-9,3.8
		c-2.1,0-4-0.5-5.2-1.3c-2.1-1.4-2.9-3.7-2.9-7.7c0-1.6,0.1-4.6,0.2-12.1c0-0.9,0-1.5,0-1.9c0-0.8,0-1.3-0.1-2L279,301.1z"/>
	<path style="&st2;" d="M299.8,304.2c0.7,0,1,0,1.1,0c0.5,0,0.5,0,4.9-0.3c1.7-0.1,6.7-0.4,15-0.8c2.5-0.1,2.9-0.2,3.5-0.3l0.2,3.8
		c-0.3,0-0.3,0-0.6,0c-1.8,0-4,0.6-5.9,1.6c-3.8,2-6.1,5-6.1,8c0,2.3,1.5,4.1,4,4.9c1.5,0.5,3.4,0.8,4.5,0.8c0,0,0.3,0,0.6,0
		l-0.5,4.1c-0.4-0.1-0.5-0.1-1-0.2c-3.3-0.4-5.2-1-7-2c-2.8-1.6-4.3-4.1-4.3-7.2c0-2.5,1-5.1,2.9-7.1c1.1-1.2,2.2-2,4.2-3
		c-2.4,0.4-3.6,0.5-10.1,0.9c-2,0.1-3.8,0.4-5,0.6L299.8,304.2z"/>
	<path style="&st2;" d="M335.5,305.7c0,13-0.6,16.9-3.1,21.5c-1-1.2-1.6-1.8-2.7-2.6c1.1-2,1.6-3.2,1.9-5.2
		c0.4-2.2,0.6-6.6,0.6-12.7c0-2.2,0-3.2-0.1-4.2c1,0.1,1.8,0.2,3.1,0.2h7.6v-1.3c0-0.7,0-1.1-0.1-1.7h3.6c-0.1,0.5-0.2,0.9-0.2,1.7
		v1.3h7.8c1.7,0,2.7-0.1,3.5-0.2v3.3c-1-0.1-2-0.2-3.5-0.2H344c4,2.2,4.6,2.6,7.5,5l-2.3,2.5c-2.2-2.2-4-3.5-7.6-5.5l2.3-2h-8.4
		V305.7z M335.2,323.3c0.9-2,1.2-2.9,1.6-4.9c0.4-1.9,0.5-3.1,0.7-5.8l3.1,0.8c-0.5,5.5-0.9,7.8-2.4,11.8L335.2,323.3z M345.5,310.8
		c-0.1,0.7-0.1,1.6-0.1,2.8v9.4c0,0.8,0.2,0.9,2,0.9c2.4,0,2.4-0.1,2.4-5.5c1.2,0.5,2.2,0.9,3.2,1c-0.2,4.1-0.5,5.6-1.2,6.4
		s-1.9,1.2-4.4,1.2c-4.2,0-5.2-0.4-5.2-2.2v-11.3c0-1.3,0-2.1-0.2-2.8h3.5V310.8z M354.8,324.7c-0.8-4.6-1.6-7-3.5-10.9l2.9-1.4
		c2,4.4,2.8,6.7,3.8,10.7L354.8,324.7z"/>
	<path style="&st2;" d="M369,320.6c-1.3,0.7-2.3,1.2-4.2,2c-0.6-1.1-1-1.8-1.7-2.6c2.5-0.6,4.9-1.7,6.7-3h-3.2
		c-1.4,0-2.4,0.1-3.3,0.2v-2.8c1,0.1,1.9,0.1,3.4,0.1h5.9c0.3-0.3,0.6-0.7,0.8-1h-4c-1,0-1.7,0-2.4,0.1c0.1-0.7,0.1-1.3,0.1-2.1
		v-4.3c0-0.8,0-1.4-0.1-2.1c0.5,0.1,1.1,0.1,2.4,0.1h1.3V304h-3.9c-1.4,0-2.2,0.1-3.3,0.2v-2.9c1,0.1,2.1,0.2,3.4,0.2h3.8v-0.1
		c0-0.7,0-1.1-0.1-1.6h3.4c-0.1,0.5-0.1,0.9-0.1,1.6v0.1h6.2v-0.1c0-0.7,0-1.1-0.1-1.6h3.3c-0.1,0.5-0.1,0.9-0.1,1.6v0.1h4.1
		c1.3,0,2.4-0.1,3.4-0.2v2.9c-1.1-0.2-1.9-0.2-3.3-0.2h-4.1v1.1h1.7c1.2,0,1.9,0,2.4-0.1c-0.1,0.7-0.1,1.3-0.1,2.1v4.3
		c0,0.8,0,1.4,0.1,2.1c-0.7,0-1.4-0.1-2.4-0.1h-8c-0.3,0.5-0.4,0.7-0.6,1h11.2c1.5,0,2.4-0.1,3.4-0.1v2.8c-1-0.1-1.8-0.2-3.3-0.2
		h-3.2c0.8,0.6,1.9,1.2,3.2,1.7c1.1,0.5,2.1,0.7,3.9,1.1c-0.7,0.9-1.1,1.8-1.5,2.8c-1.7-0.6-3-1.1-4.1-1.8c-0.6,5.8-1.1,6.5-5.3,6.5
		c-0.6,0-1.1,0-2.3-0.1c-0.2-1.1-0.4-1.9-1-2.9c1.3,0.2,2.1,0.3,3,0.3c2,0,2.2-0.2,2.4-2.9h-5.4c-1.8,3.3-5,5.2-10.3,6
		c-0.5-1-0.8-1.7-1.6-2.6c4.1-0.4,6.7-1.4,8.4-3.3h-2c-1.2,0-1.9,0-2.6,0.1v-1.2H369z M370.1,308.2H384v-1h-13.9V308.2z
		 M370.1,311.2H384v-1h-13.9V311.2z M373.9,317c-1,1-1.9,1.7-2.8,2.3c0.1,0,0.1,0,0.3,0h3.5c0.2-0.7,0.3-1,0.3-1.7l3.4,0.1
		c0,0.1-0.2,0.7-0.5,1.6h5c-1.3-0.9-1.6-1.2-2.8-2.3H373.9z M380,304h-6.2v1.1h6.2V304z"/>
</g>
<g>
	<g>
		<path d="M184,140.3c-3.6,0-6.5,2.9-6.5,6.5s2.9,6.5,6.5,6.5s6.5-2.9,6.5-6.5S187.6,140.3,184,140.3z"/>
		<path d="M200.9,135.7h-7.1l-2.4-4.4c-0.3-0.5-0.8-0.8-1.3-0.8h-12c-0.6,0-1.1,0.3-1.3,0.8l-2.4,4.4h-2.1v-1.3
			c0-0.4-0.3-0.7-0.7-0.7h-1.2c-0.4,0-0.7,0.3-0.7,0.7v1.3h-2.3c-0.7,0-1.3,0.6-1.3,1.2v19.5c0,0.7,0.6,1.3,1.3,1.3h33.5
			c0.7,0,1.3-0.6,1.3-1.3V137C202.2,136.3,201.6,135.7,200.9,135.7z M184,154.5c-4.2,0-7.7-3.4-7.7-7.7s3.4-7.7,7.7-7.7
			s7.7,3.4,7.7,7.7S188.2,154.5,184,154.5z M198.2,140.9c-0.7,0-1.3-0.6-1.3-1.3c0-0.7,0.6-1.3,1.3-1.3s1.3,0.6,1.3,1.3
			C199.5,140.3,198.9,140.9,198.2,140.9z"/>
	</g>
	<g>
		<g style="&st1;">
			<path d="M258.1,108.8l-1.5-3.3c0,0,0-0.1-0.1-0.1h-1.1c0,0-0.1,0-0.1,0.1v3.2c0,0.1-0.1,0.2-0.2,0.2h-1.3c-0.1,0-0.2-0.1-0.2-0.2
				v-8c0-0.1,0.1-0.2,0.2-0.2h3.4c0.5,0,1,0.1,1.3,0.3s0.7,0.5,0.9,0.9c0.2,0.4,0.3,0.8,0.3,1.3s-0.1,1-0.4,1.4s-0.6,0.7-1.1,0.8
				l0,0c0,0,0,0,0,0.1l1.6,3.3v0.1v0.1h-0.1h-1.4C258.3,108.9,258.2,108.9,258.1,108.8z M255.4,102.1v2c0,0,0,0.1,0.1,0.1h1.6
				c0.3,0,0.6-0.1,0.8-0.3c0.2-0.2,0.3-0.5,0.3-0.8s-0.1-0.6-0.3-0.8c-0.2-0.2-0.5-0.3-0.8-0.3L255.4,102.1
				C255.4,102,255.4,102,255.4,102.1z"/>
			<path d="M266.7,102h-3.9c0,0-0.1,0-0.1,0.1v1.8c0,0,0,0.1,0.1,0.1h2.5c0.1,0,0.2,0.1,0.2,0.2v1c0,0.1-0.1,0.2-0.2,0.2h-2.5
				c0,0-0.1,0-0.1,0.1v1.9c0,0,0,0.1,0.1,0.1h3.9c0.1,0,0.2,0.1,0.2,0.2v1c0,0.1-0.1,0.2-0.2,0.2h-5.4c-0.1,0-0.2-0.1-0.2-0.2v-8
				c0-0.1,0.1-0.2,0.2-0.2h5.4c0.1,0,0.2,0.1,0.2,0.2v1C266.9,101.9,266.8,102,266.7,102z"/>
			<path d="M269.4,108.7c-0.5-0.2-0.8-0.6-1.1-1s-0.4-0.9-0.4-1.5v-2.8c0-0.6,0.1-1.1,0.4-1.5s0.6-0.8,1.1-1s1-0.4,1.6-0.4
				s1.2,0.1,1.6,0.3c0.5,0.2,0.8,0.5,1.1,1c0.3,0.4,0.4,0.9,0.4,1.5c0,0.1-0.1,0.1-0.2,0.1l-1.3,0.1l0,0c-0.1,0-0.2,0-0.2-0.1v-0.1
				c0-0.4-0.1-0.8-0.4-1c-0.3-0.3-0.6-0.4-1-0.4s-0.8,0.1-1,0.4c-0.3,0.3-0.4,0.6-0.4,1v2.9c0,0.4,0.1,0.7,0.4,1s0.6,0.4,1,0.4
				s0.8-0.1,1-0.4c0.3-0.3,0.4-0.6,0.4-1c0,0,0-0.1,0.1-0.1s0.1,0,0.1,0l1.3,0.1c0.1,0,0.2,0,0.2,0.1v0.1c0,0.5-0.1,1-0.4,1.5
				c-0.3,0.4-0.6,0.7-1.1,1c-0.5,0.2-1,0.3-1.6,0.3C270.4,109,269.8,108.9,269.4,108.7z"/>
			<path d="M280.9,102H277c0,0-0.1,0-0.1,0.1v1.8c0,0,0,0.1,0.1,0.1h2.5c0.1,0,0.2,0.1,0.2,0.2v1c0,0.1-0.1,0.2-0.2,0.2H277
				c0,0-0.1,0-0.1,0.1v1.9c0,0,0,0.1,0.1,0.1h3.9c0.1,0,0.2,0.1,0.2,0.2v1c0,0.1-0.1,0.2-0.2,0.2h-5.4c-0.1,0-0.2-0.1-0.2-0.2v-8
				c0-0.1,0.1-0.2,0.2-0.2h5.4c0.1,0,0.2,0.1,0.2,0.2v1C281.1,101.9,281.1,102,280.9,102z"/>
			<path d="M282.3,108.7v-8c0-0.1,0.1-0.2,0.2-0.2h1.3c0.1,0,0.2,0.1,0.2,0.2v8c0,0.1-0.1,0.2-0.2,0.2h-1.3
				C282.4,108.9,282.3,108.9,282.3,108.7z"/>
			<path d="M290.3,100.9c0.4,0.2,0.7,0.5,0.9,0.9c0.2,0.4,0.3,0.8,0.3,1.4c0,0.5-0.1,0.9-0.3,1.3c-0.2,0.4-0.5,0.7-1,0.9
				s-0.9,0.3-1.4,0.3h-1.7c0,0-0.1,0-0.1,0.1v3c0,0.1-0.1,0.2-0.2,0.2h-1.3c-0.1,0-0.2-0.1-0.2-0.2v-8c0-0.1,0.1-0.2,0.2-0.2h3.3
				C289.4,100.5,289.9,100.6,290.3,100.9z M289.5,104c0.2-0.2,0.3-0.5,0.3-0.8c0-0.4-0.1-0.6-0.3-0.8c-0.2-0.2-0.5-0.3-0.9-0.3h-1.5
				c0,0-0.1,0-0.1,0.1v2.2c0,0,0,0.1,0.1,0.1h1.5C289,104.3,289.3,104.2,289.5,104z"/>
			<path d="M298.5,100.8v1.1c0,0.1-0.1,0.2-0.2,0.2h-2.1c0,0-0.1,0-0.1,0.1v6.6c0,0.1-0.1,0.2-0.2,0.2h-1.3c-0.1,0-0.2-0.1-0.2-0.2
				v-6.6c0,0,0-0.1-0.1-0.1h-2c-0.1,0-0.2-0.1-0.2-0.2v-1.1c0-0.1,0.1-0.2,0.2-0.2h5.9C298.4,100.6,298.5,100.6,298.5,100.8z"/>
		</g>
		<path id="パス_1_00000144330728578802776900000001020446899830373055_" style="&st3;" d="M304.2,188.1l-4.1,2.6l-4.1-2.6
			l-4.1,2.6l-4.1-2.6l-4.1,2.6l-4.1-2.6l-4.1,2.6l-4.1-2.6l-4.1,2.6l-4.1-2.6l-4.1,2.6l-4.1-2.6l-4.1,2.6l-4.1-2.6V86.5l4.1-2.6
			l4.1,2.6l4.1-2.6l4.1,2.6l4.1-2.6l4.1,2.6l4.1-2.6l4.1,2.6l4.1-2.6l4.1,2.6l4.1-2.6l4.1,2.6l4.1-2.6l4.1,2.6V188.1z"/>
		
			<line id="線_1_00000081649889496496865360000011262519251538927532_" style="&st4;" x1="254.7" y1="115.4" x2="297.2" y2="115.4"/>
		
			<line id="線_2_00000174566609375423699480000012135367214583201921_" style="&st4;" x1="254.7" y1="126.9" x2="297.2" y2="126.9"/>
		
			<line id="線_3_00000058549992240599301040000013376596583956879489_" style="&st4;" x1="254.7" y1="138.4" x2="297.2" y2="138.4"/>
		<line id="線_4_00000086690002226271450480000005047161005003812530_" style="&st4;" x1="254.7" y1="150" x2="297.2" y2="150"/>
		
			<line id="線_5_00000119831881352403329990000009906532323653563020_" style="&st4;" x1="254.7" y1="161.5" x2="278.8" y2="161.5"/>
		<line id="線_6_00000125561095913134816220000011766059347222762686_" style="&st4;" x1="254.7" y1="173" x2="278.8" y2="173"/>
		<g id="グループ_1_00000171688433121653560770000009287245031303196585_">
			<path id="パス_2_00000098187116185405343900000017260620399245579964_" d="M296.4,164.5c0.4-0.1,0.7,0.2,0.8,0.6v0.1
				c0,0.4-0.2,0.7-0.6,0.8h-0.1h-5v0.1v2.6h5c0.4,0,0.8,0.3,0.8,0.8s-0.3,0.8-0.8,0.8h-5v3.7c0,0.5-0.3,0.9-0.8,1
				c-0.1,0-0.2,0-0.2,0c-0.7,0-1.1-0.3-1.1-1v-3.7h-5c-0.4,0-0.8-0.3-0.8-0.8s0.3-0.8,0.8-0.8h5v-2.6V166h-5c-0.4,0-0.7-0.2-0.8-0.6
				v-0.1c0-0.4,0.2-0.7,0.6-0.8c0.1,0,0.1,0,0.2,0h4l-4.1-6.4c-0.2-0.2-0.3-0.5-0.4-0.8c0-0.5,0.6-0.9,1.1-0.9
				c0.4,0,0.6,0.3,0.9,0.7l4.5,7.2l4.5-7.2c0.2-0.4,0.4-0.7,0.8-0.7c0.5,0,1.1,0.4,1.1,0.9c0,0.3-0.2,0.6-0.4,0.8l-4.1,6.4H296.4z"
				/>
		</g>
	</g>
	<g>
		<path d="M203.1,206.3H157c-2.5,0-4.5-2-4.5-4.5v-47.9c-1,0.8-1.4,0.4-2.4,1.2v47.1c0,3.8,3.1,6.9,6.9,6.9h47.5
			C204.1,208,203.8,207,203.1,206.3z"/>
		<path d="M217.9,183.6c-0.8,0-1.6,0.1-2.4,0.4v15.7c0.6,1.6,1.2,3.1,2.2,4.2c0.1-0.5,0.2-1.1,0.2-1.7V183.6z"/>
		<path d="M217.9,148.8V88.9c0-3.8-3.1-6.9-6.9-6.9h-54c-3.8,0-6.9,3.1-6.9,6.9v40c0.9,0.3,1.8,0.9,2.4,1.8V88.9
			c0-2.5,2-4.5,4.5-4.5h10.4l0.1,0.6c0,0.2,0.6,4.5,6.6,4.5h19.8c6,0,6.6-4.3,6.6-4.5l0.1-0.6h0.6h9.8c2.5,0,4.5,2,4.5,4.5V150
			C216.1,149.3,217,149,217.9,148.8z"/>
	</g>
	<g>
		<path style="&st5;" d="M118,240.5c0,0,6.1-15.4,10.9-22c4.8-6.6,4.8-5.6,3.5-20.7c-1.3-15.1-0.9-15.7,0.7-20.1
			c1.6-4.4,4.3-15.7,3.8-20s0.5-6.4,2.3-9.1c1.8-2.8,4.5-10.1,5.6-16.4c1-6.3,8.6-5.6,10.1,3.5s0,13.4-3.3,19.4"/>
		<path style="&st5;" d="M202,207.7c0,0-8.3,14.9-23.2,22.2s-21,15.9-25.2,28.5"/>
		<path style="&st5;" d="M219.4,238.6c0,0-1.4-8.1-3.9-11.9c-2.5-3.8-14.1-21.8-14.8-23.8s-8.8-15.3-8.8-15.3s-3.7-6.5,1.7-9.8
			s11.8,8.6,12.6,9.8s20.2,27.9,21.5,29.1s3.2,4.1,5,5.1"/>
		<path style="&st5;" d="M219,205.1c0,0-0.9-3.2,2.7-4.9c3.7-1.8,6.7-0.3,10.1,3.8c3.4,4,11.9,14.1,11.9,14.1"/>
		<path style="&st5;" d="M234.7,207.3c0,0,0.2-5.8,5.1-6.1c4.9-0.4,6.1,2.2,11.2,7.6c5.1,5.4,5.7,6.4,5.7,6.4"/>
		<path style="&st5;" d="M247.3,204.7c0,0,0.2-2.2,5.2-2.9c4.9-0.6,10.7,6.6,13.4,9.3c2.7,2.7,9.8,9.4,11,19.1
			c1.3,10.4,1.4,18.9,7.7,26.6"/>
		<path style="&st5;" d="M213.4,223.6c0,0-3.7,2.8-4.5,6.6s-1.2,7.5,1.6,13s8.7,16.2,13.7,18.5c5,2.4,6.6,3.5,16.3,5.2
			s13.6,8.4,13.6,8.4"/>
		<path style="&st5;" d="M217.3,117.8c0,0,3.8-3.2,6.7-1c2.9,2.1,4.2,8.6-6.1,18.7"/>
		<path style="&st5;" d="M210.8,155.6c0,0-4,6.3,0,10s8.7-0.2,10-1c1.3-0.9,6.6-4.7,5.3-10.6s-8.1-5.4-9.6-4.4
			C212.8,152,211.5,154.3,210.8,155.6z"/>
		<path style="&st5;" d="M211.2,173c0,0-4.8,5-1.8,9.2c3.1,4.2,8.1,1.4,9.4,0.8c1.3-0.6,7-3.2,6.8-8.8c-0.2-5.7-6.5-6.4-8.1-5.7
			C213.7,170.1,212.1,172,211.2,173z"/>
	</g>
</g>
</svg>
