<svg xmlns="http://www.w3.org/2000/svg" viewBox="0 0 147.5 256" width="148" height="256"><defs><style>.cls-1{fill:#fafafa;}</style></defs><path class="cls-1" d="M128.75,0h-110A18.77,18.77,0,0,0,0,18.75v218.5A18.77,18.77,0,0,0,18.75,256h110a18.77,18.77,0,0,0,18.75-18.75V18.75A18.77,18.77,0,0,0,128.75,0ZM140,203.5H33.75a3.75,3.75,0,0,0,0,7.5H140v26.25a11.27,11.27,0,0,1-11.25,11.25h-110A11.27,11.27,0,0,1,7.5,237.25V211H18.75a3.75,3.75,0,0,0,0-7.5H7.5V37.5H140ZM140,30H7.5V18.75A11.27,11.27,0,0,1,18.75,7.5h110A11.27,11.27,0,0,1,140,18.75Z"/><path class="cls-1" d="M88.75,15h-15a3.75,3.75,0,0,0,0,7.5h15a3.75,3.75,0,0,0,0-7.5Z"/><path class="cls-1" d="M73.75,218.5A11.25,11.25,0,1,0,85,229.75,11.27,11.27,0,0,0,73.75,218.5Zm0,15a3.75,3.75,0,1,1,3.75-3.75A3.75,3.75,0,0,1,73.75,233.5Z"/><circle class="cls-1" cx="58.75" cy="18.75" r="3.75"/><path class="cls-1" d="M77.17,141a3.4,3.4,0,0,1-3.41-3.41V82.17a3.41,3.41,0,0,1,6.81,0V137.6A3.4,3.4,0,0,1,77.17,141Z"/><path class="cls-1" d="M77.55,163.65a3.39,3.39,0,0,1-2.49-1.08L45,130.32a3.4,3.4,0,1,1,5-4.64l27.56,29.54,26.84-29.51a3.41,3.41,0,1,1,5,4.58L80.07,162.54a3.44,3.44,0,0,1-2.5,1.11Z"/></svg>