<svg xmlns="http://www.w3.org/2000/svg" viewBox="0 0 256 240.78" width="256" height="241"><defs><style>.cls-1{fill:#444;}</style></defs><path class="cls-1" d="M89.35,225.23H31.81a18.45,18.45,0,0,1-18.27-18.58V99.85c0-18.27,14.6-33.14,32.53-33.14H105a32.78,32.78,0,0,1,31.87,26.48L129,94.77a24.73,24.73,0,0,0-24-20H46.07c-13.51,0-24.5,11.27-24.5,25.12v106.8A10.41,10.41,0,0,0,31.81,217.2H89.35Z"/><path class="cls-1" d="M86.78,170.05H48.44c-6.87,0-12.45-5.33-12.45-11.87V133.75c0-6.54,5.58-11.86,12.45-11.86H86.78v8H48.44c-2.44,0-4.43,1.72-4.43,3.83v24.43c0,2.12,2,3.84,4.43,3.84H86.78Z"/><path class="cls-1" d="M98.32,74.73H53.17a4,4,0,0,1-4-4V63.2a13.06,13.06,0,0,1,13-13.05H89.29a13.07,13.07,0,0,1,13,13.05v7.52A4,4,0,0,1,98.32,74.73Zm-41.13-8H94.31V63.2a5,5,0,0,0-5-5H62.2a5,5,0,0,0-5,5Z"/><rect class="cls-1" x="17.56" y="108.34" width="69.23" height="8.03"/><rect class="cls-1" x="17.56" y="175.52" width="69.23" height="8.03"/><rect class="cls-1" x="62.71" y="21.56" width="8.03" height="33.11"/><rect class="cls-1" x="80.37" y="21.56" width="8.03" height="32.92"/><path class="cls-1" d="M12,37.11a4,4,0,0,1-3-1.35l-8-9A4,4,0,0,1,2,20.63L32.05,2.57a3.23,3.23,0,0,1,.49-.25C33.1,2.08,38.11,0,42.48,0H74.91a4,4,0,0,1,0,8H42.48A21.63,21.63,0,0,0,35.92,9.6L10.23,25l3,3.43L45,17.79a4,4,0,0,1,1.28-.21h54.07c3,0,3-4.5,3-4.55,0-5-1.67-5-3-5H91.7a4,4,0,0,1,0-8h8.63c10.24,0,11,10,11,13,0,9.22-6.6,12.57-11,12.57H46.92L13.32,36.9A4,4,0,0,1,12,37.11Z"/><path class="cls-1" d="M151.5,152.49c-34.32,0-60.2-12.29-60.2-28.59s25.88-28.6,60.2-28.6,60.19,12.29,60.19,28.6S185.82,152.49,151.5,152.49Zm0-49.16c-30.75,0-52.17,10.84-52.17,20.57s21.42,20.56,52.17,20.56,52.17-10.84,52.17-20.56S182.24,103.33,151.5,103.33Z"/><path class="cls-1" d="M252,240.78H151.5c-34.32,0-60.2-12.29-60.2-28.59h8c0,9.72,21.42,20.56,52.17,20.56H248V153h-85.5v-8H252a4,4,0,0,1,4,4v87.79A4,4,0,0,1,252,240.78Z"/><path class="cls-1" d="M151.5,135.43c-11.6,0-24.08-3.61-24.08-11.53s12.48-11.54,24.08-11.54,24.08,3.61,24.08,11.54S163.09,135.43,151.5,135.43ZM135.73,123.9c1.5,1.29,6.9,3.51,15.77,3.51s14.27-2.22,15.77-3.51c-1.5-1.3-6.91-3.52-15.77-3.52S137.23,122.6,135.73,123.9Z"/><rect class="cls-1" x="91.3" y="123.9" width="8.03" height="88.77"/><rect class="cls-1" x="203.67" y="123.9" width="8.03" height="25.08"/><path class="cls-1" d="M162.47,181a4,4,0,0,1-4-4v-8a4,4,0,0,1,8,0v8A4,4,0,0,1,162.47,181Z"/><path class="cls-1" d="M162.47,161a4,4,0,0,1-4-4v-8a4,4,0,0,1,8,0v8A4,4,0,0,1,162.47,161Z"/><path class="cls-1" d="M162.47,201.08a4,4,0,0,1-4-4v-8a4,4,0,0,1,8,0v8A4,4,0,0,1,162.47,201.08Z"/><path class="cls-1" d="M162.47,221.15a4,4,0,0,1-4-4v-8a4,4,0,0,1,8,0v8A4,4,0,0,1,162.47,221.15Z"/><path class="cls-1" d="M162.47,240.21a4,4,0,0,1-4-4v-8a4,4,0,0,1,8,0v8A4,4,0,0,1,162.47,240.21Z"/></svg>