<?xml version="1.0" encoding="utf-8"?>
<!-- Generator: Adobe Illustrator 26.5.0, SVG Export Plug-In . SVG Version: 6.00 Build 0)  -->
<svg version="1.1" id="レイヤー_1" xmlns="http://www.w3.org/2000/svg" xmlns:xlink="http://www.w3.org/1999/xlink" x="0px"
	 y="0px" viewBox="0 0 256 256" enable-background="new 0 0 256 256" xml:space="preserve">
<g>
	<defs>
		<rect id="SVGID_1_" x="0" width="256" height="256"/>
	</defs>
	<clipPath id="SVGID_00000000195535678272819080000017901831486026348951_">
		<use xlink:href="#SVGID_1_"  overflow="visible"/>
	</clipPath>
	<g clip-path="url(#SVGID_00000000195535678272819080000017901831486026348951_)">
		<path fill="#F7ED42" d="M256.2,0H0v256.2h256.2V0z"/>
		<path fill="#FFFFFF" d="M229.1,130.6c0.7-2,0.4-4.1-0.8-5.8c-1.2-1.7-3.2-2.7-5.2-2.7c0,0-8.3,0-16.8,0l11.9-34.4
			c0.7-2,0.4-4.1-0.8-5.8c-1.2-1.7-3.2-2.7-5.2-2.7h-39c-2.7,0-5.2,1.7-6.1,4.3l-0.1,0.3h-3.7l3.7-10.9c0.7-2,0.4-4.1-0.8-5.8
			c-1.2-1.7-3.2-2.7-5.2-2.7h-11.6c-2.7,0-5.2,1.7-6.1,4.3l-5.2,15.1h-5.5c-0.2-0.6-0.5-1.2-0.9-1.8c-1.2-1.7-3.2-2.7-5.2-2.7h-11.6
			c-2.7,0-5.2,1.7-6.1,4.3l-3.2,9.2l-0.9-7.8c-0.4-3.3-3.1-5.7-6.4-5.7h-7.7c-0.5,0-0.9,0-1.4,0.1c0,0-0.1,0-0.1,0l5.4-8.2
			c1.5-2.2,1.4-5.1-0.1-7.3C93,62.1,91,61.1,89,61.1c-0.5,0-1.1,0.1-1.6,0.2L25.2,77.3c-2.8,0.7-4.8,3.3-4.8,6.2v19.6
			c0,2.2,1.1,4.3,3,5.5c1,0.6,2.2,1,3.4,1c1,0,1.9-0.2,2.8-0.7l6.8-3.3l7,17.3c1,2.4,3.3,4,6,4h14.5l3.5,8.6H52.9
			c-2.7,0-5.2,1.7-6.1,4.3L36.3,170l-1.5,4.5c-0.7,2-0.4,4.1,0.8,5.8c1.2,1.7,3.2,2.7,5.2,2.7h82.2c1.1,0,2.1-0.3,3-0.7l-2.4,7
			c-0.7,2-0.4,4.1,0.8,5.8c1.2,1.7,3.2,2.7,5.2,2.7h11.6c2.7,0,5.2-1.7,6.1-4.3l3.9-11.3c1,0.5,2,0.8,3.2,0.8h11.6
			c2.7,0,5.2-1.7,6.1-4.3l7.8-22.6h17.8l-6.3,18.4c-0.7,2-0.4,4.1,0.8,5.8c1.2,1.7,3.2,2.7,5.2,2.7h11.6c2.7,0,5.2-1.7,6.1-4.3
			l12-34.8c0.7-1.9,0.4-4-0.7-5.6c0,0,0,0,0-0.1L229.1,130.6L229.1,130.6z"/>
		<path d="M52.3,141.8l-2.7,7.9H77l-6.6,19.1H43l-2.7,7.9h39l12-34.8H52.3z"/>
		<path d="M95.5,141.8l-2.7,7.9h27.4l-6.6,19.1H86.2l-2.7,7.9h39l12-34.8H95.5z"/>
		<path d="M178.8,149.7h27.4l-9.3,26.9h11.6l12-34.8h-39L178.8,149.7z"/>
		<path d="M222.4,128.5l-35,0l-2.6,7.7l35,0L222.4,128.5z"/>
		<path d="M163,127h-11.6l-5.1,14.8h-7.7l-2.7,7.9h7.7l-14.4,41.7h11.6l14.4-41.7h8l-9.3,26.9h11.6l12-34.8h-19.6L163,127z"/>
		<path d="M89,67.6L26.8,83.5v19.6l45.5-22.4l-16.9,25.2l-1.8-4.3H41.8l7.7,18.8h11.9l-2.7-6.7L89,67.6z"/>
		<path d="M114.9,85.5l-17.1,49.6h11.6l17.1-49.6H114.9z"/>
		<path d="M80.2,85.5l3.9,34.8h7.7l-3.9-34.8H80.2z"/>
		<path d="M98.4,85.5h-7.7l3.9,34.8h7.7L98.4,85.5z"/>
		<path d="M211.3,87.9l0.9-2.5h-39l-2.7,7.9h27.4l-1.9,5.6h-26.4l-2.7,7.9h26.4l-1.9,5.6H164l-2.7,7.9h39l1-2.9L211.3,87.9z"/>
		<path d="M162.4,107.4h-14.1l3.3-9.6h14.1l2.7-7.9h-14.1l6.7-19.4h-11.6L142.7,90h-14.1l-2.7,7.9H140l-3.3,9.6h-14.1l-2.7,7.9H134
			l-6.8,19.7h11.6l6.8-19.7h14.1L162.4,107.4z"/>
	</g>
</g>
</svg>
