<?xml version="1.0" encoding="utf-8"?>
<!-- Generator: Adobe Illustrator 28.2.0, SVG Export Plug-In . SVG Version: 6.00 Build 0)  -->
<svg version="1.1" id="レイヤー_1" xmlns="http://www.w3.org/2000/svg" xmlns:xlink="http://www.w3.org/1999/xlink" x="0px"
	 y="0px" viewBox="0 0 256 204" enable-background="new 0 0 256 204" xml:space="preserve">
<g>
	<path fill="#FFFFFF" d="M73.2,203.9H3c-1.7,0-3-1.3-3-3v-70c0-1.7,1.3-3,3-3h70.2c6.3,0,11.4,5.1,11.4,11.4v53.2
		C84.6,198.8,79.5,203.9,73.2,203.9z M6.1,197.9h67.2c3,0,5.4-2.4,5.4-5.4v-53.2c0-3-2.4-5.4-5.4-5.4H6.1V197.9z"/>
	<path fill="#FFFFFF" d="M54.2,133.9c-1.7,0-3-1.3-3-3V14c0-7.7,6.2-13.9,13.9-13.9h124.3c7.7,0,13.9,6.2,13.9,13.9v106.8
		c0,1.7-1.3,3-3,3s-3-1.3-3-3l0,0V14c0-4.3-3.5-7.8-7.9-7.8H65.1c-4.3,0-7.8,3.5-7.9,7.8v116.9C57.3,132.6,55.9,133.9,54.2,133.9
		C54.3,133.9,54.2,133.9,54.2,133.9z"/>
	<path fill="#FFFFFF" d="M128.8,66.1c-10.9,0-19.7-8.8-19.8-19.7V3.8c0-0.1,0-0.6,0-0.7c0.1-1.6,1.4-2.9,3-3h33.4c1.6,0,3,1.3,3,2.9
		v0.7v42.6C148.4,57.2,139.6,66,128.8,66.1L128.8,66.1z M115.1,6.1v40.3c0.2,7.6,6.5,13.5,14.1,13.3c7.3-0.2,13.1-6.1,13.3-13.3V6.1
		L115.1,6.1z"/>
	<path fill="#FFFFFF" d="M182,124.8h-33.4c-1.7,0-3-1.3-3-3l0,0v-18.3c0-1.7,1.3-3,3-3H182c1.7,0,3,1.3,3,3v18.2
		C185,123.4,183.7,124.8,182,124.8C182,124.8,182,124.8,182,124.8z M151.6,118.8H179v-12.2h-27.4L151.6,118.8z"/>
	<path fill="#FFFFFF" d="M183.1,142.3h-37.8c-1.1,0-2.1-0.6-2.6-1.5c-0.1-0.2-4.3-6.9-17.1-6.9c-13,0-17.9,6.8-18.1,7.1
		c-0.6,0.8-1.5,1.3-2.5,1.3H82.7c-1.7,0-3-1.4-3-3s1.4-3,3-3h20.8c2.4-2.7,9.2-8.4,22-8.4c12.7,0,19,5.6,21.3,8.4h36.3
		c1.7,0,3,1.4,3,3S184.8,142.3,183.1,142.3L183.1,142.3z"/>
	<path fill="#FFFFFF" d="M185.7,169.8h-55.3c-1.7,0-3-1.4-3-3s1.4-3,3-3h55.3c5.9,0,10.7-4.8,10.7-10.7s-4.8-10.7-10.7-10.7h-39.6
		c-1.7,0-3-1.4-3-3s1.4-3,3-3h39.6c9.2,0,16.7,7.5,16.7,16.7S195,169.8,185.7,169.8z"/>
	<path fill="#FFFFFF" d="M190.8,195.6c-1.1,0-2.1,0-3.2-0.2h-106c-1.7,0-3-1.3-3-3s1.3-3,3-3H188c11.7,0.8,23.2-3.6,31.4-12
		l27.4-27.4c0-0.1,7.3-10.9-0.1-19.1c-3.3-3.7-6.6-5.6-10-5.6c-4.2-0.1-7.7,2.5-9.9,4.7c-5.9,5.9-11.2,12-11.3,12
		c-1.1,1.3-3,1.4-4.3,0.3s-1.4-3-0.3-4.3c0.2-0.2,5.4-6.2,11.5-12.3c4.4-4.4,9.4-6.8,14.4-6.5s10,2.7,14.4,7.7
		c8.5,9.5,3.9,21.8,0.2,27l-27.8,27.8C215,190.5,203.2,195.5,190.8,195.6L190.8,195.6z"/>
	<path fill="#FFFFFF" d="M60.3,152.2c-1.7,0-3-1.3-3-3v-18.3c0-1.7,1.4-3,3-3c1.7,0,3,1.4,3,3v18.3C63.4,150.8,62,152.2,60.3,152.2
		C60.4,152.2,60.3,152.2,60.3,152.2z"/>
	<path fill="#FFFFFF" d="M60.3,203.9c-1.7,0-3-1.3-3-3v-36.5c0-1.7,1.4-3,3-3c1.7,0,3,1.4,3,3v36.5
		C63.4,202.5,62.1,203.9,60.3,203.9C60.4,203.9,60.3,203.9,60.3,203.9L60.3,203.9z"/>
</g>
</svg>
