<svg xmlns="http://www.w3.org/2000/svg" viewBox="0 0 147.46 250" width="148" height="256"><defs><style>.cls-1{fill:#fafafa;}</style></defs><path class="cls-1" d="M5.14,47.5A67.62,67.62,0,0,1,20.41,22.12,70.3,70.3,0,0,1,44.93,5.83Q59.33,0,77.85,0a82.52,82.52,0,0,1,26.92,4.29A67.23,67.23,0,0,1,126.89,16.8,59.14,59.14,0,0,1,142,36.69q5.47,11.67,5.48,26.75,0,19.22-8.4,32.58a133.43,133.43,0,0,1-21.43,25.72q-10.63,10.64-17,16.63a47.13,47.13,0,0,0-9.43,11.84,40.79,40.79,0,0,0-4.11,14.23q-1,8.4-1.38,24.17H64.13q-.34-15.77,1.71-26.4A67.12,67.12,0,0,1,72.53,143a73.88,73.88,0,0,1,12.35-16.46q7.71-7.87,18.69-17.83a85.45,85.45,0,0,0,15.94-19.89,47.75,47.75,0,0,0,6.35-24.35,44.58,44.58,0,0,0-4-18.86A44.07,44.07,0,0,0,111.28,31a50.12,50.12,0,0,0-15.6-9.44,52.23,52.23,0,0,0-18.86-3.43A58.56,58.56,0,0,0,52.47,23,47.24,47.24,0,0,0,35,36.18,56.6,56.6,0,0,0,24.69,55.9,77.67,77.67,0,0,0,21.6,80.59H0A100.94,100.94,0,0,1,5.14,47.5ZM89.51,213.65V250H60.7V213.65Z"/></svg>