<svg xmlns="http://www.w3.org/2000/svg" viewBox="0 0 256 256" width="256" height="256"><defs><style>.cls-1{fill:#fff;}</style></defs><path d="M128,251a123,123,0,1,1,102.79-55.47l-1.41,2.14,11.26,29.42L213,217l-2.24,2A122.68,122.68,0,0,1,128,251Z"/><path class="cls-1" d="M128,10a118,118,0,0,1,98.61,182.78l-2.82,4.28,1.84,4.79,6.42,16.77-14.5-5.31-5.69-2.08-4.48,4.08A118,118,0,1,1,128,10m0-10a128,128,0,1,0,86.11,222.7l35.13,12.87L235,198.28A128,128,0,0,0,128,0Z"/><path class="cls-1" d="M95.57,91.35a32,32,0,0,1,7.21-12,33.41,33.41,0,0,1,11.6-7.7A41.18,41.18,0,0,1,130,68.89a39.09,39.09,0,0,1,12.73,2,31.63,31.63,0,0,1,10.46,5.92,27.93,27.93,0,0,1,7.13,9.4,29.42,29.42,0,0,1,2.59,12.65q0,9.09-4,15.41a63.49,63.49,0,0,1-10.13,12.16q-5,5-8,7.86a22.27,22.27,0,0,0-4.46,5.6,19.56,19.56,0,0,0-2,6.73q-.48,4-.64,11.43H123.46a60.17,60.17,0,0,1,.81-12.49,31.75,31.75,0,0,1,3.16-9.08,35.11,35.11,0,0,1,5.84-7.78q3.64-3.73,8.84-8.43a40.53,40.53,0,0,0,7.54-9.41,22.59,22.59,0,0,0,3-11.51,21.14,21.14,0,0,0-1.87-8.92,20.88,20.88,0,0,0-5-6.89,23.68,23.68,0,0,0-7.38-4.46,24.67,24.67,0,0,0-8.92-1.62A27.56,27.56,0,0,0,118,79.76,22.21,22.21,0,0,0,109.68,86a26.81,26.81,0,0,0-4.87,9.32A36.81,36.81,0,0,0,103.35,107H93.14A47.8,47.8,0,0,1,95.57,91.35Zm39.89,78.57v17.19H121.84V169.92Z"/></svg>