<svg xmlns="http://www.w3.org/2000/svg" viewBox="0 0 256 203.82" width="256" height="204"><defs><style>.cls-1{fill:#050505;}</style></defs><path class="cls-1" d="M73.21,203.82H3a3,3,0,0,1-3-3v-70a3,3,0,0,1,3-3H73.21a11.44,11.44,0,0,1,11.43,11.42v53.18A11.45,11.45,0,0,1,73.21,203.82ZM6.06,197.76H73.21a5.37,5.37,0,0,0,5.37-5.37V139.21a5.38,5.38,0,0,0-5.37-5.37H6.06Z"/><path class="cls-1" d="M54.22,133.84a3,3,0,0,1-3-3V13.91A13.93,13.93,0,0,1,65.11,0H189.38a13.93,13.93,0,0,1,13.91,13.91V120.67a3,3,0,0,1-6,0V13.91a7.87,7.87,0,0,0-7.86-7.85H65.11a7.87,7.87,0,0,0-7.86,7.85v116.9A3,3,0,0,1,54.22,133.84Z"/><path class="cls-1" d="M128.77,66A19.78,19.78,0,0,1,109,46.27V3.67c0-.08,0-.58,0-.65a3.24,3.24,0,0,1,3-3h33.4a3,3,0,0,1,3,2.94l0,.73v42.6A19.77,19.77,0,0,1,128.77,66Zm-13.7-60V46.27a13.71,13.71,0,0,0,27.41,0V6.06Z"/><path class="cls-1" d="M182,124.71H148.55a3,3,0,0,1-3-3V103.43a3,3,0,0,1,3-3H182a3,3,0,0,1,3,3v18.25A3,3,0,0,1,182,124.71Zm-30.44-6H179v-12.2H151.57Z"/><path class="cls-1" d="M183.13,142.24H145.31a3,3,0,0,1-2.63-1.53c-.15-.25-4.29-6.87-17.12-6.87-13,0-17.93,6.79-18.13,7.08a3.09,3.09,0,0,1-2.49,1.32H82.73a3,3,0,0,1,0-6.06h20.79c2.45-2.68,9.2-8.39,22-8.39,12.69,0,18.95,5.6,21.28,8.39h36.29a3,3,0,0,1,0,6.06Z"/><path class="cls-1" d="M185.74,169.66h-55.3a3,3,0,0,1,0-6.06h55.3a10.66,10.66,0,1,0,0-21.32H146.19a3,3,0,0,1,0-6.06h39.55a16.72,16.72,0,0,1,0,33.44Z"/><path class="cls-1" d="M190.81,195.56a27.73,27.73,0,0,1-3.18-.16l-106,0a3,3,0,1,1,0-6H188a40.1,40.1,0,0,0,31.41-12L246.81,150c0-.05,7.27-10.88-.12-19.12-3.27-3.66-6.65-5.55-10-5.64-4.19-.13-7.68,2.49-9.9,4.7-5.94,5.94-11.21,12-11.26,12a3,3,0,1,1-4.56-4c.22-.24,5.45-6.23,11.54-12.31,4.37-4.38,9.38-6.76,14.35-6.48s10,2.72,14.38,7.65c8.49,9.48,3.86,21.83.23,27L223.7,181.63A46.78,46.78,0,0,1,190.81,195.56Z"/><path class="cls-1" d="M60.31,152.09a3,3,0,0,1-3-3V130.81a3,3,0,0,1,6.06,0v18.26A3,3,0,0,1,60.31,152.09Z"/><path class="cls-1" d="M60.31,203.82a3,3,0,0,1-3-3V164.28a3,3,0,1,1,6.06,0v36.51A3,3,0,0,1,60.31,203.82Z"/></svg>