<svg xmlns="http://www.w3.org/2000/svg" viewBox="0 0 256 252.76" width="256" height="253"><defs><style>.cls-1{fill:#050505;}</style></defs><path class="cls-1" d="M127.41,129.65a19.26,19.26,0,1,1,19.26-19.26A19.28,19.28,0,0,1,127.41,129.65Zm0-32a12.72,12.72,0,1,0,12.72,12.71A12.72,12.72,0,0,0,127.41,97.68Z"/><path class="cls-1" d="M127.53,204.8A94.46,94.46,0,0,1,40.14,74.61a3.29,3.29,0,0,1,4.27-1.79,3.25,3.25,0,0,1,1.79,4.26,88,88,0,1,0,8.09-15.24,3.27,3.27,0,1,1-5.45-3.62A94.41,94.41,0,1,1,127.53,204.8Z"/><path class="cls-1" d="M127.53,220.79A110.34,110.34,0,1,1,235,135.88a3.27,3.27,0,1,1-6.36-1.5,103.87,103.87,0,1,0-101.07,79.86,103.66,103.66,0,0,0,95.81-63.71,3.27,3.27,0,0,1,6,2.53A110.18,110.18,0,0,1,127.53,220.79Z"/><path class="cls-1" d="M243.14,71.6a3.28,3.28,0,0,1-3.08-2.15A120.27,120.27,0,0,0,207.9,21.67a3.27,3.27,0,1,1,4.4-4.84,126.85,126.85,0,0,1,33.91,50.38,3.27,3.27,0,0,1-2,4.19A3.1,3.1,0,0,1,243.14,71.6Z"/><path class="cls-1" d="M46,205.69a3.29,3.29,0,0,1-2.18-.82A126.86,126.86,0,0,1,9.52,155.16a3.27,3.27,0,0,1,6.12-2.33A120.23,120.23,0,0,0,48.21,200a3.27,3.27,0,0,1,.27,4.62A3.24,3.24,0,0,1,46,205.69Z"/><path class="cls-1" d="M252.73,52.89a3.25,3.25,0,0,1-2.94-1.84A136.3,136.3,0,0,0,230.18,21.4a3.28,3.28,0,0,1,4.95-4.3,143,143,0,0,1,20.54,31.09,3.27,3.27,0,0,1-1.51,4.37A3.18,3.18,0,0,1,252.73,52.89Z"/><path class="cls-1" d="M23.26,205.69a3.27,3.27,0,0,1-2.45-1.11A142.82,142.82,0,0,1,.35,174.37a3.27,3.27,0,1,1,5.84-2.94,136.33,136.33,0,0,0,19.53,28.82,3.28,3.28,0,0,1-.29,4.62A3.25,3.25,0,0,1,23.26,205.69Z"/><path class="cls-1" d="M127.41,116.86a6.47,6.47,0,1,1,6.47-6.47A6.47,6.47,0,0,1,127.41,116.86Zm0-6.55.08.08A.09.09,0,0,0,127.41,110.31Z"/><path class="cls-1" d="M116.22,64.1A16.06,16.06,0,1,1,132.28,48,16.08,16.08,0,0,1,116.22,64.1Zm0-25.58A9.52,9.52,0,1,0,125.73,48,9.53,9.53,0,0,0,116.22,38.52Z"/><path class="cls-1" d="M189.76,105.67a16.07,16.07,0,1,1,16.07-16.06A16.08,16.08,0,0,1,189.76,105.67Zm0-25.58a9.52,9.52,0,1,0,9.52,9.52A9.52,9.52,0,0,0,189.76,80.09Z"/><path class="cls-1" d="M189.76,144A16.06,16.06,0,1,1,205.83,128,16.07,16.07,0,0,1,189.76,144Zm0-25.58a9.52,9.52,0,1,0,9.52,9.52A9.52,9.52,0,0,0,189.76,118.46Z"/><path class="cls-1" d="M71.45,131.25a16.07,16.07,0,1,1,16.06-16.06A16.07,16.07,0,0,1,71.45,131.25Zm0-25.58A9.52,9.52,0,1,0,81,115.19,9.53,9.53,0,0,0,71.45,105.67Z"/><path class="cls-1" d="M109.83,195.2a16.06,16.06,0,1,1,16.06-16.06A16.08,16.08,0,0,1,109.83,195.2Zm0-25.58a9.52,9.52,0,1,0,9.51,9.52A9.53,9.53,0,0,0,109.83,169.62Z"/><path class="cls-1" d="M141.8,195.2a16.06,16.06,0,1,1,16.06-16.06A16.08,16.08,0,0,1,141.8,195.2Zm0-25.58a9.52,9.52,0,1,0,9.52,9.52A9.53,9.53,0,0,0,141.8,169.62Z"/><path class="cls-1" d="M115.87,102.25a3.25,3.25,0,0,1-2.3-.94L60.15,48.44a3.27,3.27,0,1,1,4.61-4.65l53.41,52.87a3.27,3.27,0,0,1-2.3,5.59Z"/><path class="cls-1" d="M139.2,102.25a3.27,3.27,0,0,1-2.3-5.59l53.41-52.87a3.27,3.27,0,0,1,4.6,4.65L141.5,101.31A3.26,3.26,0,0,1,139.2,102.25Z"/><path class="cls-1" d="M225.47,252.76H29.59a6.06,6.06,0,0,1-6.06-6.06V236.28a6.06,6.06,0,0,1,6.06-6.05H225.47a6.06,6.06,0,0,1,6.06,6.05V246.7A6.06,6.06,0,0,1,225.47,252.76ZM30.08,246.22H225v-9.45H30.08Z"/><path class="cls-1" d="M52.51,236.77a3.2,3.2,0,0,1-1.55-.4A3.25,3.25,0,0,1,49.63,232L110.14,120a3.27,3.27,0,1,1,5.75,3.1L55.39,235.05A3.26,3.26,0,0,1,52.51,236.77Z"/><path class="cls-1" d="M202.55,236.77a3.26,3.26,0,0,1-2.88-1.72l-60.5-111.92a3.27,3.27,0,1,1,5.75-3.1L205.43,232a3.25,3.25,0,0,1-1.33,4.42A3.2,3.2,0,0,1,202.55,236.77Z"/></svg>