<svg xmlns="http://www.w3.org/2000/svg" viewBox="0 0 196.29 256" width="197" height="256"><defs><style>.cls-1{fill:#050505;}</style></defs><path class="cls-1" d="M17.55,10.85C0,22.26-3.5,57.92,3.14,87a262.79,262.79,0,0,0,34.71,81.58c17.45,26.9,41.78,51,60.34,65,23.83,17.91,57.8,29.3,75.39,17.89,8.89-5.77,22.1-21.53,22.71-24.36l-9.45-14.57-26-40.06c-1.93-3-14-.26-20.19,3.23-8.3,4.7-15.94,17.31-15.94,17.31-5.69,3.29-10.46,0-20.42-4.57-12.23-5.63-26-23.12-36.95-39C57.35,133,47,113.27,46.84,99.8c-.12-11-1.17-16.65,4.15-20.51,0,0,14.64-1.83,22.31-7.49C79,67.61,86.42,57.66,84.49,54.68l-26-40.07L49.05,0C46.22-.56,26.44,5.08,17.55,10.85Z"/></svg>