<svg xmlns="http://www.w3.org/2000/svg" viewBox="0 0 215.43 256" width="216" height="256"><defs><style>.cls-1{fill:#050505;}</style></defs><path class="cls-1" d="M143,188.12H73.6a3.45,3.45,0,1,0,0,6.9H143a3.45,3.45,0,1,0,0-6.9Z"/><path class="cls-1" d="M139.56,204.55H77a3.45,3.45,0,0,0,0,6.9h62.57a3.45,3.45,0,0,0,0-6.9Z"/><path class="cls-1" d="M136.17,221H80.38a3.45,3.45,0,1,0,0,6.9h55.79a3.45,3.45,0,0,0,0-6.9Z"/><path class="cls-1" d="M108.27,256a18.87,18.87,0,0,0,18.87-18.87H89.41A18.86,18.86,0,0,0,108.27,256Z"/><path class="cls-1" d="M110.08,42.85c-18.3-.5-35.18,5.86-47.57,17.92a59.51,59.51,0,0,0-18,43.09,63.64,63.64,0,0,0,9.14,32.91A147.23,147.23,0,0,1,70.3,175.56l.9,3.47h7.1a2.14,2.14,0,0,0-.06-.35L77,173.82a153.93,153.93,0,0,0-17.4-40.62,56.75,56.75,0,0,1-8.15-29.34A52.66,52.66,0,0,1,67.32,65.72C78.37,55,93.48,49.3,109.89,49.75c31.45.87,55.19,24.1,55.22,54a56.65,56.65,0,0,1-7.94,29.06,164.54,164.54,0,0,0-18,42.35l-.91,3.48a2.11,2.11,0,0,0-.05.35h7.1l.54-2.09a157.37,157.37,0,0,1,17.22-40.56,63.75,63.75,0,0,0,8.91-32.6C172,70,145.35,43.83,110.08,42.85Z"/><path class="cls-1" d="M86.38,106.48a11.14,11.14,0,1,0,0,22.27h6.78l2,50.28h4.61l-2-50.28h21l-2,50.28h4.6l2-50.28h6.78A11.14,11.14,0,1,0,119,117.62v6.53H97.52v-6.53A11.15,11.15,0,0,0,86.38,106.48Zm6.54,17.67H86.38a6.54,6.54,0,1,1,6.54-6.53Zm30.71-6.53a6.54,6.54,0,1,1,6.54,6.53h-6.54Z"/><path class="cls-1" d="M107.72,29.72a2.88,2.88,0,0,0,2.87-2.88v-24a2.88,2.88,0,1,0-5.75,0v24A2.88,2.88,0,0,0,107.72,29.72Z"/><path class="cls-1" d="M64.79,39.12a2.88,2.88,0,0,0,5-2.88l-12-20.76a2.88,2.88,0,0,0-5,2.88Z"/><path class="cls-1" d="M39.12,64.79l-20.76-12a2.88,2.88,0,1,0-2.88,5l20.76,12a2.88,2.88,0,1,0,2.88-5Z"/><path class="cls-1" d="M29.72,107.72a2.88,2.88,0,0,0-2.88-2.88h-24a2.88,2.88,0,1,0,0,5.75h24A2.88,2.88,0,0,0,29.72,107.72Z"/><path class="cls-1" d="M36.24,145.66l-20.76,12a2.88,2.88,0,0,0,2.88,5l20.76-12a2.88,2.88,0,1,0-2.88-5Z"/><path class="cls-1" d="M200,157.64l-20.76-12a2.88,2.88,0,0,0-2.88,5l20.76,12a2.88,2.88,0,0,0,2.88-5Z"/><path class="cls-1" d="M212.56,104.84h-24a2.88,2.88,0,1,0,0,5.75h24a2.88,2.88,0,0,0,0-5.75Z"/><path class="cls-1" d="M177.75,70.16a2.89,2.89,0,0,0,1.44-.39l20.76-12a2.88,2.88,0,1,0-2.88-5l-20.76,12a2.88,2.88,0,0,0,1.44,5.37Z"/><path class="cls-1" d="M146.71,40.17a2.91,2.91,0,0,0,1.44.39,2.88,2.88,0,0,0,2.49-1.44l12-20.76a2.88,2.88,0,0,0-5-2.88l-12,20.76A2.88,2.88,0,0,0,146.71,40.17Z"/></svg>