<svg xmlns="http://www.w3.org/2000/svg" viewBox="0 0 256 178.1" width="256" height="179"><defs><style>.cls-1{fill:#050505;}</style></defs><path class="cls-1" d="M19.87,0A19.89,19.89,0,0,0,0,19.87V158.24A19.89,19.89,0,0,0,19.87,178.1H236.13A19.89,19.89,0,0,0,256,158.24V19.87A19.89,19.89,0,0,0,236.13,0ZM240.65,169.12H15.35L89.52,95.43l13.56,13.48a35.22,35.22,0,0,0,49.82,0l13.58-13.5Zm6.37-6.33-74.17-73.7L247,15.32Zm-238,0V15.32L83.15,89.09Zm119-52.53a26.15,26.15,0,0,1-18.58-7.7L15.35,9h225.3l-94.09,93.6A26.07,26.07,0,0,1,128,110.26Z"/></svg>