<?xml version="1.0" encoding="utf-8"?>
<!-- Generator: Adobe Illustrator 28.2.0, SVG Export Plug-In . SVG Version: 6.00 Build 0)  -->
<svg version="1.1" id="レイヤー_1" xmlns="http://www.w3.org/2000/svg" xmlns:xlink="http://www.w3.org/1999/xlink" x="0px"
	 y="0px" viewBox="0 0 256 253" enable-background="new 0 0 256 253" xml:space="preserve">
<path fill="#FFFFFF" d="M127.4,129.8c-10.6,0-19.3-8.6-19.3-19.3c0-10.6,8.6-19.3,19.3-19.3c10.6,0,19.3,8.6,19.3,19.3l0,0
	C146.7,121.1,138,129.8,127.4,129.8z M127.4,97.8c-7,0-12.7,5.7-12.7,12.7c0,7,5.7,12.7,12.7,12.7c7,0,12.7-5.7,12.7-12.7
	c0,0,0,0,0,0C140.1,103.5,134.4,97.8,127.4,97.8L127.4,97.8z"/>
<path fill="#FFFFFF" d="M127.5,204.9c-52.2,0-94.4-42.3-94.4-94.5c0-12.2,2.4-24.4,7-35.7c0.7-1.7,2.6-2.5,4.3-1.8
	c1.7,0.7,2.5,2.6,1.8,4.2c0,0,0,0,0,0c-18.5,45,3,96.4,48,114.8c45,18.5,96.4-3,114.8-48s-3-96.4-48-114.8
	C122.2,13.3,77.5,27,54.3,62c-1,1.5-3,1.9-4.5,0.9s-1.9-3-0.9-4.5l0,0C77.7,14.9,136.2,3,179.7,31.8s55.3,87.4,26.5,130.9
	C188.7,189.1,159.2,204.9,127.5,204.9z"/>
<path fill="#FFFFFF" d="M127.5,220.9c-60.9-0.1-110.3-49.5-110.2-110.4C17.3,49.5,66.8,0.2,127.7,0.2S238,49.7,238,110.7
	c0,8.5-1,17-3,25.3c-0.3,1.8-2.1,2.9-3.8,2.6c-1.8-0.3-2.9-2.1-2.6-3.8c0-0.1,0-0.2,0.1-0.3c13.3-55.8-21.2-111.8-77-125.1
	S39.8,30.7,26.5,86.5s21.2,111.8,77,125.1c7.9,1.9,15.9,2.8,24,2.8c41.9,0.1,79.7-25.1,95.8-63.7c0.9-1.6,2.8-2.2,4.4-1.3
	c1.4,0.7,2,2.4,1.6,3.9C212.2,194.3,172,221,127.5,220.9z"/>
<path fill="#FFFFFF" d="M243.1,71.7c-1.4,0-2.6-0.9-3.1-2.2c-6.7-18.3-17.7-34.7-32.2-47.8c-1.3-1.2-1.4-3.3-0.2-4.6
	s3.3-1.4,4.6-0.2l0,0c15.2,13.8,26.9,31.1,33.9,50.4c0.6,1.7-0.3,3.6-2,4.2c0,0,0,0,0,0C243.9,71.6,243.5,71.7,243.1,71.7z"/>
<path fill="#FFFFFF" d="M46,205.8c-0.8,0-1.6-0.3-2.2-0.8c-15.3-13.6-27-30.6-34.3-49.7c-0.6-1.7,0.2-3.6,1.9-4.2
	c1.7-0.6,3.6,0.2,4.2,1.9c6.9,18.1,18.1,34.3,32.6,47.2c1.4,1.2,1.5,3.3,0.3,4.6c0,0,0,0,0,0C47.8,205.4,46.9,205.8,46,205.8z"/>
<path fill="#FFFFFF" d="M252.7,53c-1.3,0-2.4-0.7-2.9-1.8c-5.2-10.7-11.8-20.7-19.6-29.6c-1.1-1.4-0.9-3.5,0.5-4.6
	c1.3-1.1,3.3-1,4.5,0.3c8.2,9.4,15.1,19.9,20.5,31.1c0.8,1.6,0.1,3.6-1.5,4.4C253.7,52.9,253.2,53,252.7,53z"/>
<path fill="#FFFFFF" d="M23.3,205.8c-0.9,0-1.8-0.4-2.5-1.1c-8.1-9.2-15-19.3-20.5-30.2c-0.8-1.6-0.2-3.6,1.3-4.4
	c1.6-0.8,3.6-0.2,4.4,1.3c0,0,0,0.1,0.1,0.1c5.3,10.4,11.8,20.1,19.5,28.8c1.2,1.4,1.1,3.4-0.3,4.6
	C24.8,205.5,24.1,205.8,23.3,205.8z"/>
<path fill="#FFFFFF" d="M127.4,117c-3.6,0-6.5-2.9-6.5-6.5s2.9-6.5,6.5-6.5c3.6,0,6.5,2.9,6.5,6.5S131,117,127.4,117L127.4,117z
	 M127.4,110.4L127.4,110.4C127.5,110.5,127.5,110.4,127.4,110.4z"/>
<path fill="#FFFFFF" d="M116.2,64.2c-8.9,0-16.1-7.2-16.1-16.1s7.2-16.1,16.1-16.1c8.9,0,16,7.2,16.1,16
	C132.3,57,125.1,64.2,116.2,64.2C116.2,64.2,116.2,64.2,116.2,64.2z M116.2,38.6c-5.3,0-9.5,4.3-9.5,9.5c0,5.3,4.3,9.5,9.5,9.5
	c5.3,0,9.5-4.3,9.5-9.5c0,0,0,0,0,0C125.7,42.9,121.5,38.7,116.2,38.6z"/>
<path fill="#FFFFFF" d="M189.8,105.8c-8.9,0-16.1-7.2-16.1-16.1s7.2-16.1,16.1-16.1s16.1,7.2,16.1,16.1c0,0,0,0,0,0
	C205.8,98.6,198.6,105.8,189.8,105.8z M189.8,80.2c-5.3,0-9.5,4.3-9.5,9.5c0,5.3,4.3,9.5,9.5,9.5c5.3,0,9.5-4.3,9.5-9.5
	S195,80.2,189.8,80.2L189.8,80.2z"/>
<path fill="#FFFFFF" d="M189.8,144.1c-8.9,0-16.1-7.2-16-16.1c0-8.9,7.2-16.1,16.1-16c8.9,0,16.1,7.2,16,16.1c0,0,0,0,0,0
	C205.8,137,198.6,144.1,189.8,144.1z M189.8,118.5c-5.3,0-9.5,4.3-9.5,9.5c0,5.3,4.3,9.5,9.5,9.5c5.3,0,9.5-4.3,9.5-9.5
	C199.3,122.8,195,118.6,189.8,118.5L189.8,118.5z"/>
<path fill="#FFFFFF" d="M71.4,131.4c-8.9,0-16.1-7.2-16.1-16.1c0-8.9,7.2-16.1,16.1-16.1s16.1,7.2,16.1,16.1c0,0,0,0,0,0
	C87.5,124.2,80.3,131.4,71.4,131.4z M71.4,105.8c-5.3,0-9.5,4.3-9.5,9.5c0,5.3,4.3,9.5,9.5,9.5c5.2,0,9.5-4.3,9.5-9.5
	C81,110,76.7,105.8,71.4,105.8C71.5,105.8,71.5,105.8,71.4,105.8z"/>
<path fill="#FFFFFF" d="M109.8,195.3c-8.9,0-16.1-7.2-16.1-16.1c0-8.9,7.2-16.1,16.1-16.1s16.1,7.2,16.1,16.1l0,0
	C125.9,188.1,118.7,195.3,109.8,195.3z M109.8,169.7c-5.3,0-9.5,4.3-9.5,9.5c0,5.3,4.3,9.5,9.5,9.5s9.5-4.3,9.5-9.5c0,0,0,0,0,0
	C119.3,174,115.1,169.8,109.8,169.7z"/>
<path fill="#FFFFFF" d="M141.8,195.3c-8.9,0-16.1-7.2-16.1-16.1c0-8.9,7.2-16.1,16.1-16.1s16.1,7.2,16.1,16.1l0,0
	C157.8,188.1,150.7,195.3,141.8,195.3z M141.8,169.7c-5.3,0-9.5,4.3-9.5,9.5c0,5.3,4.3,9.5,9.5,9.5c5.3,0,9.5-4.3,9.5-9.5
	C151.3,174,147.1,169.7,141.8,169.7z"/>
<path fill="#FFFFFF" d="M115.9,102.4c-0.9,0-1.7-0.3-2.3-0.9L60.2,48.6c-1.3-1.3-1.3-3.3,0-4.6s3.3-1.3,4.6,0l53.4,52.9
	c1.3,1.3,1.3,3.3,0,4.6C117.6,102,116.7,102.4,115.9,102.4z"/>
<path fill="#FFFFFF" d="M139.2,102.4c-1.8,0-3.3-1.5-3.3-3.3c0-0.9,0.3-1.7,1-2.3l53.4-52.9c1.3-1.3,3.4-1.3,4.6,0
	c1.3,1.3,1.3,3.4,0,4.6l0,0l-53.4,52.9C140.9,102,140.1,102.4,139.2,102.4z"/>
<path fill="#FFFFFF" d="M225.5,252.9H29.6c-3.3,0-6.1-2.7-6.1-6.1v-10.4c0-3.3,2.7-6,6.1-6h195.9c3.3,0,6.1,2.7,6.1,6v10.4
	C231.5,250.2,228.8,252.9,225.5,252.9z M30.1,246.3H225v-9.4H30.1V246.3z"/>
<path fill="#FFFFFF" d="M52.5,236.9c-0.5,0-1.1-0.1-1.5-0.4c-1.6-0.8-2.2-2.8-1.3-4.4l60.5-112c0.8-1.6,2.7-2.3,4.4-1.5
	s2.3,2.7,1.5,4.4c0,0.1-0.1,0.2-0.1,0.3l-60.5,112C54.8,236.2,53.7,236.9,52.5,236.9z"/>
<path fill="#FFFFFF" d="M202.6,236.9c-1.2,0-2.3-0.7-2.9-1.7l-60.5-111.9c-0.9-1.5-0.4-3.6,1.1-4.5c1.5-0.9,3.6-0.4,4.5,1.1
	c0.1,0.1,0.1,0.2,0.1,0.3l60.5,112c0.9,1.6,0.3,3.6-1.3,4.4c0,0,0,0,0,0C203.6,236.8,203.1,236.9,202.6,236.9z"/>
</svg>
